<svg viewBox="0 0 1024 194" xmlns="http://www.w3.org/2000/svg">
  <path fill="#0057ac" d="m596 54.9h31.4v137h-31.4zm-0.11-53.3h31.4v29.8h-31.4zm-180 121v-0.504c0-45.4 30.9-71.1 63.5-71.1 22.6 0 36.8 11.4 46.7 24.1v-73.7h31.4v189h-31.4v-22.8c-10.1 14.3-24.4 25.7-46.7 25.7-32.1 0-63.5-25.7-63.5-71.1m111 0v-0.504c0-26.5-18.7-43.8-39.7-43.8-21.5 0-39.4 16.6-39.4 43.8v0.504c0 26.5 18.1 43.8 39.4 43.8 21 0 39.7-17.7 39.7-43.8m-261 18.4v-87.1h31.4v77.8c0 21.2 10.6 33.5 29.3 33.5 18.1 0 30.9-12.7 30.9-34v-77.3h31.4v137h-31.4v-21.3c-8.83 12.9-21.5 24.1-42.8 24.1-30.9 0-48.8-20.7-48.8-52.7m-95.7 11.9v-72.1h-17.4v-27h17.4v-37.6h31.3v37.6h36.9v27h-36.8v67.2c0 12.2 6.24 17.1 16.9 17.1 6.98 0 13.2-1.58 19.5-4.68v25.6c-7.79 4.43-16.6 7.02-28.3 7.02-23 0-39.4-10.1-39.4-40.2m-91.9 39.3c-14.4 0-28.1-2.41-41.2-7.33-13.2-4.84-25.3-12.4-36.5-22.5l19.7-23.4c9.02 7.79 18.2 13.8 27.4 18 9.24 4.16 19.7 6.24 31.4 6.24 10.2 0 18.2-2.13 24.1-6.37 5.93-4.27 8.89-9.95 8.89-17.1v-0.52c0-3.37-0.583-6.34-1.72-8.92-1.18-2.55-3.29-5-6.42-7.31-3.09-2.3-7.36-4.45-12.8-6.38-5.44-1.97-12.5-3.91-21.2-5.88-9.96-2.3-18.8-4.93-26.6-7.85-7.74-2.95-14.3-6.48-19.5-10.6-5.25-4.19-9.25-9.32-12-15.3-2.77-6.04-4.16-13.3-4.16-21.8v-0.52c0-7.99 1.59-15.3 4.78-22 3.14-6.62 7.52-12.3 13.1-17 5.53-4.68 12.2-8.37 20-11.1 7.79-2.65 16.3-3.97 25.5-3.97 13.7 0 26 2 36.9 5.99 10.9 3.99 21.2 9.79 30.8 17.4l-17.6 24.7c-8.48-6.21-16.9-10.9-25.3-14.2-8.34-3.29-16.8-4.93-25.3-4.93-9.57 0-17 2.11-22.3 6.37-5.33 4.26-8.01 9.49-8.01 15.7v0.52c0 3.58 0.631 6.72 1.88 9.46 1.25 2.76 3.5 5.25 6.83 7.46 3.29 2.25 7.82 4.27 13.6 6.24 5.8 1.97 13.1 4 22 6.13 9.79 2.49 18.4 5.23 26 8.24 7.55 3.01 13.8 6.7 18.8 11.1 4.98 4.32 8.75 9.41 11.3 15.2 2.6 5.72 3.88 12.4 3.88 20.1v0.52c0 8.72-1.62 16.5-4.89 23.4-3.26 6.92-7.79 12.8-13.6 17.6-5.83 4.79-12.8 8.43-20.9 10.9-8.15 2.54-17.1 3.77-26.9 3.77m946-0.536h-38.8v-128l-53.7 80.7h-1.06l-53.2-79.9v127h-38.3v-191h43.9l48.6 78.2 48.6-78.2h43.9zm-360-67.9v-89.9h34.6v89c0 25.6 12.8 38.9 34 38.9 21.1 0 33.9-12.8 33.9-37.8v-90.1h34.6v88.8c0 47.7-26.7 71-69 71-42.2 0.0158-68.1-23.6-68.1-69.9"/>
</svg>
