<svg viewBox="0 0 1024 315" xmlns="http://www.w3.org/2000/svg">
	<path fill="#ffffff" d="m995 315c-4.47 0-8.62-0.795-12.5-2.37-3.88-1.57-7.24-3.76-10.1-6.57-2.85-2.84-5.09-6.2-6.74-10.2-1.66-3.97-2.48-8.32-2.48-13.1v-0.213c0-4.47 0.758-8.67 2.25-12.6 1.46-3.91 3.58-7.35 6.3-10.3 2.68-2.93 5.88-5.26 9.56-6.93 3.66-1.68 7.76-2.52 12.2-2.52 4.94 0 9.27 0.906 13 2.7 3.73 1.79 6.81 4.24 9.29 7.29 2.48 3.06 4.32 6.59 5.58 10.6 1.26 4.04 1.88 8.28 1.88 12.8 0 0.619-0.028 1.28-0.065 1.92-0.046 0.666-0.092 1.37-0.176 2.07h-45.6c0.767 5.09 2.78 8.99 6.05 11.7 3.23 2.7 7.18 4.06 11.8 4.06 3.55 0 6.6-0.61 9.19-1.9 2.58-1.24 5.12-3.08 7.62-5.52l8.36 7.42c-3 3.5-6.54 6.32-10.7 8.45-4.08 2.12-8.99 3.18-14.7 3.18zm14.1-36.8c-0.222-2.27-0.73-4.41-1.52-6.4-0.768-1.98-1.82-3.71-3.16-5.19-1.36-1.42-2.93-2.58-4.77-3.44-1.82-0.878-3.93-1.3-6.31-1.3-4.39 0-7.99 1.5-10.9 4.51-2.88 3.02-4.6 6.96-5.21 11.8h31.8zm-88.2 36.7c-7.03 0-12.4-2.15-16.3-6.45-3.81-4.31-5.72-10.1-5.72-17.4v-39.5h14.3v35.2c0 4.86 1.16 8.59 3.45 11.2 2.28 2.62 5.53 3.92 9.73 3.92 4.11 0 7.47-1.34 10-4.05 2.58-2.7 3.86-6.45 3.86-11.3v-34.9h14.4v62h-14.4v-9.74c-2.03 3.01-4.56 5.58-7.62 7.76-3.06 2.18-6.96 3.27-11.7 3.27zm-88.3-63.3h14.4v9.74c0.999-1.49 2.11-2.91 3.31-4.21 1.24-1.32 2.61-2.49 4.23-3.51 1.6-1.04 3.35-1.83 5.27-2.41 1.92-0.592 4.06-0.906 6.5-0.906 7.03 0 12.5 2.15 16.3 6.45 3.82 4.31 5.74 10.1 5.74 17.4v39.5h-14.3v-35.2c0-4.83-1.16-8.55-3.45-11.2-2.28-2.64-5.54-3.92-9.71-3.92-4.14 0-7.45 1.34-10 4.06-2.57 2.68-3.83 6.44-3.83 11.3v34.9h-14.4v-62zm-27.5-23.1h15.4v13.5h-15.4zm0.601 23.1h14.4v62h-14.4zm-22.2 63.1c-2.6 0-5-0.296-7.21-0.943-2.2-0.61-4.12-1.65-5.73-3.05-1.64-1.4-2.88-3.27-3.74-5.58-0.878-2.31-1.31-5.21-1.31-8.64v-32.7h-7.88v-12.2h7.88v-17.1h14.3v17.1h16.7v12.2h-16.7v30.4c0 2.73 0.656 4.74 2.01 5.95 1.34 1.2 3.2 1.8 5.65 1.8 3.04 0 5.99-0.684 8.79-2.11v11.6c-1.8 0.999-3.71 1.8-5.75 2.33-2.07 0.573-4.4 0.841-7.05 0.841zm-87.9-63.1h14.4v9.74c0.989-1.49 2.12-2.91 3.32-4.21 1.22-1.32 2.61-2.49 4.23-3.51 1.6-1.04 3.34-1.83 5.27-2.41 1.9-0.592 4.07-0.906 6.49-0.906 7.04 0 12.5 2.15 16.3 6.45 3.81 4.31 5.73 10.1 5.73 17.4v39.5h-14.4v-35.2c0-4.83-1.16-8.55-3.44-11.2-2.27-2.64-5.54-3.92-9.71-3.92-4.13 0-7.48 1.34-10 4.06-2.56 2.68-3.83 6.44-3.83 11.3v34.9h-14.4v-62zm-41.8 63.5c-4.71 0-9.08-0.86-13.1-2.53-4.02-1.69-7.52-3.99-10.4-6.88-2.95-2.89-5.24-6.31-6.88-10.2-1.66-3.89-2.48-8.06-2.48-12.5v-0.222c0-4.46 0.832-8.65 2.53-12.6 1.67-3.9 3.99-7.34 6.93-10.3 2.93-2.93 6.42-5.28 10.5-6.99 4.04-1.72 8.43-2.58 13.2-2.58s9.18 0.851 13.2 2.52c4.05 1.67 7.54 4 10.5 6.93 2.92 2.92 5.21 6.36 6.85 10.2 1.65 3.87 2.49 8.03 2.49 12.5v0.222c0 4.4-0.851 8.54-2.51 12.5-1.72 3.93-4.01 7.34-6.93 10.3-2.94 2.92-6.45 5.28-10.5 7.01-4.09 1.7-8.52 2.58-13.3 2.58zm0.222-12.4c2.89 0 5.46-0.527 7.79-1.58 2.28-1.05 4.24-2.5 5.9-4.3 1.64-1.78 2.88-3.89 3.72-6.28 0.869-2.39 1.27-4.91 1.27-7.6v-0.222c0-2.73-0.453-5.33-1.38-7.75-0.934-2.43-2.23-4.56-3.9-6.36-1.68-1.79-3.67-3.23-5.97-4.29-2.3-1.04-4.85-1.59-7.64-1.59-2.81 0-5.34 0.555-7.66 1.59-2.29 1.06-4.27 2.48-5.89 4.23-1.66 1.76-2.89 3.86-3.74 6.3-0.86 2.41-1.29 4.97-1.29 7.64v0.222c0 2.76 0.453 5.31 1.4 7.7 0.934 2.39 2.24 4.5 3.91 6.36 1.67 1.83 3.66 3.28 5.96 4.35 2.3 1.05 4.82 1.58 7.53 1.58zm-62.2 12.4c-4.61 0-8.89-0.86-12.8-2.53-3.92-1.69-7.31-3.99-10.2-6.88-2.89-2.89-5.16-6.31-6.76-10.2-1.62-3.89-2.43-8.06-2.43-12.5v-0.222c0-4.37 0.814-8.55 2.43-12.5 1.61-3.96 3.87-7.42 6.76-10.3 2.89-2.88 6.3-5.28 10.3-6.99 3.97-1.72 8.26-2.58 12.9-2.58 5.88 0 10.7 0.989 14.6 2.94 3.88 1.96 7.28 4.53 10.2 7.75l-8.81 9.52c-2.19-2.27-4.51-4.12-7-5.58-2.46-1.47-5.5-2.2-9.1-2.2-2.59 0-4.98 0.555-7.18 1.59-2.18 1.06-4.07 2.48-5.62 4.23-1.57 1.76-2.82 3.86-3.69 6.3-0.925 2.41-1.36 4.97-1.36 7.64v0.222c0 2.76 0.444 5.34 1.36 7.76 0.878 2.42 2.16 4.56 3.81 6.35 1.65 1.8 3.6 3.25 5.87 4.3 2.27 1.05 4.79 1.58 7.52 1.58 3.37 0 6.32-0.712 8.88-2.17 2.54-1.43 4.96-3.29 7.23-5.57l8.57 8.46c-3.04 3.45-6.53 6.23-10.4 8.38-3.93 2.15-8.89 3.25-14.9 3.25zm-125-63.5h14.3v9.74c1.02-1.49 2.13-2.91 3.35-4.21 1.21-1.32 2.61-2.49 4.22-3.51 1.59-1.04 3.37-1.83 5.27-2.41 1.91-0.592 4.08-0.906 6.49-0.906 7.04 0 12.5 2.15 16.3 6.45 3.83 4.31 5.75 10.1 5.75 17.4v39.5h-14.4v-35.2c0-4.83-1.13-8.55-3.44-11.2-2.28-2.64-5.53-3.92-9.72-3.92-4.11 0-7.46 1.34-10 4.06-2.56 2.68-3.86 6.44-3.86 11.3v34.9h-14.3v-62zm-41.8 63.5c-4.69 0-9.05-0.86-13.1-2.53-4.05-1.69-7.53-3.99-10.5-6.88-2.92-2.89-5.23-6.31-6.86-10.2-1.66-3.89-2.48-8.06-2.48-12.5v-0.222c0-4.46 0.832-8.65 2.52-12.6 1.67-3.9 4-7.34 6.93-10.3 2.91-2.93 6.41-5.28 10.5-6.99 4.04-1.72 8.43-2.58 13.2-2.58 4.8 0 9.19 0.851 13.2 2.52 4.04 1.67 7.53 4 10.5 6.93 2.93 2.92 5.22 6.36 6.87 10.2 1.64 3.87 2.47 8.03 2.47 12.5v0.222c0 4.4-0.851 8.54-2.53 12.5-1.67 3.93-3.99 7.34-6.92 10.3-2.93 2.92-6.44 5.28-10.5 7.01-4.08 1.7-8.5 2.58-13.3 2.58zm0.24-12.4c2.89 0 5.47-0.527 7.77-1.58 2.31-1.05 4.26-2.5 5.9-4.3 1.64-1.78 2.89-3.89 3.74-6.28 0.851-2.39 1.28-4.91 1.28-7.6v-0.222c0-2.73-0.472-5.33-1.38-7.75-0.943-2.43-2.26-4.56-3.93-6.36-1.67-1.8-3.65-3.23-5.96-4.29-2.28-1.04-4.84-1.59-7.65-1.59-2.79 0-5.34 0.555-7.65 1.59-2.28 1.06-4.25 2.48-5.9 4.23-1.63 1.76-2.88 3.86-3.73 6.3-0.869 2.41-1.28 4.97-1.28 7.64v0.222c0 2.76 0.444 5.31 1.38 7.7 0.943 2.39 2.24 4.5 3.92 6.36 1.67 1.83 3.66 3.28 5.96 4.35 2.27 1.05 4.81 1.58 7.52 1.58zm-57.2-74.2h15.4v13.5h-15.4zm0.601 23.1h14.3v62h-14.3zm-22.2 63.1c-2.59 0-4.99-0.296-7.18-0.943-2.23-0.61-4.14-1.65-5.76-3.05-1.62-1.4-2.87-3.27-3.73-5.58-0.869-2.31-1.31-5.21-1.31-8.64v-32.7h-7.88v-12.2h7.88v-17.1h14.4v17.1h16.7v12.2h-16.7v30.4c0 2.73 0.666 4.74 1.99 5.95 1.34 1.2 3.22 1.8 5.64 1.8 3.05 0 5.98-0.684 8.81-2.11v11.6c-1.79 0.999-3.72 1.8-5.76 2.33-2.03 0.573-4.38 0.841-7.05 0.841zm-46.1-1.04v-7.64c-2.12 2.51-4.82 4.62-8.11 6.35s-7.29 2.58-12 2.58c-2.97 0-5.79-0.407-8.45-1.24-2.65-0.804-5.01-2.03-7-3.64-1.99-1.6-3.61-3.61-4.82-5.99-1.21-2.39-1.82-5.16-1.82-8.28v-0.222c0-3.43 0.629-6.44 1.88-8.99 1.26-2.55 3-4.66 5.22-6.35 2.23-1.71 4.89-2.94 8-3.76 3.09-0.823 6.44-1.22 10.1-1.22 3.74 0 6.93 0.203 9.57 0.684 2.63 0.481 5.15 1.11 7.58 1.9v-1.18c0-4.32-1.32-7.61-3.95-9.88-2.62-2.27-6.4-3.39-11.3-3.39-3.52 0-6.66 0.342-9.4 1.04-2.74 0.712-5.53 1.66-8.33 2.83l-3.89-11.4c3.46-1.56 6.97-2.81 10.6-3.75 3.61-0.925 7.95-1.41 13.1-1.41 9.24 0 16.1 2.3 20.6 6.88 4.46 4.58 6.69 11 6.69 19.3v36.8h-14.1zm0.361-26c-1.79-0.693-3.94-1.3-6.42-1.77-2.46-0.481-5.06-0.712-7.8-0.712-4.47 0-7.95 0.878-10.5 2.61-2.51 1.71-3.75 4.06-3.75 7.05v0.231c0 2.97 1.16 5.25 3.46 6.81 2.31 1.57 5.16 2.35 8.53 2.35 2.36 0 4.53-0.305 6.53-0.943 2-0.62 3.73-1.49 5.22-2.64 1.49-1.13 2.64-2.51 3.47-4.11 0.814-1.61 1.24-3.38 1.24-5.34zm-144-36.1h14.3v9.49c1.01-1.41 2.11-2.76 3.28-4.03 1.17-1.27 2.51-2.42 4.03-3.45 1.53-1.04 3.25-1.83 5.15-2.41 1.93-0.592 4.05-0.906 6.4-0.906 4.44 0 8.22 1.01 11.3 3.02 3.1 2.02 5.45 4.67 7.1 8.01 2.51-3.34 5.47-5.98 8.89-8.01 3.41-2.02 7.49-3.02 12.2-3.02 6.82 0 12.2 2.06 16 6.17 3.84 4.11 5.77 9.97 5.77 17.6v39.6h-14.3v-35.2c0-4.9-1.1-8.66-3.28-11.3-2.18-2.57-5.25-3.86-9.24-3.86-3.9 0-7.08 1.29-9.53 3.92-2.45 2.64-3.68 6.43-3.68 11.4v34.9h-14.3v-35.3c0-4.84-1.08-8.56-3.27-11.2-2.18-2.57-5.25-3.86-9.23-3.86-3.99 0-7.18 1.35-9.61 4.11-2.41 2.72-3.62 6.53-3.62 11.4v34.8h-14.3v-62zm-42.7 0h14.3v14c1.95-4.72 4.73-8.46 8.33-11.3 3.61-2.81 8.16-4.11 13.6-3.87v15.1h-0.823c-3.13 0-5.99 0.509-8.58 1.54-2.58 0.999-4.82 2.52-6.69 4.57-1.89 2.03-3.34 4.6-4.36 7.7-1.02 3.1-1.52 6.69-1.52 10.8v23.6h-14.3v-62zm-41.8 63.5c-4.69 0-9.05-0.86-13.1-2.53-4.04-1.69-7.52-3.99-10.5-6.88-2.94-2.89-5.22-6.31-6.88-10.2-1.65-3.89-2.47-8.06-2.47-12.5v-0.222c0-4.46 0.841-8.65 2.51-12.6 1.69-3.9 3.99-7.34 6.94-10.3 2.94-2.93 6.42-5.28 10.5-6.99 4.03-1.72 8.43-2.58 13.2-2.58 4.79 0 9.18 0.851 13.2 2.52 4.04 1.67 7.53 4 10.5 6.93 2.93 2.92 5.22 6.36 6.88 10.2 1.65 3.87 2.48 8.03 2.48 12.5v0.222c0 4.4-0.851 8.54-2.54 12.5-1.68 3.93-3.99 7.34-6.93 10.3-2.94 2.92-6.44 5.28-10.5 7.01-4.08 1.7-8.5 2.58-13.3 2.58zm0.24-12.4c2.88 0 5.47-0.527 7.77-1.58 2.3-1.05 4.27-2.5 5.91-4.3 1.64-1.78 2.88-3.89 3.73-6.28 0.86-2.39 1.29-4.91 1.29-7.6v-0.222c0-2.73-0.472-5.33-1.39-7.75-0.943-2.43-2.24-4.56-3.93-6.36-1.66-1.79-3.65-3.23-5.95-4.29-2.29-1.04-4.84-1.59-7.66-1.59-2.79 0-5.34 0.555-7.65 1.59-2.28 1.06-4.25 2.48-5.89 4.23-1.64 1.76-2.89 3.86-3.74 6.3-0.86 2.41-1.29 4.97-1.29 7.64v0.222c0 2.76 0.462 5.31 1.4 7.7 0.943 2.39 2.24 4.5 3.91 6.36 1.67 1.83 3.66 3.28 5.96 4.35 2.3 1.06 4.81 1.58 7.53 1.58zm-64.9-38.9h-7.88v-11.9h7.88v-4.47c0-6.89 1.69-12 5.09-15.4 3.32-3.27 8-4.93 14.1-4.93 2.51 0 4.66 0.166 6.46 0.472 1.79 0.305 3.48 0.712 5.05 1.17v12c-1.41-0.481-2.76-0.832-4.05-1.11-1.29-0.277-2.72-0.398-4.28-0.398-5.5 0-8.24 3.13-8.24 9.39v3.41h16.4v11.8h-16.2v49.8h-14.3v-49.8z"/>
	<path fill="#ffffff" d="m595 54.5h31.7v137h-31.7zm0-53h31.7v29.7h-31.7zm-180 121v-0.509c0-45.4 30.9-71.1 63.5-71.1 22.5 0 36.8 11.6 46.5 24.1v-73.7h31.4v189h-31.4v-22.8c-9.96 14-24.3 25.7-46.2 25.7-32.4 0-64-25.8-64-71.1m111 0v-0.509c0-26.5-18.7-43.8-39.7-43.8-21.5 0-39.4 16.6-39.4 43.8v0.509c0 26.5 18.1 43.9 39.4 43.8 21 0.074 40-17.4 40-43.8m-261 18.4v-87.1h31.4v77.8c0 21.3 10.3 33.6 29.1 33.5 18.2 0 30.9-12.7 30.9-34v-77.3h31.4v137h-31.4v-21.3c-8.63 13.1-21.3 24.1-42.7 24.1-30.8 0-48.5-20.7-48.5-52.3m-95.9 11.6v-72.1h-17.4v-27h17.4v-37.6h31.3v37.6h36.9v27h-36.9v67.2c0 12.3 6.45 16.8 16.8 16.8 6.99 0 13.2-1.58 19.5-4.68v25.6c-7.8 4.43-16.6 7.02-28.3 7.02-23 0.203-39-9.48-39-39.9m-92.2 39.2c-14.4 0-28.1-2.39-41.3-7.33-13.1-4.77-25.5-12.5-36.4-22.4l19.7-23.4c9.02 7.75 18.1 13.6 27.1 17.9 9.24 3.87 19.4 6.46 31.6 6.26 10.1 0 18.2-2.12 24.1-6.36 5.95-4.29 8.91-9.96 8.91-17.1v-0.536c0-3.36-0.583-6.33-1.73-8.93-1.2-2.56-3.3-5.01-6.43-7.32-3.1-2.28-7.36-4.43-12.8-6.38-5.45-1.95-12.5-3.89-21.2-5.84-9.96-2.31-18.8-4.93-26.6-7.86-7.72-2.94-14.2-6.48-19.5-10.6-5.23-4.18-9.26-9.31-12-15.3-2.76-6.04-4.13-13.3-4.13-21.8v-0.527c0-8 1.58-15.3 4.77-22 3.14-6.62 7.52-12.3 13.1-17 5.53-4.71 12.2-8.37 20-11.1 7.79-2.64 16.3-3.97 25.5-3.97 13.7 0 25.9 1.93 36.8 5.99 10.9 3.87 21.3 9.68 31 17.4l-17.8 24.9c-8.49-6.21-17-10.9-25.3-14.2-8.34-3.31-16.8-4.94-25.3-4.94-9.57 0-17 2.12-22.3 6.46-5.33 4.23-8.02 9.49-8.02 15.7v0.518c0 3.88 0.656 6.46 1.94 9.46 1.26 2.57 3.25 5.19 7.11 7.75 3.28 1.92 7.76 4.51 13.6 6.26 5.79 1.93 12.9 3.86 22 6.12 9.79 2.57 18.7 5.17 25.8 8.38 7.54 3.24 13.6 6.47 18.7 11.1 5 4.51 9.05 9.7 11.6 15.2 2.61 5.83 3.88 12.3 3.88 20.1v0.509c0 8.73-1.62 16.5-4.87 23.4-3.27 6.93-7.79 12.8-13.6 17.6-5.84 4.79-12.8 8.45-20.9 11-8.5 1.79-17.7 3.1-27.4 3.1m854-113 48.5-78.2h43.9v191h-38.8v-128l-53.6 80.8h-1.29l-53-80.1v127h-38.8v-191h43.9zm-267 44.5v-89.9h34.6v89c0 25.8 12.9 38.8 34.2 38.9 21.1 0 33.9-12.8 33.9-37.7v-90.1h34.6v88.8c0 47.7-26.7 71-69 71-42.5 0-68.6-23.2-68.6-69.8"/>
</svg>
