<svg width="20" height="17" viewBox="0 0 20 17" fill="none" xmlns="http://www.w3.org/2000/svg">
<path d="M4.5459 4.25281C4.5459 3.83859 4.21011 3.50281 3.7959 3.50281C3.38168 3.50281 3.0459 3.83859 3.0459 4.25281C3.0459 4.57259 3.04612 5.06957 3.04641 5.7082C3.04674 6.42035 3.04714 7.30873 3.0474 8.32386C3.04779 9.8405 4.2759 11.0715 5.79313 11.074L14.3978 11.0882L12.3432 13.1431C12.0503 13.436 12.0503 13.9109 12.3432 14.2038C12.6361 14.4966 13.111 14.4966 13.4039 14.2037L16.7351 10.8721C17.0279 10.5792 17.0279 10.1043 16.735 9.81143L13.4034 6.47991C13.1105 6.18703 12.6356 6.18704 12.3427 6.47993C12.0498 6.77283 12.0498 7.24771 12.3427 7.54059L14.3904 9.58821L5.7956 9.57403C5.10627 9.57289 4.54758 9.0134 4.5474 8.32348C4.54714 7.30775 4.54674 6.41971 4.54641 5.70791C4.54612 5.06975 4.5459 4.57254 4.5459 4.25281Z" fill="black"/>
</svg>
