<svg viewBox="0 0 24 24" xmlns="http://www.w3.org/2000/svg"><!-- Font Awesome Free 5.15.1 by @fontawesome - https://fontawesome.com License - https://fontawesome.com/license/free (Icons: CC BY 4.0, Fonts: SIL OFL 1.1, Code: MIT License) --><path d="M20.4 10C20.4 10.4575 20.3137 10.8962 20.16 11.2975C22.35 11.74 24 13.6787 24 16C24 18.6512 21.8513 20.8 19.2 20.8H5.4C2.41875 20.8 0 18.3812 0 15.4C0 13.045 1.5075 11.0425 3.6075 10.3038C3.60375 10.2025 3.6 10.1012 3.6 10C3.6 6.685 6.285 4 9.6 4C11.8238 4 13.7625 5.2075 14.8013 7.0075C15.3713 6.625 16.0613 6.4 16.8 6.4C18.7875 6.4 20.4 8.0125 20.4 10ZM4.98276 14.5878L9.03876 18.6438C9.28244 18.8875 9.67753 18.8875 9.92124 18.6439L17.0972 11.4678C17.3409 11.2241 17.3409 10.829 17.0972 10.5853L16.2148 9.70288C15.9711 9.4592 15.576 9.4592 15.3323 9.70288L9.48 15.5552L6.74768 12.8229C6.504 12.5792 6.10888 12.5792 5.86521 12.8229L4.98276 13.7054C4.73908 13.9491 4.73908 14.3441 4.98276 14.5878Z"/></svg>
