<svg width="31" height="25" viewBox="0 0 31 25" fill="none" xmlns="http://www.w3.org/2000/svg">
<path fill-rule="evenodd" clip-rule="evenodd" d="M5.33887 9.82812C2.71387 10.7188 0.838867 13.25 0.838867 16.1562C0.838867 19.9062 3.83887 22.9062 7.58887 22.9062H24.8389C28.1201 22.9062 30.8389 20.2344 30.8389 16.9062C30.8389 14.0469 28.7764 11.6094 26.0107 11.0469C26.1982 10.5312 26.3389 10.0156 26.3389 9.40625C26.3389 6.92188 24.3232 4.90625 21.8389 4.90625C20.9014 4.90625 20.0107 5.1875 19.3076 5.70312C18.042 3.45312 15.6045 1.90625 12.8389 1.90625C8.66699 1.90625 5.33887 5.28125 5.33887 9.40625V9.82812ZM12.0448 9.88663C12.4842 9.44729 13.1965 9.44729 13.6358 9.88663L15.847 12.0978L18.0581 9.88673C18.4975 9.44739 19.2098 9.44739 19.6491 9.88673C20.0884 10.3261 20.0884 11.0384 19.6491 11.4777L17.438 13.6888L19.6489 15.8997C20.0883 16.3391 20.0883 17.0514 19.6489 17.4907C19.2096 17.9301 18.4973 17.9301 18.0579 17.4907L15.847 15.2798L13.636 17.4908C13.1967 17.9302 12.4843 17.9302 12.045 17.4908C11.6057 17.0515 11.6057 16.3392 12.045 15.8998L14.256 13.6888L12.0448 11.4776C11.6055 11.0383 11.6055 10.326 12.0448 9.88663Z" fill="#1D2125"/>
</svg>
