<svg viewBox="0 0 24 24" xmlns="http://www.w3.org/2000/svg"><!-- Font Awesome Free 5.15.1 by @fontawesome - https://fontawesome.com License - https://fontawesome.com/license/free (Icons: CC BY 4.0, Fonts: SIL OFL 1.1, Code: MIT License) --><path d="M20.4 10C20.4 10.4575 20.3137 10.8962 20.16 11.2975C22.35 11.74 24 13.6787 24 16C24 18.6512 21.8513 20.8 19.2 20.8H5.4C2.41875 20.8 0 18.3812 0 15.4C0 13.045 1.5075 11.0425 3.6075 10.3038C3.60375 10.2025 3.6 10.1012 3.6 10C3.6 6.685 6.285 4 9.6 4C11.8238 4 13.7625 5.2075 14.8013 7.0075C15.3713 6.625 16.0613 6.4 16.8 6.4C18.7875 6.4 20.4 8.0125 20.4 10ZM14.6873 10.0224C13.7416 9.11858 12.4606 8.5626 11.0497 8.56007C8.13698 8.55485 5.75998 10.9274 5.76 13.8401C5.76003 16.7561 8.12395 19.1201 11.04 19.1201C12.401 19.1201 13.6417 18.6051 14.578 17.7594C14.6868 17.6611 14.692 17.492 14.5882 17.3883L13.7438 16.5439C13.6488 16.4489 13.4963 16.4435 13.3953 16.5321C12.7432 17.1043 11.9156 17.4168 11.04 17.4168C9.04263 17.4168 7.4795 15.799 7.46336 13.8709C7.44635 11.8384 9.10454 10.2464 11.0717 10.2634C11.9751 10.2712 12.8253 10.612 13.4824 11.2273L12.5936 12.1162C12.2717 12.4381 12.4996 12.9885 12.9549 12.9885H15.809C16.0912 12.9885 16.32 12.7597 16.32 12.4775V9.62333C16.32 9.1681 15.7696 8.94012 15.4477 9.26201L14.6873 10.0224Z"/></svg>
