<?xml version="1.0" encoding="utf-8"?>
<!-- Generator: Adobe Illustrator 15.0.0, SVG Export Plug-In . SVG Version: 6.00 Build 0)  -->
<!DOCTYPE svg PUBLIC "-//W3C//DTD SVG 1.1//EN" "http://www.w3.org/Graphics/SVG/1.1/DTD/svg11.dtd">
<svg version="1.1" id="Layer_1" xmlns="http://www.w3.org/2000/svg" xmlns:xlink="http://www.w3.org/1999/xlink" x="0px" y="0px"
	 width="24px" height="24px" viewBox="0 0 24 24" enable-background="new 0 0 24 24" xml:space="preserve">
<g>
	<path fill="#A2D17C" d="M21.2,11.4c-1.036,0-1.938,0.725-2.423,1.8H18V6.8C18,6.358,17.643,6,17.2,6h-6.4V5.222
		c1.075-0.484,1.8-1.386,1.8-2.422C12.6,1.253,10.988,0,9,0S5.4,1.253,5.4,2.8c0,1.036,0.725,1.938,1.8,2.422V6H0.8
		C0.358,6,0,6.358,0,6.8v6.4h0.777c0.484-1.075,1.387-1.8,2.423-1.8C4.746,11.4,6,13.012,6,15s-1.254,3.6-2.8,3.6
		c-1.036,0-1.938-0.725-2.423-1.8H0v6.4C0,23.643,0.358,24,0.8,24h16.4c0.442,0,0.8-0.357,0.8-0.8v-6.4h0.777
		c0.484,1.075,1.387,1.8,2.423,1.8c1.546,0,2.8-1.611,2.8-3.6S22.746,11.4,21.2,11.4z"/>
	<path fill="#7EBB55" d="M21.2,11.4c-1.036,0-1.938,0.725-2.423,1.8H18V6.8C18,6.358,17.642,6,17.2,6h-6.4V5.222
		c1.075-0.484,1.8-1.386,1.8-2.422C12.6,1.253,10.988,0,9,0S5.4,1.253,5.4,2.8c0,1.036,0.725,1.938,1.8,2.422V6H0.8
		C0.358,6,0,6.358,0,6.8v6.4h0.777c0.484-1.075,1.387-1.8,2.423-1.8C4.746,11.4,6,13.012,6,15s-1.254,3.6-2.8,3.6
		c-1.036,0-1.938-0.725-2.423-1.8H0v6.4C0,23.643,0.358,24,0.8,24h16.4c0.441,0,0.8-0.357,0.8-0.8v-6.4h0.777
		c0.484,1.075,1.387,1.8,2.423,1.8c1.546,0,2.8-1.611,2.8-3.6S22.746,11.4,21.2,11.4z M21.2,17.4c-0.516,0-1.024-0.419-1.328-1.094
		c-0.194-0.43-0.622-0.707-1.095-0.707H18c-0.662,0-1.2,0.537-1.2,1.2v6H1.2v-3.639c0.597,0.411,1.283,0.639,2,0.639
		c2.205,0,4-2.153,4-4.8c0-2.647-1.795-4.8-4-4.8c-0.717,0-1.403,0.227-2,0.639V7.2h6c0.662,0,1.2-0.537,1.2-1.2V5.222
		c0-0.472-0.276-0.9-0.707-1.094C7.019,3.825,6.6,3.315,6.6,2.8c0-0.867,1.099-1.6,2.4-1.6s2.4,0.732,2.4,1.6
		c0,0.516-0.418,1.025-1.093,1.328C9.876,4.322,9.6,4.75,9.6,5.222V6c0,0.663,0.538,1.2,1.2,1.2h6v6c0,0.663,0.538,1.2,1.2,1.2
		h0.777c0.473,0,0.9-0.277,1.095-0.707c0.304-0.675,0.813-1.094,1.328-1.094c0.867,0,1.6,1.1,1.6,2.4S22.067,17.4,21.2,17.4z"/>
</g>
</svg>
