<?xml version="1.0" encoding="UTF-8" standalone="no"?>
<!-- Generator: Adobe Illustrator 15.1.0, SVG Export Plug-In . SVG Version: 6.00 Build 0)  -->

<svg
   xmlns:dc="http://purl.org/dc/elements/1.1/"
   xmlns:cc="http://creativecommons.org/ns#"
   xmlns:rdf="http://www.w3.org/1999/02/22-rdf-syntax-ns#"
   xmlns:svg="http://www.w3.org/2000/svg"
   xmlns="http://www.w3.org/2000/svg"
   xmlns:sodipodi="http://sodipodi.sourceforge.net/DTD/sodipodi-0.dtd"
   xmlns:inkscape="http://www.inkscape.org/namespaces/inkscape"
   version="1.1"
   id="svg3117"
   sodipodi:docname="icon.svg"
   inkscape:version="0.47 r22583"
   inkscape:export-filename="C:\Users\ajay\Desktop\32x32 black in white\lti\icon.png"
   inkscape:export-xdpi="90"
   inkscape:export-ydpi="90"
   x="0px"
   y="0px"
   width="24"
   height="24"
   viewBox="0 0 24 24"
   enable-background="new 0 0 32 32"
   xml:space="preserve"><metadata
   id="metadata17"><rdf:RDF><cc:Work
       rdf:about=""><dc:format>image/svg+xml</dc:format><dc:type
         rdf:resource="http://purl.org/dc/dcmitype/StillImage" /><dc:title></dc:title></cc:Work></rdf:RDF></metadata><defs
   id="defs15"><inkscape:perspective
     sodipodi:type="inkscape:persp3d"
     inkscape:vp_x="0 : 16 : 1"
     inkscape:vp_y="0 : 1000 : 0"
     inkscape:vp_z="32 : 16 : 1"
     inkscape:persp3d-origin="16 : 10.666667 : 1"
     id="perspective19" /></defs>
<sodipodi:namedview
   bordercolor="#666666"
   pagecolor="#ffffff"
   id="base"
   borderopacity="1.0"
   inkscape:pageopacity="0.0"
   inkscape:zoom="21.28125"
   inkscape:pageshadow="2"
   inkscape:cx="-0.19561418"
   inkscape:cy="15.953322"
   inkscape:current-layer="svg3117"
   showgrid="true"
   inkscape:grid-bbox="true"
   inkscape:document-units="px"
   inkscape:snap-global="false"
   inkscape:window-width="2048"
   inkscape:window-height="1076"
   inkscape:window-x="0"
   inkscape:window-y="25"
   inkscape:window-maximized="1">
	<inkscape:grid
   type="xygrid"
   id="grid3125"
   empspacing="5"
   visible="true"
   enabled="true"
   snapvisiblegridlinesonly="true" />
</sodipodi:namedview>
<path
   d="m 19.626256,24.064464 -15.2920256,0 c -1.2996513,0 -2.353034,-0.935415 -2.353034,-2.08958 l 0,-19.8412142 c 0,-1.1533502 1.0533827,-2.08876365 2.353034,-2.08876365 l 11.1584866,0 c 0.0018,0 0.0035,0 0.0063,0 l 0.01079,0 0,0 c 0.188746,0 0.34873,0.08407296 0.455687,0.20650929 l 5.782819,5.13253046 c 0.135726,0.0955 0.230099,0.2375265 0.230099,0.4048561 l 0,0 0,0.010611 c 0,8.169e-4 0,0.00164 0,0.00246 l 0,16.1730211 c 0,1.153351 -1.053383,2.089581 -2.352135,2.089581 z m 1.607038,-18.0340544 -5.55273,0 c -0.340641,0 -0.61657,-0.2456889 -0.61657,-0.5476985 l 0,-4.92928607 -11.1036604,0 c -0.6803846,0 -1.2331409,0.49056147 -1.2331409,1.09539687 l 0,20.8109091 c 0,0.60402 0.5527563,1.096213 1.2331409,1.096213 l 16.0389204,0 c 0.681283,0 1.23404,-0.492193 1.23404,-1.096213 l 0,-16.4293214 z"
   id="path5"
   style="fill:#333333" />
<path
   d="m 7.9684595,18.409899 c 0,0 2.3974815,1.117703 3.2112645,2.455715 0,0 0.314766,0.190935 0.571403,0 0.25664,-0.191669 2.83947,-3.0858 4.052468,-3.630699 0.171092,-0.182121 0.0998,-0.239402 0.0998,-0.239402 l -0.557146,0 c 0,0 -1.968655,0.42079 -3.895633,2.456449 -0.771011,-0.793113 -2.0695551,-1.204357 -2.2549045,-1.204357 l -1.2272561,-0.01028 0,0.172575 z"
   id="path7"
   style="fill:#333333" />
<path
   d="m 16.930476,8.4940701 c 0,0.2375957 -0.206752,0.4306917 -0.463061,0.4306917 l -8.9698682,0 c -0.2554521,0 -0.4630604,-0.193096 -0.4630604,-0.4306917 l 0,0 c 0,-0.2375956 0.2076083,-0.4306917 0.4630604,-0.4306917 l 8.9698682,0 c 0.256309,0 0.463061,0.1930961 0.463061,0.4306917 l 0,0 z"
   id="path9"
   style="fill:#333333" />
<path
   d="m 17.159141,11.441715 c 0,0.237596 -0.211454,0.430692 -0.473587,0.430692 l -9.1737758,0 c -0.2612591,0 -0.4735867,-0.193096 -0.4735867,-0.430692 l 0,0 c 0,-0.237596 0.2123276,-0.430692 0.4735867,-0.430692 l 9.1737758,0 c 0.262133,0 0.473587,0.193096 0.473587,0.430692 l 0,0 z"
   id="path11"
   style="fill:#333333" />
<path
   d="m 17.07963,14.481415 c 0,0.237596 -0.208361,0.430692 -0.466663,0.430692 l -9.0396259,0 c -0.2574386,0 -0.4666613,-0.193096 -0.4666613,-0.430692 l 0,0 c 0,-0.23839 0.2092227,-0.430692 0.4666613,-0.430692 l 9.0396259,0 c 0.258302,0 0.466663,0.192302 0.466663,0.430692 l 0,0 z"
   id="path13"
   style="fill:#333333" />
</svg>