<?xml version="1.0" encoding="UTF-8" standalone="no"?>
<!-- Generator: Adobe Illustrator 16.2.1, SVG Export Plug-In . SVG Version: 6.00 Build 0)  -->

<svg
   xmlns:dc="http://purl.org/dc/elements/1.1/"
   xmlns:cc="http://creativecommons.org/ns#"
   xmlns:rdf="http://www.w3.org/1999/02/22-rdf-syntax-ns#"
   xmlns:svg="http://www.w3.org/2000/svg"
   xmlns="http://www.w3.org/2000/svg"
   xmlns:sodipodi="http://sodipodi.sourceforge.net/DTD/sodipodi-0.dtd"
   xmlns:inkscape="http://www.inkscape.org/namespaces/inkscape"
   version="1.1"
   id="Layer_1"
   x="0px"
   y="0px"
   width="512px"
   height="512px"
   viewBox="0 0 512 512"
   style="enable-background:new 0 0 512 512;"
   xml:space="preserve"
   inkscape:version="0.48.4 r9939"
   sodipodi:docname="chatbubbles.svg"><metadata
     id="metadata13"><rdf:RDF><cc:Work
         rdf:about=""><dc:format>image/svg+xml</dc:format><dc:type
           rdf:resource="http://purl.org/dc/dcmitype/StillImage" /><dc:title></dc:title></cc:Work></rdf:RDF></metadata><defs
     id="defs11" /><sodipodi:namedview
     pagecolor="#ffffff"
     bordercolor="#666666"
     borderopacity="1"
     objecttolerance="10"
     gridtolerance="10"
     guidetolerance="10"
     inkscape:pageopacity="0"
     inkscape:pageshadow="2"
     inkscape:window-width="753"
     inkscape:window-height="480"
     id="namedview9"
     showgrid="false"
     inkscape:zoom="0.4609375"
     inkscape:cx="256"
     inkscape:cy="256"
     inkscape:window-x="1890"
     inkscape:window-y="303"
     inkscape:window-maximized="0"
     inkscape:current-layer="Layer_1" /><g
     id="g3"
     style="fill:#313540;fill-opacity:1"><path
       d="M73.3,391C73.3,391,73.3,391,73.3,391c1.8,3,2.8,6.4,2.8,10.2L64,464l56.2-22.1c2.7-1.1,5.6-1.7,8.7-1.7   c2.8,0,5.5,0.5,8,1.4c0,0,0.1,0,0.2,0c0.4,0.2,0.8,0.3,1.2,0.5c17.8,7.3,37.4,11.4,57.9,11.4c46.3,0,87.6-20.5,114.8-52.6   c-14.1,3.6-28.9,5.7-44.1,5.7c-95.9,0-173.7-75-173.7-167.5c0-11.8,1.3-23.2,3.7-34.3C66.9,230.9,48,268.6,48,310.6   c0,28.4,8.6,55.2,23.5,77.5C72.1,388.9,72.7,390,73.3,391z"
       id="path5"
       style="fill:#313540;fill-opacity:1" /><path
       d="M290.3,48c-83.7,0-153.6,57.2-170,133.2c-2.4,11.1-3.7,22.5-3.7,34.3c0,92.5,77.7,167.5,173.7,167.5   c15.3,0,30-2.1,44.1-5.7c8.1-2.1,16.1-4.5,23.8-7.6c0.5-0.2,0.9-0.4,1.4-0.6c0.1,0,0.2,0,0.2-0.1c2.9-1.1,6.1-1.7,9.3-1.7   c3.6,0,7,0.7,10.1,2l68.6,25.8l-17-73.8c0-4.4,1.2-8.6,3.3-12.2c0,0,0,0,0,0c0.6-1.1,1.4-2.1,2.1-3.1   c17.4-26.1,27.5-57.2,27.5-90.5C464,123,386.3,48,290.3,48z"
       id="path7"
       style="fill:#313540;fill-opacity:1" /></g></svg>