<?xml version="1.0" encoding="UTF-8" standalone="no"?>
<!-- Generator: Adobe Illustrator 15.1.0, SVG Export Plug-In . SVG Version: 6.00 Build 0)  -->

<svg
   xmlns:dc="http://purl.org/dc/elements/1.1/"
   xmlns:cc="http://creativecommons.org/ns#"
   xmlns:rdf="http://www.w3.org/1999/02/22-rdf-syntax-ns#"
   xmlns:svg="http://www.w3.org/2000/svg"
   xmlns="http://www.w3.org/2000/svg"
   xmlns:sodipodi="http://sodipodi.sourceforge.net/DTD/sodipodi-0.dtd"
   xmlns:inkscape="http://www.inkscape.org/namespaces/inkscape"
   version="1.1"
   id="Layer_1"
   x="0px"
   y="0px"
   width="24px"
   height="24px"
   viewBox="0 0 24 24"
   enable-background="new 0 0 24 24"
   xml:space="preserve"
   inkscape:version="0.47 r22583"
   sodipodi:docname="icon.svg"><metadata
   id="metadata13"><rdf:RDF><cc:Work
       rdf:about=""><dc:format>image/svg+xml</dc:format><dc:type
         rdf:resource="http://purl.org/dc/dcmitype/StillImage" /><dc:title></dc:title></cc:Work></rdf:RDF></metadata><defs
   id="defs11"><inkscape:perspective
     sodipodi:type="inkscape:persp3d"
     inkscape:vp_x="0 : 12 : 1"
     inkscape:vp_y="0 : 1000 : 0"
     inkscape:vp_z="24 : 12 : 1"
     inkscape:persp3d-origin="12 : 8 : 1"
     id="perspective15" /></defs><sodipodi:namedview
   pagecolor="#ffffff"
   bordercolor="#666666"
   borderopacity="1"
   objecttolerance="10"
   gridtolerance="10"
   guidetolerance="10"
   inkscape:pageopacity="0"
   inkscape:pageshadow="2"
   inkscape:window-width="2048"
   inkscape:window-height="1076"
   id="namedview9"
   showgrid="true"
   inkscape:snap-global="false"
   inkscape:zoom="34.875"
   inkscape:cx="6.7670251"
   inkscape:cy="11.942652"
   inkscape:window-x="0"
   inkscape:window-y="25"
   inkscape:window-maximized="1"
   inkscape:current-layer="Layer_1"><inkscape:grid
     type="xygrid"
     id="grid2821" /></sodipodi:namedview>
<path
   fill="#FFFFFF"
   stroke="#231F20"
   stroke-width="0.5"
   stroke-miterlimit="10"
   d="M13.429,19.837"
   id="path3" />
<path
   fill="#FFFFFF"
   stroke="#231F20"
   stroke-width="0.5"
   stroke-miterlimit="10"
   d="M3.526,19.837"
   id="path5" />
<path
   d="m 20.199495,3.0498737 c 0.920357,0 1.673567,0.6998441 1.673567,1.5571277 l 0,10.9009086 c 0,0.856269 -0.75321,1.557128 -1.673567,1.557128 l -1.112577,0 -1.113622,0 0,1.038086 0,1.790747 -3.621881,-2.595213 -0.279972,-0.23362 -0.389663,0 -9.9149957,0 c -0.9193127,0 -1.6714774,-0.700859 -1.6714774,-1.557128 l 0,-10.9019243 c 0,-0.8562679 0.7511201,-1.5571277 1.6714774,-1.5571277 l 16.4327107,0 m 0,-1.0380851 -16.4327107,0 c -1.5325358,0 -2.78614385,1.1680997 -2.78614385,2.5952128 l 0,10.9009093 c 0,1.427113 1.25360805,2.596229 2.78614385,2.596229 l 9.9160377,0 5.405141,3.893326 0,-3.893326 1.112577,0 c 1.532536,0 2.786144,-1.1681 2.786144,-2.596229 l 0,-10.9009093 c -0.001,-1.4271131 -1.254653,-2.5952128 -2.787189,-2.5952128 l 0,0 z"
   id="path7"
   style="fill:#333333" />
</svg>