<?xml version="1.0" encoding="UTF-8" standalone="no"?>
<!-- Generator: Adobe Illustrator 15.1.0, SVG Export Plug-In . SVG Version: 6.00 Build 0)  -->

<svg
   xmlns:dc="http://purl.org/dc/elements/1.1/"
   xmlns:cc="http://creativecommons.org/ns#"
   xmlns:rdf="http://www.w3.org/1999/02/22-rdf-syntax-ns#"
   xmlns:svg="http://www.w3.org/2000/svg"
   xmlns="http://www.w3.org/2000/svg"
   xmlns:sodipodi="http://sodipodi.sourceforge.net/DTD/sodipodi-0.dtd"
   xmlns:inkscape="http://www.inkscape.org/namespaces/inkscape"
   version="1.1"
   id="Layer_1"
   x="0px"
   y="0px"
   width="24px"
   height="24px"
   viewBox="0 0 24 24"
   enable-background="new 0 0 24 24"
   xml:space="preserve"
   inkscape:version="0.47 r22583"
   sodipodi:docname="icon.svg"><metadata
   id="metadata17"><rdf:RDF><cc:Work
       rdf:about=""><dc:format>image/svg+xml</dc:format><dc:type
         rdf:resource="http://purl.org/dc/dcmitype/StillImage" /><dc:title></dc:title></cc:Work></rdf:RDF></metadata><defs
   id="defs15"><inkscape:perspective
     sodipodi:type="inkscape:persp3d"
     inkscape:vp_x="0 : 12 : 1"
     inkscape:vp_y="0 : 1000 : 0"
     inkscape:vp_z="24 : 12 : 1"
     inkscape:persp3d-origin="12 : 8 : 1"
     id="perspective19" /></defs><sodipodi:namedview
   pagecolor="#ffffff"
   bordercolor="#666666"
   borderopacity="1"
   objecttolerance="10"
   gridtolerance="10"
   guidetolerance="10"
   inkscape:pageopacity="0"
   inkscape:pageshadow="2"
   inkscape:window-width="2048"
   inkscape:window-height="1076"
   id="namedview13"
   showgrid="true"
   inkscape:snap-global="false"
   inkscape:zoom="34.875"
   inkscape:cx="6.7670251"
   inkscape:cy="11.942652"
   inkscape:window-x="0"
   inkscape:window-y="25"
   inkscape:window-maximized="1"
   inkscape:current-layer="Layer_1"><inkscape:grid
     type="xygrid"
     id="grid2825" /></sodipodi:namedview>

<path
   fill="#FFFFFF"
   stroke="#231F20"
   stroke-width="0.5"
   stroke-miterlimit="10"
   d="M2.46,22.473"
   id="path5" />
<g
   id="g7"
   transform="matrix(1.0614963,0,0,1.0574328,-0.49729566,-0.56903557)"
   style="stroke:#333333;stroke-opacity:1">
	<path
   stroke-miterlimit="10"
   d="m 1.897,17.875 c 0,1.104 0.896,2 2,2 h 12 c 1.104,0 2,-0.896 2,-2 v -12 c 0,-1.104 -0.896,-2 -2,-2 h -12 c -1.104,0 -2,0.896 -2,2 v 12 z"
   id="path9"
   style="fill:none;stroke:#333333;stroke-width:0.94387471999999994;stroke-miterlimit:10;stroke-opacity:1" />
</g>
<path
   stroke-miterlimit="10"
   d="m 7.3949959,8.7915039 c 0,0 4.5997121,3.4479381 6.1590941,7.5745771 0,0 0.603732,0.587617 1.096006,0 0.49124,-0.588725 5.446999,-9.5184856 7.774204,-11.1991333 0.328182,-0.5598456 0.192988,-0.7364636 0.192988,-0.7364636 l -1.068141,0 c 0,0 -3.778224,1.2963093 -7.474918,7.5723559 C 12.596376,9.5579587 10.10508,8.290531 9.749033,8.290531 l -2.3540371,-0.02888 0,0.529854 z"
   id="path11"
   style="fill:#ffffff;stroke:#333333;stroke-width:0.75000000000000000;stroke-miterlimit:10" />
</svg>