<?xml version="1.0" encoding="UTF-8" standalone="no"?>
<!-- Generator: Adobe Illustrator 16.2.1, SVG Export Plug-In . SVG Version: 6.00 Build 0)  -->

<svg
   xmlns:dc="http://purl.org/dc/elements/1.1/"
   xmlns:cc="http://creativecommons.org/ns#"
   xmlns:rdf="http://www.w3.org/1999/02/22-rdf-syntax-ns#"
   xmlns:svg="http://www.w3.org/2000/svg"
   xmlns="http://www.w3.org/2000/svg"
   xmlns:sodipodi="http://sodipodi.sourceforge.net/DTD/sodipodi-0.dtd"
   xmlns:inkscape="http://www.inkscape.org/namespaces/inkscape"
   version="1.1"
   id="Layer_1"
   x="0px"
   y="0px"
   width="512px"
   height="512px"
   viewBox="0 0 512 512"
   style="enable-background:new 0 0 512 512;"
   xml:space="preserve"
   inkscape:version="0.48.4 r9939"
   sodipodi:docname="social-buffer-outline.svg"><metadata
     id="metadata17"><rdf:RDF><cc:Work
         rdf:about=""><dc:format>image/svg+xml</dc:format><dc:type
           rdf:resource="http://purl.org/dc/dcmitype/StillImage" /><dc:title></dc:title></cc:Work></rdf:RDF></metadata><defs
     id="defs15" /><sodipodi:namedview
     pagecolor="#ffffff"
     bordercolor="#666666"
     borderopacity="1"
     objecttolerance="10"
     gridtolerance="10"
     guidetolerance="10"
     inkscape:pageopacity="0"
     inkscape:pageshadow="2"
     inkscape:window-width="753"
     inkscape:window-height="480"
     id="namedview13"
     showgrid="false"
     inkscape:zoom="0.4609375"
     inkscape:cx="256"
     inkscape:cy="256"
     inkscape:window-x="1497"
     inkscape:window-y="354"
     inkscape:window-maximized="0"
     inkscape:current-layer="Layer_1" /><g
     id="g3"
     style="fill:#313540;fill-opacity:1"><g
       id="g5"
       style="fill:#313540;fill-opacity:1"><path
         d="M70.7,164.5l169.2,81.7c4.4,2.1,10.3,3.2,16.1,3.2s11.7-1.1,16.1-3.2l169.2-81.7c8.9-4.3,8.9-11.3,0-15.6L272.1,67.2    c-4.4-2.1-10.3-3.2-16.1-3.2s-11.7,1.1-16.1,3.2L70.7,148.9C61.8,153.2,61.8,160.2,70.7,164.5z M246.8,81.6    c1.6-0.8,4.9-1.6,9.2-1.6c4.3,0,7.5,0.8,9.2,1.6l155.5,75.1l-155.5,75.1c-1.6,0.8-4.9,1.6-9.2,1.6c-4.3,0-7.5-0.8-9.2-1.6    L91.3,156.7L246.8,81.6z"
         id="path7"
         style="fill:#313540;fill-opacity:1" /><path
         d="M441.3,248.2c0,0-30.9-14.9-35-16.9s-5.2-1.9-9.5,0.1s-124.8,60.2-124.8,60.2c-4.5,2.1-10.3,3.2-16.1,3.2    s-11.7-1.1-16.1-3.2c0,0-117.3-56.6-122.8-59.3c-6-2.9-7.7-2.9-13.1-0.3c-5.6,2.7-33.4,16.1-33.4,16.1c-8.9,4.3-8.9,11.3,0,15.6    l169.2,81.7c4.4,2.1,10.3,3.2,16.1,3.2s11.7-1.1,16.1-3.2l169.2-81.7C450.2,259.5,450.2,252.5,441.3,248.2z M265.2,331.1    c-1.6,0.8-4.9,1.6-9.2,1.6c-4.3,0-7.5-0.8-9.2-1.6L91.3,256l18.9-9.1l122.7,59.3c6.4,3.1,14.6,4.8,23.1,4.8s16.6-1.7,23.1-4.8    l122.7-59.3l18.9,9.1L265.2,331.1z"
         id="path9"
         style="fill:#313540;fill-opacity:1" /></g><path
       d="M441.3,347.5c0,0-30.9-14.9-35-16.9s-5.2-1.9-9.5,0.1S272.1,391,272.1,391c-4.5,2.1-10.3,3.2-16.1,3.2s-11.7-1.1-16.1-3.2   c0,0-117.3-56.6-122.8-59.3c-6-2.9-7.7-2.9-13.1-0.3c-5.6,2.7-33.4,16.1-33.4,16.1c-8.9,4.3-8.9,11.3,0,15.6l169.2,81.7   c4.4,2.2,10.3,3.2,16.1,3.2s11.7-1.1,16.1-3.2l169.2-81.7C450.2,358.8,450.2,351.8,441.3,347.5z M265.2,430.4   c-1.6,0.8-4.9,1.6-9.2,1.6c-4.3,0-7.5-0.8-9.2-1.6L91.3,355.3l18.9-9.1l122.7,59.3c6.4,3.1,14.6,4.8,23.1,4.8s16.6-1.7,23.1-4.8   l122.7-59.3l18.9,9.1L265.2,430.4z"
       id="path11"
       style="fill:#313540;fill-opacity:1" /></g></svg>