<?xml version="1.0" encoding="UTF-8" standalone="no"?>
<!-- Generator: Adobe Illustrator 15.1.0, SVG Export Plug-In . SVG Version: 6.00 Build 0)  -->

<svg
   xmlns:dc="http://purl.org/dc/elements/1.1/"
   xmlns:cc="http://creativecommons.org/ns#"
   xmlns:rdf="http://www.w3.org/1999/02/22-rdf-syntax-ns#"
   xmlns:svg="http://www.w3.org/2000/svg"
   xmlns="http://www.w3.org/2000/svg"
   xmlns:sodipodi="http://sodipodi.sourceforge.net/DTD/sodipodi-0.dtd"
   xmlns:inkscape="http://www.inkscape.org/namespaces/inkscape"
   version="1.1"
   id="Layer_1"
   x="0px"
   y="0px"
   width="24px"
   height="24px"
   viewBox="0 0 24 24"
   enable-background="new 0 0 24 24"
   xml:space="preserve"
   inkscape:version="0.47 r22583"
   sodipodi:docname="icon.svg"><metadata
   id="metadata27"><rdf:RDF><cc:Work
       rdf:about=""><dc:format>image/svg+xml</dc:format><dc:type
         rdf:resource="http://purl.org/dc/dcmitype/StillImage" /><dc:title></dc:title></cc:Work></rdf:RDF></metadata><defs
   id="defs25"><inkscape:perspective
     sodipodi:type="inkscape:persp3d"
     inkscape:vp_x="0 : 12 : 1"
     inkscape:vp_y="0 : 1000 : 0"
     inkscape:vp_z="24 : 12 : 1"
     inkscape:persp3d-origin="12 : 8 : 1"
     id="perspective29" /></defs><sodipodi:namedview
   pagecolor="#ffffff"
   bordercolor="#666666"
   borderopacity="1"
   objecttolerance="10"
   gridtolerance="10"
   guidetolerance="10"
   inkscape:pageopacity="0"
   inkscape:pageshadow="2"
   inkscape:window-width="2048"
   inkscape:window-height="1076"
   id="namedview23"
   showgrid="true"
   inkscape:snap-global="false"
   inkscape:zoom="34.875"
   inkscape:cx="6.7670251"
   inkscape:cy="11.942652"
   inkscape:window-x="0"
   inkscape:window-y="25"
   inkscape:window-maximized="1"
   inkscape:current-layer="Layer_1"><inkscape:grid
     type="xygrid"
     id="grid2835" /></sodipodi:namedview>
<g
   id="g3"
   transform="matrix(1,0,0,0.95840323,0,-0.03393642)">
	<path
   d="m 19.206039,4.1861601 c 0.918524,0 1.671146,0.7328596 1.671146,1.6284673 l 0,11.3992706 c 0,0.894621 -0.752622,1.626494 -1.671146,1.626494 l -1.112748,0 -1.115784,0 0,1.08696 0,1.872097 -3.617444,-2.714441 -0.277175,-0.244616 -0.391485,0 -9.9075085,0 c -0.9185234,0 -1.6701344,-0.731873 -1.6701344,-1.626494 l 0,-11.400257 c 0,-0.8956076 0.751611,-1.6284672 1.6701344,-1.6284672 l 16.4221445,9.863e-4 m 0,-1.0859736 -16.4221445,0 C 1.2533595,3.1001865 0,4.3212904 0,5.813641 l 0,11.400257 c 0,1.494323 1.2533595,2.713454 2.7838945,2.713454 l 9.9095315,0 5.4029,4.072648 0,-4.072648 1.112748,0 c 1.531547,0 2.783895,-1.219131 2.783895,-2.713454 l 0,-11.400257 c -0.003,-1.4923506 -1.254372,-2.7134545 -2.78693,-2.7134545 l 0,0 z"
   id="path5"
   style="fill:#333333" />
	<line
   x1="18.798"
   y1="2.026"
   x2="18.798"
   y2="2.026"
   id="line7"
   style="fill:none" />
	<path
   d="m 13.697844,9.9251444 h -10.189 c -0.275,0 -0.502,-0.19 -0.502,-0.42 v -0.032 c 0,-0.23 0.227,-0.419 0.502,-0.419 h 10.189 c 0.275,0 0.502,0.189 0.502,0.419 v 0.032 c 0.006,0.23 -0.22,0.42 -0.502,0.42 z"
   id="path9"
   style="fill:#333333;fill-opacity:1" />
	<path
   d="m 18.316457,12.994077 -14.6129908,0 c -0.3943889,0 -0.7201031,-0.206929 -0.7201031,-0.458747 l 0,-0.03504 c 0,-0.251818 0.3257142,-0.459842 0.7201031,-0.459842 l 14.6129908,0 c 0.394389,0 0.718141,0.208024 0.718141,0.459842 l 0,0.03504 c 0.0078,0.251818 -0.316885,0.458747 -0.718141,0.458747 z"
   id="path11"
   style="fill:#333333;fill-opacity:1" />
	<path
   d="m 18.27409,16.003082 -14.5562603,0 c -0.3928578,0 -0.7173075,-0.19884 -0.7173075,-0.444218 l 0,-0.03279 c 0,-0.243262 0.3244497,-0.444218 0.7173075,-0.444218 l 14.5562603,0 c 0.392858,0 0.715353,0.19884 0.715353,0.444218 l 0,0.03279 c 0.0078,0.243262 -0.315655,0.444218 -0.715353,0.444218 z"
   id="path13"
   style="fill:#333333;fill-opacity:1" />
	<path
   d="m 24.031,4.574 -5.873,5.25 c 0,0 -2.016,0.518 -2.119,0.518 -0.103,0 -1.391,-0.518 -1.564,-0.776 -0.174,-0.259 -0.486,-1.01 -0.486,-1.208 0,-0.198 0.035,-0.901 0,-0.901 -0.034,0 -0.034,-0.479 0,-0.702 0.035,-0.222 0.591,-1.812 0.591,-1.812 0,0 0.278,-0.813 0.313,-0.924 0.033,-0.111 1.008,-0.962 1.182,-1.073 0.174,-0.111 1.807,-0.999 1.807,-0.999 l 1.117,-0.48 1.105,-0.407 h 3.197 l 0.73,3.514 z"
   id="path15"
   style="fill:#ffffff" />
	<g
   id="g17">
		<path
   d="m 15.906,4.66 -1.279,3.43 c -0.066,0.18 0.031,0.327 0.227,0.32 l 3.623,-0.125 c 0.074,-0.004 0.145,-0.024 0.215,-0.063 l 0.006,0.005 c 0.01,-0.005 0.02,-0.015 0.029,-0.02 L 22.07,5.78 21.493,4.968 18.472,7.161 C 18.351,7.25 18.181,7.218 18.093,7.096 L 17.956,6.903 C 17.867,6.781 17.897,6.611 18.018,6.521 L 21.034,4.333 20.466,3.531 17.42,5.739 C 17.309,5.818 17.161,5.792 17.082,5.68 L 16.91,5.442 C 16.832,5.331 16.857,5.179 16.967,5.099 L 20.02,2.892 19.413,2.028 16.179,4.375 C 16.059,4.434 15.953,4.534 15.906,4.66 z M 16.294,5.293 18.01,7.71 C 18.112,7.857 17.94,8.092 17.715,8.1 L 15.738,8.135 C 15.726,8.1 15.722,8.064 15.703,8.034 L 15.191,7.313 c -0.004,-0.006 0,-0.016 -0.004,-0.016 l 0.646,-1.848 c 0.078,-0.21 0.358,-0.303 0.461,-0.156 z"
   id="path19"
   style="fill:#333333;fill-opacity:1" />
		<path
   d="M 19.648,1.843 20.033,1.56 c 0.72,-0.522 1.724,-0.351 2.24,0.375 l 0.791,1.117 c 0.516,0.726 0.345,1.742 -0.373,2.264 L 22.304,5.601 19.648,1.843 z"
   id="path21"
   style="fill:#333333;fill-opacity:1" />
	</g>
</g>
</svg>