<?xml version="1.0" encoding="UTF-8" standalone="no"?>
<!-- Generator: Adobe Illustrator 16.2.1, SVG Export Plug-In . SVG Version: 6.00 Build 0)  -->

<svg
   xmlns:dc="http://purl.org/dc/elements/1.1/"
   xmlns:cc="http://creativecommons.org/ns#"
   xmlns:rdf="http://www.w3.org/1999/02/22-rdf-syntax-ns#"
   xmlns:svg="http://www.w3.org/2000/svg"
   xmlns="http://www.w3.org/2000/svg"
   xmlns:sodipodi="http://sodipodi.sourceforge.net/DTD/sodipodi-0.dtd"
   xmlns:inkscape="http://www.inkscape.org/namespaces/inkscape"
   version="1.1"
   id="Layer_1"
   x="0px"
   y="0px"
   width="512px"
   height="512px"
   viewBox="0 0 512 512"
   enable-background="new 0 0 512 512"
   xml:space="preserve"
   inkscape:version="0.48.4 r9939"
   sodipodi:docname="forum.svg"><metadata
     id="metadata13"><rdf:RDF><cc:Work
         rdf:about=""><dc:format>image/svg+xml</dc:format><dc:type
           rdf:resource="http://purl.org/dc/dcmitype/StillImage" /><dc:title /></cc:Work></rdf:RDF></metadata><defs
     id="defs11" /><sodipodi:namedview
     pagecolor="#ffffff"
     bordercolor="#666666"
     borderopacity="1"
     objecttolerance="10"
     gridtolerance="10"
     guidetolerance="10"
     inkscape:pageopacity="0"
     inkscape:pageshadow="2"
     inkscape:window-width="1432"
     inkscape:window-height="853"
     id="namedview9"
     showgrid="false"
     inkscape:zoom="0.4609375"
     inkscape:cx="-615.05085"
     inkscape:cy="256"
     inkscape:window-x="1459"
     inkscape:window-y="137"
     inkscape:window-maximized="0"
     inkscape:current-layer="Layer_1" /><g
     id="g3"
     style="stroke:#313540;stroke-opacity:1;fill:#ffffff;fill-opacity:1;stroke-width:14;stroke-miterlimit:4;stroke-dasharray:none"><path
       d="M391.553,64H57.607C53.131,64,48,67.745,48,72.159v214.217c0,4.413,5.131,8.624,9.607,8.624H115v88.894L205.128,295   h186.425c4.477,0,7.447-4.211,7.447-8.624V72.159C399,67.745,396.029,64,391.553,64z"
       id="path5"
       style="stroke:#313540;stroke-opacity:1;fill:#ffffff;fill-opacity:1;stroke-width:14;stroke-miterlimit:4;stroke-dasharray:none" /><path
       d="M456.396,127H424v166.57c0,15.987-6.915,26.43-25.152,26.43H218.096l-38.905,39h129.688L399,448v-89h57.396   c4.478,0,7.604-4.262,7.604-8.682V136.103C464,131.689,460.874,127,456.396,127z"
       id="path7"
       style="stroke:#313540;stroke-opacity:1;fill:#ffffff;fill-opacity:1;stroke-width:14;stroke-miterlimit:4;stroke-dasharray:none" /></g></svg>