<?xml version="1.0" encoding="UTF-8" standalone="no"?>
<!-- Generator: Adobe Illustrator 15.1.0, SVG Export Plug-In . SVG Version: 6.00 Build 0)  -->

<svg
   xmlns:dc="http://purl.org/dc/elements/1.1/"
   xmlns:cc="http://creativecommons.org/ns#"
   xmlns:rdf="http://www.w3.org/1999/02/22-rdf-syntax-ns#"
   xmlns:svg="http://www.w3.org/2000/svg"
   xmlns="http://www.w3.org/2000/svg"
   xmlns:sodipodi="http://sodipodi.sourceforge.net/DTD/sodipodi-0.dtd"
   xmlns:inkscape="http://www.inkscape.org/namespaces/inkscape"
   version="1.1"
   id="Layer_1"
   x="0px"
   y="0px"
   width="24px"
   height="24px"
   viewBox="0 0 24 24"
   enable-background="new 0 0 24 24"
   xml:space="preserve"
   inkscape:version="0.47 r22583"
   sodipodi:docname="icon.svg"
   inkscape:export-filename="/home/ajay/Desktop/pix_plugins (2)/pix_plugins/mod/forum/icon.png"
   inkscape:export-xdpi="90"
   inkscape:export-ydpi="90"><metadata
   id="metadata33"><rdf:RDF><cc:Work
       rdf:about=""><dc:format>image/svg+xml</dc:format><dc:type
         rdf:resource="http://purl.org/dc/dcmitype/StillImage" /><dc:title></dc:title></cc:Work></rdf:RDF></metadata><defs
   id="defs31"><inkscape:perspective
     sodipodi:type="inkscape:persp3d"
     inkscape:vp_x="0 : 12 : 1"
     inkscape:vp_y="0 : 1000 : 0"
     inkscape:vp_z="24 : 12 : 1"
     inkscape:persp3d-origin="12 : 8 : 1"
     id="perspective35" /></defs><sodipodi:namedview
   pagecolor="#ffffff"
   bordercolor="#666666"
   borderopacity="1"
   objecttolerance="10"
   gridtolerance="10"
   guidetolerance="10"
   inkscape:pageopacity="0"
   inkscape:pageshadow="2"
   inkscape:window-width="2048"
   inkscape:window-height="1076"
   id="namedview29"
   showgrid="true"
   inkscape:snap-global="false"
   inkscape:zoom="34.875"
   inkscape:cx="6.7670251"
   inkscape:cy="11.942652"
   inkscape:window-x="0"
   inkscape:window-y="25"
   inkscape:window-maximized="1"
   inkscape:current-layer="Layer_1"><inkscape:grid
     type="xygrid"
     id="grid2841" /></sodipodi:namedview>

<g
   id="g23"
   transform="matrix(0.99767731,0,0,1.026665,0.0558699,-0.82670305)"
   style="fill:#333333;fill-opacity:1">
	<path
   d="m 15.807,15.973 v 0.859 c 0,0.705 -0.571,1.285 -1.27,1.285 H 7.01 6.713 l -0.211,0.17 -2.749,2.148 V 18.976 18.117 H 2.906 2.061 c -0.697,0 -1.269,-0.58 -1.269,-1.285 V 7.823 c 0,-0.707 0.571,-1.288 1.269,-1.288 H 6.925 V 5.677 H 2.061 c -1.162,0 -2.114,0.966 -2.114,2.146 v 9.009 c 0,1.178 0.952,2.145 2.114,2.145 h 0.846 v 3.217 l 4.104,-3.217 h 7.527 c 1.164,0 2.115,-0.967 2.115,-2.145 v -0.859 h -0.846 z"
   id="path25"
   style="fill:#333333;fill-opacity:1" />
	<path
   d="m 21.939,3.602 c 0.697,0 1.268,0.557 1.268,1.236 v 8.65 c 0,0.682 -0.57,1.236 -1.268,1.236 h -0.846 -0.847 v 0.824 1.422 L 17.497,14.909 17.286,14.723 H 16.99 9.463 c -0.698,0 -1.27,-0.555 -1.27,-1.236 v -8.65 c 0,-0.68 0.571,-1.236 1.27,-1.236 h 12.476 m 0,-0.824 H 9.463 c -1.164,0 -2.115,0.927 -2.115,2.061 v 8.65 c 0,1.135 0.951,2.061 2.115,2.061 h 7.527 l 4.104,3.09 v -3.09 h 0.846 c 1.162,0 2.114,-0.926 2.114,-2.061 v -8.65 c 0,-1.134 -0.952,-2.061 -2.115,-2.061 l 0,0 z"
   id="path27"
   style="fill:#333333;fill-opacity:1" />
</g>
</svg>