<?xml version="1.0" encoding="UTF-8" standalone="no"?>
<!-- Generator: Adobe Illustrator 15.1.0, SVG Export Plug-In . SVG Version: 6.00 Build 0)  -->

<svg
   xmlns:dc="http://purl.org/dc/elements/1.1/"
   xmlns:cc="http://creativecommons.org/ns#"
   xmlns:rdf="http://www.w3.org/1999/02/22-rdf-syntax-ns#"
   xmlns:svg="http://www.w3.org/2000/svg"
   xmlns="http://www.w3.org/2000/svg"
   xmlns:sodipodi="http://sodipodi.sourceforge.net/DTD/sodipodi-0.dtd"
   xmlns:inkscape="http://www.inkscape.org/namespaces/inkscape"
   version="1.1"
   id="svg3117"
   sodipodi:docname="icon.svg"
   inkscape:version="0.47 r22583"
   inkscape:export-filename="C:\Users\ajay\Desktop\32x32 black in white\lti\icon.png"
   inkscape:export-xdpi="90"
   inkscape:export-ydpi="90"
   x="0px"
   y="0px"
   width="24"
   height="24"
   viewBox="0 0 24 24"
   enable-background="new 0 0 32 32"
   xml:space="preserve"><metadata
   id="metadata17"><rdf:RDF><cc:Work
       rdf:about=""><dc:format>image/svg+xml</dc:format><dc:type
         rdf:resource="http://purl.org/dc/dcmitype/StillImage" /><dc:title></dc:title></cc:Work></rdf:RDF></metadata><defs
   id="defs15"><inkscape:perspective
     sodipodi:type="inkscape:persp3d"
     inkscape:vp_x="0 : 16 : 1"
     inkscape:vp_y="0 : 1000 : 0"
     inkscape:vp_z="32 : 16 : 1"
     inkscape:persp3d-origin="16 : 10.666667 : 1"
     id="perspective19" /></defs>
<sodipodi:namedview
   bordercolor="#666666"
   pagecolor="#ffffff"
   id="base"
   borderopacity="1.0"
   inkscape:pageopacity="0.0"
   inkscape:zoom="26.15625"
   inkscape:pageshadow="2"
   inkscape:cx="2.0454002"
   inkscape:cy="15.847072"
   inkscape:current-layer="svg3117"
   showgrid="true"
   inkscape:grid-bbox="true"
   inkscape:document-units="px"
   inkscape:snap-global="false"
   inkscape:window-width="2048"
   inkscape:window-height="1076"
   inkscape:window-x="0"
   inkscape:window-y="25"
   inkscape:window-maximized="1">
	<inkscape:grid
   type="xygrid"
   id="grid3125"
   empspacing="5"
   visible="true"
   enabled="true"
   snapvisiblegridlinesonly="true" />
</sodipodi:namedview>
<path
   d="m 19.568509,23.991854 -15.2134296,0 c -1.2929043,0 -2.3411137,-0.935357 -2.3411137,-2.088279 l 0,-19.8337028 c 0,-1.15292107 1.0473626,-2.08745457 2.3411137,-2.08745457 l 11.1010286,0 c 0.0018,0 0.0033,0 0.0059,0 l 0.01098,0 0,0 c 0.187968,0 4.285128,0.01977914 5.730438,0.09394785 1.153199,0.62137411 0.70699,5.48028922 0.70699,5.64758242 l 0,0 0,0.010713 c 0,8.243e-4 0,0.00164 0,0.00248 l 0,16.1664411 c -8.3e-4,1.152921 -1.049055,2.088278 -2.341961,2.088278 z m 1.599409,-18.0272679 0,-4.2317724 C 21.126428,1.0364462 20.808072,0.30052164 19.021543,0.49088952 l -3.991322,0 -11.0476877,0 c -0.6773565,0 -1.226862,0.49034175 -1.226862,1.09523388 l 0,20.8012006 c 0,0.603244 0.5495055,1.095234 1.226862,1.095234 l 15.9576737,0 c 0.677357,0 1.227711,-0.49199 1.227711,-1.095234 l 0,-16.4227379 z"
   id="path5"
   style="fill:#333333;fill-opacity:1" />
<path
   d="m 7.3913251,23.396851 c 0,0.0717 -0.080015,0.130208 -0.1794453,0.130208 l 0,0 c -0.099445,0 -0.1794455,-0.0585 -0.1794455,-0.130208 l 0,-23.28340098 c 0,-0.07252114 0.080015,-0.13103239 0.1794455,-0.13103239 l 0,0 c 0.098301,0 0.1794453,0.05851117 0.1794453,0.13103239 l 0,23.28340098 z"
   id="path7"
   style="fill:#333333" />
<path
   d="m 19.099002,5.7324252 c 0,0.1854234 -0.160294,0.3354102 -0.357579,0.3354102 l -8.421574,0 c -0.197284,0 -0.3575783,-0.1499868 -0.3575783,-0.3354102 l 0,0 c 0,-0.1845991 0.1602943,-0.334586 0.3575783,-0.334586 l 8.421574,0 c 0.198165,-8.241e-4 0.357579,0.1499869 0.357579,0.334586 l 0,0 z"
   id="path9"
   style="fill:#333333" />
<path
   d="m 19.101111,8.6436604 c 0,0.1761722 -0.160434,0.3186768 -0.35789,0.3186768 l -8.428951,0 c -0.197458,0 -0.357892,-0.1425046 -0.357892,-0.3186768 l 0,0 c 0,-0.17539 0.160434,-0.3178955 0.357892,-0.3178955 l 8.428951,0 c 0.198338,-7.83e-4 0.35789,0.1425055 0.35789,0.3178955 l 0,0 z"
   id="path11"
   style="fill:#333333" />
<path
   d="m 19.141701,11.606893 c 0,0.185422 -0.161013,0.33541 -0.359182,0.33541 l -8.459378,0 c -0.19817,0 -0.3591823,-0.149988 -0.3591823,-0.33541 l 0,0 c 0,-0.1846 0.1610123,-0.334586 0.3591823,-0.334586 l 8.459378,0 c 0.199054,-8.24e-4 0.359182,0.149986 0.359182,0.334586 l 0,0 z"
   id="path13"
   style="fill:#333333" />
</svg>