<?xml version="1.0" encoding="UTF-8" standalone="no"?>
<!-- Generator: Adobe Illustrator 16.2.1, SVG Export Plug-In . SVG Version: 6.00 Build 0)  -->

<svg
   xmlns:dc="http://purl.org/dc/elements/1.1/"
   xmlns:cc="http://creativecommons.org/ns#"
   xmlns:rdf="http://www.w3.org/1999/02/22-rdf-syntax-ns#"
   xmlns:svg="http://www.w3.org/2000/svg"
   xmlns="http://www.w3.org/2000/svg"
   xmlns:sodipodi="http://sodipodi.sourceforge.net/DTD/sodipodi-0.dtd"
   xmlns:inkscape="http://www.inkscape.org/namespaces/inkscape"
   version="1.1"
   id="Layer_1"
   x="0px"
   y="0px"
   width="512px"
   height="512px"
   viewBox="0 0 512 512"
   enable-background="new 0 0 512 512"
   xml:space="preserve"
   inkscape:version="0.48.4 r9939"
   sodipodi:docname="cube.svg"><metadata
     id="metadata15"><rdf:RDF><cc:Work
         rdf:about=""><dc:format>image/svg+xml</dc:format><dc:type
           rdf:resource="http://purl.org/dc/dcmitype/StillImage" /><dc:title></dc:title></cc:Work></rdf:RDF></metadata><defs
     id="defs13" /><sodipodi:namedview
     pagecolor="#ffffff"
     bordercolor="#666666"
     borderopacity="1"
     objecttolerance="10"
     gridtolerance="10"
     guidetolerance="10"
     inkscape:pageopacity="0"
     inkscape:pageshadow="2"
     inkscape:window-width="753"
     inkscape:window-height="480"
     id="namedview11"
     showgrid="false"
     inkscape:zoom="0.4609375"
     inkscape:cx="256"
     inkscape:cy="256"
     inkscape:window-x="1854"
     inkscape:window-y="269"
     inkscape:window-maximized="0"
     inkscape:current-layer="Layer_1" /><g
     id="g3"
     style="fill:#313540;fill-opacity:1"><path
       d="M467.301,168.084c-1.805,0-3.516,0.329-5.07,0.962l-2.281,1.15l-171.475,88.938l-3.888,1.996c0,0-0.052,0.023-0.052,0.047   c-7.56,4.668-12.535,12.506-12.535,21.425v185.854c0,6.382,5.649,11.544,12.69,11.544c2.178,0,4.251-0.513,6.065-1.404   c0.155-0.095,0.363-0.188,0.519-0.282l174.731-92.694l0.259-0.141c8.241-4.504,13.735-12.742,13.735-22.105V179.582   C480,173.223,474.299,168.084,467.301,168.084z"
       id="path5"
       style="fill:#313540;fill-opacity:1" /><path
       d="M454.273,118.521l-181.7-81.731c0,0-10.659-4.79-16.577-4.79s-16.526,4.79-16.526,4.79L57.614,118.521   c0,0-7.989,3.292-7.989,9.479c0,6.562,8.3,11.5,8.3,11.5l182.582,96.371l2.902,1.479c3.784,1.687,8.077,2.649,12.587,2.649   c4.561,0,8.915-0.963,12.742-2.696l2.539-1.315l182.893-96.536c0,0,7.508-4.036,7.508-11.453   C461.678,121.5,454.273,118.521,454.273,118.521z"
       id="path7"
       style="fill:#313540;fill-opacity:1" /><path
       d="M227.466,261.178l-3.992-2.043L52.042,170.197l-2.28-1.15c-1.495-0.634-3.258-0.962-5.071-0.962   c-6.997,0-12.69,5.138-12.69,11.497v183.792c0,9.388,5.485,17.602,13.727,22.105l0.208,0.141l174.739,92.694l0,0   c1.918,1.08,4.199,1.687,6.636,1.687c6.989,0,12.69-5.162,12.69-11.544V282.603C240,273.684,235.024,265.846,227.466,261.178z"
       id="path9"
       style="fill:#313540;fill-opacity:1" /></g></svg>