<?xml version="1.0" encoding="UTF-8" standalone="no"?>
<!-- Generator: Adobe Illustrator 15.1.0, SVG Export Plug-In . SVG Version: 6.00 Build 0)  -->

<svg
   xmlns:dc="http://purl.org/dc/elements/1.1/"
   xmlns:cc="http://creativecommons.org/ns#"
   xmlns:rdf="http://www.w3.org/1999/02/22-rdf-syntax-ns#"
   xmlns:svg="http://www.w3.org/2000/svg"
   xmlns="http://www.w3.org/2000/svg"
   xmlns:sodipodi="http://sodipodi.sourceforge.net/DTD/sodipodi-0.dtd"
   xmlns:inkscape="http://www.inkscape.org/namespaces/inkscape"
   version="1.1"
   id="svg9903"
   sodipodi:docname="icon.svg"
   inkscape:version="0.47 r22583"
   x="0px"
   y="0px"
   width="24"
   height="24"
   viewBox="0 0 24 24"
   enable-background="new 0 0 32 32"
   xml:space="preserve"><metadata
   id="metadata19"><rdf:RDF><cc:Work
       rdf:about=""><dc:format>image/svg+xml</dc:format><dc:type
         rdf:resource="http://purl.org/dc/dcmitype/StillImage" /><dc:title></dc:title></cc:Work></rdf:RDF></metadata><defs
   id="defs17"><inkscape:perspective
     sodipodi:type="inkscape:persp3d"
     inkscape:vp_x="0 : 16 : 1"
     inkscape:vp_y="0 : 1000 : 0"
     inkscape:vp_z="32 : 16 : 1"
     inkscape:persp3d-origin="16 : 10.666667 : 1"
     id="perspective21" /></defs>
<sodipodi:namedview
   bordercolor="#666666"
   pagecolor="#ffffff"
   id="base"
   borderopacity="1.0"
   inkscape:pageopacity="0.0"
   inkscape:zoom="26.15625"
   inkscape:pageshadow="2"
   inkscape:cx="16"
   inkscape:cy="16"
   inkscape:current-layer="svg9903"
   showgrid="true"
   inkscape:grid-bbox="true"
   inkscape:document-units="px"
   inkscape:snap-global="false"
   inkscape:window-width="2048"
   inkscape:window-height="1076"
   inkscape:window-x="0"
   inkscape:window-y="25"
   inkscape:window-maximized="1">
	<inkscape:grid
   type="xygrid"
   id="grid9911"
   empspacing="5"
   visible="true"
   enabled="true"
   snapvisiblegridlinesonly="true" />
</sodipodi:namedview>
<path
   d="M 23.875157,4.8278236 C 23.734753,4.3997166 23.264877,3.901731 22.790214,3.7402872 L 17.637526,2.0993441 c -0.45073,-0.1461828 -1.056224,-0.1510021 -1.571574,-0.029718 -0.275224,0.065863 -0.521729,0.166263 -0.722764,0.297185 L 1.4654766,12.155441 c -0.55683166,0.383931 -0.59991031,1.274682 -0.1380112,1.920458 l 5.7222827,8.222385 c 0.3709555,0.520475 0.9724614,0.778304 1.4854158,0.657021 0.1188659,-0.02892 0.2528878,-0.08032 0.3573937,-0.16787 L 22.746337,12.98274 c 0.556831,-0.383127 1.006764,-1.3293 1.041866,-2.071461 l 0.243315,-5.3236258 0,0 c 0.0096,0.040963 0,-0.3558186 -0.156361,-0.7598296 z m -0.650168,0.7831225 -0.255281,5.2842709 c -0.01756,0.548587 -0.382922,1.222473 -0.691652,1.421669 l -13.8529812,9.80389 c -0.019944,0.0049 -0.035102,0.02892 -0.074193,0.03855 -0.1786968,0.04177 -0.4563153,-0.08113 -0.6397983,-0.33092 L 1.9895988,13.605222 C 1.7726099,13.300006 1.8124976,12.933745 1.9377446,12.841376 L 15.792324,3.0366817 c 0.08854,-0.062649 0.261663,-0.1236932 0.44036,-0.166263 0.394887,-0.093172 0.832853,-0.090762 1.147168,0.0024 l 5.152689,1.6409447 c 0.224964,0.073091 0.501785,0.3646539 0.572786,0.579109 0.09254,0.2297161 0.105303,0.4578255 0.119662,0.5180657 z"
   id="path5"
   style="fill:#333333;fill-opacity:1" />
<path
   d="m 18.416134,5.4623536 c -1.222956,0.2875466 -1.980821,1.5148402 -1.695226,2.748559 0.285597,1.2329163 1.506159,1.9943524 2.73071,1.7068056 C 20.676169,9.6293684 21.434033,8.4020754 21.148437,7.1691593 20.885179,5.9498977 19.662224,5.1691847 18.416134,5.4623536 z m 0.855191,3.679471 c -0.790573,0.1863435 -1.57636,-0.3212808 -1.755855,-1.0971744 -0.180292,-0.7750906 0.3199,-1.5863253 1.090529,-1.7670459 0.769832,-0.1815238 1.57636,0.3212811 1.755855,1.0971749 0.180292,0.7766965 -0.299956,1.5815059 -1.090529,1.7670454 z"
   id="path7"
   style="fill:#333333" />
<path
   d="m 6.6213547,15.872663 c -0.078978,0.01848 -0.1667305,-0.0024 -0.2058204,-0.07791 -0.063022,-0.08916 -0.050258,-0.216866 0.058235,-0.285138 l 7.7118797,-5.381459 c 0.09095,-0.06265 0.218585,-0.0506 0.284798,0.05944 0.06143,0.08996 0.05026,0.219274 -0.05903,0.28594 L 6.6995402,15.85339 c -0.043078,-0.0088 -0.059033,0.01526 -0.078179,0.01928 z"
   id="path9"
   style="fill:#333333" />
<path
   d="m 7.5642991,17.244533 c -0.078978,0.01848 -0.1667307,-0.0016 -0.2050228,-0.07631 -0.063022,-0.08915 -0.050258,-0.217667 0.058236,-0.286742 L 15.13019,11.500027 c 0.08854,-0.06184 0.216191,-0.05059 0.283201,0.05943 0.06382,0.09157 0.05106,0.219274 -0.05903,0.286743 l -7.7110778,5.380654 c -0.039888,0.0088 -0.059034,0.01365 -0.078978,0.01767 z"
   id="path11"
   style="fill:#333333" />
<path
   d="m 8.5128276,18.63809 c -0.078977,0.01848 -0.1675282,-0.0033 -0.2050223,-0.07711 -0.063021,-0.09157 -0.051059,-0.219274 0.058235,-0.286742 l 7.7126767,-5.380655 c 0.08854,-0.06345 0.21619,-0.05059 0.283202,0.05783 0.06302,0.09076 0.04946,0.219274 -0.05823,0.286744 l -7.7118777,5.382259 c -0.03909,0.0096 -0.059033,0.01285 -0.078977,0.01767 z"
   id="path13"
   style="fill:#333333" />
<path
   d="m 5.4749835,14.526496 c -0.078977,0.01766 -0.1667304,-0.0024 -0.2050225,-0.07631 -0.063023,-0.09076 -0.051056,-0.219274 0.058235,-0.287547 L 13.040075,8.7819889 c 0.08935,-0.062648 0.21699,-0.050601 0.284798,0.059441 0.06063,0.089959 0.04946,0.2184712 -0.05823,0.2859401 l -7.7118841,5.379852 c -0.039888,0.0096 -0.060629,0.01526 -0.079775,0.01928 z"
   id="path15"
   style="fill:#333333" />
</svg>