<?xml version="1.0" encoding="UTF-8" standalone="no"?>
<!-- Generator: Adobe Illustrator 16.2.1, SVG Export Plug-In . SVG Version: 6.00 Build 0)  -->

<svg
   xmlns:dc="http://purl.org/dc/elements/1.1/"
   xmlns:cc="http://creativecommons.org/ns#"
   xmlns:rdf="http://www.w3.org/1999/02/22-rdf-syntax-ns#"
   xmlns:svg="http://www.w3.org/2000/svg"
   xmlns="http://www.w3.org/2000/svg"
   xmlns:sodipodi="http://sodipodi.sourceforge.net/DTD/sodipodi-0.dtd"
   xmlns:inkscape="http://www.inkscape.org/namespaces/inkscape"
   version="1.1"
   id="Layer_1"
   x="0px"
   y="0px"
   width="512px"
   height="512px"
   viewBox="0 0 512 512"
   enable-background="new 0 0 512 512"
   xml:space="preserve"
   inkscape:version="0.48.4 r9939"
   sodipodi:docname="merge.svg"><metadata
     id="metadata9"><rdf:RDF><cc:Work
         rdf:about=""><dc:format>image/svg+xml</dc:format><dc:type
           rdf:resource="http://purl.org/dc/dcmitype/StillImage" /><dc:title></dc:title></cc:Work></rdf:RDF></metadata><defs
     id="defs7" /><sodipodi:namedview
     pagecolor="#ffffff"
     bordercolor="#666666"
     borderopacity="1"
     objecttolerance="10"
     gridtolerance="10"
     guidetolerance="10"
     inkscape:pageopacity="0"
     inkscape:pageshadow="2"
     inkscape:window-width="753"
     inkscape:window-height="480"
     id="namedview5"
     showgrid="false"
     inkscape:zoom="0.4609375"
     inkscape:cx="256"
     inkscape:cy="256"
     inkscape:window-x="1967"
     inkscape:window-y="304"
     inkscape:window-maximized="0"
     inkscape:current-layer="Layer_1" /><path
     d="M384,224c-23.637,0-44.307,12.89-55.391,32H319c-42.464,0-79.99-17.904-111.535-53.214  c-20.356-22.787-33.493-48.869-37.856-58.218C183.301,132.822,192,115.413,192,96c0-35.29-28.71-64-64-64S64,60.71,64,96  c0,23.637,12.89,44.307,32,55.391v209.219C76.89,371.693,64,392.363,64,416c0,35.29,28.71,64,64,64s64-28.71,64-64  c0-23.637-12.89-44.307-32-55.391V245.692C203.553,294.307,258.468,320,319,320h9.609c11.084,19.11,31.754,32,55.391,32  c35.29,0,64-28.71,64-64S419.29,224,384,224z M128,64c17.673,0,32,14.327,32,32s-14.327,32-32,32s-32-14.327-32-32  S110.327,64,128,64z M128,448c-17.673,0-32-14.327-32-32s14.327-32,32-32s32,14.327,32,32S145.673,448,128,448z M384,320  c-17.673,0-32-14.327-32-32s14.327-32,32-32s32,14.327,32,32S401.673,320,384,320z"
     id="path3"
     style="fill:#313540;fill-opacity:1" /></svg>