<?xml version="1.0" encoding="UTF-8" standalone="no"?>
<!-- Generator: Adobe Illustrator 16.2.1, SVG Export Plug-In . SVG Version: 6.00 Build 0)  -->

<svg
   xmlns:dc="http://purl.org/dc/elements/1.1/"
   xmlns:cc="http://creativecommons.org/ns#"
   xmlns:rdf="http://www.w3.org/1999/02/22-rdf-syntax-ns#"
   xmlns:svg="http://www.w3.org/2000/svg"
   xmlns="http://www.w3.org/2000/svg"
   xmlns:sodipodi="http://sodipodi.sourceforge.net/DTD/sodipodi-0.dtd"
   xmlns:inkscape="http://www.inkscape.org/namespaces/inkscape"
   version="1.1"
   id="Layer_1"
   x="0px"
   y="0px"
   width="512px"
   height="512px"
   viewBox="0 0 512 512"
   style="enable-background:new 0 0 512 512;"
   xml:space="preserve"
   inkscape:version="0.48.4 r9939"
   sodipodi:docname="document.svg"><metadata
     id="metadata9"><rdf:RDF><cc:Work
         rdf:about=""><dc:format>image/svg+xml</dc:format><dc:type
           rdf:resource="http://purl.org/dc/dcmitype/StillImage" /><dc:title></dc:title></cc:Work></rdf:RDF></metadata><defs
     id="defs7" /><sodipodi:namedview
     pagecolor="#ffffff"
     bordercolor="#666666"
     borderopacity="1"
     objecttolerance="10"
     gridtolerance="10"
     guidetolerance="10"
     inkscape:pageopacity="0"
     inkscape:pageshadow="2"
     inkscape:window-width="833"
     inkscape:window-height="619"
     id="namedview5"
     showgrid="false"
     inkscape:zoom="0.4609375"
     inkscape:cx="343.6519"
     inkscape:cy="256"
     inkscape:window-x="1709"
     inkscape:window-y="197"
     inkscape:window-maximized="0"
     inkscape:current-layer="Layer_1" /><path
     d="M399.3,168.9c-0.7-2.9-2-5-3.5-6.8l-83.7-91.7c-1.9-2.1-4.1-3.1-6.6-4.4c-2.9-1.5-6.1-1.6-9.4-1.6H136.2  c-12.4,0-23.7,9.6-23.7,22.9v335.2c0,13.4,11.3,25.9,23.7,25.9h243.1c12.4,0,21.2-12.5,21.2-25.9V178.4  C400.5,174.8,400.1,172.2,399.3,168.9z M305.5,111l58,63.5h-58V111z M144.5,416.5v-320h129v81.7c0,14.8,13.4,28.3,28.1,28.3h66.9  v210H144.5z"
     id="path3"
     style="fill:#313540;fill-opacity:1" /></svg>