<?xml version="1.0" encoding="UTF-8" standalone="no"?>
<!-- Generator: Adobe Illustrator 15.1.0, SVG Export Plug-In . SVG Version: 6.00 Build 0)  -->

<svg
   xmlns:dc="http://purl.org/dc/elements/1.1/"
   xmlns:cc="http://creativecommons.org/ns#"
   xmlns:rdf="http://www.w3.org/1999/02/22-rdf-syntax-ns#"
   xmlns:svg="http://www.w3.org/2000/svg"
   xmlns="http://www.w3.org/2000/svg"
   xmlns:sodipodi="http://sodipodi.sourceforge.net/DTD/sodipodi-0.dtd"
   xmlns:inkscape="http://www.inkscape.org/namespaces/inkscape"
   version="1.1"
   id="svg3117"
   sodipodi:docname="icon.svg"
   inkscape:version="0.47 r22583"
   inkscape:export-filename="C:\Users\ajay\Desktop\32x32 black in white\lti\icon.png"
   inkscape:export-xdpi="90"
   inkscape:export-ydpi="90"
   x="0px"
   y="0px"
   width="32px"
   height="32px"
   viewBox="0 0 32 32"
   enable-background="new 0 0 32 32"
   xml:space="preserve"><metadata
   id="metadata9"><rdf:RDF><cc:Work
       rdf:about=""><dc:format>image/svg+xml</dc:format><dc:type
         rdf:resource="http://purl.org/dc/dcmitype/StillImage" /><dc:title></dc:title></cc:Work></rdf:RDF></metadata><defs
   id="defs7"><inkscape:perspective
     sodipodi:type="inkscape:persp3d"
     inkscape:vp_x="0 : 16 : 1"
     inkscape:vp_y="0 : 1000 : 0"
     inkscape:vp_z="32 : 16 : 1"
     inkscape:persp3d-origin="16 : 10.666667 : 1"
     id="perspective11" /></defs>
<sodipodi:namedview
   bordercolor="#666666"
   pagecolor="#ffffff"
   id="base"
   borderopacity="1.0"
   inkscape:pageopacity="0.0"
   inkscape:zoom="21.28125"
   inkscape:pageshadow="2"
   inkscape:cx="-0.19561418"
   inkscape:cy="15.953322"
   inkscape:current-layer="svg3117"
   showgrid="true"
   inkscape:grid-bbox="true"
   inkscape:document-units="px"
   inkscape:snap-global="false"
   inkscape:window-width="2048"
   inkscape:window-height="1076"
   inkscape:window-x="0"
   inkscape:window-y="25"
   inkscape:window-maximized="1">
	<inkscape:grid
   type="xygrid"
   id="grid3125" />
</sodipodi:namedview>
<path
   d="m 25.18786,30.963793 -18.3589488,0 c -1.5597158,0 -2.8247083,-1.166905 -2.8247083,-2.606698 l 0,-24.751415 C 4.0042029,2.1669048 5.2691954,1 6.8289112,1 L 20.226131,1 c 0.0022,0 0.0044,0 0.0066,0 l 0.01325,0 0,0 c 0.226285,0 0.419456,0.1048789 0.547501,0.2576151 l 6.942005,6.4027026 c 0.16447,0.1191343 0.278166,0.2973265 0.278166,0.5050478 l 0,0 0,0.013237 c 0,0.00102 0,0.00204 0,0.00305 l 0,20.1754375 c -0.001,1.438775 -1.266097,2.606698 -2.825812,2.606698 l 1.9e-5,5e-6 z m -4.727717,-28.9455515 0,5.7917577 6.278601,0 -6.278601,-5.7917577 z m 6.657216,6.4485235 -6.666046,0 c -0.409523,0 -0.740672,-0.3064907 -0.740672,-0.6832401 l -0.0044,-6.0146292 c -4.091796,-0.00531 -8.394582,0.047246 -13.3235898,-0.004 -0.5487998,0.062719 -1.2039211,0.5467666 -1.4843036,1.2359449 l 0,25.9610854 c 0.1905525,0.588747 0.9764623,1.096826 1.4813436,1.367498 l 19.2800438,-0.08525 c 0.894715,-0.246697 1.357816,-0.891336 1.457664,-1.282251 l 0,-20.495165 z m -4.753105,16.971031 -12.7106345,0 c -0.3907568,0 -0.706453,-0.220958 -0.706453,-0.493847 0,-0.272889 0.3156962,-0.493847 0.706453,-0.493847 l 12.7106345,0 c 0.390757,0 0.706453,0.221977 0.706453,0.493847 -10e-4,0.272889 -0.316799,0.493847 -0.706453,0.493847 z m 0,-5.250053 -12.7106345,0 c -0.3907568,0 -0.706453,-0.211794 -0.706453,-0.474501 0,-0.262706 0.3156962,-0.4745 0.706453,-0.4745 l 12.7106345,0 c 0.390757,0 0.706453,0.211794 0.706453,0.4745 0,0.262707 -0.316799,0.474501 -0.706453,0.474501 z m 0,-5.218488 -12.7106345,0 c -0.3907568,0 -0.706453,-0.210776 -0.706453,-0.470427 0,-0.259652 0.3156962,-0.470428 0.706453,-0.470428 l 12.7106345,0 c 0.390757,0 0.706453,0.211794 0.706453,0.470428 -10e-4,0.259651 -0.316799,0.470427 -0.706453,0.470427 z"
   id="path5"
   sodipodi:nodetypes="cccccccccccccccccccccccccccccccccccsccscccsccscccsccsc"
   style="fill:#333333;fill-opacity:1" />
</svg>