<?xml version="1.0" encoding="UTF-8" standalone="no"?>
<!-- Generator: Adobe Illustrator 15.1.0, SVG Export Plug-In . SVG Version: 6.00 Build 0)  -->

<svg
   xmlns:dc="http://purl.org/dc/elements/1.1/"
   xmlns:cc="http://creativecommons.org/ns#"
   xmlns:rdf="http://www.w3.org/1999/02/22-rdf-syntax-ns#"
   xmlns:svg="http://www.w3.org/2000/svg"
   xmlns="http://www.w3.org/2000/svg"
   xmlns:sodipodi="http://sodipodi.sourceforge.net/DTD/sodipodi-0.dtd"
   xmlns:inkscape="http://www.inkscape.org/namespaces/inkscape"
   version="1.1"
   id="svg3117"
   sodipodi:docname="icon.svg"
   inkscape:version="0.47 r22583"
   inkscape:export-filename="C:\Users\ajay\Desktop\32x32 black in white\lti\icon.png"
   inkscape:export-xdpi="90"
   inkscape:export-ydpi="90"
   x="0px"
   y="0px"
   width="32px"
   height="32px"
   viewBox="0 0 32 32"
   enable-background="new 0 0 32 32"
   xml:space="preserve"><metadata
   id="metadata15"><rdf:RDF><cc:Work
       rdf:about=""><dc:format>image/svg+xml</dc:format><dc:type
         rdf:resource="http://purl.org/dc/dcmitype/StillImage" /><dc:title></dc:title></cc:Work></rdf:RDF></metadata><defs
   id="defs13"><inkscape:perspective
     sodipodi:type="inkscape:persp3d"
     inkscape:vp_x="0 : 16 : 1"
     inkscape:vp_y="0 : 1000 : 0"
     inkscape:vp_z="32 : 16 : 1"
     inkscape:persp3d-origin="16 : 10.666667 : 1"
     id="perspective17" /></defs>
<sodipodi:namedview
   bordercolor="#666666"
   pagecolor="#ffffff"
   id="base"
   borderopacity="1.0"
   inkscape:pageopacity="0.0"
   inkscape:zoom="21.28125"
   inkscape:pageshadow="2"
   inkscape:cx="-0.19561418"
   inkscape:cy="15.953322"
   inkscape:current-layer="svg3117"
   showgrid="true"
   inkscape:grid-bbox="true"
   inkscape:document-units="px"
   inkscape:snap-global="false"
   inkscape:window-width="2048"
   inkscape:window-height="1076"
   inkscape:window-x="0"
   inkscape:window-y="25"
   inkscape:window-maximized="1">
	<inkscape:grid
   type="xygrid"
   id="grid3125" />
</sodipodi:namedview>
<path
   d="m 25.205438,30.990877 -18.354289,0 c -1.5599096,0 -2.8242347,-1.16796 -2.8242347,-2.609055 l 0,-24.7737867 C 4.0269143,2.1679595 5.2912394,1 6.851149,1 L 20.24415,1 c 0.0022,0 0.0044,0 0.0075,0 l 0.01295,0 0,0 c 0.226542,0 0.418565,0.1049737 0.546939,0.257848 l 6.940842,6.4084899 c 0.162928,0.1192419 0.276199,0.2965761 0.276199,0.5055043 l 0,0 0,0.013249 c 0,0.00102 0,0.00204 0,0.00306 l 0,20.1936728 c 0,1.440077 -1.264326,2.609056 -2.823157,2.609056 z m 1.928851,-22.5173629 -6.664675,0 c -0.408856,0 -0.74004,-0.3067678 -0.74004,-0.6838577 l 0,-6.1547185 -13.3271956,0 c -0.8166332,0 -1.4800804,0.6125162 -1.4800804,1.3677152 l 0,25.9845509 c 0,0.75418 0.6634472,1.368735 1.4800804,1.368735 l 19.2507516,0 c 0.817713,0 1.481159,-0.614555 1.481159,-1.368735 l 0,-20.5136899 z"
   id="path5"
   style="fill:#333333;fill-opacity:1" />
<path
   id="path9831"
   inkscape:connector-curvature="0"
   sodipodi:nodetypes="ccccccc"
   d="m 9.0007609,22.192831 1.9283331,0.956557 3.019283,-2.12976 -0.0025,1.986513 -2.979702,1.94863 -1.9666767,-1.03706 0,-1.72488 z"
   style="fill:#333333;fill-opacity:1" />
<rect
   id="rect9837"
   x="18.921335"
   y="21.968958"
   width="3.9727621"
   height="1.385041"
   style="fill:#333333;fill-opacity:1" />
<path
   id="path9831_1_"
   inkscape:connector-curvature="0"
   sodipodi:nodetypes="ccccccc"
   d="m 9.0507151,17.226531 1.9283329,0.951376 3.019283,-2.118225 -0.0025,1.975754 -2.979702,1.938077 -1.9666765,-1.031443 0,-1.715539 z"
   style="fill:#333333;fill-opacity:1" />
<rect
   id="rect9837_1_"
   x="18.986452"
   y="17.03565"
   width="3.9727621"
   height="1.385041"
   style="fill:#333333;fill-opacity:1" />
<path
   id="path9831_2_"
   inkscape:connector-curvature="0"
   sodipodi:nodetypes="ccccccc"
   d="m 8.9841097,12.205032 1.9283333,0.953319 3.019282,-2.122551 -0.0025,1.979789 -2.979702,1.942034 -1.9666759,-1.033549 0,-1.719042 z"
   style="fill:#333333;fill-opacity:1" />
<rect
   id="rect9837_2_"
   x="18.98225"
   y="12.005109"
   width="3.9727621"
   height="1.3144454"
   style="fill:#333333;fill-opacity:1" />
</svg>