<?xml version="1.0" encoding="UTF-8" standalone="no"?>
<!-- Generator: Adobe Illustrator 15.1.0, SVG Export Plug-In . SVG Version: 6.00 Build 0)  -->

<svg
   xmlns:dc="http://purl.org/dc/elements/1.1/"
   xmlns:cc="http://creativecommons.org/ns#"
   xmlns:rdf="http://www.w3.org/1999/02/22-rdf-syntax-ns#"
   xmlns:svg="http://www.w3.org/2000/svg"
   xmlns="http://www.w3.org/2000/svg"
   xmlns:sodipodi="http://sodipodi.sourceforge.net/DTD/sodipodi-0.dtd"
   xmlns:inkscape="http://www.inkscape.org/namespaces/inkscape"
   version="1.1"
   id="svg3117"
   sodipodi:docname="icon.svg"
   inkscape:version="0.47 r22583"
   inkscape:export-filename="C:\Users\ajay\Desktop\32x32 black in white\lti\icon.png"
   inkscape:export-xdpi="90"
   inkscape:export-ydpi="90"
   x="0px"
   y="0px"
   width="24"
   height="24"
   viewBox="0 0 24 24"
   enable-background="new 0 0 32 32"
   xml:space="preserve"><metadata
   id="metadata9"><rdf:RDF><cc:Work
       rdf:about=""><dc:format>image/svg+xml</dc:format><dc:type
         rdf:resource="http://purl.org/dc/dcmitype/StillImage" /><dc:title></dc:title></cc:Work></rdf:RDF></metadata><defs
   id="defs7"><inkscape:perspective
     sodipodi:type="inkscape:persp3d"
     inkscape:vp_x="0 : 16 : 1"
     inkscape:vp_y="0 : 1000 : 0"
     inkscape:vp_z="32 : 16 : 1"
     inkscape:persp3d-origin="16 : 10.666667 : 1"
     id="perspective11" /></defs>
<sodipodi:namedview
   bordercolor="#666666"
   pagecolor="#ffffff"
   id="base"
   borderopacity="1.0"
   inkscape:pageopacity="0.0"
   inkscape:zoom="21.28125"
   inkscape:pageshadow="2"
   inkscape:cx="8.3800099"
   inkscape:cy="13.358974"
   inkscape:current-layer="svg3117"
   showgrid="true"
   inkscape:grid-bbox="true"
   inkscape:document-units="px"
   inkscape:snap-global="false"
   inkscape:window-width="2048"
   inkscape:window-height="1076"
   inkscape:window-x="0"
   inkscape:window-y="25"
   inkscape:window-maximized="1">
	<inkscape:grid
   type="xygrid"
   id="grid3125"
   empspacing="5"
   visible="true"
   enabled="true"
   snapvisiblegridlinesonly="true" />
</sodipodi:namedview>
<path
   d="m 19.586033,24.013403 -15.1958974,0 c -1.2909934,0 -2.3380411,-0.933788 -2.3380411,-2.085949 l 0,-19.8067377 c 0,-1.15134602 1.0470477,-2.08513409 2.3380411,-2.08513409 l 11.0890204,0 c 0.0018,0 0.0037,0 0.0055,0 l 0.01097,0 0,0 c 0.187297,0 0.347188,0.08392684 0.453172,0.20615043 l 5.74594,5.12361206 c 0.136134,0.095334 0.230241,0.2379287 0.230241,0.4041527 l 0,0 0,0.010593 c 0,8.165e-4 0,0.00162 0,0.00244 l 0,16.1449194 c -8.3e-4,1.151347 -1.047961,2.085949 -2.338954,2.085949 z m 1.597066,-18.0027177 -5.517557,0 c -0.338966,0 -0.613063,-0.245262 -0.613063,-0.5467469 l 0,-4.92072092 -11.0342007,0 c -0.6770176,0 -1.2261238,0.48970902 -1.2261238,1.09349352 l 0,20.774748 c 0,0.60297 0.5491062,1.094309 1.2261238,1.094309 l 15.9386977,0 c 0.676105,0 1.226123,-0.491339 1.226123,-1.094309 l 0,-16.4007737 z"
   id="path5"
   style="fill:#333333;fill-opacity:1" />
</svg>