<?xml version="1.0" encoding="UTF-8" standalone="no"?>
<!-- Generator: Adobe Illustrator 16.2.1, SVG Export Plug-In . SVG Version: 6.00 Build 0)  -->

<svg
   xmlns:dc="http://purl.org/dc/elements/1.1/"
   xmlns:cc="http://creativecommons.org/ns#"
   xmlns:rdf="http://www.w3.org/1999/02/22-rdf-syntax-ns#"
   xmlns:svg="http://www.w3.org/2000/svg"
   xmlns="http://www.w3.org/2000/svg"
   xmlns:sodipodi="http://sodipodi.sourceforge.net/DTD/sodipodi-0.dtd"
   xmlns:inkscape="http://www.inkscape.org/namespaces/inkscape"
   version="1.1"
   id="Layer_1"
   x="0px"
   y="0px"
   width="512px"
   height="512px"
   viewBox="0 0 512 512"
   style="enable-background:new 0 0 512 512;"
   xml:space="preserve"
   inkscape:version="0.48.4 r9939"
   sodipodi:docname="link.svg"><metadata
     id="metadata15"><rdf:RDF><cc:Work
         rdf:about=""><dc:format>image/svg+xml</dc:format><dc:type
           rdf:resource="http://purl.org/dc/dcmitype/StillImage" /><dc:title></dc:title></cc:Work></rdf:RDF></metadata><defs
     id="defs13" /><sodipodi:namedview
     pagecolor="#ffffff"
     bordercolor="#666666"
     borderopacity="1"
     objecttolerance="10"
     gridtolerance="10"
     guidetolerance="10"
     inkscape:pageopacity="0"
     inkscape:pageshadow="2"
     inkscape:window-width="753"
     inkscape:window-height="480"
     id="namedview11"
     showgrid="false"
     inkscape:zoom="0.4609375"
     inkscape:cx="256"
     inkscape:cy="256"
     inkscape:window-x="1638"
     inkscape:window-y="203"
     inkscape:window-maximized="0"
     inkscape:current-layer="Layer_1" /><g
     id="g3"
     style="fill:#313540;fill-opacity:1"><path
       d="M256.5,208H256v0C256.2,208,256.3,208,256.5,208z"
       id="path5"
       style="fill:#313540;fill-opacity:1" /><path
       d="M368.5,160H320c0,0,26,17,31.6,48H368h0.5c17.6,0,31.5,13.9,31.5,31.5v32c0,17.6-13.9,32.5-31.5,32.5h-112   c-17.6,0-32.5-14.9-32.5-32.5V240h-48v31.5c0,11.5,2.5,22.5,6.9,32.5c12.6,28.2,40.9,48,73.6,48h112c44.2,0,79.5-36.3,79.5-80.5   v-32C448,195.3,412.7,160,368.5,160z"
       id="path7"
       style="fill:#313540;fill-opacity:1" /><path
       d="M329.6,208c-12.1-28.3-40.1-48-73.1-48h-112c-44.2,0-80.5,35.3-80.5,79.5v32c0,44.2,36.3,80.5,80.5,80.5H192   c0,0-25.8-17-32.1-48h-15.4c-17.6,0-32.5-14.9-32.5-32.5v-32c0-17.6,14.9-31.5,32.5-31.5H256h0.5c17.6,0,31.5,13.9,31.5,31.5v32   c0,0.2,0,0.3,0,0.5h48c0-0.2,0-0.3,0-0.5v-32C336,228.3,333.7,217.6,329.6,208z"
       id="path9"
       style="fill:#313540;fill-opacity:1" /></g></svg>