<?xml version="1.0" encoding="UTF-8" standalone="no"?>
<!-- Generator: Adobe Illustrator 15.1.0, SVG Export Plug-In . SVG Version: 6.00 Build 0)  -->

<svg
   xmlns:dc="http://purl.org/dc/elements/1.1/"
   xmlns:cc="http://creativecommons.org/ns#"
   xmlns:rdf="http://www.w3.org/1999/02/22-rdf-syntax-ns#"
   xmlns:svg="http://www.w3.org/2000/svg"
   xmlns="http://www.w3.org/2000/svg"
   xmlns:sodipodi="http://sodipodi.sourceforge.net/DTD/sodipodi-0.dtd"
   xmlns:inkscape="http://www.inkscape.org/namespaces/inkscape"
   version="1.1"
   id="svg3117"
   sodipodi:docname="icon.svg"
   inkscape:version="0.47 r22583"
   inkscape:export-filename="C:\Users\ajay\Desktop\32x32 black in white\lti\icon.png"
   inkscape:export-xdpi="90"
   inkscape:export-ydpi="90"
   x="0px"
   y="0px"
   width="24"
   height="24"
   viewBox="0 0 24 24"
   enable-background="new 0 0 32 32"
   xml:space="preserve"><metadata
   id="metadata19"><rdf:RDF><cc:Work
       rdf:about=""><dc:format>image/svg+xml</dc:format><dc:type
         rdf:resource="http://purl.org/dc/dcmitype/StillImage" /><dc:title></dc:title></cc:Work></rdf:RDF></metadata><defs
   id="defs17"><inkscape:perspective
     sodipodi:type="inkscape:persp3d"
     inkscape:vp_x="0 : 16 : 1"
     inkscape:vp_y="0 : 1000 : 0"
     inkscape:vp_z="32 : 16 : 1"
     inkscape:persp3d-origin="16 : 10.666667 : 1"
     id="perspective21" /></defs>
<sodipodi:namedview
   bordercolor="#666666"
   pagecolor="#ffffff"
   id="base"
   borderopacity="1.0"
   inkscape:pageopacity="0.0"
   inkscape:zoom="26.15625"
   inkscape:pageshadow="2"
   inkscape:cx="16"
   inkscape:cy="16"
   inkscape:current-layer="svg3117"
   showgrid="true"
   inkscape:grid-bbox="true"
   inkscape:document-units="px"
   inkscape:snap-global="false"
   inkscape:window-width="2048"
   inkscape:window-height="1076"
   inkscape:window-x="0"
   inkscape:window-y="25"
   inkscape:window-maximized="1">
	<inkscape:grid
   type="xygrid"
   id="grid3125"
   empspacing="5"
   visible="true"
   enabled="true"
   snapvisiblegridlinesonly="true" />
</sodipodi:namedview>
<path
   d="m 23.457724,11.984416 c 0,4.134269 -3.431784,7.485083 -7.66543,7.485083 l -7.6328251,0 c -4.233646,0 -7.66542938,-3.350814 -7.66542938,-7.485083 l 0,0 c 0,-4.1333818 3.43178338,-7.4850841 7.66542938,-7.4850841 l 7.6328251,0 c 4.233646,0 7.66543,3.3517023 7.66543,7.4850841 l 0,0 z"
   id="path5"
   style="fill:none;stroke:#333333;stroke-width:0.99999988;stroke-linecap:round;stroke-linejoin:round" />
<g
   id="g7"
   transform="matrix(0.8400589,0,0,1.0412914,-1.7439643,-7.9166536)"
   style="fill:#333333">
	<path
   d="M 10.665,22 H 10.097 L 8.833,17.439 7.569,22 H 7.001 L 5.545,16.304 h 0.648 l 1.112,4.592 1.256,-4.592 h 0.544 l 1.256,4.592 1.112,-4.592 h 0.648 L 10.665,22 z"
   id="path9"
   style="fill:#333333" />
	<path
   d="M 17.498,22 H 16.93 L 15.666,17.439 14.402,22 h -0.568 l -1.457,-5.696 h 0.648 l 1.112,4.592 1.255,-4.592 h 0.545 l 1.256,4.592 1.111,-4.592 h 0.648 L 17.498,22 z"
   id="path11"
   style="fill:#333333" />
	<path
   d="M 24.328,22 H 23.76 L 22.496,17.439 21.232,22 h -0.568 l -1.455,-5.696 h 0.648 l 1.111,4.592 1.256,-4.592 h 0.545 l 1.256,4.592 1.111,-4.592 h 0.648 L 24.328,22 z"
   id="path13"
   style="fill:#333333" />
	<path
   d="m 26.217,22 v -0.752 h 0.752 V 22 h -0.752 z"
   id="path15"
   style="fill:#333333" />
</g>
</svg>