<?xml version="1.0" encoding="UTF-8" standalone="no"?>
<!-- Created with Inkscape (http://www.inkscape.org/) -->

<svg
   xmlns:dc="http://purl.org/dc/elements/1.1/"
   xmlns:cc="http://creativecommons.org/ns#"
   xmlns:rdf="http://www.w3.org/1999/02/22-rdf-syntax-ns#"
   xmlns:svg="http://www.w3.org/2000/svg"
   xmlns="http://www.w3.org/2000/svg"
   xmlns:sodipodi="http://sodipodi.sourceforge.net/DTD/sodipodi-0.dtd"
   xmlns:inkscape="http://www.inkscape.org/namespaces/inkscape"
   width="24"
   height="24"
   id="svg2816"
   version="1.1"
   inkscape:version="0.47 r22583"
   sodipodi:docname="workshop.svg"
   inkscape:export-filename="/home/ajay/Desktop/workshop.png"
   inkscape:export-xdpi="90"
   inkscape:export-ydpi="90">
  <defs
     id="defs2818">
    <inkscape:path-effect
       effect="spiro"
       id="path-effect3744"
       is_visible="true" />
    <inkscape:path-effect
       effect="spiro"
       id="path-effect3676"
       is_visible="true" />
    <inkscape:path-effect
       effect="spiro"
       id="path-effect3645"
       is_visible="true" />
    <inkscape:path-effect
       effect="spiro"
       id="path-effect3637"
       is_visible="true" />
    <inkscape:path-effect
       effect="spiro"
       id="path-effect3630"
       is_visible="true" />
    <inkscape:path-effect
       effect="spiro"
       id="path-effect3626"
       is_visible="true" />
    <inkscape:perspective
       sodipodi:type="inkscape:persp3d"
       inkscape:vp_x="0 : 8 : 1"
       inkscape:vp_y="0 : 1000 : 0"
       inkscape:vp_z="16 : 8 : 1"
       inkscape:persp3d-origin="8 : 5.3333333 : 1"
       id="perspective2824" />
  </defs>
  <sodipodi:namedview
     id="base"
     pagecolor="#ffffff"
     bordercolor="#666666"
     borderopacity="1.0"
     inkscape:pageopacity="0.0"
     inkscape:pageshadow="2"
     inkscape:zoom="34.875"
     inkscape:cx="12"
     inkscape:cy="12.515707"
     inkscape:current-layer="layer1"
     showgrid="true"
     inkscape:grid-bbox="true"
     inkscape:document-units="px"
     inkscape:snap-global="false"
     inkscape:window-width="2048"
     inkscape:window-height="1076"
     inkscape:window-x="0"
     inkscape:window-y="25"
     inkscape:window-maximized="1">
    <inkscape:grid
       type="xygrid"
       id="grid2826"
       empspacing="5"
       visible="true"
       enabled="true"
       snapvisiblegridlinesonly="true" />
  </sodipodi:namedview>
  <metadata
     id="metadata2821">
    <rdf:RDF>
      <cc:Work
         rdf:about="">
        <dc:format>image/svg+xml</dc:format>
        <dc:type
           rdf:resource="http://purl.org/dc/dcmitype/StillImage" />
        <dc:title></dc:title>
      </cc:Work>
    </rdf:RDF>
  </metadata>
  <g
     id="layer1"
     inkscape:label="Layer 1"
     inkscape:groupmode="layer"
     transform="translate(0,8)">
    <path
       style="fill:none;stroke:#333333;stroke-width:0.69999993;stroke-linecap:butt;stroke-linejoin:miter;stroke-miterlimit:4;stroke-opacity:1;stroke-dasharray:none"
       d="M 3.6663749,7.190082 C 2.279858,7.9454373 1.6875373,8.8104932 1.1669737,9.6854607 c -0.00328,1.4998363 0.054534,2.9647413 -0.01516,4.5025613 0.3062161,0.729278 0.4177173,1.578661 1.8099819,1.63805 l 9.4298564,-0.133498 0.02828,-6.1311056 C 11.885533,8.6850042 11.363185,7.8057603 9.9917812,7.1220553 8.5372266,8.4781488 5.8423564,8.7937126 3.3010845,7.0707996"
       id="path3742"
       sodipodi:nodetypes="cccccccc" />
    <path
       sodipodi:type="arc"
       style="fill:none;stroke:#333333;stroke-width:0.63045299;stroke-linejoin:round;stroke-miterlimit:4;stroke-opacity:1;stroke-dasharray:none"
       id="path3747"
       sodipodi:cx="7.6042109"
       sodipodi:cy="8.0475941"
       sodipodi:rx="2.8786724"
       sodipodi:ry="3.1500127"
       d="m 10.482883,8.0475941 a 2.8786724,3.1500127 0 1 1 -5.7573445,0 2.8786724,3.1500127 0 1 1 5.7573445,0 z"
       transform="matrix(1.1797943,0,0,1.0449233,-2.2209328,-3.3995673)" />
    <path
       sodipodi:nodetypes="cccccccc"
       id="path3749"
       d="m 14.897621,7.1184699 c -1.284371,0.5975407 -1.89707,1.5281632 -2.441724,2.4925303 l -0.07805,6.1095508 9.487535,-0.0033 c 0.992159,-0.234067 1.845699,-0.631531 1.779675,-2.112919 L 23.686217,9.74731 C 23.174496,8.3856976 22.173289,7.6581099 21.073719,7.0579579 19.397497,8.4509644 17.033997,8.7488015 14.492724,7.013338"
       style="fill:none;stroke:#333333;stroke-width:0.69999993;stroke-linecap:butt;stroke-linejoin:miter;stroke-miterlimit:4;stroke-opacity:1;stroke-dasharray:none" />
    <path
       style="fill:none;stroke:#333333;stroke-width:0.69999993;stroke-linejoin:round;stroke-miterlimit:4;stroke-opacity:1;stroke-dasharray:none"
       d="m 13.177604,-4.1555397 c 0.0453,0.8966301 -0.647101,1.7532142 -1.801947,2.4124267 -0.321189,0.1833417 1.163007,3.1055869 1.193848,3.3256397 0.04897,0.3477243 -3.2434969,-2.54113254 -3.728885,-2.44935529 -0.6522043,0.12331863 -1.3542928,0.18384675 -2.0822585,0.18384675 -3.5452497,0 -6.41924249,-1.55471726 -6.41924249,-3.47255786 0,-1.917841 2.87399279,-3.4725581 6.41924249,-3.4725581 3.5452495,0 6.4192425,1.5547171 6.4192425,3.4725581 z"
       id="path3753"
       sodipodi:nodetypes="cssssssc" />
    <path
       transform="matrix(1.1797943,0,0,1.0449233,8.8723378,-3.5165803)"
       d="m 10.482883,8.0475941 a 2.8786724,3.1500127 0 1 1 -5.7573445,0 2.8786724,3.1500127 0 1 1 5.7573445,0 z"
       sodipodi:ry="3.1500127"
       sodipodi:rx="2.8786724"
       sodipodi:cy="8.0475941"
       sodipodi:cx="7.6042109"
       id="path3756"
       style="fill:none;stroke:#333333;stroke-width:0.63045299;stroke-linejoin:round;stroke-miterlimit:4;stroke-opacity:1;stroke-dasharray:none"
       sodipodi:type="arc" />
  </g>
</svg>
