<?xml version="1.0" encoding="UTF-8" standalone="no"?>
<!-- Generator: Adobe Illustrator 16.2.1, SVG Export Plug-In . SVG Version: 6.00 Build 0)  -->

<svg
   xmlns:dc="http://purl.org/dc/elements/1.1/"
   xmlns:cc="http://creativecommons.org/ns#"
   xmlns:rdf="http://www.w3.org/1999/02/22-rdf-syntax-ns#"
   xmlns:svg="http://www.w3.org/2000/svg"
   xmlns="http://www.w3.org/2000/svg"
   xmlns:sodipodi="http://sodipodi.sourceforge.net/DTD/sodipodi-0.dtd"
   xmlns:inkscape="http://www.inkscape.org/namespaces/inkscape"
   version="1.1"
   id="Layer_1"
   x="0px"
   y="0px"
   width="512px"
   height="512px"
   viewBox="0 0 512 512"
   enable-background="new 0 0 512 512"
   xml:space="preserve"
   inkscape:version="0.48.4 r9939"
   sodipodi:docname="network.svg"><metadata
     id="metadata9"><rdf:RDF><cc:Work
         rdf:about=""><dc:format>image/svg+xml</dc:format><dc:type
           rdf:resource="http://purl.org/dc/dcmitype/StillImage" /><dc:title></dc:title></cc:Work></rdf:RDF></metadata><defs
     id="defs7" /><sodipodi:namedview
     pagecolor="#ffffff"
     bordercolor="#666666"
     borderopacity="1"
     objecttolerance="10"
     gridtolerance="10"
     guidetolerance="10"
     inkscape:pageopacity="0"
     inkscape:pageshadow="2"
     inkscape:window-width="753"
     inkscape:window-height="480"
     id="namedview5"
     showgrid="false"
     inkscape:zoom="0.4609375"
     inkscape:cx="256"
     inkscape:cy="256"
     inkscape:window-x="1855"
     inkscape:window-y="317"
     inkscape:window-maximized="0"
     inkscape:current-layer="Layer_1" /><path
     d="M448,96c0-35.29-28.71-64-64-64s-64,28.71-64,64c0,23.637,12.89,44.307,32,55.391v52.832l-96,48l-96-48v-52.832  c19.11-11.084,32-31.754,32-55.391c0-35.29-28.71-64-64-64S64,60.71,64,96c0,23.637,12.89,44.307,32,55.391v92.387l128,64v52.832  c-19.11,11.084-32,31.754-32,55.391c0,35.29,28.71,64,64,64s64-28.71,64-64c0-23.637-12.89-44.307-32-55.391v-52.832l128-64v-92.387  C435.11,140.307,448,119.637,448,96z M128,64c17.673,0,32,14.327,32,32s-14.327,32-32,32s-32-14.327-32-32S110.327,64,128,64z   M256,448c-17.673,0-32-14.327-32-32s14.327-32,32-32s32,14.327,32,32S273.673,448,256,448z M384,128c-17.673,0-32-14.327-32-32  s14.327-32,32-32s32,14.327,32,32S401.673,128,384,128z"
     id="path3"
     style="fill:#313540;fill-opacity:1" /></svg>