<svg xmlns="http://www.w3.org/2000/svg" viewBox="157 -1509 148 125" preserveAspectRatio="xMinYMid meet" version="1.1" id="svg23"><defs id="defs7"><clipPath id="clip-Activities"><path id="rect4" d="M157-1509h148v125H157z"/></clipPath><style id="style2">.cls-4{fill:#fff}</style></defs><g id="Activities" clip-path="url(#clip-Activities)" style="clip-path:url(#clip-Activities)"><g id="Group_42" data-name="Group 42" transform="translate(-268 -1985)"><ellipse id="Ellipse_37" data-name="Ellipse 37" cx="74" cy="14.785" rx="74" ry="14.785" transform="translate(425 571.43)" style="fill:#000;fill-opacity:.06666667"/><path id="Rectangle_80" data-name="Rectangle 80" transform="translate(451.909 476)" style="fill:#c4c8cc" d="M0 0h94.182v110.215H0z"/><g id="Group_41" data-name="Group 41" transform="translate(467.043 493)"><path id="Rectangle_81" data-name="Rectangle 81" class="cls-4" transform="translate(21.16 .549)" d="M0 0h44.456v5.625H0z"/><path id="Rectangle_82" data-name="Rectangle 82" class="cls-4" transform="translate(21.16 11.652)" d="M0 0h33.342v5.625H0z"/><path id="Rectangle_83" data-name="Rectangle 83" class="cls-4" transform="translate(21.16 30.772)" d="M0 0h44.456v5.625H0z"/><path id="Rectangle_84" data-name="Rectangle 84" class="cls-4" transform="translate(21.16 41.875)" d="M0 0h33.342v5.625H0z"/><path id="Rectangle_85" data-name="Rectangle 85" class="cls-4" transform="translate(21.16 61.291)" d="M0 0h44.456v5.625H0z"/><path id="Rectangle_86" data-name="Rectangle 86" class="cls-4" transform="translate(21.16 72.393)" d="M0 0h33.342v5.625H0z"/><ellipse id="Ellipse_38" data-name="Ellipse 38" class="cls-4" cx="7.007" cy="7" rx="7.007" ry="7"/><ellipse id="Ellipse_39" data-name="Ellipse 39" class="cls-4" cx="7.007" cy="7" rx="7.007" ry="7" transform="translate(0 31)"/><ellipse id="Ellipse_40" data-name="Ellipse 40" class="cls-4" cx="7.007" cy="7" rx="7.007" ry="7" transform="translate(0 61)"/></g></g></g></svg>
