<svg xmlns="http://www.w3.org/2000/svg" viewBox="157 -1305 148 125" preserveAspectRatio="xMinYMid meet" version="1.1" id="svg34"><defs id="defs7"><clipPath id="clip-Courses"><path id="rect4" d="M157-1305h148v125H157z"/></clipPath><style id="style2">.cls-3{fill:#c4c8cc}.cls-4{fill:#fff}</style></defs><g id="Courses" clip-path="url(#clip-Courses)" style="clip-path:url(#clip-Courses)"><g id="Group_44" data-name="Group 44" transform="translate(-268 -1781)"><ellipse id="Ellipse_41" data-name="Ellipse 41" cx="74" cy="14.785" rx="74" ry="14.785" transform="translate(425 571.43)" style="fill:#000;fill-opacity:.06666667"/><path id="Rectangle_87" data-name="Rectangle 87" class="cls-3" transform="translate(451.909 476)" d="M0 0h95.097v110.215H0z"/><g id="Group_43" data-name="Group 43" transform="translate(464.04 494)"><path id="Rectangle_88" data-name="Rectangle 88" class="cls-4" d="M0 0h31.043v34H0z"/><path id="Rectangle_89" data-name="Rectangle 89" class="cls-4" transform="translate(0 42)" d="M0 0h31.043v34H0z"/><path id="Rectangle_90" data-name="Rectangle 90" class="cls-4" transform="translate(39.005)" d="M0 0h31.067v34H0z"/><path id="Rectangle_91" data-name="Rectangle 91" class="cls-4" transform="translate(39.005 42)" d="M0 0h31.067v34H0z"/><path id="Rectangle_92" data-name="Rectangle 92" class="cls-3" transform="translate(3.081 16.549)" d="M0 0h23.023v3.18H0z"/><path id="Rectangle_93" data-name="Rectangle 93" class="cls-3" transform="translate(3.081 58.549)" d="M0 0h23.023v3.18H0z"/><path id="Rectangle_94" data-name="Rectangle 94" class="cls-3" transform="translate(43.122 16.549)" d="M0 0h23.023v3.18H0z"/><path id="Rectangle_95" data-name="Rectangle 95" class="cls-3" transform="translate(43.122 58.549)" d="M0 0h23.023v3.18H0z"/><path id="Rectangle_96" data-name="Rectangle 96" class="cls-3" transform="translate(3.081 21.825)" d="M0 0h14.014v3.18H0z"/><path id="Rectangle_97" data-name="Rectangle 97" class="cls-3" transform="translate(3.081 26.825)" d="M0 0h18.845v3.18H0z"/><path id="Rectangle_98" data-name="Rectangle 98" class="cls-3" transform="translate(3.081 63.825)" d="M0 0h14.014v3.18H0z"/><path id="Rectangle_99" data-name="Rectangle 99" class="cls-3" transform="translate(3.081 68.825)" d="M0 0h18.845v3.18H0z"/><path id="Rectangle_100" data-name="Rectangle 100" class="cls-3" transform="translate(43.122 21.825)" d="M0 0h14.014v3.18H0z"/><path id="Rectangle_101" data-name="Rectangle 101" class="cls-3" transform="translate(43.122 26.825)" d="M0 0h18.845v3.18H0z"/><path id="Rectangle_102" data-name="Rectangle 102" class="cls-3" transform="translate(43.122 63.825)" d="M0 0h14.014v3.18H0z"/><path id="Rectangle_103" data-name="Rectangle 103" class="cls-3" transform="translate(43.122 68.825)" d="M0 0h18.845v3.18H0z"/><ellipse id="Ellipse_42" data-name="Ellipse 42" class="cls-3" cx="5.658" cy="5.652" rx="5.658" ry="5.652" transform="translate(3.003 3.55)"/><ellipse id="Ellipse_43" data-name="Ellipse 43" class="cls-3" cx="5.658" cy="5.652" rx="5.658" ry="5.652" transform="translate(3.003 45.55)"/><ellipse id="Ellipse_44" data-name="Ellipse 44" class="cls-3" cx="5.658" cy="5.652" rx="5.658" ry="5.652" transform="translate(43.044 3.55)"/><ellipse id="Ellipse_45" data-name="Ellipse 45" class="cls-3" cx="5.658" cy="5.652" rx="5.658" ry="5.652" transform="translate(43.044 45.55)"/></g></g></g></svg>
