<svg xmlns="http://www.w3.org/2000/svg" viewBox="0 0 345 150" style="enable-background:new 0 0 345 150" xml:space="preserve"><path d="M325.7 14.7C317.6 6.9 305.3 3 289 3h-55v31h-66l-5.4 22.2c4.5-2.1 10.9-4.2 15.3-5.3 4.4-1.1 8.8-.9 13.1-.9 14.6 0 26.5 4.5 35.6 13.3 9.1 8.8 13.6 20 13.6 33.4 0 9.4-2.3 18.5-7 27.2s-11.3 15.4-19.9 20c-3.1 1.6-6.5 3.1-10.2 4.1H259V95h25c18.2 0 31.7-4.2 40.6-12.5s13.3-19.9 13.3-34.6c0-14.3-4.1-25.4-12.2-33.2zm-37 45.9c-3.5 3-9.6 4.4-18.3 4.4H259V33h13.2c8.4 0 14.2 1.5 17.2 4.7 3.1 3.2 4.6 6.9 4.6 11.5 0 4.7-1.8 8.4-5.3 11.4z"/><path d="M176.5 76.3c-7.9 0-14.7 4.6-18 11.2L119 81.9 136.8 3H101v62H51V3H7v145h44V95h50v53h54.2c-6.7-2-12.5-4.6-17.2-8.1-4.8-3.6-8.7-7.7-11.7-12.3-3-4.6-5.3-9.7-7.3-16.5l39.6-5.7c3.3 6.6 10.1 11.1 17.9 11.1 11.1 0 20.1-9 20.1-20.1s-9.1-20.1-20.1-20.1z"/></svg>
