<?xml version="1.0" encoding="utf-8"?>
<!-- Generator: Adobe Illustrator 21.0.0, SVG Export Plug-In . SVG Version: 6.00 Build 0)  -->
<svg version="1.1" id="Layer_1" xmlns="http://www.w3.org/2000/svg" xmlns:xlink="http://www.w3.org/1999/xlink" x="0px" y="0px"
	 viewBox="0 0 16 16" style="enable-background:new 0 0 16 16;" xml:space="preserve">
<style type="text/css">
	.st0{fill:#58595B;}
</style>
<g>
	<path class="st0" d="M14,6.2h1.7v-5v0c0-0.5-0.4-0.9-0.9-0.9H9.8V2H14V6.2z"/>
	<path class="st0" d="M14,9.8V14H9.8v1.7h5h0c0.5,0,0.9-0.4,0.9-0.9V9.8H14z"/>
</g>
<g>
	<path class="st0" d="M2,6.2V2h4.2V0.3h-5h0c-0.5,0-0.9,0.4-0.9,0.9v5.1H2z"/>
	<path class="st0" d="M2,9.8H0.3v5v0c0,0.5,0.4,0.9,0.9,0.9h5.1V14H2V9.8z"/>
</g>
</svg>
