<?xml version="1.0" encoding="utf-8"?>
<!-- Generator: Adobe Illustrator 21.0.0, SVG Export Plug-In . SVG Version: 6.00 Build 0)  -->
<svg version="1.1" id="Layer_1" xmlns="http://www.w3.org/2000/svg" xmlns:xlink="http://www.w3.org/1999/xlink" x="0px" y="0px"
	 viewBox="0 0 16 16" style="enable-background:new 0 0 16 16;" xml:space="preserve">
<style type="text/css">
	.st0{fill:#58595B;}
	.st1{fill:#99CC33;}
</style>
<path class="st0" d="M1.1,0.3L1.1,0.3h13.7c0.5,0,0.9,0.4,0.9,0.9v0v13.7c0,0.5-0.4,0.9-0.9,0.9h0H1.1c-0.5,0-0.9-0.4-0.9-0.9v0V1.1
	C0.3,0.7,0.7,0.3,1.1,0.3L1.1,0.3z M14,2L14,2H2v12h12V2L14,2z"/>
<path class="st1" d="M7,12.9L7,12.9L7,12.9L7,12.9c-0.4,0.4-0.9,0.4-1.3,0l0,0l0,0l-4-4.2c-0.3-0.3-0.3-0.9,0-1.2
	c0.4-0.4,0.9-0.4,1.2,0l3.5,3.6l7.8-8c0.4-0.4,0.9-0.4,1.2,0c0.4,0.4,0.4,0.9,0,1.3L7,12.9L7,12.9z"/>
</svg>
