<svg width="74.4" height="74.4" xmlns="http://www.w3.org/2000/svg" style="enable-background:new 0 0 74.4 74.4" xml:space="preserve" preserveAspectRatio="xMinYMid meet"><path d="M37.9 74.4c-1 0-1.9-.8-1.9-1.8V64H15.6c-1.8 0-3.2-1.4-3.2-3.2V3.2c0-1.8 1.4-3.2 3.2-3.2h34c.8 0 1.7.3 2.2.9L63.9 13c.6.6.9 1.4.9 2.2v45.5c0 1.8-1.4 3.2-3.2 3.2H41.1v8.5c0 1.1-.9 2-1.9 2h-1.3zm21.7-15.8V21.5h-13c-1.8 0-3.2-1.4-3.2-3.1v-13H17.7v53.3H36v-7.8h-5.1c-1.1 0-2-.9-2-2 0-.4.2-.8.4-1.2l7.9-10.5c.7-.8 1.8-.9 2.7-.3.1.1 8 10.8 8 10.8.7.9.5 2.1-.4 2.8-.3.2-.7.4-1.1.4h-5.2v7.8l18.4-.1zm-10.3-43h9.1l-9.1-9.1v9.1z"/></svg>
