<svg width="24" height="24" fill="none" xmlns="http://www.w3.org/2000/svg"><path fill-rule="evenodd" clip-rule="evenodd" d="M7.497 3.5a1.5 1.5 0 0 0-1.5 1.5v13.019a1.5 1.5 0 0 0 1.5 1.5H8.51a.5.5 0 0 1 0 1H7.497a2.5 2.5 0 0 1-2.5-2.5V4.999a2.5 2.5 0 0 1 2.5-2.5h6.194a2.5 2.5 0 0 1 1.773.738l2.812 2.83a2.5 2.5 0 0 1 .727 1.762v10.19a2.5 2.5 0 0 1-2.5 2.5h-1a.5.5 0 0 1 0-1h1a1.5 1.5 0 0 0 1.5-1.5v-10a.5.5 0 0 0-.5-.5h-2.01a1.5 1.5 0 0 1-1.5-1.5v-2.02a.5.5 0 0 0-.493-.5H7.497Zm7.496.682V6.02a.5.5 0 0 0 .5.5h1.823l-2.322-2.337ZM12 11.007a.5.5 0 0 1 .354.147l3 3a.5.5 0 0 1-.708.707L12.5 12.714V21a.5.5 0 0 1-1 0v-8.286l-2.146 2.147a.5.5 0 0 1-.708-.707l3-3a.5.5 0 0 1 .354-.147Z" fill="#212529"/></svg>
