<svg width="24" height="24" fill="none" xmlns="http://www.w3.org/2000/svg"><circle cx="12" cy="12" r="12" fill="#0F4D9D"/><path d="M8 6.4v8.395c0 .776.273 1.438.82 1.985.547.547 1.208.82 1.985.82h3.345c.777 0 1.439-.273 1.986-.82.546-.547.82-1.209.82-1.985v-2.569c0-.777-.274-1.438-.82-1.985a2.705 2.705 0 0 0-1.986-.82h-3.625c0 .596.288 1.098.863 1.504.575.407 1.28.625 2.115.654h.647c.432.014.648.23.648.647v2.569c0 .431-.216.647-.648.647h-3.345c-.431 0-.647-.216-.647-.647V9.378c0-.82-.21-1.521-.632-2.104C9.104 6.69 8.596 6.4 8 6.4Z" fill="#fff"/></svg>
