<svg xmlns="http://www.w3.org/2000/svg" style="fill:none" height="74" width="74"><path style="clip-rule:evenodd;fill:#000;fill-rule:evenodd;stroke-width:4.9333334" d="M69.067 37c0 17.71-14.357 32.067-32.067 32.067S4.933 54.71 4.933 37 19.29 4.933 37 4.933 69.067 19.29 69.067 37zM74 37c0 20.434-16.566 37-37 37C16.565 74 0 57.434 0 37 0 16.565 16.565 0 37 0c20.434 0 37 16.565 37 37Zm-49.333 8.617V19.733c1.836 0 3.405.899 4.704 2.695 1.3 1.797 1.95 3.96 1.95 6.488v16.701c0 1.33.665 1.996 1.995 1.996H43.63c1.33 0 1.996-.665 1.996-1.996v-7.918c0-1.287-.665-1.952-1.996-1.997h-1.996c-2.573-.09-4.747-.76-6.52-2.015-1.775-1.254-2.662-2.8-2.662-4.638H43.63c2.396 0 4.435.843 6.122 2.528 1.685 1.686 2.529 3.726 2.529 6.122v7.918c0 2.395-.844 4.436-2.53 6.121-1.686 1.687-3.725 2.529-6.12 2.529H33.315c-2.395 0-4.436-.842-6.12-2.529-1.687-1.685-2.53-3.726-2.53-6.121z"/></svg>
