<svg width="24" height="24" fill="none" xmlns="http://www.w3.org/2000/svg"><path fill-rule="evenodd" clip-rule="evenodd" d="M6.369 5.408a1.5 1.5 0 0 1 1.5-1.498h1.799c1.158 0 2.134.693 2.69 1.632.564-.94 1.554-1.632 2.71-1.632h1.807a1.5 1.5 0 0 1 1.5 1.501l-.001.501h1.473a1.5 1.5 0 0 1 1.5 1.5l.006 9.995a1.5 1.5 0 0 1-1.5 1.501h-5.692c-.09 0-.18-.003-.269-.006-.199-.007-.398-.014-.614.014-.304.039-.43.129-.482.227a.5.5 0 0 1-.882.006c-.054-.1-.185-.19-.487-.23-.216-.029-.42-.022-.621-.016-.084.003-.168.005-.253.005H6.951l-2.105-.01a1.5 1.5 0 0 1-1.493-1.5V7.402a1.5 1.5 0 0 1 1.508-1.5l1.507.008v-.502ZM6.367 6.91l-1.511-.008a.5.5 0 0 0-.503.5v9.996a.5.5 0 0 0 .498.5l2.102.01h3.6l.146-.003c.213-.007.554-.018.861.023l.068.01a1.345 1.345 0 0 0-.354-.36c-.376-.264-.937-.414-1.62-.414H7.855a1.5 1.5 0 0 1-1.5-1.502l.01-8.752Zm6.714 11.024.07-.01c.304-.04.648-.027.86-.02l.15.004h5.692a.5.5 0 0 0 .5-.5l-.006-9.996a.5.5 0 0 0-.5-.5h-1.474l-.01 8.754a1.5 1.5 0 0 1-1.5 1.498h-1.81c-.683 0-1.245.15-1.621.415a1.347 1.347 0 0 0-.351.355ZM17.374 6.3a.5.5 0 0 0 0 .221l-.012 9.143a.5.5 0 0 1-.5.499h-1.809c-.808 0-1.596.173-2.197.597l-.003.002V7.302c0-1.231 1.043-2.392 2.215-2.392h1.807a.5.5 0 0 1 .5.5l-.001.891Zm-5.52 1c0-1.237-1.02-2.391-2.186-2.391h-1.8a.5.5 0 0 0-.5.499l-.012 10.254a.5.5 0 0 0 .5.5h1.797c.808 0 1.596.174 2.197.598l.003.002V7.302Z" fill="#212529"/></svg>
