<svg width="74.4" height="74.4" xmlns="http://www.w3.org/2000/svg" style="enable-background:new 0 0 74.4 74.4" xml:space="preserve" preserveAspectRatio="xMinYMid meet"><path d="M74.4 5.6c0-1.3-1.1-2.5-2.5-2.5-.4 0-.7.1-1 .3l-6.6 3.3V2.5c0-1.3-1.1-2.5-2.6-2.5-.4 0-.7.1-1 .2L37.1 12 13.5.3c-1.2-.6-2.7-.1-3.3 1.1-.2.2-.2.6-.3.9v4.2L3.5 3.3C2.3 2.7.7 3.2.2 4.4c-.2.3-.2.7-.2 1v49.1c0 .9.5 1.7 1.3 2.2L36 73.8c.7.3 1.5.3 2.3 0L73 56.7c.8-.4 1.3-1.2 1.3-2.2l.1-48.9zM36.3 62.4c.4.1.9.1 1.3 0 .1 0 .2-.1.3-.1 0 0 24.7-12.2 24.8-12.2.8-.4 1.3-1.2 1.3-2.2V12.3l5.2-2.6v42.9l-32.3 16L5.3 51.8V10.2l5 2.1v35.6c0 .9.5 1.7 1.3 2.2.1 0 24.1 12.2 24.2 12.2.3 0 .4 0 .5.1zm3.5-6.7V16.8l19-9.4v39l-19 9.3zm-24.3-9.5V7.3l19 9.4v38.8l-19-9.3z"/></svg>
