<svg width="74.4" height="74.4" xmlns="http://www.w3.org/2000/svg" style="enable-background:new 0 0 74.4 74.4" xml:space="preserve" preserveAspectRatio="xMinYMid meet"><path d="M72.4 32.9C67.8 24.3 57.9 20.4 49 20.6c-1.3-4.3-3.9-7.9-7.4-10.4-11.9-8.8-31.7-7-39.6 7-5.1 9.5.2 20.1 8.7 24.6v9.5c0 1.3 1.1 2.4 2.2 2.4.6 0 1.1-.2 1.4-.6l7.5-7.8c1.2.1 2.4.2 3.6.1C29 57 41.9 62.1 52.6 61l7.5 7.8c.9.9 2.2.9 3.1-.1.3-.4.6-1 .6-1.5v-9.6c8.5-4.5 13.7-15.2 8.6-24.7zm-58.3 5C6.4 34.2 2.8 26.6 6.5 19.5c3.8-6.6 11.3-9.3 18.1-9.4 4.8-.1 9.5 1.3 13.5 4.2 2.5 1.8 4.3 4 5.4 7-9 1.3-18.9 8.4-18.9 19-1.1 0-2.2-.1-3.4-.2-.6-.1-1.2.2-1.7.5l-4.4 4.5v-5.3c.2-.6-.3-1.4-1-1.9zm17.2-2.7c6.5-11 23.1-12 32.4-4.8 3.1 2.4 5.8 6.3 5.7 10.7 0 5.2-3.4 9.9-9.1 12.8-.7.3-1.2 1.1-1.2 2v5.4l-4.4-4.5c-.5-.6-1.2-.7-1.8-.6-1.2.2-2.2.2-3.4.2-2.6 0-5.2-.4-7.8-1.2-7.8-2.6-15.2-11.1-10.4-20z"/></svg>
