<svg width="24" height="24" fill="none" xmlns="http://www.w3.org/2000/svg"><path d="M11.397 11.381a.5.5 0 1 0 0 1h7.005a.5.5 0 1 0 0-1h-7.005ZM10.897 13.881a.5.5 0 0 1 .5-.5h7.005a.5.5 0 0 1 0 1h-7.005a.5.5 0 0 1-.5-.5ZM11.397 15.381a.5.5 0 1 0 0 1h4.03a.5.5 0 1 0 0-1h-4.03Z" fill="#212529"/><path fill-rule="evenodd" clip-rule="evenodd" d="M14.583 3.046a7.282 7.282 0 0 1 1.94 3.457 7.317 7.317 0 0 1 4.613 10.319l.977 3.649a.5.5 0 0 1-.612.612l-3.649-.978a7.317 7.317 0 0 1-10.375-4.832 7.28 7.28 0 0 1-1.33-.508l-3.648.978a.5.5 0 0 1-.613-.612l.978-3.649a7.314 7.314 0 0 1 11.72-8.436Zm-.707.707a6.284 6.284 0 0 1 1.55 2.539 7.3 7.3 0 0 0-6.01 2.094A7.298 7.298 0 0 0 7.3 14.17a6.267 6.267 0 0 1-.814-.354.499.499 0 0 0-.407-.068l-3.003.805.805-3.003a.499.499 0 0 0-.067-.407 6.314 6.314 0 0 1 10.062-7.39Zm-3.752 5.34a6.314 6.314 0 0 0 7.39 10.063.498.498 0 0 1 .407-.067l3.002.804-.804-3.003a.499.499 0 0 1 .067-.407 6.314 6.314 0 0 0-10.062-7.39Z" fill="#212529"/></svg>
