<svg width="24" height="24" fill="none" xmlns="http://www.w3.org/2000/svg"><path fill-rule="evenodd" clip-rule="evenodd" d="M6.65 3.143a.5.5 0 0 1 .853.354v1A6.494 6.494 0 0 1 12 6.314a6.492 6.492 0 0 1 4.496-1.817v-1a.5.5 0 0 1 .854-.354l3.507 3.502a.5.5 0 0 1 0 .708l-3.507 3.501a.5.5 0 0 1-.854-.354V8.496a2.517 2.517 0 0 0-2.487 2.517v8.012a2.006 2.006 0 0 1-4.01 0l-.001-8.012H9.99a2.517 2.517 0 0 0-2.488-2.517V10.5a.5.5 0 0 1-.853.354L3.143 7.353a.5.5 0 0 1 0-.708L6.65 3.143Zm3.678 5.815a6.498 6.498 0 0 1 1.005-1.898 5.494 5.494 0 0 0-3.822-1.562h-.508a.5.5 0 0 1-.5-.5v-.295l-2.3 2.296 2.3 2.295v-1.3a.5.5 0 0 1 .5-.5h.484a3.511 3.511 0 0 1 2.841 1.465Zm.67 2.055a5.515 5.515 0 0 1 5.49-5.515h.508a.5.5 0 0 0 .5-.5v-.295l2.3 2.296-2.3 2.295v-1.3a.5.5 0 0 0-.5-.5h-.483a3.517 3.517 0 0 0-3.503 3.52v7.983a1.006 1.006 0 1 1-2.012 0v-7.984Z" fill="#212529"/></svg>
