<svg width="74.4" height="74.4" xmlns="http://www.w3.org/2000/svg" style="enable-background:new 0 0 74.4 74.4" xml:space="preserve" preserveAspectRatio="xMinYMid meet"><path d="M71.6 6.9 57 .5c-3.8-1.8-7.7 2.3-6.1 6.1l1.4 3.4c-6.4 2.3-11.5 4.4-15.1 7.6-3.7-3.2-8.8-5.1-15.1-7.3l1.4-3.7c1.6-3.8-2.3-7.9-6.1-6.1L2.8 6.9C.5 8-.6 10.7.4 13.1l6.2 15.1c.9 2.3 3.6 3.6 5.9 2.7 1.3-.5 2.2-1.4 2.7-2.7l1.4-3.6 8.6 3.8c2.7 1 4.4 3.6 4.2 6.4v36.3c0 1.9 1.5 3.4 3.4 3.5h8.8c1.9 0 3.5-1.6 3.5-3.4V35c-.2-2.8.5-5.4 3.2-6.4l9.5-3.8 1.4 3.6c.9 2.3 3.6 3.6 5.9 2.7 1.2-.4 2.2-1.4 2.6-2.6l6.2-15.1c1.2-2.8.1-5.5-2.3-6.5zM39.9 69.2h-5.3v-36c-.2-2.3-1-4.5-2.4-6.4-1-1.3-2.7-2.4-3.8-2.9l-14.5-6.3-1.9 4.7c-.2.5-1.1.9-1.6.7 0 0-.4-.3-.5-.6L5.6 12.3c-.3-.5 0-1.2.5-1.4.8-.2 11.1-5 11.1-3.6.3.3.4.8.3 1.2l-1.9 4.7c7 3 16.9 5.8 19.7 9 .8.8 1.7 1.6 2.3 2.5 2 2.8 2.6 5.4 2.6 8.7l-.3 35.8zm28.9-56-3.9 9.2c-.1.3-.3.4-.5.6-.5.2-1-.1-1.2-.6l-2.4-5-13.6 5.9c-1.5.7-2.3 1.2-3.3 2.5-.7-2.7-1.2-2.5-2.9-4.7 4.4-3.7 11.1-5 18.2-8l-2-4.9c-.2-.4-.1-.8.3-1.2 0-1.3 10.5 4.5 10.9 4.4.3.3.5.8.4 1.4v.4z"/></svg>
