<svg width="24" height="24" fill="none" xmlns="http://www.w3.org/2000/svg"><path fill-rule="evenodd" clip-rule="evenodd" d="M3.5 4.497a2.5 2.5 0 0 1 2.5-2.5h8.998a2.5 2.5 0 0 1 2.5 2.5V5H18a2.5 2.5 0 0 1 2.5 2.5v12.004a2.5 2.5 0 0 1-2.5 2.5h-9.03a2.5 2.5 0 0 1-2.5-2.5v-.51H6a2.5 2.5 0 0 1-2.5-2.5V4.497Zm13.998 11.996V5.999H18a1.5 1.5 0 0 1 1.5 1.5v12.004a1.5 1.5 0 0 1-1.5 1.5h-9.03a1.5 1.5 0 0 1-1.5-1.5v-.51h7.527a2.5 2.5 0 0 0 2.5-2.5ZM6 2.997a1.5 1.5 0 0 0-1.5 1.5v11.996a1.5 1.5 0 0 0 1.5 1.5h8.998a1.5 1.5 0 0 0 1.5-1.5V4.497a1.5 1.5 0 0 0-1.5-1.5H6Zm1.992 7.01a1.5 1.5 0 0 0-1.5 1.5v2.989a1.5 1.5 0 0 0 1.5 1.5h5.002a1.5 1.5 0 0 0 1.5-1.5v-2.99a1.5 1.5 0 0 0-1.5-1.5H7.992Zm-.5 1.5a.5.5 0 0 1 .5-.5h5.002a.5.5 0 0 1 .5.5v2.989a.5.5 0 0 1-.5.5H7.992a.5.5 0 0 1-.5-.5v-2.99Zm-.99-4.01a.5.5 0 0 1 .5-.5h6.992a.5.5 0 0 1 0 1H7.002a.5.5 0 0 1-.5-.5Zm.5-2.5a.5.5 0 0 0 0 1h4.004a.5.5 0 1 0 0-1H7.002Z" fill="#212529"/></svg>
