<svg width="74.4" height="74.4" xmlns="http://www.w3.org/2000/svg" style="enable-background:new 0 0 74.4 74.4" xml:space="preserve" preserveAspectRatio="xMinYMid meet"><path d="M64.9 8.1c-2.1-1.5-4.5-2.6-6.9-3.2-13.7-3.4-28-3.4-41.5 0-2.5.6-4.9 1.7-6.9 3.2-1.6 1.1-2.7 2.8-2.8 4.8v48.6c.1 1.9 1.2 3.7 2.8 4.8 2.1 1.5 4.5 2.6 6.9 3.2 13.7 3.4 28 3.4 41.5 0 2.5-.6 4.9-1.7 6.9-3.2 1.6-1.1 2.7-2.8 2.8-4.8V12.9a6.1 6.1 0 0 0-2.8-4.8zM11.7 19.2c3.4 1.6 6.9 2.7 10.7 3.2 4.8.9 9.7 1.2 14.6 1.2s9.8-.4 14.6-1.2c3.7-.5 7.3-1.6 10.7-3.2v9.9c0 .1 0 .2-.3.5-.2.3-.6.6-1.1.9-1.6.9-3.3 1.5-5 1.9-12.4 3-25.2 3-37.6 0-1.7-.4-3.4-1.1-5-1.9-.4-.2-.9-.5-1.3-.9-.3-.3-.3-.5-.3-.5v-9.9zm50.8 42.2c0 .1 0 .2-.3.5s-.7.6-1.2.9c-1.6.9-3.3 1.5-5 1.9-12.4 3-25.2 3-37.6 0-1.7-.4-3.4-1.1-5-1.9-.4-.2-.9-.5-1.3-.9-.3-.3-.3-.5-.3-.5l.1-9.9c3.4 1.6 6.9 2.7 10.7 3.2 4.8.9 9.7 1.2 14.6 1.2s9.8-.3 14.6-1.2c3.7-.5 7.3-1.6 10.7-3.2v9.9zm0-16c0 .1 0 .2-.3.5s-.7.5-1.2.9c-1.6.9-3.3 1.5-5 1.9-12.4 3-25.2 3-37.6 0-1.7-.4-3.4-1.1-5-1.9-.4-.2-.9-.5-1.3-.9-.3-.3-.3-.5-.3-.5v-9.9c3.4 1.6 6.9 2.7 10.7 3.2 9.7 1.6 19.7 1.6 29.4 0 3.7-.5 7.3-1.6 10.7-3.2l-.1 9.9zm-.3-32c-.4.3-.9.6-1.3.9-1.6.9-3.3 1.5-5 1.9-6.1 1.6-12.5 2.2-18.8 2.2-6.3.1-12.6-.6-18.8-2.2-1.7-.4-3.4-1.1-5-1.9-.4-.2-.9-.5-1.3-.9-.3-.3-.3-.5-.3-.5s0-.2.3-.5.7-.6 1.3-.9c1.6-.9 3.3-1.5 5-1.9 12.4-3 25.2-3 37.6 0 1.7.4 3.4 1.1 5 1.9.4.2.9.5 1.3.9.3.3.3.5.3.5s.1.2-.3.5z"/></svg>
