<svg width="74.4" height="74.4" xmlns="http://www.w3.org/2000/svg" style="enable-background:new 0 0 74.4 74.4" xml:space="preserve" preserveAspectRatio="xMinYMid meet"><path d="M62.8.2c-.8-.4-1.7-.2-2.3.5-.2.2-14.8 15.2-29.5 16.6v26.2c14.7 1.3 29.3 16.4 29.5 16.6.8.8 2.1.8 2.9 0 .3-.4.6-.9.6-1.5V2.4c0-1.1-.5-1.9-1.2-2.2zm-3.9 52.1c-6.6-5.9-14.2-11.1-22.6-13.1V21.6c8.5-2 16-7.2 22.6-13.1v43.8zM72.8 25.4c-.8-1.5-2.1-2.6-3.4-3.4v16.7C74 36 75.6 30 72.8 25.4zM25.8 43.2V17.3H12.9C5.7 17.3 0 23.1 0 30.2c0 7.2 5.8 12.9 12.9 12.9h12.9v.1zM5.1 30.3c0-4.3 3.5-7.6 7.6-7.6h7.6V38h-7.6c-4.1-.1-7.6-3.4-7.6-7.7zM24.4 48.4h-14c-.6 0-1.1-.1-1.7-.3 2 8.4 4.7 16.4 8 24.1.6 1.3 2.3 2.2 3.2 2.2h12.4c1.2 0 1.9-1.6 1.6-3.5-.1-.6-.3-1.2-.6-1.8-1.5-2-8.2-18.5-8.9-20.7zm-3.5 20.8c-1.3-3.1-4.6-12.3-5.5-15.5h5.4s5.6 14.8 6 15.5h-5.9z"/></svg>
