<svg width="24" height="24" fill="none" xmlns="http://www.w3.org/2000/svg"><path fill-rule="evenodd" clip-rule="evenodd" d="M12.579 5.54c.984-.774 2.427-.073 2.427 1.18v10.364c0 1.252-1.443 1.953-2.427 1.18l-4.577-3.598V9.14l4.577-3.6Zm3.427 1.18c0-2.087-2.405-3.256-4.046-1.966L7.324 8.401H4.502a2.5 2.5 0 0 0-2.5 2.5v2a2.5 2.5 0 0 0 2.5 2.5h.141l1.89 5.578a1.353 1.353 0 0 0 2.561-.867l-1.53-4.518 4.397 3.456c1.64 1.289 4.045.12 4.045-1.966V6.72ZM6.443 15.4H5.7l1.78 5.258a.352.352 0 0 0 .668-.226L6.443 15.4Zm.359-1h.2v-5h-2.5a1.5 1.5 0 0 0-1.5 1.5v2a1.5 1.5 0 0 0 1.5 1.5h2.3Zm11.186-1.5a.5.5 0 0 1 .5-.5h3.01a.5.5 0 0 1 0 1h-3.01a.5.5 0 0 1-.5-.5Zm2.13-4.073a.5.5 0 1 0-.602-.8l-1.329 1a.5.5 0 0 0 .601.8l1.33-1Zm-2.03 7.246a.5.5 0 0 0 .1.7l1.329 1a.5.5 0 0 0 .601-.8l-1.33-1a.5.5 0 0 0-.7.1Z" fill="#212529"/></svg>
