<svg width="24" height="24" fill="none" xmlns="http://www.w3.org/2000/svg"><path fill-rule="evenodd" clip-rule="evenodd" d="M5.795 4.91a1.5 1.5 0 0 0-1.5 1.51l.073 10.993a1.5 1.5 0 0 0 1.5 1.49h12.977a1.5 1.5 0 0 0 1.5-1.5v-7.008a1.5 1.5 0 0 0-1.5-1.5h-4.57a2.5 2.5 0 0 1-1.997-.996l-1.8-2.39a1.5 1.5 0 0 0-1.197-.598H5.795Zm-2.5 1.517a2.5 2.5 0 0 1 2.5-2.516h3.486a2.5 2.5 0 0 1 1.997.996h7.571a2.5 2.5 0 0 1 2.5 2.5v3a.5.5 0 0 1-.004.063v6.933a2.5 2.5 0 0 1-2.5 2.5H5.868a2.5 2.5 0 0 1-2.5-2.483L3.295 6.427Zm9.782.87-1.046-1.39h6.818a1.5 1.5 0 0 1 1.5 1.5v.99a2.489 2.489 0 0 0-1.504-.502h-4.57a1.5 1.5 0 0 1-1.198-.598Zm.777 8.613a.5.5 0 0 0 0 1h4a.5.5 0 1 0 0-1h-4Z" fill="#212529"/></svg>
