<svg width="24" height="24" fill="none" xmlns="http://www.w3.org/2000/svg"><path fill-rule="evenodd" clip-rule="evenodd" d="M6.496 2.99a3.5 3.5 0 0 0-3.5 3.5V20.009a1 1 0 0 0 1.614.79l3.6-2.796h9.293a3.5 3.5 0 0 0 3.5-3.5V6.49a3.5 3.5 0 0 0-3.5-3.5H6.496Zm-2.5 10.985V6.49a2.5 2.5 0 0 1 2.5-2.5h11.007a2.5 2.5 0 0 1 2.5 2.5v8.013a2.5 2.5 0 0 1-2.5 2.5h-9.48a.499.499 0 0 0-.378.173l-3.648 2.833v-6.034Zm3.008-6.48a.5.5 0 0 1 .5-.5h9.005a.5.5 0 1 1 0 1H7.504a.5.5 0 0 1-.5-.5Zm.5 2.495a.5.5 0 1 0 0 1h9.005a.5.5 0 1 0 0-1H7.504Zm0 3a.5.5 0 1 0 0 1h6.003a.5.5 0 0 0 0-1H7.504Z" fill="#212529"/></svg>
