<svg width="74.4" height="74.4" xmlns="http://www.w3.org/2000/svg" style="enable-background:new 0 0 74.4 74.4" xml:space="preserve" preserveAspectRatio="xMinYMid meet"><path d="M62 3.8H12.4C5.5 3.8 0 9.4 0 16.2v33.6c0 6.9 5.6 12.3 12.4 12.3h9l13.7 11.6c1.2.9 2.8.9 4 0l13.8-11.6h9c6.9 0 12.4-5.6 12.4-12.4V16.2c0-6.9-5.4-12.4-12.3-12.4zm7.1 11.7v34.6c0 3.5-2.8 6.3-6.3 6.3h-9.2c-1.5 0-2.9.5-4.1 1.5L37.3 68.1 25 57.9c-1.1-1-2.6-1.5-4.1-1.5h-9.1c-3.5 0-6.3-2.8-6.3-6.3V15.5c0-3.5 2.8-6.3 6.3-6.3h50.8c3.5 0 6.5 2.8 6.5 6.3z"/><path d="M14.9 35.4h32.4c1.4 0 2.6-1.2 2.6-2.6 0-1.4-1.2-2.6-2.6-2.6H15.2c-1.4-.1-2.7 1-2.8 2.4 0 1.5 1.1 2.7 2.5 2.8zM15.1 24.9h16.1c1.4-.1 2.5-1.3 2.4-2.8-.1-1.3-1.1-2.4-2.4-2.4h-16c-1.4 0-2.6 1.2-2.5 2.7.1 1.3 1.1 2.4 2.4 2.5zM47.2 40.6H15.1c-1.4-.1-2.7 1-2.8 2.4-.1 1.4 1 2.7 2.4 2.8h32.4c1.5 0 2.6-1.1 2.6-2.6s-1-2.6-2.5-2.6z"/></svg>
