<svg width="24" height="24" fill="none" xmlns="http://www.w3.org/2000/svg"><path fill-rule="evenodd" clip-rule="evenodd" d="M5.004 5.5a2.5 2.5 0 0 1 2.5-2.5h11a.5.5 0 0 1 .5.5v17a.5.5 0 0 1-.5.5H6.992a1.997 1.997 0 0 1-1.988-2.175V5.5Zm2.005-1.416A1.5 1.5 0 0 0 6.004 5.5v11.768c.291-.167.629-.262.989-.262h.016V4.084Zm1 12.922V4h9.995v13.006H8.009Zm-1.016 1h11.01V20H6.994a.997.997 0 0 1-.997-.973.502.502 0 0 0 .008-.087v-.063a.997.997 0 0 1 .989-.87Zm3.014-4.504a.5.5 0 0 1 .5-.5h5a.5.5 0 1 1 0 1h-5a.5.5 0 0 1-.5-.5Zm1.72-6.178a.5.5 0 0 0-.93 0l-1.255 3.177a.5.5 0 0 0 .93.367l.142-.36h1.296l.143.36a.5.5 0 0 0 .93-.367l-1.256-3.177Zm-.465 1.544.253.64h-.505l.252-.64Zm2.745-1.86a.5.5 0 0 0 0 1h1.066L13.59 10.23a.5.5 0 0 0 .416.777h2a.5.5 0 1 0 0-1H14.94l1.482-2.223a.5.5 0 0 0-.416-.777h-2Z" fill="#212529"/></svg>
