<svg width="74.4" height="74.4" xmlns="http://www.w3.org/2000/svg" style="enable-background:new 0 0 74.4 74.4" xml:space="preserve" preserveAspectRatio="xMinYMid meet"><path d="M67.7 67.9V6.6c0-.8-.4-1.5-1.3-2L57.7.2c-.3-.1-.7-.2-1-.2H8.8C7.5.1 6.6 1 6.6 2.2v70c-.1 1 .8 2.1 2.2 2.2h47.9c.3 0 .7-.1 1-.2l8.7-4.4c.9-.4 1.3-1.1 1.3-1.9zM62.5 66l-4.4 2.2V57.7l4.4-2.2V66zm0-16.4-4.4 2.2V41.3l4.4-2.2v10.5zm0-16.1-4.4 2.2V25.2l4.4-2.2v10.5zm-1.1-15.8-7.2 3c-.7.5-1.3 1.2-1.3 2v46.4h-41V5.2h43.5L61.3 8l.1 9.7z"/></svg>
