<svg width="74.4" height="74.4" xmlns="http://www.w3.org/2000/svg" style="enable-background:new 0 0 74.4 74.4" xml:space="preserve" preserveAspectRatio="xMinYMid meet"><path d="M40.9 38.3c-1.9-1.5-4.7-1.2-6.2.7l-.7.8-4.3-.6c-2.4-.3-4.3-.7-4.4-.7 0-.6.1-1.2.3-1.8.3-1.6 3.3-14.7 3.5-15.4l.1-.3h-8v13.9h-11V21H.2v32.3h10v-12H21v11.9h6c3.2 0 5.9 0 5.8-.1-.3-.2-.8-.3-1.1-.5-2.1-.8-3.9-2.4-5.1-4.3-.7-1.1-1.5-3.2-1.4-3.4.2-.2 2-.3 4.4-.7l4.3-.6.8.8c1.5 1.9 4.3 2.1 6.2.6 1.9-1.5 2.1-4.3.6-6.2-.2 0-.4-.3-.6-.5z"/><path d="M74.2 30.8c.1-1.2-.1-2.5-.4-3.6-1-3.1-3-4.9-6.4-5.8-1.2-.3-1.8-.3-8.8-.4H51v6.7H36.4l-.5 2.2c-.3 1.2-.5 2.3-.6 2.5 0 .1 0 .2.2.1s.8-.3 1.7-.5c1.4-.4 1.6-.4 4.2-.4 2.5 0 2.9.1 4.1.4 1.7.5 3.2 1.5 4.4 2.8 1.9 1.9 2.9 4.4 2.7 7.1 0 5-3 9.7-6.9 11-.3.1-.7.3-.9.4 1.9.2 3.8.2 5.7.2h5.8v-12H59c2.7.1 5.4-.1 8-.6 3.4-.8 6-3.4 6.9-6.7.3-1.2.4-2.3.3-3.4zm-9.8 1.4c-.4 1.1-1.3 1.9-2.5 2.3-1.1.3-2.2.3-3.4.3l-2.5.1v-7.5l2.6.1c1.1 0 2.1.1 3.2.3 2 .5 3.1 2.5 2.6 4.4z"/></svg>
