<svg width="24" height="24" fill="none" xmlns="http://www.w3.org/2000/svg"><path fill-rule="evenodd" clip-rule="evenodd" d="M6 5a4 4 0 0 0-4 4v6a4 4 0 0 0 4 4h12a4 4 0 0 0 4-4V9a4 4 0 0 0-4-4H6Zm11.197 4.013c.835.024 1.464.43 1.66 1.066.25.813.217 1.597-.466 2.226-.45.414-1.038.479-1.625.498a6.413 6.413 0 0 1-.384.003c-.069 0-.157-.003-.33-.003v2.182h-2.67c.614-.221 1.023-.636 1.27-1.226.246-.59.271-1.178-.013-1.762-.396-.816-1.481-1.373-3.073-.835l.056-.238c.049-.21.095-.41.159-.603.018-.052.172-.085.264-.085.557-.006 1.112-.005 1.668-.005h.834V9.048a.629.629 0 0 1 .144-.042l.717-.002c.597-.004 1.193-.007 1.79.01Zm-5.657 3.254c.278-.245.646-.317.97-.168.16.072.293.19.38.339a.8.8 0 0 1 .106.491.795.795 0 0 1-.191.465.834.834 0 0 1-.437.266c-.34.088-.619-.018-.865-.252-.074-.07-.191-.15-.279-.142-.367.04-.732.093-1.098.147l-.368.054c.112.63.413.965 1.39 1.533h-2.39v-2.173H6.902v2.163H5V9.019h1.886v2.523h1.859V9.024h1.725l-.742 3.23.39.055c.372.054.735.106 1.1.138.101.01.23-.098.322-.18Zm4.527-.53v-1.733h.014c.525 0 1.293 0 1.293.851 0 .688-.476.882-1.307.882Z" fill="#3D73B8"/></svg>
