<svg width="24" height="24" fill="none" xmlns="http://www.w3.org/2000/svg"><path fill-rule="evenodd" clip-rule="evenodd" d="M11.757 3.064a.5.5 0 0 1 .486 0l4.5 2.498A.5.5 0 0 1 17 6v4.692l4.243 2.356a.5.5 0 0 1 .229.603h.028v4.998a.5.5 0 0 1-.257.437L16.75 21.58a.498.498 0 0 1-.502 0L12 19.22l-4.25 2.36a.499.499 0 0 1-.5 0l-4.493-2.494a.5.5 0 0 1-.257-.437V13.65h.028a.5.5 0 0 1 .23-.603L7 10.692V6a.5.5 0 0 1 .257-.438l4.5-2.498Zm-.257 15.29v-4.02L8 16.278v4.02l3.5-1.944Zm4.5-7.662-3.5 1.943V8.793L16 6.849v3.843Zm-3.5 7.662 3.5 1.944v-4.02l-3.5-1.944v4.02Zm.54-4.864 3.46 1.922 3.47-1.927-3.46-1.921-3.47 1.926Zm-2.08 0-3.47-1.926-3.46 1.92 3.47 1.928 3.46-1.922Zm.54-4.697v3.842L8 10.692V6.849l3.5 1.944ZM8.53 6 12 7.926 15.47 6 12 4.073 8.53 6ZM7 16.278v4.02l-3.5-1.944v-4.02L7 16.278Zm13.5 2.076L17 20.298v-4.02l3.5-1.944v4.02Z" fill="#212529"/></svg>
