<svg width="74.4" height="74.4" xmlns="http://www.w3.org/2000/svg" style="enable-background:new 0 0 74.4 74.4" xml:space="preserve" preserveAspectRatio="xMinYMid meet"><path d="M34.4 43.9H15.6V32.5l-8.2-.1c-.6 0-1.1.4-1.4 1L.2 46.1c-.1.2-.2.6-.2 1v25.2c0 1.1.7 2.1 1.6 2.1h31.6c.8 0 1.6-1 1.6-2.1V45.8c0-1.2.2-1.7-.4-1.9zm-4.8 25H5.4V46.5l4.5-8.8h.6v11.4h19.1v19.8zM39.6 45.8v26.5c0 1.1.8 2.1 1.6 2.1h31.6c.9 0 1.6-1 1.6-2.1V47.1c0-.4-.1-.8-.2-1l-5.8-12.7c-.3-.6-.8-1-1.4-1l-8.2.1v11.4H40c-.6.2-.4.7-.4 1.9zm5.2 3.3h19.1V37.7h.6l4.5 8.8v22.4H44.8V49.1z"/><path d="M53.6 12.7 47.9.9c-.3-.6-.8-.9-1.3-.9H27.8c-.5 0-1 .3-1.3.9l-5.6 11.7c-.2.3-.2.7-.2 1v23.5c0 .9.7 1.8 1.6 1.8h30c.8 0 1.5-.9 1.5-1.9V13.5c0-.3-.1-.6-.2-.8zM30.4 5.3h13.7l2.5 4.9H28l2.4-4.9zm18.2 28.3H26.2V15.4h22.4v18.2z"/><path style="fill:none" d="M0 0h74.4v74.4H0z"/></svg>
