<svg width="24" height="24" fill="none" xmlns="http://www.w3.org/2000/svg"><path d="M8.004 8.498a.5.5 0 0 1 .5-.5h7.005a.5.5 0 0 1 .492.587v1.788a.5.5 0 0 1-1 0V8.998H12.5v6h1a.5.5 0 1 1 0 1h-3a.5.5 0 0 1 0-1h1v-6H9.004v1.376a.5.5 0 0 1-1 0V8.498Z" fill="#212529"/><path fill-rule="evenodd" clip-rule="evenodd" d="M3 2.5a.5.5 0 0 0-.5.5v3a.5.5 0 0 0 .5.5h1v11H3a.5.5 0 0 0-.5.5v3a.5.5 0 0 0 .5.5h3a.5.5 0 0 0 .5-.5v-1h11v1a.5.5 0 0 0 .5.5h3a.5.5 0 0 0 .5-.5v-3a.5.5 0 0 0-.5-.5h-1v-11h1a.5.5 0 0 0 .5-.5V3a.5.5 0 0 0-.5-.5h-3a.5.5 0 0 0-.5.5v1h-11V3a.5.5 0 0 0-.5-.5H3ZM6.5 5v1a.5.5 0 0 1-.5.5H5v11h1a.5.5 0 0 1 .5.5v1h11v-1a.5.5 0 0 1 .5-.5h1v-11h-1a.5.5 0 0 1-.5-.5V5h-11Zm-3 .5v-2h2v2h-2Zm0 15v-2h2v2h-2Zm15-17v2h2v-2h-2Zm0 17v-2h2v2h-2Z" fill="#212529"/></svg>
