<svg width="74.4" height="74.4" xmlns="http://www.w3.org/2000/svg" style="enable-background:new 0 0 74.4 74.4" xml:space="preserve" preserveAspectRatio="xMinYMid meet"><path d="M71.9 49.9 52.6 71.3c-1.7 1.9-4 3-6.4 3.1s-4.8-.8-6.6-2.6l-34.2-33c-1.8-1.7-2.9-4-3-6.5L0 9.9v-.1C-.2 4.6 3.8.1 8.9 0h.2l21.6.9c2.4-.1 4.7.8 6.5 2.5l34.2 33c3.8 3.5 4 9.5.6 13.4 0 0-.1 0-.1.1zM5.2 9.4l2.4 22.2v.1c0 1.1.5 2.1 1.3 3l34.3 33.1c.8.7 1.8 1.2 2.9 1.1 1 0 2.1-.5 2.9-1.3l19.3-21.4c1.5-1.7 1.5-4.4-.2-5.9l-34.2-33c-.8-.8-1.8-1.2-3-1.2h-.2L9.2 5.2c-2.4.1-4 2-4 4.2zm23.4 18.7c-3.3 3.7-8.9 3.9-12.6.5-3.5-3.4-3.8-9.2-.5-13s8.9-3.9 12.6-.5c1.8 1.8 2.9 4.1 2.9 6.7 0 2.4-.9 4.7-2.4 6.3zm-9.1-8.9c-1.4 1.5-1.4 4 .1 5.4s3.9 1.4 5.3-.1 1.4-4-.1-5.4c-.7-.7-1.6-1.1-2.5-1.1-1.1.1-2.1.5-2.8 1.2z"/></svg>
