<svg width="24" height="24" fill="none" xmlns="http://www.w3.org/2000/svg"><path fill-rule="evenodd" clip-rule="evenodd" d="M4 5.494a1.5 1.5 0 0 1 1.5-1.5h3.004a1.5 1.5 0 0 1 1.5 1.5v1.007l4.044-.008a2.998 2.998 0 1 1 0 1l-4.044.008v.998c0 .239-.056.464-.155.665l4.99 4.989c.198-.098.421-.152.657-.152h3.005a1.5 1.5 0 0 1 1.5 1.5v3.005a1.5 1.5 0 0 1-1.5 1.5h-3.005a1.5 1.5 0 0 1-1.5-1.5v-1.007l-4.045.008a2.998 2.998 0 1 1 .003-1l4.042-.008v-.998c0-.227.05-.442.141-.635L9.133 9.862a1.495 1.495 0 0 1-.629.137H5.5A1.5 1.5 0 0 1 4 8.5V5.494Zm5.004 0v1.454a.506.506 0 0 0 0 .109v1.442a.5.5 0 0 1-.5.5H5.5a.5.5 0 0 1-.5-.5V5.494a.5.5 0 0 1 .5-.5h3.005a.5.5 0 0 1 .5.5Zm5.992 11.56v1.452a.5.5 0 0 0 .5.5h3.005a.5.5 0 0 0 .5-.5V15.5a.5.5 0 0 0-.5-.5h-3.005a.5.5 0 0 0-.5.5v1.44a.49.49 0 0 1 0 .113Zm.01-10.062a1.997 1.997 0 1 1 3.995 0 1.997 1.997 0 0 1-3.994 0ZM6.997 15a1.997 1.997 0 1 1 0 3.995 1.997 1.997 0 0 1 0-3.995Z" fill="#212529"/></svg>
