<svg width="74.4" height="74.4" xmlns="http://www.w3.org/2000/svg" style="enable-background:new 0 0 74.4 74.4" xml:space="preserve" preserveAspectRatio="xMinYMid meet"><path d="M68.2 26.6v-5.1c3.4 0 6.2-2.8 6.2-6.2V7.6c0-3.4-2.8-6.2-6.2-6.2h-7.7c-3.4 0-6.2 2.8-6.2 6.2v1.9H22.9C22.1 3.2 16.3-.7 10 .1 4.2.8 0 5.6 0 11.4c0 6.4 5.2 11.4 11.6 11.4 5.3 0 9.8-3.1 11.1-8.1h31.8v.5c0 3.4 2.8 6.2 6.2 6.2H63v4.2c0 4.9-5.1 8.9-10.4 8.9H23.3c-8.6 0-15.7 6.4-15.7 14.3v4.4H7C3.6 53.2.8 56 .8 59.4v7.7c0 3.4 2.8 6.2 6.2 6.2h7.8c3.4 0 6.2-2.8 6.2-6.2v-1.2h30.7c1.2 6.1 7.1 9.5 13.2 8.3 5.2-1 8.6-5.7 8.6-10.9 0-6.2-4.6-11.2-10.8-11.2-5.4 0-9.9 3.3-11 8.6H20.9v-1.2c0-3.4-2.8-6.2-6.2-6.2h-1.8v-3.9c0-4.9 5.1-9.6 10.3-9.6h29.3c8.5.1 15.7-5.3 15.7-13.2zm-56.8-9.1c-3.4 0-6.2-2.8-6.2-6.1C5.2 8 8 5.2 11.3 5.2c3.4 0 6.2 2.8 6.2 6.1.1 3.6-2.7 6.2-6.1 6.2zm49-1.3c-.6 0-.9-.4-.9-.9V7.6c0-.6.4-.9.9-.9h7.8c.6 0 .9.4.9.9v7.7c0 .6-.4.9-.9.9h-7.8zm2 41.3c3.2 0 5.9 2.6 5.9 5.9 0 3.2-2.6 5.9-5.9 5.9s-5.9-2.6-5.9-5.9c0-3.4 2.6-5.9 5.9-5.9zm-47.8.9c.6 0 1 .4 1 .9v7.8c0 .6-.4.9-1 .9H6.8c-.6 0-1-.4-1-.9v-7.8c0-.6.4-.9 1-.9h7.8z"/></svg>
