<svg width="24" height="25" fill="none" xmlns="http://www.w3.org/2000/svg"><path fill-rule="evenodd" clip-rule="evenodd" d="M10.232 4.07a2.5 2.5 0 0 1 3.536 0l1.59 1.59a2.383 2.383 0 1 1 3.313 3.312l1.59 1.59a2.5 2.5 0 0 1 0 3.536l-2.08 2.08-.01.01a.5.5 0 0 1-.84-.221 1.383 1.383 0 1 0-1.695 1.695.5.5 0 0 1 .208.853.6.6 0 0 1-.02.02l-2.056 2.056a2.5 2.5 0 0 1-3.536 0l-1.59-1.59a2.383 2.383 0 1 1-3.312-3.313l-1.59-1.59a2.5 2.5 0 0 1 0-3.535l2.083-2.084a.5.5 0 0 1 .846.215A1.383 1.383 0 1 0 8.364 7a.5.5 0 0 1-.202-.858.503.503 0 0 1 .021-.022l2.05-2.05ZM9.35 6.367A2.383 2.383 0 1 1 6.037 9.68l-1.59 1.59a1.5 1.5 0 0 0 0 2.121l2.084 2.085a.5.5 0 0 1-.216.845 1.383 1.383 0 1 0 1.695 1.695.5.5 0 0 1 .845-.217l2.085 2.085a1.5 1.5 0 0 0 2.12 0l1.591-1.59a2.383 2.383 0 1 1 3.312-3.312l1.59-1.59a1.5 1.5 0 0 0 0-2.122L17.49 9.205a.497.497 0 0 1-.157-.253.5.5 0 0 1 .354-.612 1.383 1.383 0 1 0-1.695-1.695.5.5 0 0 1-.838.224l-.001-.001-2.091-2.091a1.5 1.5 0 0 0-2.121 0l-1.59 1.59Z" fill="#212529"/></svg>
