<svg width="74.4" height="74.4" xmlns="http://www.w3.org/2000/svg" style="enable-background:new 0 0 74.4 74.4" xml:space="preserve" preserveAspectRatio="xMinYMid meet"><path d="M69.9 38.6c1.1 1 2.9.8 3.7-.3.4-.4.7-1.1.7-1.7V13.2c0-1.4-1.2-2.6-2.6-2.6H53.1c-.6-14.1-20.7-14.1-21.3 0H13.2c-1.4 0-2.6 1.2-2.6 2.6v18.6c-14.1.6-14.1 20.7 0 21.3v18.6c0 1.4 1.2 2.6 2.6 2.6h23.4c1.4 0 2.6-1.3 2.6-2.8 0-.7-.2-1.2-.7-1.7-4.6-5.4 3-12.2 7.8-7.2 1.9 2 1.9 5.1 0 7.2-1 1.1-.9 2.8.2 3.7.4.4 1.1.7 1.8.7h23.4c1.4 0 2.6-1.2 2.6-2.6V48.2c0-1.4-1.3-2.6-2.8-2.6-.7 0-1.2.2-1.7.7-2.2 2-5.5 1.8-7.5-.3-4.3-5 2.6-11.8 7.6-7.4zm-3.5 14.5c.9 0 1.8-.1 2.6-.3v16.3H52.7c1.4-5.7-2-11.5-7.6-13-5.7-1.4-11.5 2-13 7.6-.4 1.8-.4 3.6 0 5.4H15.8v-19c0-1.4-1.2-2.6-2.6-2.6-.9.2-1.8.3-2.6.4-7.1-.2-7.1-10.5 0-10.6.7 0 1.2.1 1.8.3 1.4.4 2.9-.2 3.4-1.7.1-.2.1-.6.1-.9V15.9H35c1.4 0 2.6-1.2 2.6-2.6 0-.3 0-.6-.1-.9-1-2.8.4-5.8 3.3-6.7 2.8-1 5.8.4 6.7 3.3.2.6.3 1.1.3 1.8 0 .6-.1 1.2-.3 1.8-.4 1.4.2 2.9 1.7 3.4.3.1.6.1.9.1h19.1v16.3c-5.7-1.4-11.5 2-12.9 7.7-1.4 5.7 2 11.5 7.7 12.9.7 0 1.5.3 2.4.1z"/></svg>
