<svg width="74.4" height="74.4" xmlns="http://www.w3.org/2000/svg" style="enable-background:new 0 0 74.4 74.4" xml:space="preserve" preserveAspectRatio="xMinYMid meet"><path d="M66.5 15.1 52.4 1c-.7-.7-1.6-1-2.6-1H10.3C8.2 0 6.6 1.6 6.6 3.7v67c0 2.1 1.6 3.7 3.7 3.7H64c2.1 0 3.7-1.6 3.7-3.7V17.8c-.2-1-.5-2-1.2-2.7zM48.4 6.7l12.5 12.5H48.4V6.7zM11.9 69.2V5h30.9v15.6c0 2.2 1.7 3.8 3.8 3.8h15.6v44.7l-50.3.1z"/><path d="M54.3 43H19.7c-1.4 0-2.6 1.2-2.6 2.6s1.2 2.6 2.6 2.6h34.6c1.4 0 2.6-1.2 2.6-2.6.1-1.4-1.1-2.6-2.6-2.6zM54.3 53.5H19.7c-1.4 0-2.6 1.2-2.6 2.6s1.2 2.6 2.6 2.6h34.6c1.4 0 2.6-1.2 2.6-2.6s-1.1-2.6-2.6-2.6zM19.8 37.8h20.9c1.4 0 2.6-1.2 2.6-2.6 0-1.4-1.2-2.6-2.6-2.6H19.8c-1.4 0-2.6 1.2-2.6 2.6s1.2 2.6 2.6 2.6z"/></svg>
