<svg width="24" height="24" fill="none" xmlns="http://www.w3.org/2000/svg"><path fill-rule="evenodd" clip-rule="evenodd" d="M13.243 3.906H7.85a1.5 1.5 0 0 0-1.5 1.5v13.005a1.5 1.5 0 0 0 1.5 1.5h9.006a1.5 1.5 0 0 0 1.5-1.5V8.422a.5.5 0 0 0-.5-.5h-2.01a1.5 1.5 0 0 1-1.5-1.5V4.406a.5.5 0 0 0-.496-.5h-.601a.4.4 0 0 1-.006 0Zm2.104.682v1.834a.5.5 0 0 0 .5.5h1.821l-2.321-2.334Zm4.009 3.834v9.989a2.5 2.5 0 0 1-2.5 2.5H7.85a2.5 2.5 0 0 1-2.5-2.5V5.406a2.5 2.5 0 0 1 2.5-2.5h6.194a2.5 2.5 0 0 1 1.773.737l2.811 2.827a2.5 2.5 0 0 1 .728 1.763v.19ZM8.349 11.406a.5.5 0 0 1 .5-.5h7.002a.5.5 0 0 1 0 1H8.85a.5.5 0 0 1-.5-.5Zm0 3a.5.5 0 0 1 .5-.5h7.002a.5.5 0 0 1 0 1H8.85a.5.5 0 0 1-.5-.5Zm.5 2.503a.5.5 0 1 0 0 1h7.002a.5.5 0 0 0 0-1H8.85Z" fill="#212529"/></svg>
