<svg width="24" height="24" fill="none" xmlns="http://www.w3.org/2000/svg"><path fill-rule="evenodd" clip-rule="evenodd" d="M5.499 4a2.5 2.5 0 0 0-2.5 2.5v11a2.5 2.5 0 0 0 2.5 2.5h13.002a2.5 2.5 0 0 0 2.5-2.5v-11A2.5 2.5 0 0 0 18.5 4H5.499Zm-1.5 2.5a1.5 1.5 0 0 1 1.5-1.5h13.002A1.5 1.5 0 0 1 20 6.5v11a1.5 1.5 0 0 1-1.5 1.5H5.499a1.5 1.5 0 0 1-1.5-1.5v-11Zm11.251.896a.5.5 0 0 1 .707 0l.292.292.292-.292a.5.5 0 1 1 .707.708l-.292.292.292.291a.5.5 0 0 1-.707.708l-.292-.292-.292.292a.5.5 0 1 1-.707-.708l.292-.291-.292-.292a.5.5 0 0 1 0-.708Zm2.266 4.308a.5.5 0 0 0-.707-.708l-.875.875-.243-.243a.5.5 0 0 0-.708.707l.597.597a.5.5 0 0 0 .708 0l1.228-1.229Zm0 3.537a.5.5 0 0 0-.707-.707l-.875.875-.243-.244a.5.5 0 0 0-.708.707l.597.598a.5.5 0 0 0 .708 0l1.228-1.23ZM6.5 8.517a.5.5 0 0 1 .5-.5h5a.5.5 0 0 1 0 1h-5a.5.5 0 0 1-.5-.5Zm.5 6.485a.5.5 0 0 0 0 1h5a.5.5 0 1 0 0-1h-5Zm-.5-2.97a.5.5 0 0 1 .5-.5h5a.5.5 0 1 1 0 1h-5a.5.5 0 0 1-.5-.5Z" fill="#212529"/></svg>
