<svg width="74.4" height="74.4" xmlns="http://www.w3.org/2000/svg" style="enable-background:new 0 0 74.4 74.4" xml:space="preserve" preserveAspectRatio="xMinYMid meet"><path d="M62.1 32.3c-1.7 0-2.6 1.4-2.6 3.1v22.8h-45V13.3h27.8c4.1.1 4.1-5.2 0-5.1H12.6c-1.7 0-3.1 1.4-3.1 3.1v49.1c0 1.7 1.3 3.1 3 3.1h49c1.7 0 3.1-1.4 3.1-3.1V35.5c.1-1.8-.8-3.2-2.5-3.2z"/><path d="M28.4 30.9c-1.4-1-3.3-.7-4.4.6-1 1.4-.7 3.4.6 4.5l9.5 7c1.1.8 2.2 1.1 3.4 0 4.4-4.7 22.1-24.8 26.4-29.4.9-1 1.1-2.4.6-3.6s-1.7-1.9-3-1.9c-.8 0-1.6.4-2.1 1C55 13.8 39.7 31.5 35.6 36l-7.2-5.1z"/></svg>
