<svg width="24" height="24" fill="none" xmlns="http://www.w3.org/2000/svg"><path fill-rule="evenodd" clip-rule="evenodd" d="M12.224 3.055a.5.5 0 0 0-.448 0l-7.998 4a.503.503 0 0 0-.278.447v8.996a.5.5 0 0 0 .276.447l7.998 3.999a.502.502 0 0 0 .45 0m.002 0 7.998-4a.5.5 0 0 0 .276-.446V7.502a.5.5 0 0 0-.279-.448l-7.997-3.999M12.5 19.69l7-3.5V8.31l-7 3.5v7.878Zm-1 0V11.81l-3-1.5v2.694a.5.5 0 1 1-1 0V9.81l-3-1.5v7.878l7 3.5ZM5.118 7.502 12 4.062l2.722 1.36L7.84 8.863l-2.722-1.36Zm3.84 1.92L12 10.943l6.882-3.44L15.84 5.98 8.958 9.422Z" fill="#212529"/></svg>
