<svg width="74.4" height="74.4" xmlns="http://www.w3.org/2000/svg" style="enable-background:new 0 0 74.4 74.4" xml:space="preserve" preserveAspectRatio="xMinYMid meet"><path d="M18.6 45.9H3.1C1.3 45.9 0 47.2 0 49v22.4c0 1.7 1.3 3.1 3.1 3.1h15.5c1.8 0 3.1-1.3 3.1-3.1V48.9c0-1.7-1.4-3-3.1-3zm-2.1 23.3H5.3V51.1h11.2v18.1zM44.4 0H29.9c-1.8 0-3.1 1.3-3.1 3.1v68.3c0 1.7 1.3 3.1 3.1 3.1h14.5c1.8 0 3.1-1.3 3.1-3.1V3.1c0-1.8-1.4-3.1-3.1-3.1zm-2.1 69.2H32.1V5.3h10.2v63.9zM71.3 19.4H55.8c-1.8 0-3.1 1.3-3.1 3.1v48.9c0 1.7 1.3 3.1 3.1 3.1h15.5c1.8 0 3.1-1.3 3.1-3.1V22.5c0-1.8-1.4-3.1-3.1-3.1zm-2.1 49.8H58V24.6h11.2v44.6z"/></svg>
