<svg width="24" height="24" fill="none" xmlns="http://www.w3.org/2000/svg"><path fill-rule="evenodd" clip-rule="evenodd" d="M5.499 4a2.5 2.5 0 0 0-2.5 2.5v11a2.5 2.5 0 0 0 2.5 2.5h13.002a2.5 2.5 0 0 0 2.5-2.5v-11A2.5 2.5 0 0 0 18.5 4H5.499Zm-1.5 2.5a1.5 1.5 0 0 1 1.5-1.5h13.002A1.5 1.5 0 0 1 20 6.5v11a1.5 1.5 0 0 1-1.5 1.5H5.499a1.5 1.5 0 0 1-1.5-1.5v-11Zm6.667 1.004a.5.5 0 1 0-1 0v9a.5.5 0 0 0 1 0v-9Zm3.17 1.48a.5.5 0 0 1 .5.5v7.02a.5.5 0 1 1-1 0v-7.02a.5.5 0 0 1 .5-.5Zm-7.339 2.884a.5.5 0 0 1 .5.5v4.137a.5.5 0 0 1-1 0v-4.137a.5.5 0 0 1 .5-.5Zm11.007-.867a.5.5 0 0 1 .5.5v5a.5.5 0 0 1-1 0v-5a.5.5 0 0 1 .5-.5Z" fill="#212529"/></svg>
