<svg width="74.4" height="74.4" xmlns="http://www.w3.org/2000/svg" style="enable-background:new 0 0 74.4 74.4" xml:space="preserve" preserveAspectRatio="xMinYMid meet"><path d="M37.2.2C8.6.2-14.7 35.9 11 63.6c7.6 7.6 17 11 26.2 10.9 9.2.1 18.6-3.2 26.2-10.9C89.1 35.9 65.8.2 37.2.2zM69 34.7H55.2c-.2-4.2-1-8.1-1.9-12.3 3-1.4 5.7-3.3 8-5.6C65.6 22 68.5 28 69 34.7zm-11-21c-1.8 1.6-3.8 3-5.9 4.2-1-3.8-2.7-7.3-4.9-10.6 4 1.4 7.8 3.5 10.8 6.4zM37.2 34.8H23.7c.1-3.6.8-6.9 1.5-10.5 3.9 1.4 7.9 2.1 12 2.1s8.1-.7 12-2.1c.7 3.6 1.4 6.9 1.5 10.5H37.2zM50.4 40c-.1 3.6-.5 7-1.2 10.5-3.9-1.4-7.9-2.1-12-2.1s-8.1.7-12 2.1C24.5 47 24.1 43.6 24 40h26.4zM37.2 5.7c3.9 0 7.8 4.4 10.7 13.3 0 .2.2.5.2.8-3.5 1.4-7.2 2-10.9 2s-7.4-.7-10.9-2c0-.3.2-.6.2-.8 2.9-8.9 6.8-13.2 10.7-13.3zm-10 1.6c-2.2 3.3-3.9 6.8-4.9 10.6-2.1-1.2-4.1-2.6-5.9-4.2 3-2.9 6.8-5 10.8-6.4zm-14.1 9.5c2.3 2.3 5 4.2 8 5.6-.9 4.2-1.7 8.1-1.9 12.3H5.4C5.9 28 8.8 22 13.1 16.8zm-.6 40.3c-4.1-5-6.5-10.8-6.9-17.3h13.8c.1 4.2.6 8.3 1.5 12.4-2.8 1.5-5.5 3.4-7.9 5.6l-.5-.7zm3.7 3.9c1.8-1.6 3.8-3.1 5.9-4.3l.1.2c1.1 3.8 2.8 7.3 4.9 10.4-4-1.4-7.7-3.5-10.9-6.3zm21 8c-4.1.1-8.2-4.6-11-14.1 3.6-1.4 7.3-2 11-2s7.4.7 11 2c-2.8 9.5-6.9 14.2-11 14.1zm10.1-1.7c2.1-3.1 3.8-6.6 4.9-10.4l.1-.2c2.1 1.2 4.1 2.7 5.9 4.3-3.2 2.8-6.9 4.9-10.9 6.3zm14.6-10.2-.5.7c-2.4-2.2-5.1-4.1-7.9-5.6.9-4.1 1.4-8.2 1.5-12.4h13.8c-.4 6.5-2.8 12.3-6.9 17.3z"/></svg>
