<svg width="24" height="24" fill="none" xmlns="http://www.w3.org/2000/svg"><path fill-rule="evenodd" clip-rule="evenodd" d="M18.779 5.219a4.177 4.177 0 0 0-5.908 0l-1.3 1.3a.5.5 0 1 0 .707.707l1.3-1.3a3.177 3.177 0 1 1 4.493 4.493l-2.6 2.6a3.177 3.177 0 0 1-4.492 0 .5.5 0 0 0-.708.707 4.177 4.177 0 0 0 5.907 0l2.6-2.6a4.177 4.177 0 0 0 0-5.907ZM5.22 18.78a4.177 4.177 0 0 0 5.908 0l1.3-1.3a.5.5 0 0 0-.707-.707l-1.3 1.3a3.177 3.177 0 1 1-4.493-4.493l2.6-2.6a3.177 3.177 0 0 1 4.492 0 .5.5 0 0 0 .708-.707 4.177 4.177 0 0 0-5.908 0l-2.6 2.6a4.177 4.177 0 0 0 0 5.907Z" fill="#212529"/></svg>
