<svg width="74.4" height="74.4" xmlns="http://www.w3.org/2000/svg" style="enable-background:new 0 0 74.4 74.4" xml:space="preserve" preserveAspectRatio="xMinYMid meet"><path d="M74.5 35.8c-.4-1.8-1.4-3.4-2.8-4.5l-.4-.3c-1-.5-2-.9-3.2-.9-.5 0-1.1.1-1.5.2-1.8.4-3.4 1.4-4.5 2.9-.4.5-.7.9-.9 1.5l-10.7.1c-.2-1.1-.5-1.9-1.1-2.9-.7-1.5-1.4-2.5-2.6-3.6l2.8-5c.4.1.7.1 1.1.1 3.9 0 6.7-3.5 6.7-7.4s-3.2-7.1-7.1-7.1-7.1 3.2-7.1 7.1c0 1.9.4 3.6 1.8 5l-2.7 4.7c-1.2-.4-2.3-.6-3.6-.6-1.4 0-2.6.3-3.9.7l-8.2-14.3c.4-.4.5-.9.8-1.3l.1-.2c.8-1.6.9-3.4.4-5.1S26.3 1.8 24.8 1l-.4-.2-.2-.1c-.9-.4-2-.7-2.9-.7-1.3 0-2.6.4-3.7 1.1-1.2.7-2 1.7-2.7 2.9-.8 1.7-1 3.6-.4 5.3s1.9 3.2 3.5 4c.9.4 1.9.7 2.8.7.5 0 1 .2 1.4.1l8.2 14.3c-1.7 1.4-2.9 3-3.6 5-.5 1.6-.8 2.9-.7 4.6l-9.8 2.7c-2.2-4.2-7.4-5.5-11.6-3.3S-1.2 44.8 1 49c2.2 4.2 7.4 5.9 11.6 3.7 2.7-1.4 4.8-3.9 4.9-6.9L27.7 43l.1.1c.7 1.5 1.1 2.3 2.3 3.3l-5.6 9.8c-.6-.2-1.3-.3-2-.3-4.6 0-7.9 3.9-7.9 8.6 0 .7.1 1.3.3 2 1.1 4.3 5.4 6.9 9.7 5.8.7-.2 1.4-.4 2-.9 1.2-.7 2.3-1.8 3-3.1.9-1.6 1.2-3.4 1.1-5.2-.3-1.7-.6-3.1-1.7-4.4l5.6-9.7c1.2.4 2.2.5 3.4.5h1.1l3.2 11.9c-1.2.9-2.2 2.1-2.7 3.6-.6 1.8-.5 3.7.3 5.3.8 1.7 2.2 2.9 3.9 3.6.7.3 1.4.4 2.2.4 1.1 0 2.1-.3 3-.7 1.7-.8 2.9-2.3 3.6-4 .2-.5.3-1 .4-1.5.2-1.3-.1-2.6-.6-3.7-.8-1.7-2.1-2.9-3.8-3.6-.6-.2-1.3-.3-1.9-.4l-3.2-11.9.2-.1c1.4-.7 2.7-1.7 3.7-2.8 1.1-1.2 1.9-2.5 2.4-4v-.1c.1-.4.2-.8.4-1.2v-.2l.1-.1 10.8-.1c.4 1.4 1.3 2.3 2.6 3.2 1.2.8 2.6 1.2 3.9 1.2 2.3 0 4.5-1.2 5.8-3.1 1-1.7 1.5-3.7 1.1-5.4zM47.2 64.7c.6.2 1.3.9 1.5 1.4.3.6.4 1.3.1 2-.3.6-.7 1.2-1.3 1.4-.4.2-.6.2-1 .3-.3 0-.6-.1-.9-.2-.6-.2-1.1-.7-1.4-1.2-.3-.6-.4-1.3-.1-2 .4-1.1 1.2-1.8 2.4-1.8.3 0 .4 0 .7.1zM45 39.5c-.5 1.8-1.8 3.2-3.4 4-2.1 1.1-4.6 1-6.6-.2-1.2-.7-2.2-1.8-2.7-3-.8-1.7-.9-3.6-.4-5.3.5-1.8 1.8-3.2 3.5-4 1-.4 2-.6 3.1-.6.7 0 1.5.1 2.2.4 1.7.5 3.1 1.8 3.9 3.4.9 1.6 1.1 3.5.4 5.3zm-32.6 5.7c0 2-1.6 3.6-3.6 3.6s-3.6-1.6-3.6-3.6 1.6-3.6 3.6-3.6 3.6 1.6 3.6 3.6zm37.9-31.1c1.1 0 1.9.9 1.9 1.9s-.9 1.9-1.9 1.9-1.9-.9-1.9-1.9.8-1.9 1.9-1.9z"/></svg>
