<svg width="24" height="24" fill="none" xmlns="http://www.w3.org/2000/svg"><path fill-rule="evenodd" clip-rule="evenodd" d="M8.995 4.508a.506.506 0 1 1 1.01 0 .506.506 0 0 1-1.01 0ZM9.5 3.003a1.506 1.506 0 0 0-.027 3.01l1.018 3.068a3.288 3.288 0 0 0-1.35 1.34L6.396 8.938a2.254 2.254 0 1 0-.509.862l2.92 1.574a3.259 3.259 0 0 0 .617 2.585l-2.16 2.171a2.499 2.499 0 1 0 .688.727l2.192-2.205a3.258 3.258 0 0 0 2.408.551l1.037 3.088a1.506 1.506 0 1 0 .953-.305l-1.039-3.093a3.285 3.285 0 0 0 1.558-1.698l3.176.679a1.886 1.886 0 1 0 .238-.972l-3.187-.681a3.258 3.258 0 0 0-.623-2.183l2.45-2.441a2.502 2.502 0 1 0-.705-.71l-2.453 2.444a3.258 3.258 0 0 0-2.52-.578l-1.014-3.056A1.506 1.506 0 0 0 9.5 3.002Zm4.746 9.445a2.273 2.273 0 1 0-.017.06c.005-.021.01-.041.018-.06ZM18.5 4.012a1.502 1.502 0 1 0 0 3.005 1.502 1.502 0 0 0 0-3.005ZM4.33 18.177a1.499 1.499 0 1 1 2.997 0 1.499 1.499 0 0 1-2.997 0ZM4.247 7a1.254 1.254 0 1 0 0 2.508 1.254 1.254 0 0 0 0-2.508Zm14.988 6.822a.886.886 0 1 1 1.773 0 .886.886 0 0 1-1.773 0Zm-4.738 5.164a.505.505 0 1 0 0 1.011.505.505 0 0 0 0-1.01Z" fill="#212529"/></svg>
