<svg width="74.4" height="74.4" xmlns="http://www.w3.org/2000/svg" style="enable-background:new 0 0 74.4 74.4" xml:space="preserve" preserveAspectRatio="xMinYMid meet"><path d="M67.6 56.1c-4.8-3.1-10.5-4.6-16.2-4.5-4.9-.1-9.8 1.1-14.2 3.3-4.4-2.2-9.3-3.4-14.2-3.3-5.7-.1-11.4 1.4-16.2 4.5C2.4 59 .1 63 .1 67.3v4.2c0 1.5 1.1 2.7 2.7 2.8h69c1.6-.1 2.7-1.3 2.7-2.8v-4.2C74.4 63 72 59 67.6 56.1zM40.7 69.2H5.5v-1.5c.3-5.6 6.2-8.5 10.7-9.9 6.5-1.9 13.4-.9 19.5 2.4 2.6 1.5 5 4.2 5 7.4v1.6zm28.4 0h-23c.3-4-1-7.8-3.6-10.7 7-2.7 15-2 21.6 1.7 2.6 1.5 5 4.2 5 7.4v1.6zM22.9 48.5c6.5 0 11.7-5.1 11.7-11.6-.6-15.3-22.9-15.3-23.6 0 0 6.3 5.3 11.6 11.9 11.6zm-6.6-11.6c.1-3.5 3.2-6.2 6.8-6.1 3.4.1 6.1 2.8 6.3 6.1-.4 8.4-12.8 8.4-13.1 0zM50.8 48.5c6.5 0 11.7-5.1 11.7-11.6-.6-15.3-22.9-15.3-23.6 0 .1 6.3 5.3 11.6 11.9 11.6zm0-17.9c3.6 0 6.5 2.8 6.5 6.3-.3 8.4-12.7 8.4-12.9 0 0-3.5 2.8-6.3 6.4-6.3zM20.5.2c1.5.5 2.2 2.2 1.7 3.7l-1.6 3.8c10.7-4.2 22.8-4.2 33.5.2L52.4 4c-.6-1.4.1-3.1 1.6-3.7 1.5-.7 3.1.1 3.8 1.5l4.1 10c.6 1.4-.1 3.1-1.6 3.7l-10.3 4c-1.5.5-3.1-.2-3.7-1.6s.1-3.1 1.6-3.6l3.5-1.7C42.3 9 32.2 8.9 23 12.5l3.7 1.7c1.5.7 2 2.4 1.3 3.8-.7 1.3-2.1 2-3.5 1.4l-10.3-4c-1.5-.5-2.2-2.2-1.7-3.6l4.1-10C17.3.3 19-.4 20.5.2z"/></svg>
