<svg width="24" height="24" fill="none" xmlns="http://www.w3.org/2000/svg"><path fill-rule="evenodd" clip-rule="evenodd" d="M8.52 6.278a.5.5 0 0 1 .362.608.5.5 0 0 1-.614.351L5.69 6.56a.508.508 0 0 1-.309-.233.492.492 0 0 1-.05-.38l.69-2.532a.5.5 0 0 1 .617-.346.5.5 0 0 1 .356.611l-.38 1.39a9.612 9.612 0 0 1 5.373-1.615c1.942 0 3.748.563 5.237 1.526l-.355-1.3a.5.5 0 0 1 .356-.612.5.5 0 0 1 .617.346l.69 2.533a.492.492 0 0 1-.05.379.508.508 0 0 1-.31.233l-2.579.679a.5.5 0 0 1-.613-.352.5.5 0 0 1 .361-.608l1.455-.382a8.613 8.613 0 0 0-4.81-1.442 8.61 8.61 0 0 0-4.84 1.462l1.376.362Zm-1.032 4.176c-.837 0-1.5.664-1.5 1.464 0 .8.663 1.464 1.5 1.464s1.5-.664 1.5-1.464c0-.8-.663-1.464-1.5-1.464Zm-2.5 1.464c0-1.37 1.128-2.464 2.5-2.464s2.5 1.095 2.5 2.464c0 1.37-1.128 2.464-2.5 2.464s-2.5-1.095-2.5-2.464Zm11.514-1.464c-.838 0-1.5.664-1.5 1.464 0 .8.662 1.464 1.5 1.464.837 0 1.5-.664 1.5-1.464 0-.8-.663-1.464-1.5-1.464Zm-2.5 1.464c0-1.37 1.127-2.464 2.5-2.464 1.372 0 2.5 1.095 2.5 2.464 0 1.37-1.128 2.464-2.5 2.464-1.373 0-2.5-1.095-2.5-2.464ZM3.486 20.453a3.998 3.998 0 0 1 4.001-3.994 3.998 3.998 0 0 1 4.002 3.979v.015a.5.5 0 1 0 1 0v-.015a4.003 4.003 0 0 1 4.011-3.98 4.003 4.003 0 0 1 4.012 3.995.5.5 0 1 0 1 0c0-2.76-2.245-4.994-5.012-4.994a5.014 5.014 0 0 0-4.51 2.816 5.003 5.003 0 0 0-4.503-2.816 4.998 4.998 0 0 0-5.001 4.994.5.5 0 1 0 1 0Z" fill="#212529"/></svg>
