<?xml version="1.0" encoding="utf-8"?>
<!-- Generator: Adobe Illustrator 21.0.0, SVG Export Plug-In . SVG Version: 6.00 Build 0)  -->
<svg version="1.1" id="Layer_1" xmlns="http://www.w3.org/2000/svg" xmlns:xlink="http://www.w3.org/1999/xlink" x="0px" y="0px"
	 viewBox="0 0 16 16" style="enable-background:new 0 0 16 16;" xml:space="preserve">
<style type="text/css">
	.st0{fill:#FF403C;}
</style>
<path class="st0" d="M13.7,0.4L13.7,0.4c0.5-0.5,1.4-0.5,1.9,0c0.5,0.5,0.5,1.4,0,1.9L9.9,8l5.7,5.7c0.5,0.5,0.5,1.4,0,1.9
	c-0.5,0.5-1.4,0.5-1.9,0L8,9.9l-5.7,5.7c-0.5,0.5-1.4,0.5-1.9,0c-0.5-0.5-0.5-1.4,0-1.9L6.1,8L0.4,2.3c-0.5-0.5-0.5-1.4,0-1.9
	c0.5-0.5,1.4-0.5,1.9,0L8,6.1L13.7,0.4L13.7,0.4z"/>
</svg>
