<svg xmlns="http://www.w3.org/2000/svg" width="81" height="81" viewBox="0 0 81 81">
    <g fill="none">
        <path fill="#1EDB6E" d="M40 1v.75C18.875 1.75 1.75 18.875 1.75 40S18.875 78.25 40 78.25 78.25 61.125 78.25 40 61.125 1.75 40 1.75V1zm0 0V.25C61.953.25 79.75 18.047 79.75 40S61.953 79.75 40 79.75.25 61.953.25 40 18.047.25 40 .25V1z" transform="translate(.5 1)"/>
        <path fill="#FFF" d="M33.153 50.163L56.581 26.59c.78-.783 2.045-.787 2.829-.009.783.78.787 2.045.009 2.829l-24.847 25c-.782.787-2.055.787-2.837 0L20.58 43.188c-.778-.784-.774-2.05.01-2.829.783-.778 2.049-.774 2.828.009l9.734 9.795z" transform="translate(.5 1)"/>
    </g>
</svg>
