<svg width="80px" height="80px" viewBox="0 0 80 80" xmlns="http://www.w3.org/2000/svg">
    <g stroke="none" stroke-width="1" fill="none" fill-rule="evenodd">
        <g transform="translate(8, 4)" stroke="#FFFFFF" stroke-width="1.5">
            <path d="M7.32119706,58.3356227 L6.82233569,6.76934262 C6.82233569,5.66477312 7.71776619,4.76934262 8.82233569,4.76934262 L19.8300259,4.76934262"
                  transform="translate(13.326181, 31.552483) rotate(-13) translate(-13.326181, -31.552483) "/>
            <path d="M45,2 L45,8 C45,9.1045695 45.8954305,10 47,10 L54,10 L54,10"/>
            <path d="M39,64.5 L15.5,64.5 C14.3954305,64.5 13.5,63.6045695 13.5,62.5 L13.5,3.5 C13.5,2.3954305 14.3954305,1.5 15.5,1.5 L45,1.5 L54.5,10 L54.5,47"
                  stroke-linecap="round"/>
        </g>
        <g transform="translate(27.5, 16.5)" stroke="#FFFFFF" stroke-linecap="round" stroke-width="1.5">
            <line x1="0.5" y1="31" x2="28.5" y2="31"/>
            <line x1="0.5" y1="26" x2="28.5" y2="26"/>
            <line x1="0.5" y1="21" x2="28.5" y2="21"/>
            <line x1="0.5" y1="16" x2="28.5" y2="16"/>
            <line x1="0.5" y1="11" x2="28.5" y2="11"/>
            <line x1="0.5" y1="6" x2="25.5" y2="6"/>
            <line x1="0.5" y1="1" x2="22.5" y2="1"/>
        </g>
        <g transform="translate(50, 54)">
            <path d="M12,23.75 C5.51065419,23.75 0.25,18.4893458 0.25,12 C0.25,5.51065419 5.51065419,0.25 12,0.25 C18.4893458,0.25 23.75,5.51065419 23.75,12 C23.75,18.4893458 18.4893458,23.75 12,23.75 Z M12,22.25 C17.6609187,22.25 22.25,17.6609187 22.25,12 C22.25,6.33908131 17.6609187,1.75 12,1.75 C6.33908131,1.75 1.75,6.33908131 1.75,12 C1.75,17.6609187 6.33908131,22.25 12,22.25 Z"
                  fill="#0CB754"/>
            <path d="M16.5364451,8.25109817 L10.2855255,14.5020178 L7.46305488,11.6795472 C7.12792399,11.3444163 6.58622905,11.3444163 6.25109817,11.6795472 C5.91596728,12.014678 5.91596728,12.556373 6.25109817,12.8915039 L9.67954715,16.3199528 C9.84668404,16.4870897 10.0661048,16.5710867 10.2855255,16.5710867 C10.5049462,16.5710867 10.724367,16.4870897 10.8915039,16.3199528 L17.7484018,9.46305488 C18.0835327,9.12792399 18.0835327,8.58622905 17.7484018,8.25109817 C17.4132709,7.91596728 16.871576,7.91596728 16.5364451,8.25109817 Z"
                  fill="#FFF"/>
        </g>
    </g>
</svg>
