<svg xmlns="http://www.w3.org/2000/svg" width="80" height="80" viewBox="0 0 80 80">
    <g fill="none" fill-rule="evenodd">
        <path fill="#FFF" d="M53.85 26.15a1.877 1.877 0 0 0-2.656 0L40 37.344 28.806 26.15a1.877 1.877 0 1 0-2.656 2.656L37.344 40 26.15 51.194a1.877 1.877 0 1 0 2.656 2.656L40 42.656 51.194 53.85c.366.367.847.55 1.328.55a1.877 1.877 0 0 0 1.328-3.206L42.656 40 53.85 28.806a1.877 1.877 0 0 0 0-2.656"/>
        <path fill-rule="nonzero" stroke="#F5203E" stroke-width="2" d="M79.004 40.003c0-21.538-17.461-38.999-39-38.999s-39 17.46-39 39c0 21.539 17.46 39 39 39s39-17.461 39-39z"/>
    </g>
</svg>
