<svg xmlns="http://www.w3.org/2000/svg" width="40" height="40" viewBox="0 0 40 40">
    <g fill="none">
        <path fill="#FFF" d="M26.925 13.075a.939.939 0 0 0-1.328 0L20 18.672l-5.597-5.597a.939.939 0 1 0-1.328 1.328L18.672 20l-5.597 5.597a.939.939 0 1 0 1.328 1.328L20 21.328l5.597 5.597a.935.935 0 0 0 1.328 0 .939.939 0 0 0 0-1.328L21.328 20l5.597-5.597a.939.939 0 0 0 0-1.328"/>
        <path stroke="#F5203E" stroke-width="2" d="M39.002 20.002c0-10.493-8.507-19-19-19s-19 8.507-19 19 8.507 19 19 19 19-8.507 19-19z"/>
    </g>
</svg>
