<svg xmlns="http://www.w3.org/2000/svg" width="50" height="50" fill="none">
    <path d="M24 17.26c0-.695.672-1.26 1.5-1.26s1.5.564 1.5 1.26v14.48c0 .695-.672 1.26-1.5 1.26s-1.5-.564-1.5-1.26V17.26zm0 21.94c0-.663.672-1.2 1.5-1.2s1.5.537 1.5 1.2v.6c0 .663-.672 1.2-1.5 1.2s-1.5-.537-1.5-1.2v-.6z" fill="#fff" />
    <path d="M24.03 1.9L1.25 46.928C.635 48.143 1.172 49 2.562 49H47.44c1.387 0 1.925-.86 1.313-2.072L25.972 1.9c-.6-1.186-1.343-1.186-1.943 0z" stroke="#f1c80b" stroke-width="2"/>
</svg>
