<svg xmlns="http://www.w3.org/2000/svg" width="44" height="52" viewBox="0 0 44 52">
    <g fill="none" fill-rule="evenodd" stroke-linecap="round" stroke-width="1.5">
        <path stroke="#c0c3c9" stroke-opacity=".5" d="M34.68 37.79c4.634-3.73 7.6-9.448 7.6-15.86 0-11.238-9.111-20.349-20.35-20.349-11.238 0-20.349 9.11-20.349 20.35 0 6.21 2.783 11.772 7.17 15.504m7.365 1.95l11.628-2.907m-11.628 8.708l11.628-2.907m-6.99 8.044l4.083-1.14"/>
        <path stroke="#1EDB6E" d="M23.384 14.663a8.72 8.72 0 0 0-8.721 8.72M23.384 20.477a2.907 2.907 0 0 0-2.907 2.907M23.384 8.849c-8.028 0-14.535 6.507-14.535 14.535"/>
    </g>
</svg>
