<svg xmlns="http://www.w3.org/2000/svg" width="24" height="24" viewBox="0 0 24 24">
    <g fill="none" fill-rule="evenodd">
        <path fill="#FF6800"
              d="M22.443 16.046c-.779-.733-1.295-.835-1.927-1.298-1.933-1.415-2.399-4.381-.915-6.315.424-.553.952-.943 1.546-1.338.617-.41 1.18-1.005 1.47-1.623.586-1.241.447-2.81-.461-3.982C21.29.375 19.932-.206 18.446.067c-.7.129-1.29.419-1.884.95-.61.545-.766 1.105-1.465 1.79-1.102 1.08-2.423 1.61-3.99 1.503-.766-.053-1.414-.235-2.184-.67-.83-.468-1.153-1.028-1.792-1.174-.664-.152-1.402.033-1.844.542-.604.693-.524 1.339-.262 2.167.248.784.46 1.544.501 2.371a7.26 7.26 0 0 1-.285 2.416c-.424 1.429-1.466 2.77-2.464 3.653-.822.728-1.404.845-1.93 1.354A2.692 2.692 0 0 0 0 16.912c0 1.33.954 2.44 2.216 2.675.986.183 1.928-.266 2.222-.36 2.048-.645 4.621-.566 6.48-.024 1.538.449 2.868 1.243 4.109 2.248.597.484 1.05 1.134 1.677 1.582 1.613 1.151 4.4 1.375 6.182-.922 1.206-1.555 1.496-4.24-.443-6.065"/>
        <g transform="translate(8.106 7.947)">
            <path fill="#FFF"
                  d="M3.83 6.269c-1.252 0-2.154-1.142-2.154-2.373 0-1.3.928-2.367 2.154-2.367 1.323 0 2.155 1.185 2.155 2.367 0 1.25-.887 2.373-2.155 2.373M6.817 0c-.601 0-.833.475-.833.82v.637C5.364.622 4.525.067 3.381.067c-.935 0-1.732.376-2.392 1.129C.33 1.948 0 2.856 0 3.92 0 4.98.33 5.887.99 6.64c.659.756 1.456 1.134 2.39 1.134 1.228 0 2.077-.668 2.604-1.395v.685c0 .307.247.796.826.796.572 0 .813-.498.813-.82V.82c0-.528-.452-.82-.806-.82"/>
        </g>
    </g>
</svg>
