<svg xmlns="http://www.w3.org/2000/svg" width="40" height="40" viewBox="0 0 40 40">
    <g fill="none" fill-rule="evenodd">
        <path fill="#FFF" d="M20.8 24h-1.6c0-1.875.784-2.964 2.69-4.544.032-.028.28-.233.35-.292 1.314-1.092 1.76-1.697 1.76-2.593 0-2.406-1.433-3.771-4-3.771-2.84 0-4 .84-4 3.018h-1.6c0-3.194 1.967-4.618 5.6-4.618 3.433 0 5.6 2.063 5.6 5.371 0 1.523-.682 2.447-2.336 3.823l-.353.293C21.344 21.987 20.8 22.742 20.8 24z"/>
        <circle cx="20" cy="20" r="19" stroke="#C0C3C9" stroke-width="2"/>
        <path fill="#FFF" stroke="#FFF" stroke-width="2" d="M20.2 28.2h1v1h-1z"/>
    </g>
</svg>
