<svg width="34px" height="34px" viewBox="0 0 34 34" xmlns="http://www.w3.org/2000/svg">
    <g stroke="none" stroke-width="1" fill="#FFFFFF" fill-rule="evenodd">
        <path d="M2.02886556,15.6079946 C3.63996917,16.1538327 4.89969252,17.4986676 5.29711995,19.2201149 C5.69677693,20.9512194 5.14563694,22.7217395 3.92363942,23.9185451 C4.71444671,25.3208752 5.72737201,26.5885659 6.91975477,27.6710904 C8.36181689,26.7450321 10.2149116,26.6041599 11.8148763,27.3845148 C13.399403,28.1573401 14.4255263,29.6824836 14.5981542,31.3710574 C15.386377,31.4977958 16.1883671,31.5620143 16.9990441,31.5620143 C17.8097212,31.5620143 18.6117113,31.4977958 19.399934,31.3710574 C19.572562,29.6824836 20.5986853,28.1573401 22.183212,27.3845148 C23.7831767,26.6041599 25.6362714,26.7450321 27.0783335,27.6710904 C28.2707163,26.5885659 29.2836416,25.3208752 30.0744488,23.9185451 C28.8524513,22.7217395 28.3013113,20.9512194 28.7009683,19.2201149 C29.0983958,17.4986676 30.3581191,16.1538327 31.9692227,15.6079946 C31.8674216,13.9846537 31.5062031,12.4086315 30.9044447,10.9257535 C29.2234625,11.1333974 27.5114937,10.4763754 26.4044495,9.10928962 C25.2810488,7.72200521 25.0031718,5.87850086 25.5871801,4.26218205 C24.2687549,3.33973501 22.8099338,2.63417085 21.2623045,2.17625569 C20.3698186,3.63094118 18.7716589,4.5620143 16.9990441,4.5620143 C15.2264294,4.5620143 13.6282696,3.63094118 12.7357838,2.17625569 C11.1881545,2.63417085 9.72933334,3.33973501 8.41090818,4.26218205 C8.99491651,5.87850086 8.7170395,7.72200521 7.59363874,9.10928962 C6.48659453,10.4763754 4.7746258,11.1333974 3.09364357,10.9257535 C2.4918852,12.4086315 2.13066671,13.9846537 2.02886556,15.6079946 Z M6.81649278,8.47996923 C7.8937548,7.14966142 7.97733187,5.33784179 7.16162305,3.94265744 C8.93469886,2.55848702 11.0070214,1.53983887 13.2653036,1 C13.8428715,2.49868084 15.2967804,3.5620143 16.9990441,3.5620143 C18.7013079,3.5620143 20.1552167,2.49868084 20.7327847,1 C22.9910669,1.53983887 25.0633894,2.55848702 26.8364652,3.94265744 C26.0207564,5.33784179 26.1043335,7.14966142 27.1815955,8.47996923 C28.24624,9.79469566 29.9726931,10.2578674 31.4939985,9.77836352 C32.4360518,11.7878258 32.9725477,14.025267 32.9980883,16.3852892 C31.4136877,16.6156588 30.0571796,17.7911299 29.6753384,19.445066 C29.2916286,21.1070954 30.0043412,22.766322 31.3399557,23.6649547 C30.3204325,25.7194339 28.8724228,27.5236448 27.1128073,28.9607067 C25.9367998,27.8576786 24.1568878,27.5344907 22.6215831,28.2833089 C21.0980387,29.0263912 20.2580577,30.6092055 20.3871436,32.2025899 C19.2950664,32.4380395 18.1615332,32.5620143 16.9990441,32.5620143 C15.8365551,32.5620143 14.7030219,32.4380395 13.6109447,32.2025899 C13.7400306,30.6092055 12.9000496,29.0263912 11.3765052,28.2833089 C9.84120042,27.5344907 8.06128851,27.8576786 6.88528097,28.9607067 C5.12566549,27.5236448 3.67765573,25.7194339 2.65813259,23.6649547 C3.99374711,22.766322 4.70645963,21.1070954 4.32274989,19.445066 C3.94090865,17.7911299 2.5844006,16.6156588 1,16.3852892 C1.02554059,14.025267 1.56203643,11.7878258 2.50408978,9.77836352 C4.02539519,10.2578674 5.75184831,9.79469566 6.81649278,8.47996923 Z"
              transform="translate(16.999044, 16.781007) translate(-16.999044, -16.781007) "/>
        <path d="M17,23 C20.3137085,23 23,20.3137085 23,17 C23,13.6862915 20.3137085,11 17,11 C13.6862915,11 11,13.6862915 11,17 C11,20.3137085 13.6862915,23 17,23 Z M17,24 C13.1340068,24 10,20.8659932 10,17 C10,13.1340068 13.1340068,10 17,10 C20.8659932,10 24,13.1340068 24,17 C24,20.8659932 20.8659932,24 17,24 Z"/>
    </g>
</svg>
