<svg xmlns="http://www.w3.org/2000/svg" width="50" height="50" viewBox="0 0 50 50">
    <g fill="none" stroke-width="1.5">
        <path stroke="#788092" d="M25 .906c-6.653 0-12.677 2.697-17.037 7.057C3.603 12.323.906 18.346.906 25c0 6.653 2.697 12.677 7.057 17.037 4.36 4.36 10.384 7.057 17.037 7.057 6.653 0 12.677-2.697 17.037-7.057 4.36-4.36 7.057-10.384 7.057-17.037 0-6.654-2.697-12.677-7.057-17.037C37.677 3.603 31.653.906 25 .906z"/>
        <path stroke="#FFF" stroke-linecap="round" stroke-linejoin="round" d="M25.999 16.83c-.552-1.563-1.448-1.557-1.998 0L22 22.5h-4.998c-1.658 0-1.9.763-.535 1.708L20.5 27l-1.605 5.134c-.494 1.583.199 2.085 1.553 1.117L25 30l4.552 3.251c1.352.966 2.046.464 1.553-1.117L29.5 27l4.033-2.792c1.363-.943 1.128-1.708-.535-1.708H28l-2.001-5.67z"/>
    </g>
</svg>
