<svg width="50px" height="50px" viewBox="0 0 50 50" xmlns="http://www.w3.org/2000/svg">
    <g stroke="none" stroke-width="1" fill="none" fill-rule="evenodd"
       transform="translate(25.500000, 21.000000) scale(-1, -1) translate(-25.500000, -21.000000) translate(6.000000, 5.000000)">
        <rect stroke="#1EDB6E" stroke-width="1.5" x="25.75" y="0.75" width="12.5" height="18.5" rx="4"/>
        <g transform="translate(11.500000, 16.000000) scale(-1, -1) translate(-11.500000, -16.000000) ">
            <mask id="mask-2" fill="white">
                <rect x="0" y="0" width="23" height="32"/>
            </mask>
            <path d="M-0.96682956,15.1337476 C-1.15367513,15.7317812 -1.25,16.3588614 -1.25,17 L-1.25,25 C-1.25,28.4517797 1.54822031,31.25 5,31.25 L7.76242787,31.25 C7.86024937,31.25 7.95778414,31.2477556 8.05498522,31.2432809 L8.17650755,31.2475543 C8.28318598,31.2600179 8.39112048,31.2663084 8.5,31.2663084 L16.4235605,31.2663084 C17.9423436,31.2663084 19.1735605,30.0350915 19.1735605,28.5163084 C19.1735605,27.9328859 18.9922992,27.3787109 18.6598385,26.9153618 L18.1958726,26.2687343 L18.8688665,25.8439159 C19.662751,25.3427868 20.1535168,24.4721279 20.1535168,23.5163084 C20.1535168,22.9357883 19.9740642,22.3842144 19.6446799,21.922192 L19.1819318,21.2731024 L19.8579972,20.8507416 C20.6580179,20.3509416 21.1535168,19.4766791 21.1535168,18.5163084 C21.1535168,17.9357883 20.9740642,17.3842144 20.6446799,16.922192 L20.1819318,16.2731024 L20.8579972,15.8507416 C21.6580179,15.3509416 22.1535168,14.4766791 22.1535168,13.5163084 C22.1535168,11.9975253 20.9222998,10.7663084 19.4035168,10.7663084 L9.23438874,10.7663084 L11.532234,4.45303054 C12.0547689,3.01737761 11.3145405,1.4299527 9.87888757,0.907417765 C8.44323464,0.384882832 6.85580973,1.12511122 6.3332748,2.56076415 L3.26809435,10.9822782 L3.13565968,11.0286745 C2.35226982,12.872297 0.876196437,14.3492316 -0.96682956,15.1337476 Z"
                  stroke="#1EDB6E" stroke-width="1.5" mask="url(#mask-2)"/>
        </g>
        <circle stroke="#1EDB6E" cx="32" cy="7" r="2"/>
    </g>
</svg>
