<svg width="50px" height="50px" viewBox="0 0 50 50" xmlns="http://www.w3.org/2000/svg">
    <path d="M10,17 L16,17 C18.209139,17 20,18.790861 20,21 L20,33 C20,35.209139 18.209139,37 16,37 L10,37 C7.790861,37 6,35.209139 6,33 L6,21 C6,18.790861 7.790861,17 10,17 Z M13,32 C14.1045695,32 15,31.1045695 15,30 C15,28.8954305 14.1045695,28 13,28 C11.8954305,28 11,28.8954305 11,30 C11,31.1045695 11.8954305,32 13,32 Z"
          fill="#1EDB6E" />
    <g transform="translate(22.000000, 5.000000)">
        <mask id="mask-2" fill="white">
            <rect x="0" y="0" width="23" height="32"/>
        </mask>
        <path d="M-1.573714,15.5889966 C0.34556875,14.8797532 1.86880935,13.3532941 2.573714,11.4319131 C2.62313597,11.4136499 2.67282055,11.3959286 2.72276052,11.3787564 L5.77395599,2.99566573 C6.34063352,1.43873202 8.06216057,0.635970772 9.61909429,1.2026483 C11.176028,1.76932583 11.9787892,3.49085288 11.4121117,5.04778659 L9.24568321,11 L19,11 C20.6568542,11 22,12.3431458 22,14 C22,15.2870407 21.1895259,16.3847851 20.0511073,16.8107037 C20.6351144,17.3580695 21,18.136423 21,19 C21,20.2870407 20.1895259,21.3847851 19.0511073,21.8107037 C19.6351144,22.3580695 20,23.136423 20,24 C20,25.5800082 18.778557,26.8747331 17.2284109,26.9914347 C17.708025,27.5232048 18,28.2275052 18,29 C18,30.6568542 16.6568542,32 15,32 L6,32 C4.34314575,32 3,30.6568542 3,29 C3,28.2316456 3.28885357,27.5307565 3.76389349,27 L3,27 C1.34314575,27 0,25.6568542 0,24 C0,22.7129593 0.810474072,21.6152149 1.94889273,21.1892963 C1.36488557,20.6419305 1,19.863577 1,19 C1,18.780605 1.02355093,18.5667106 1.06826262,18.360707 C0.767548893,17.6778392 0.719574542,16.8824646 0.994923224,16.1259504 L2.72276052,11.3787564 C3.43666993,11.1332735 4.20277112,11 5,11 L7.93196656,11 C11.7979598,11 14.9319666,14.1340068 14.9319666,18 C14.9319666,18.0541 14.9313394,18.1081982 14.9300852,18.1622837 L14.7677578,25.1622837 C14.6795969,28.9640246 11.5724021,32 7.76963921,32 L5,32 C1.13400675,32 -2,28.8659932 -2,25 L-2,18 C-2,17.1527479 -1.84947695,16.3406524 -1.573714,15.5889966 Z"
              fill="#1EDB6E" mask="url(#mask-2)"/>
    </g>
</svg>
