<svg viewBox="0 0 50 50" xmlns="http://www.w3.org/2000/svg">
    <g fill="none" fill-rule="evenodd" stroke-linecap="round">
        <g stroke-width="1.5">
            <path d="m21.613 36.301c-1.1033 2.8216-2.7675 5.3971-4.8843 7.563" stroke="#BBC1CC" stroke-opacity=".5"/>
            <path d="m22.536 45.944c4.8896-6.2443 7.1198-14.501 5.4271-22.878l0.0087521-0.0028555c-0.30902-1.5292-1.8014-2.5189-3.3337-2.2105-1.5321 0.30839-2.5236 1.7978-2.2148 3.3272l0.020029-0.0033595c0.63049 3.1211 0.58067 6.2216-0.0478 9.1485" stroke="#BBC1CC" stroke-opacity=".5"/>
            <path d="m25.543 15.183c-0.76227-0.059294-1.5458-0.015621-2.3326 0.14277-4.5782 0.92132-7.5411 5.3715-6.6179 9.9408l0.015821-0.0026875c1.2485 6.18-1.0592 12.251-5.517 16.104" stroke="#BBC1CC" stroke-opacity=".5"/>
            <path d="m29.612 45.999c4.0576-6.9032 5.6848-15.263 3.975-23.725l0.0040394-0.0016797c-0.5088-2.5175-2.0911-4.5458-4.1753-5.7054" stroke="#BBC1CC" stroke-opacity=".5"/>
            <path d="m36.767 15.59c1.0024 1.4881 1.7344 3.1938 2.1119 5.061 1.5316 7.5768 0.76884 15.083-1.8075 21.804" stroke="#F1C80B"/>
            <path d="m19.548 10.802c0.96946-0.44344 2.0051-0.78325 3.0957-1.0026 4.3102-0.86723 8.5572 0.32956 11.712 2.9084" stroke="#F1C80B"/>
            <path d="m6.862 37.039c3.1814-2.5506 4.8635-6.7386 4.0009-11.006l-0.010604 0.0023516c-1.0715-5.3023 0.99976-10.509 4.934-13.697" stroke="#F1C80B"/>
            <path d="m27.395 4.0564c-2.1194-0.28572-4.3214-0.22945-6.5355 0.21618-10.67 2.147-17.576 12.519-15.424 23.168l0.0065641-0.0016797c0.37348 1.8477-0.20618 3.6656-1.3992 4.9501" stroke="#BBC1CC" stroke-opacity=".5"/>
            <path d="m44.702 34.593c0.58555-4.6939 0.43491-9.5602-0.55357-14.452-1.4687-7.2412-6.7432-13.035-13.324-15.141" stroke="#BBC1CC" stroke-opacity=".5"/>
        </g>
    </g>
</svg>
