<svg width="24" height="24" xmlns="http://www.w3.org/2000/svg" style="enable-background:new 0 0 24 24" xml:space="preserve" preserveAspectRatio="xMinYMid meet"><path d="M24 4V2.4c0-.6-.3-1.2-.7-1.7-.5-.4-1.1-.7-1.7-.7H20c-.6 0-1.2.3-1.7.7-.5.5-.7 1.1-.7 1.7H6.4c0-.6-.3-1.2-.7-1.7C5.2.3 4.6 0 4 0H2.4C1.8 0 1.2.3.7.7.3 1.2 0 1.8 0 2.4V4c0 .6.3 1.2.7 1.7.5.5 1.1.7 1.7.7v11.2c-.6 0-1.2.3-1.7.7-.4.5-.7 1.1-.7 1.7v1.6c0 .6.3 1.2.7 1.7.5.4 1.1.7 1.7.7H4c.6 0 1.2-.3 1.7-.7.5-.5.7-1.1.7-1.7h11.2c0 .6.3 1.2.7 1.7.5.5 1.1.7 1.7.7h1.6c.6 0 1.2-.3 1.7-.7.5-.5.7-1.1.7-1.7V20c0-.6-.3-1.2-.7-1.7-.5-.5-1.1-.7-1.7-.7V6.4c.6 0 1.2-.3 1.7-.7.4-.5.7-1.1.7-1.7zm-4.6-1.5c0-.2.1-.4.2-.5.1-.1.3-.2.5-.2h1.4c.2 0 .4.1.5.2.1.1.2.3.2.5v1.4c0 .2-.1.4-.2.5-.1.1-.3.2-.5.2h-1.4c-.2 0-.4-.1-.5-.2-.1-.1-.2-.3-.2-.5V2.5zM1.8 3.9V2.5c0-.2 0-.4.2-.5.1-.1.3-.2.5-.2h1.4c.2 0 .4.1.5.2.1.1.2.3.2.5v1.4c0 .2-.1.4-.2.5-.1.2-.3.2-.5.2H2.5c-.2 0-.4 0-.5-.2-.2-.1-.2-.3-.2-.5zm2.8 17.6c0 .2-.1.4-.2.5s-.3.2-.5.2H2.5c-.2 0-.4-.1-.5-.2s-.2-.3-.2-.5v-1.4c0-.2.1-.4.2-.5.1-.1.3-.2.5-.2h1.4c.2 0 .4.1.5.2s.2.3.2.5v1.4zm17.6-1.4v1.4c0 .2-.1.4-.2.5s-.3.2-.5.2h-1.4c-.2 0-.4-.1-.5-.2s-.2-.3-.2-.5v-1.4c0-.2.1-.4.2-.5s.3-.2.5-.2h1.4c.2 0 .4.1.5.2s.2.3.2.5zm-2.4-2.6c-.6 0-1.2.2-1.7.7-.4.4-.7 1-.7 1.7h-11c0-.6-.2-1.2-.7-1.7-.4-.4-1-.7-1.7-.7v-11c.6 0 1.2-.2 1.7-.7.4-.4.7-1 .7-1.7h11c0 .6.2 1.2.7 1.7.4.4 1 .7 1.7.7v11zm-3-9.5c0 .4-.1.6-.2.7s-.4.3-.6.3h-3.1v7c0 .3-.2.6-.5.7-.2.1-.6.1-.8 0-.2-.1-.5-.4-.5-.7V9H8c-.3 0-.5-.2-.7-.4-.1-.2-.1-.7 0-1 .2-.2.4-.4.7-.4h8c.2 0 .4.1.6.2.1.2.2.4.2.6z"/></svg>
