<svg xmlns="http://www.w3.org/2000/svg" width="16" height="16" style="overflow:visible;enable-background:new 0 0 16 16" xml:space="preserve" preserveAspectRatio="xMinYMid meet"><path style="fill:#999" d="M14 8.4V12c0 1.1-.9 2-2 2H4c-1.1 0-2-.9-2-2V4c0-1.1.9-2 2-2h8c.4 0 .8.1 1.1.3.3-.3.8-.4 1.2-.4.5 0 1 .2 1.4.6l.3.3V2c0-1.1-.9-2-2-2H2C.9 0 0 .9 0 2v12c0 1.1.9 2 2 2h12c1.1 0 2-.9 2-2V6.4l-2 2z"/><path style="fill:#76a1f0" d="m15.7 3.9-.7-.7c-.4-.4-1-.4-1.4 0l-6 6L5.4 7c-.4-.3-1-.3-1.4 0l-.7.7c-.4.4-.4 1 0 1.4l3.6 3.6c.4.4 1 .4 1.4 0l7.4-7.4c.4-.4.4-1 0-1.4z"/></svg>
