<svg xmlns="http://www.w3.org/2000/svg" width="16" height="16" style="overflow:visible;enable-background:new 0 0 16 16" xml:space="preserve" preserveAspectRatio="xMinYMid meet"><path style="fill:#999" d="M10 0v2H6V0h4zm1 2h1c1.1 0 2 .9 2 2v1h2V2c0-1.1-.9-2-2-2h-3v2zm5 4h-2v4h2V6zm-2 5v1c0 1.1-.9 2-2 2h-1v2h3c1.1 0 2-.9 2-2v-3h-2zm-4 5v-2H6v2h4zm-5-2H4c-1.1 0-2-.9-2-2v-1H0v3c0 1.1.9 2 2 2h3v-2zm-5-4h2V6H0v4zm2-5V4c0-1.1.9-2 2-2h1V0H2C.9 0 0 .9 0 2v3h2z"/><path style="fill:#ff403c" d="m10.2 8 2.6-2.6c.4-.4.4-1 0-1.4l-.8-.7c-.4-.4-1-.4-1.4 0L8 5.9 5.4 3.3c-.4-.4-1-.4-1.4 0l-.7.7c-.4.4-.4 1 0 1.4L5.9 8l-2.6 2.6c-.3.4-.3 1 0 1.4l.7.7c.4.4 1 .4 1.4 0L8 10.2l2.5 2.5c.4.4 1 .4 1.4 0l.7-.7c.4-.4.4-1 0-1.4L10.2 8z"/></svg>
