<?xml version="1.0" encoding="UTF-8"?>
<svg xmlns="http://www.w3.org/2000/svg" width="384" height="443"><rect x="0" y="0" width="100%" height="100%" fill="rgb(249, 176, 0)"/><polyline points="0,36.950417228136,21.333333333333,0,64,0,85.333333333333,36.950417228136,64,73.900834456272,21.333333333333,73.900834456272,0,36.950417228136" stroke="#000" stroke-opacity="0.02" fill-opacity="0.10666666666667" fill="#ddd" transform="translate(-42.666666666667, -36.950417228136)"/><polyline points="0,36.950417228136,21.333333333333,0,64,0,85.333333333333,36.950417228136,64,73.900834456272,21.333333333333,73.900834456272,0,36.950417228136" stroke="#000" stroke-opacity="0.02" fill-opacity="0.10666666666667" fill="#ddd" transform="translate(341.33333333333, -36.950417228136)"/><polyline points="0,36.950417228136,21.333333333333,0,64,0,85.333333333333,36.950417228136,64,73.900834456272,21.333333333333,73.900834456272,0,36.950417228136" stroke="#000" stroke-opacity="0.02" fill-opacity="0.10666666666667" fill="#ddd" transform="translate(-42.666666666667, 406.4545895095)"/><polyline points="0,36.950417228136,21.333333333333,0,64,0,85.333333333333,36.950417228136,64,73.900834456272,21.333333333333,73.900834456272,0,36.950417228136" stroke="#000" stroke-opacity="0.02" fill-opacity="0.10666666666667" fill="#ddd" transform="translate(341.33333333333, 406.4545895095)"/><polyline points="0,36.950417228136,21.333333333333,0,64,0,85.333333333333,36.950417228136,64,73.900834456272,21.333333333333,73.900834456272,0,36.950417228136" stroke="#000" stroke-opacity="0.02" fill-opacity="0.15" fill="#222" transform="translate(21.333333333333, 0)"/><polyline points="0,36.950417228136,21.333333333333,0,64,0,85.333333333333,36.950417228136,64,73.900834456272,21.333333333333,73.900834456272,0,36.950417228136" stroke="#000" stroke-opacity="0.02" fill-opacity="0.15" fill="#222" transform="translate(21.333333333333, 443.40500673763)"/><polyline points="0,36.950417228136,21.333333333333,0,64,0,85.333333333333,36.950417228136,64,73.900834456272,21.333333333333,73.900834456272,0,36.950417228136" stroke="#000" stroke-opacity="0.02" fill-opacity="0.046" fill="#222" transform="translate(85.333333333333, -36.950417228136)"/><polyline points="0,36.950417228136,21.333333333333,0,64,0,85.333333333333,36.950417228136,64,73.900834456272,21.333333333333,73.900834456272,0,36.950417228136" stroke="#000" stroke-opacity="0.02" fill-opacity="0.046" fill="#222" transform="translate(85.333333333333, 406.4545895095)"/><polyline points="0,36.950417228136,21.333333333333,0,64,0,85.333333333333,36.950417228136,64,73.900834456272,21.333333333333,73.900834456272,0,36.950417228136" stroke="#000" stroke-opacity="0.02" fill-opacity="0.14133333333333" fill="#ddd" transform="translate(149.33333333333, 0)"/><polyline points="0,36.950417228136,21.333333333333,0,64,0,85.333333333333,36.950417228136,64,73.900834456272,21.333333333333,73.900834456272,0,36.950417228136" stroke="#000" stroke-opacity="0.02" fill-opacity="0.14133333333333" fill="#ddd" transform="translate(149.33333333333, 443.40500673763)"/><polyline points="0,36.950417228136,21.333333333333,0,64,0,85.333333333333,36.950417228136,64,73.900834456272,21.333333333333,73.900834456272,0,36.950417228136" stroke="#000" stroke-opacity="0.02" fill-opacity="0.028666666666667" fill="#222" transform="translate(213.33333333333, -36.950417228136)"/><polyline points="0,36.950417228136,21.333333333333,0,64,0,85.333333333333,36.950417228136,64,73.900834456272,21.333333333333,73.900834456272,0,36.950417228136" stroke="#000" stroke-opacity="0.02" fill-opacity="0.028666666666667" fill="#222" transform="translate(213.33333333333, 406.4545895095)"/><polyline points="0,36.950417228136,21.333333333333,0,64,0,85.333333333333,36.950417228136,64,73.900834456272,21.333333333333,73.900834456272,0,36.950417228136" stroke="#000" stroke-opacity="0.02" fill-opacity="0.046" fill="#222" transform="translate(277.33333333333, 0)"/><polyline points="0,36.950417228136,21.333333333333,0,64,0,85.333333333333,36.950417228136,64,73.900834456272,21.333333333333,73.900834456272,0,36.950417228136" stroke="#000" stroke-opacity="0.02" fill-opacity="0.046" fill="#222" transform="translate(277.33333333333, 443.40500673763)"/><polyline points="0,36.950417228136,21.333333333333,0,64,0,85.333333333333,36.950417228136,64,73.900834456272,21.333333333333,73.900834456272,0,36.950417228136" stroke="#000" stroke-opacity="0.02" fill-opacity="0.046" fill="#222" transform="translate(-42.666666666667, 36.950417228136)"/><polyline points="0,36.950417228136,21.333333333333,0,64,0,85.333333333333,36.950417228136,64,73.900834456272,21.333333333333,73.900834456272,0,36.950417228136" stroke="#000" stroke-opacity="0.02" fill-opacity="0.046" fill="#222" transform="translate(341.33333333333, 36.950417228136)"/><polyline points="0,36.950417228136,21.333333333333,0,64,0,85.333333333333,36.950417228136,64,73.900834456272,21.333333333333,73.900834456272,0,36.950417228136" stroke="#000" stroke-opacity="0.02" fill-opacity="0.054666666666667" fill="#ddd" transform="translate(21.333333333333, 73.900834456272)"/><polyline points="0,36.950417228136,21.333333333333,0,64,0,85.333333333333,36.950417228136,64,73.900834456272,21.333333333333,73.900834456272,0,36.950417228136" stroke="#000" stroke-opacity="0.02" fill-opacity="0.037333333333333" fill="#ddd" transform="translate(85.333333333333, 36.950417228136)"/><polyline points="0,36.950417228136,21.333333333333,0,64,0,85.333333333333,36.950417228136,64,73.900834456272,21.333333333333,73.900834456272,0,36.950417228136" stroke="#000" stroke-opacity="0.02" fill-opacity="0.089333333333333" fill="#ddd" transform="translate(149.33333333333, 73.900834456272)"/><polyline points="0,36.950417228136,21.333333333333,0,64,0,85.333333333333,36.950417228136,64,73.900834456272,21.333333333333,73.900834456272,0,36.950417228136" stroke="#000" stroke-opacity="0.02" fill-opacity="0.11533333333333" fill="#222" transform="translate(213.33333333333, 36.950417228136)"/><polyline points="0,36.950417228136,21.333333333333,0,64,0,85.333333333333,36.950417228136,64,73.900834456272,21.333333333333,73.900834456272,0,36.950417228136" stroke="#000" stroke-opacity="0.02" fill-opacity="0.098" fill="#222" transform="translate(277.33333333333, 73.900834456272)"/><polyline points="0,36.950417228136,21.333333333333,0,64,0,85.333333333333,36.950417228136,64,73.900834456272,21.333333333333,73.900834456272,0,36.950417228136" stroke="#000" stroke-opacity="0.02" fill-opacity="0.14133333333333" fill="#ddd" transform="translate(-42.666666666667, 110.85125168441)"/><polyline points="0,36.950417228136,21.333333333333,0,64,0,85.333333333333,36.950417228136,64,73.900834456272,21.333333333333,73.900834456272,0,36.950417228136" stroke="#000" stroke-opacity="0.02" fill-opacity="0.14133333333333" fill="#ddd" transform="translate(341.33333333333, 110.85125168441)"/><polyline points="0,36.950417228136,21.333333333333,0,64,0,85.333333333333,36.950417228136,64,73.900834456272,21.333333333333,73.900834456272,0,36.950417228136" stroke="#000" stroke-opacity="0.02" fill-opacity="0.037333333333333" fill="#ddd" transform="translate(21.333333333333, 147.80166891254)"/><polyline points="0,36.950417228136,21.333333333333,0,64,0,85.333333333333,36.950417228136,64,73.900834456272,21.333333333333,73.900834456272,0,36.950417228136" stroke="#000" stroke-opacity="0.02" fill-opacity="0.063333333333333" fill="#222" transform="translate(85.333333333333, 110.85125168441)"/><polyline points="0,36.950417228136,21.333333333333,0,64,0,85.333333333333,36.950417228136,64,73.900834456272,21.333333333333,73.900834456272,0,36.950417228136" stroke="#000" stroke-opacity="0.02" fill-opacity="0.124" fill="#ddd" transform="translate(149.33333333333, 147.80166891254)"/><polyline points="0,36.950417228136,21.333333333333,0,64,0,85.333333333333,36.950417228136,64,73.900834456272,21.333333333333,73.900834456272,0,36.950417228136" stroke="#000" stroke-opacity="0.02" fill-opacity="0.063333333333333" fill="#222" transform="translate(213.33333333333, 110.85125168441)"/><polyline points="0,36.950417228136,21.333333333333,0,64,0,85.333333333333,36.950417228136,64,73.900834456272,21.333333333333,73.900834456272,0,36.950417228136" stroke="#000" stroke-opacity="0.02" fill-opacity="0.063333333333333" fill="#222" transform="translate(277.33333333333, 147.80166891254)"/><polyline points="0,36.950417228136,21.333333333333,0,64,0,85.333333333333,36.950417228136,64,73.900834456272,21.333333333333,73.900834456272,0,36.950417228136" stroke="#000" stroke-opacity="0.02" fill-opacity="0.11533333333333" fill="#222" transform="translate(-42.666666666667, 184.75208614068)"/><polyline points="0,36.950417228136,21.333333333333,0,64,0,85.333333333333,36.950417228136,64,73.900834456272,21.333333333333,73.900834456272,0,36.950417228136" stroke="#000" stroke-opacity="0.02" fill-opacity="0.11533333333333" fill="#222" transform="translate(341.33333333333, 184.75208614068)"/><polyline points="0,36.950417228136,21.333333333333,0,64,0,85.333333333333,36.950417228136,64,73.900834456272,21.333333333333,73.900834456272,0,36.950417228136" stroke="#000" stroke-opacity="0.02" fill-opacity="0.124" fill="#ddd" transform="translate(21.333333333333, 221.70250336882)"/><polyline points="0,36.950417228136,21.333333333333,0,64,0,85.333333333333,36.950417228136,64,73.900834456272,21.333333333333,73.900834456272,0,36.950417228136" stroke="#000" stroke-opacity="0.02" fill-opacity="0.063333333333333" fill="#222" transform="translate(85.333333333333, 184.75208614068)"/><polyline points="0,36.950417228136,21.333333333333,0,64,0,85.333333333333,36.950417228136,64,73.900834456272,21.333333333333,73.900834456272,0,36.950417228136" stroke="#000" stroke-opacity="0.02" fill-opacity="0.098" fill="#222" transform="translate(149.33333333333, 221.70250336882)"/><polyline points="0,36.950417228136,21.333333333333,0,64,0,85.333333333333,36.950417228136,64,73.900834456272,21.333333333333,73.900834456272,0,36.950417228136" stroke="#000" stroke-opacity="0.02" fill-opacity="0.15" fill="#222" transform="translate(213.33333333333, 184.75208614068)"/><polyline points="0,36.950417228136,21.333333333333,0,64,0,85.333333333333,36.950417228136,64,73.900834456272,21.333333333333,73.900834456272,0,36.950417228136" stroke="#000" stroke-opacity="0.02" fill-opacity="0.14133333333333" fill="#ddd" transform="translate(277.33333333333, 221.70250336882)"/><polyline points="0,36.950417228136,21.333333333333,0,64,0,85.333333333333,36.950417228136,64,73.900834456272,21.333333333333,73.900834456272,0,36.950417228136" stroke="#000" stroke-opacity="0.02" fill-opacity="0.063333333333333" fill="#222" transform="translate(-42.666666666667, 258.65292059695)"/><polyline points="0,36.950417228136,21.333333333333,0,64,0,85.333333333333,36.950417228136,64,73.900834456272,21.333333333333,73.900834456272,0,36.950417228136" stroke="#000" stroke-opacity="0.02" fill-opacity="0.063333333333333" fill="#222" transform="translate(341.33333333333, 258.65292059695)"/><polyline points="0,36.950417228136,21.333333333333,0,64,0,85.333333333333,36.950417228136,64,73.900834456272,21.333333333333,73.900834456272,0,36.950417228136" stroke="#000" stroke-opacity="0.02" fill-opacity="0.046" fill="#222" transform="translate(21.333333333333, 295.60333782509)"/><polyline points="0,36.950417228136,21.333333333333,0,64,0,85.333333333333,36.950417228136,64,73.900834456272,21.333333333333,73.900834456272,0,36.950417228136" stroke="#000" stroke-opacity="0.02" fill-opacity="0.054666666666667" fill="#ddd" transform="translate(85.333333333333, 258.65292059695)"/><polyline points="0,36.950417228136,21.333333333333,0,64,0,85.333333333333,36.950417228136,64,73.900834456272,21.333333333333,73.900834456272,0,36.950417228136" stroke="#000" stroke-opacity="0.02" fill-opacity="0.037333333333333" fill="#ddd" transform="translate(149.33333333333, 295.60333782509)"/><polyline points="0,36.950417228136,21.333333333333,0,64,0,85.333333333333,36.950417228136,64,73.900834456272,21.333333333333,73.900834456272,0,36.950417228136" stroke="#000" stroke-opacity="0.02" fill-opacity="0.054666666666667" fill="#ddd" transform="translate(213.33333333333, 258.65292059695)"/><polyline points="0,36.950417228136,21.333333333333,0,64,0,85.333333333333,36.950417228136,64,73.900834456272,21.333333333333,73.900834456272,0,36.950417228136" stroke="#000" stroke-opacity="0.02" fill-opacity="0.089333333333333" fill="#ddd" transform="translate(277.33333333333, 295.60333782509)"/><polyline points="0,36.950417228136,21.333333333333,0,64,0,85.333333333333,36.950417228136,64,73.900834456272,21.333333333333,73.900834456272,0,36.950417228136" stroke="#000" stroke-opacity="0.02" fill-opacity="0.14133333333333" fill="#ddd" transform="translate(-42.666666666667, 332.55375505322)"/><polyline points="0,36.950417228136,21.333333333333,0,64,0,85.333333333333,36.950417228136,64,73.900834456272,21.333333333333,73.900834456272,0,36.950417228136" stroke="#000" stroke-opacity="0.02" fill-opacity="0.14133333333333" fill="#ddd" transform="translate(341.33333333333, 332.55375505322)"/><polyline points="0,36.950417228136,21.333333333333,0,64,0,85.333333333333,36.950417228136,64,73.900834456272,21.333333333333,73.900834456272,0,36.950417228136" stroke="#000" stroke-opacity="0.02" fill-opacity="0.072" fill="#ddd" transform="translate(21.333333333333, 369.50417228136)"/><polyline points="0,36.950417228136,21.333333333333,0,64,0,85.333333333333,36.950417228136,64,73.900834456272,21.333333333333,73.900834456272,0,36.950417228136" stroke="#000" stroke-opacity="0.02" fill-opacity="0.10666666666667" fill="#ddd" transform="translate(85.333333333333, 332.55375505322)"/><polyline points="0,36.950417228136,21.333333333333,0,64,0,85.333333333333,36.950417228136,64,73.900834456272,21.333333333333,73.900834456272,0,36.950417228136" stroke="#000" stroke-opacity="0.02" fill-opacity="0.02" fill="#ddd" transform="translate(149.33333333333, 369.50417228136)"/><polyline points="0,36.950417228136,21.333333333333,0,64,0,85.333333333333,36.950417228136,64,73.900834456272,21.333333333333,73.900834456272,0,36.950417228136" stroke="#000" stroke-opacity="0.02" fill-opacity="0.124" fill="#ddd" transform="translate(213.33333333333, 332.55375505322)"/><polyline points="0,36.950417228136,21.333333333333,0,64,0,85.333333333333,36.950417228136,64,73.900834456272,21.333333333333,73.900834456272,0,36.950417228136" stroke="#000" stroke-opacity="0.02" fill-opacity="0.02" fill="#ddd" transform="translate(277.33333333333, 369.50417228136)"/></svg>