<?xml version="1.0" encoding="UTF-8" standalone="no"?>
<svg
   xmlns:dc="http://purl.org/dc/elements/1.1/"
   xmlns:cc="http://creativecommons.org/ns#"
   xmlns:rdf="http://www.w3.org/1999/02/22-rdf-syntax-ns#"
   xmlns:svg="http://www.w3.org/2000/svg"
   xmlns="http://www.w3.org/2000/svg"
   xmlns:sodipodi="http://sodipodi.sourceforge.net/DTD/sodipodi-0.dtd"
   xmlns:inkscape="http://www.inkscape.org/namespaces/inkscape"
   id="Layer_1"
   data-name="Layer 1"
   viewBox="0 0 1024 1024"
   version="1.1"
   sodipodi:docname="icon-foreground.svg"
   inkscape:version="0.92.2 5c3e80d, 2017-08-06"
   inkscape:export-filename="/Users/pau/git/mm3/resources/android/icon-foreground.png"
   inkscape:export-xdpi="96"
   inkscape:export-ydpi="96">
  <metadata
     id="metadata23">
    <rdf:RDF>
      <cc:Work
         rdf:about="">
        <dc:format>image/svg+xml</dc:format>
        <dc:type
           rdf:resource="http://purl.org/dc/dcmitype/StillImage" />
        <dc:title>MoodleApp_Icon_White_RGB</dc:title>
      </cc:Work>
    </rdf:RDF>
  </metadata>
  <sodipodi:namedview
     pagecolor="#ffffff"
     bordercolor="#666666"
     borderopacity="1"
     objecttolerance="10"
     gridtolerance="10"
     guidetolerance="10"
     inkscape:pageopacity="0"
     inkscape:pageshadow="2"
     inkscape:window-width="1306"
     inkscape:window-height="970"
     id="namedview21"
     showgrid="false"
     inkscape:zoom="0.11523438"
     inkscape:cx="-652.75324"
     inkscape:cy="-1188.1419"
     inkscape:window-x="1894"
     inkscape:window-y="73"
     inkscape:window-maximized="0"
     inkscape:current-layer="Layer_1" />
  <defs
     id="defs4">
    <style
       id="style2">.cls-1{fill:#fff;}.cls-2,.cls-3,.cls-4{fill:#f48020;}.cls-3,.cls-4{stroke:#4a4a4c;}.cls-3{stroke-width:5.24px;}.cls-4{stroke-width:5.28px;}.cls-5{fill:#333;}</style>
  </defs>
  <title
     id="title6">MoodleApp_Icon_White_RGB</title>
  <g
     id="g118"
     transform="matrix(0.59052793,0,0,0.59052793,211.20967,210.89845)"
     style="opacity:1">
    <path
       transform="translate(-12,-10)"
       id="path10"
       d="M 714.85,763.42 V 524.26 q 0,-75 -62,-75 -62,0 -62,75 V 763.42 H 469.18 V 524.26 q 0,-75 -60.9,-75 -62,0 -61.95,75 V 763.42 H 224.56 V 510.14 q 0,-78.27 54.35,-118.48 47.85,-35.88 129.37,-35.9 82.64,0 121.77,42.4 33.69,-42.39 122.85,-42.4 81.54,0 129.35,35.9 54.35,40.2 54.35,118.48 v 253.28 z"
       class="cls-2"
       inkscape:connector-curvature="0"
       style="fill:#f48020" />
    <path
       transform="translate(-12,-10)"
       id="path12"
       d="M 77.26,402"
       class="cls-3"
       inkscape:connector-curvature="0"
       style="fill:#f48020;stroke:#4a4a4c;stroke-width:5.23999977px" />
    <path
       transform="translate(-12,-10)"
       id="path14"
       d="M 79.41,401"
       class="cls-4"
       inkscape:connector-curvature="0"
       style="fill:#f48020;stroke:#4a4a4c;stroke-width:5.28000021px" />
    <path
       transform="translate(-12,-10)"
       id="path16"
       d="m 459.3,338 121.9,-88.72 -1.56,-5.4 c -206.31,21.27 -327.1,49 -505.07,154.49 l 1.61,5.27 46.53,-1.49 c 33.56,1.16 68.26,2.79 101.7,2.93 -1.67,18.28 -0.91,39.85 2.6,65.14 v 0 l -0.81,7.1 c 114.91,38.91 224,3.38 281.36,-97.15 l -3.39,-4.62 C 494.8,365.05 475.76,349.59 459.3,338 Z"
       class="cls-5"
       inkscape:connector-curvature="0"
       style="fill:#333333" />
    <path
       transform="translate(-12,-10)"
       id="path18"
       d="m 326.35,322.85 c -0.67,-2.38 -4.92,-3.26 -9.48,-2 -3.49,1 -6.17,2.94 -6.95,4.86 -41,11 -108.78,30.36 -156.5,46.43 l -2.94,1 c -36.93,12.42 -54.72,18.79 -55.82,27.76 -5.06,40.82 -1.93,93.35 -1.9,94 l 0.41,14.18 c -21.54,61 0.15,109.76 18.56,154.4 0.12,-55.17 2.36,-100.08 -13.21,-157.18 -0.44,-8.46 -3.31,-67.19 1.33,-104.76 0.76,-6.09 25.79,-14.52 52.3,-23.43 l 2.94,-1 c 48.76,-16.41 118.53,-36.24 159.1,-47.1 a 14.48,14.48 0 0 0 5.08,-0.55 c 4.56,-1.27 7.73,-4.23 7.08,-6.61 z"
       class="cls-5"
       inkscape:connector-curvature="0"
       style="fill:#333333" />
  </g>
</svg>
