<svg xmlns="http://www.w3.org/2000/svg" width="24" height="24" style="overflow:visible;enable-background:new 0 0 24 24" xml:space="preserve" preserveAspectRatio="xMinYMid meet"><linearGradient id="a" gradientUnits="userSpaceOnUse" x1="14.005" y1="0" x2="14.005" y2="20"><stop offset="0" style="stop-color:#95bff8"/><stop offset=".557" style="stop-color:#84adef"/><stop offset="1" style="stop-color:#7ca4eb"/></linearGradient><path style="fill:url(#a)" d="M16.3 0H6v20h16V6.6z"/><linearGradient id="b" gradientUnits="userSpaceOnUse" x1="14.005" y1="1" x2="14.005" y2="19"><stop offset="0" style="stop-color:#e7f4fc"/><stop offset="1" style="stop-color:#deeffc"/></linearGradient><path style="fill:url(#b)" d="M7 19V1h8.8L21 6.9V19z"/><linearGradient id="c" gradientUnits="userSpaceOnUse" x1="14.005" y1="2" x2="14.005" y2="18"><stop offset="0" style="stop-color:#cee9f9"/><stop offset="1" style="stop-color:#bbdff8"/></linearGradient><path style="fill:url(#c)" d="M8 18V2h7.4L20 7.3V18z"/><linearGradient id="d" gradientUnits="userSpaceOnUse" x1="18.31" y1="0" x2="18.31" y2="7.785"><stop offset="0" style="stop-color:#95bff8"/><stop offset=".557" style="stop-color:#84adef"/><stop offset="1" style="stop-color:#7ca4eb"/></linearGradient><path style="fill:url(#d)" d="M14.8 7.5s5.2-1.3 7.2.3V6.6L16.2 0h-1.6c2.2 3 .2 7.5.2 7.5z"/><linearGradient id="e" gradientUnits="userSpaceOnUse" x1="16.3" y1="6.162" x2="18.591" y2="3.871"><stop offset="0" style="stop-color:#e7f4fc"/><stop offset=".518" style="stop-color:#e5f3fc"/><stop offset=".705" style="stop-color:#def0fb"/><stop offset=".837" style="stop-color:#d3ebfa"/><stop offset=".872" style="stop-color:#cee9f9"/><stop offset="1" style="stop-color:#bdd8f0"/></linearGradient><path style="fill:url(#e)" d="M16.3 6.2c.3-1.2.5-2.9.1-4.4l4 4.4c-.4-.1-1-.2-1.6-.2-.9 0-1.8.1-2.5.2z"/><linearGradient id="f" gradientUnits="userSpaceOnUse" x1="11.967" y1="12.167" x2="11.967" y2="23.885"><stop offset="0" style="stop-color:#dda976"/><stop offset="1" style="stop-color:#9f6b37"/></linearGradient><path style="fill:url(#f)" d="M10 18.9c-.3-2.2 9.4.5 9.3-1.4 0-.8-8.4-3.4-11.4-4.1-.9-.2-6.5-1.2-6.5-1.2-.2.1-1.3 3.3-1.4 5.2.5.3 7.3 6.7 10 6.5 2.7-.2 14.2-3.6 13.9-4.7-.6-2.1-13.6 2.1-13.9-.3z"/><linearGradient id="g" gradientUnits="userSpaceOnUse" x1="11.489" y1="13.28" x2="11.489" y2="22.934"><stop offset="0" style="stop-color:#fda"/><stop offset="1" style="stop-color:#e3b17e"/></linearGradient><path style="fill:url(#g)" d="M1.7 17.4c-.3-.2-.5-.4-.7-.5.1-1.2.6-2.8.9-3.6 1.8.3 5.1.9 5.7 1 2.6.6 9.4 2.3 9.7 3 .5 1.1-8.3-1.9-8.1 1.7.2 3.5 12.4-.6 12.7.5.2.7-10.1 3.6-12 3.5-2-.2-6.6-4.2-8.2-5.6z"/><linearGradient id="h" gradientUnits="userSpaceOnUse" x1="7.593" y1="14.414" x2="7.593" y2="21.934"><stop offset="0" style="stop-color:#f1c592"/><stop offset="1" style="stop-color:#e1af7c"/></linearGradient><path style="fill:url(#h)" d="M10.1 21.9c-.8-.1-2.8-1-7.6-5.2l-.3-.3c.1-.7.3-1.4.5-2.1 2.1.4 4.3.8 4.7.9 1.5.4 2.7.7 3.8.9-1 .1-1.8.4-2.3 1-.3.3-.7.9-.6 1.9.1 1.1.8 2.4 4 2.4h.9c-1.4.3-2.5.5-3.1.5z"/></svg>
