<svg xmlns="http://www.w3.org/2000/svg" xmlns:xlink="http://www.w3.org/1999/xlink" width="24" height="24" viewBox="0 0 30 30" xml:space="preserve" preserveAspectRatio="xMinYMid meet"><linearGradient id="a" gradientUnits="userSpaceOnUse" x1="-58.947" y1="84.186" x2="58.948" y2="-84.185"><stop offset="0" style="stop-color:#283274"/><stop offset=".709" style="stop-color:#293275"/><stop offset=".967" style="stop-color:#273f87"/></linearGradient><symbol id="c" viewBox="-107.423 -107.423 214.847 214.846"><path fill="url(#a)" stroke="#5D6AA4" stroke-width="9.319" d="M102.765 0c0-56.755-46.009-102.764-102.765-102.764-56.754 0-102.764 46.009-102.764 102.764S-56.754 102.764 0 102.764c56.756 0 102.765-46.009 102.765-102.764z"/><linearGradient id="b" gradientUnits="userSpaceOnUse" x1="-75.019" y1="112.804" x2="-15.853" y2="28.306" gradientTransform="translate(18.495 -31.951)"><stop offset="0" style="stop-color:#bec7e5"/><stop offset=".096" style="stop-color:#b5bede"/><stop offset=".252" style="stop-color:#9ca5cc"/><stop offset=".451" style="stop-color:#747dae"/><stop offset=".681" style="stop-color:#3d4684"/><stop offset=".758" style="stop-color:#293275"/></linearGradient><path fill="url(#b)" d="M.282 98.502C26.323 98.31 54.293 87.893 74.49 63.84 73.631 43.207 36.703 22.057 5.886-1.229c-25.857-19.538-65.427-37.86-92.487-45.059-25.73 49.263-7.016 96.619 25.25 123.238C-46.256 90.16-23.508 98.679.282 98.502z"/><path d="M55.602-25.561c0-8.678-3.055-16.072-9.16-22.179-6.11-6.109-13.501-9.16-22.179-9.16h-37.367c-8.679 0-16.073 3.051-22.179 9.16-6.11 6.106-9.162 13.501-9.162 22.179v93.779c6.656 0 12.336-3.254 17.046-9.764 4.708-6.509 7.062-14.344 7.062-23.505v-60.511c0-4.821 2.411-7.231 7.232-7.231h37.367c4.821 0 7.231 2.41 7.231 7.231v28.69c0 4.66-2.41 7.07-7.231 7.232H17.03c-9.323.324-17.2 2.757-23.626 7.304-6.43 4.543-9.643 10.145-9.643 16.805h40.501c8.678 0 16.068-3.056 22.179-9.161 6.105-6.11 9.16-13.5 9.16-22.18v-28.689z"/><path fill="#FFF" d="M55.602-25.561c0-8.678-3.055-16.072-9.16-22.179-6.11-6.109-13.501-9.16-22.179-9.16h-37.367c-8.679 0-16.073 3.051-22.179 9.16-6.11 6.106-9.162 13.501-9.162 22.179v93.779c6.656 0 12.336-3.254 17.046-9.764 4.708-6.509 7.062-14.344 7.062-23.505v-60.511c0-4.821 2.411-7.231 7.232-7.231h37.367c4.821 0 7.231 2.41 7.231 7.231v28.69c0 4.66-2.41 7.07-7.231 7.232H17.03c-9.323.324-17.2 2.757-23.626 7.304-6.43 4.543-9.643 10.145-9.643 16.805h40.501c8.678 0 16.068-3.056 22.179-9.161 6.105-6.11 9.16-13.5 9.16-22.18v-28.689z" opacity=".46"/><path fill="#FFF" d="M53.829-26.788c0-8.678-3.055-16.072-9.16-22.179-6.11-6.109-13.501-9.16-22.18-9.16h-37.367c-8.679 0-16.073 3.051-22.179 9.16-6.109 6.106-9.16 13.501-9.16 22.179v93.779c6.655 0 12.336-3.255 17.045-9.764 4.708-6.509 7.062-14.345 7.062-23.505v-60.511c0-4.821 2.41-7.231 7.232-7.231h37.367c4.821 0 7.232 2.41 7.232 7.231v28.69c0 4.66-2.411 7.07-7.232 7.232h-7.232c-9.322.324-17.199 2.757-23.625 7.305-6.43 4.542-9.644 10.144-9.644 16.803h40.501c8.679 0 16.069-3.055 22.18-9.16 6.105-6.109 9.16-13.5 9.16-22.179v-28.69z"/></symbol><use xlink:href="#c" width="214.847" height="214.846" x="-107.423" y="-107.423" transform="matrix(.1376 0 0 -.1376 15 15)" overflow="visible"/></svg>
