<svg xmlns="http://www.w3.org/2000/svg" width="24" height="24" viewBox="-2 0 24 24" style="overflow:visible;enable-background:new -2 0 24 24" xml:space="preserve" preserveAspectRatio="xMinYMid meet"><linearGradient id="a" gradientUnits="userSpaceOnUse" x1="12.001" y1="0" x2="12.001" y2="24"><stop offset="0" style="stop-color:#90c50e"/><stop offset="1" style="stop-color:#70a034"/></linearGradient><path style="fill:url(#a)" d="M4 0h16v24H4z"/><linearGradient id="b" gradientUnits="userSpaceOnUse" x1="12.001" y1="1" x2="12.001" y2="23"><stop offset="0" style="stop-color:#d9f991"/><stop offset=".239" style="stop-color:#d7f88d"/><stop offset=".45" style="stop-color:#d1f383"/><stop offset=".651" style="stop-color:#c6ec71"/><stop offset=".844" style="stop-color:#b7e257"/><stop offset="1" style="stop-color:#a8d73d"/></linearGradient><path style="fill:url(#b)" d="M5 1h14v22H5z"/><linearGradient id="c" gradientUnits="userSpaceOnUse" x1="12.001" y1="2" x2="12.001" y2="22"><stop offset="0" style="stop-color:#b3e810"/><stop offset="1" style="stop-color:#90c60d"/></linearGradient><path style="fill:url(#c)" d="M6 2h12v20H6z"/><linearGradient id="d" gradientUnits="userSpaceOnUse" x1="12.001" y1="4" x2="12.001" y2="9"><stop offset="0" style="stop-color:#90c50e"/><stop offset="1" style="stop-color:#70a034"/></linearGradient><path style="fill:url(#d)" d="M7 4v5h10V4H7zm9 4H8V5h8v3z"/><linearGradient id="e" gradientUnits="userSpaceOnUse" x1="2.5" y1="0" x2="2.5" y2="24"><stop offset="0" style="stop-color:#656565"/><stop offset=".013" style="stop-color:#646464"/><stop offset=".445" style="stop-color:#3c3c3c"/><stop offset=".789" style="stop-color:#242424"/><stop offset="1" style="stop-color:#1b1b1b"/></linearGradient><path style="fill:url(#e)" d="M4 0H1C.5 0 0 .5 0 1v22c0 .5.5 1 1 1h4V0H4z"/><linearGradient id="f" gradientUnits="userSpaceOnUse" x1="2.5" y1="1" x2="2.5" y2="23"><stop offset="0" style="stop-color:#8e8e8e"/><stop offset=".042" style="stop-color:#8a8a8a"/><stop offset=".461" style="stop-color:#626262"/><stop offset=".795" style="stop-color:#4a4a4a"/><stop offset="1" style="stop-color:#414141"/></linearGradient><path style="fill:url(#f)" d="M1 1h3v22H1z"/><linearGradient id="g" gradientUnits="userSpaceOnUse" x1="2.5" y1="2" x2="2.5" y2="22"><stop offset="0" style="stop-color:#7c7c7c"/><stop offset=".39" style="stop-color:#5c5c5c"/><stop offset=".768" style="stop-color:#444"/><stop offset="1" style="stop-color:#3b3b3b"/></linearGradient><path style="fill:url(#g)" d="M2 2h1v20H2z"/></svg>
