<svg xmlns="http://www.w3.org/2000/svg" width="24" height="24" viewBox="-4.2 -0.3 24 24" style="overflow:visible;enable-background:new -4.2 -.3 24 24" xml:space="preserve" preserveAspectRatio="xMinYMid meet"><linearGradient id="a" gradientUnits="userSpaceOnUse" x1="7.824" y1="0" x2="7.824" y2="23.326"><stop offset="0" style="stop-color:#76a1f0"/><stop offset="1" style="stop-color:#6b90d5"/></linearGradient><path style="fill:url(#a)" d="M2.4 8.4C1.1 8.4 0 7.5 0 6.1 0 3.3 2.8 0 7.7 0c3.3 0 7.9 2.2 7.9 6 0 2-1.2 3.5-3.6 4.4-3.3 1.2-1.4 3.7-4.5 3.7-1.3 0-2.1-.8-2.1-2.1 0-2.7 2.8-4.2 2.8-6.9 0-.7-.3-1.6-1.1-1.6-.9 0-1 .9-1 1.5-.3 2.1-1.6 3.4-3.7 3.4zm4.9 14.9c-2 0-3.6-1.6-3.6-3.6s1.6-3.6 3.6-3.6 3.6 1.6 3.6 3.6c-.1 2-1.7 3.6-3.6 3.6z"/><linearGradient id="b" gradientUnits="userSpaceOnUse" x1="7.824" y1="1" x2="7.824" y2="22.326"><stop offset="0" style="stop-color:#bbe0f7"/><stop offset="1" style="stop-color:#82b4fb"/></linearGradient><path style="fill:url(#b)" d="M7.3 22.3c-1.4 0-2.6-1.1-2.6-2.6 0-1.4 1.1-2.6 2.6-2.6s2.6 1.1 2.6 2.6c-.1 1.5-1.2 2.6-2.6 2.6zm.3-9.2c-.8 0-1.1-.4-1.1-1.1 0-1.1.6-1.9 1.2-2.9.7-1.1 1.5-2.3 1.5-4 0-1.3-.7-2.6-2.1-2.6-1.8 0-2 1.7-2 2.4-.2 1.1-.8 2.5-2.7 2.5-.8 0-1.4-.5-1.4-1.3C1 4 3.1 1 7.7 1c2.9 0 6.9 1.9 6.9 5 0 1.6-1 2.7-2.9 3.4-2 .8-2.5 2-2.9 2.8-.3.8-.3.9-1.2.9z"/><linearGradient id="c" gradientUnits="userSpaceOnUse" x1="7.824" y1="2.099" x2="7.824" y2="21.326"><stop offset="0" style="stop-color:#95bff8"/><stop offset=".557" style="stop-color:#84adef"/><stop offset="1" style="stop-color:#7ca4eb"/></linearGradient><path style="fill:url(#c)" d="M7.3 21.3c-.9 0-1.6-.7-1.6-1.6s.7-1.6 1.6-1.6c.9 0 1.6.7 1.6 1.6s-.7 1.6-1.6 1.6zm.3-9.2h-.1V12c0-.8.5-1.5 1-2.3.8-1.2 1.7-2.6 1.7-4.6 0-1.3-.5-2.3-1.3-3 2.2.4 4.8 1.8 4.8 3.9 0 .4 0 1.6-2.3 2.5-2.4.9-3.1 2.5-3.5 3.4 0 .1-.1.2-.1.2h-.2zM2.4 6.4c-.4 0-.4-.2-.4-.3 0-1.1.9-2.7 2.7-3.5-.3.5-.6 1.2-.7 2.2-.1 1.4-.9 1.6-1.6 1.6z"/></svg>
