<svg xmlns="http://www.w3.org/2000/svg" width="24" height="24" viewBox="-2 -1 24 24" style="overflow:visible;enable-background:new -2 -1 24 24" xml:space="preserve" preserveAspectRatio="xMinYMid meet"><radialGradient id="a" cx="10" cy="19.5" r="7.492" gradientUnits="userSpaceOnUse"><stop offset="0" style="stop-color:#76a1f0"/><stop offset="1" style="stop-color:#6b90d5"/></radialGradient><path style="fill:url(#a)" d="M20 21c0 1.1-.9 2-2 2H2c-1.1 0-2-.9-2-2v-3c0-1.1.9-2 2-2h16c1.1 0 2 .9 2 2v3z"/><radialGradient id="b" cx="10" cy="19.5" r="6.605" gradientUnits="userSpaceOnUse"><stop offset="0" style="stop-color:#bbe0f7"/><stop offset="1" style="stop-color:#82b4fb"/></radialGradient><path style="fill:url(#b)" d="M2 22c-.6 0-1-.4-1-1v-3c0-.6.4-1 1-1h16c.6 0 1 .4 1 1v3c0 .6-.4 1-1 1H2z"/><radialGradient id="c" cx="10" cy="19.5" r="5.755" gradientUnits="userSpaceOnUse"><stop offset="0" style="stop-color:#95bff8"/><stop offset=".557" style="stop-color:#84adef"/><stop offset="1" style="stop-color:#7ca4eb"/></radialGradient><path style="fill:url(#c)" d="M2 18h16v3H2z"/><radialGradient id="d" cx="10" cy="11.5" r="7.492" gradientUnits="userSpaceOnUse"><stop offset="0" style="stop-color:#76a1f0"/><stop offset="1" style="stop-color:#6b90d5"/></radialGradient><path style="fill:url(#d)" d="M20 13c0 1.1-.9 2-2 2H2c-1.1 0-2-.9-2-2v-3c0-1.1.9-2 2-2h16c1.1 0 2 .9 2 2v3z"/><radialGradient id="e" cx="10" cy="11.5" r="6.605" gradientUnits="userSpaceOnUse"><stop offset="0" style="stop-color:#bbe0f7"/><stop offset="1" style="stop-color:#82b4fb"/></radialGradient><path style="fill:url(#e)" d="M2 14c-.6 0-1-.4-1-1v-3c0-.6.4-1 1-1h16c.6 0 1 .4 1 1v3c0 .6-.4 1-1 1H2z"/><radialGradient id="f" cx="10" cy="11.5" r="5.755" gradientUnits="userSpaceOnUse"><stop offset="0" style="stop-color:#95bff8"/><stop offset=".557" style="stop-color:#84adef"/><stop offset="1" style="stop-color:#7ca4eb"/></radialGradient><path style="fill:url(#f)" d="M2 10h16v3H2z"/><radialGradient id="g" cx="10" cy="3.5" r="7.492" gradientUnits="userSpaceOnUse"><stop offset="0" style="stop-color:#76a1f0"/><stop offset="1" style="stop-color:#6b90d5"/></radialGradient><path style="fill:url(#g)" d="M20 5c0 1.1-.9 2-2 2H2C.9 7 0 6.1 0 5V2C0 .9.9 0 2 0h16c1.1 0 2 .9 2 2v3z"/><radialGradient id="h" cx="10" cy="3.5" r="6.605" gradientUnits="userSpaceOnUse"><stop offset="0" style="stop-color:#bbe0f7"/><stop offset="1" style="stop-color:#82b4fb"/></radialGradient><path style="fill:url(#h)" d="M2 6c-.6 0-1-.4-1-1V2c0-.6.4-1 1-1h16c.6 0 1 .4 1 1v3c0 .6-.4 1-1 1H2z"/><radialGradient id="i" cx="10" cy="3.5" r="5.755" gradientUnits="userSpaceOnUse"><stop offset="0" style="stop-color:#95bff8"/><stop offset=".557" style="stop-color:#84adef"/><stop offset="1" style="stop-color:#7ca4eb"/></radialGradient><path style="fill:url(#i)" d="M2 2h16v3H2z"/></svg>
