<svg xmlns="http://www.w3.org/2000/svg" width="24" height="24" style="overflow:visible;enable-background:new 0 0 24 24" xml:space="preserve" preserveAspectRatio="xMinYMid meet"><linearGradient id="a" gradientUnits="userSpaceOnUse" x1="10.499" y1="0" x2="10.499" y2="19.431"><stop offset="0" style="stop-color:#76a1f0"/><stop offset="1" style="stop-color:#6b90d5"/></linearGradient><path style="fill:url(#a)" d="M19 0H2C.9 0 0 .9 0 2v11.3C0 14.4.9 15 2 15v4.4L6.1 15H19c1.1 0 2-.5 2-1.6V2c0-1.1-1-2-2-2z"/><linearGradient id="b" gradientUnits="userSpaceOnUse" x1="10.499" y1=".953" x2="10.499" y2="16.838"><stop offset="0" style="stop-color:#bbe0f7"/><stop offset="1" style="stop-color:#82b4fb"/></linearGradient><path style="fill:url(#b)" d="M3 14H2c-.4 0-1-.1-1-.6V2c0-.6.5-1 1-1h17c.5 0 1 .5 1 1v11.3c0 .6-.8.6-1 .6H5.7L3 16.8V14z"/><linearGradient id="c" gradientUnits="userSpaceOnUse" x1="10.498" y1="1.978" x2="10.498" y2="14.314"><stop offset="0" style="stop-color:#95bff8"/><stop offset=".557" style="stop-color:#84adef"/><stop offset="1" style="stop-color:#7ca4eb"/></linearGradient><path style="fill:url(#c)" d="M4 13H2V2h17v11H5.2L4 14.3V13z"/><path style="fill:#fff" d="M17 11H4v-1h13v1zm0-3H4v1h13V8zm0-2H4v1h13V6zm0-2H4v1h13V4z"/><linearGradient id="d" gradientUnits="userSpaceOnUse" x1="15" y1="7.896" x2="15" y2="23.897"><stop offset="0" style="stop-color:#90c50e"/><stop offset="1" style="stop-color:#70a034"/></linearGradient><path style="fill:url(#d)" d="M22 7.9H8c-1.1 0-2 .7-2 1.8v9c0 1.1.9 2 2 2v3.2l3.1-3H22c1.1 0 2-1.1 2-2.2v-9c0-1.1-.9-1.8-2-1.8z"/><linearGradient id="e" gradientUnits="userSpaceOnUse" x1="15" y1="8.896" x2="15" y2="21.391"><stop offset="0" style="stop-color:#d9f991"/><stop offset=".239" style="stop-color:#d7f88d"/><stop offset=".45" style="stop-color:#d1f383"/><stop offset=".651" style="stop-color:#c6ec71"/><stop offset=".844" style="stop-color:#b7e257"/><stop offset="1" style="stop-color:#a8d73d"/></linearGradient><path style="fill:url(#e)" d="M9 19.9H8c-.6 0-1-.7-1-1.2v-9c0-.6.4-.8 1-.8h14c.6 0 1 .2 1 .8v9c0 .6-.4 1.2-1 1.2H10.6L9 21.4v-1.5z"/><linearGradient id="f" gradientUnits="userSpaceOnUse" x1="15" y1="9.896" x2="15" y2="18.896"><stop offset="0" style="stop-color:#b3e810"/><stop offset="1" style="stop-color:#90c60d"/></linearGradient><path style="fill:url(#f)" d="M10 18.9H8v-9h14v9H10z"/><path style="fill:#fff" d="M20 16.9H10v-1h10v1zm0-3H10v1h10v-1zm0-2H10v1h10v-1z"/></svg>
