<svg xmlns="http://www.w3.org/2000/svg" width="24" height="24" style="overflow:visible;enable-background:new 0 0 24 24" xml:space="preserve" preserveAspectRatio="xMinYMid meet"><linearGradient id="a" gradientUnits="userSpaceOnUse" x1="11.985" y1="0" x2="11.985" y2="24.016"><stop offset="0" style="stop-color:#f0a829"/><stop offset="1" style="stop-color:#c7671a"/></linearGradient><path style="fill:url(#a)" d="M14.4 0 .6 13.9c-.8.8-.8 2.1 0 2.8l6.7 6.7c.8.8 2 .8 2.8 0L24 9.6V0h-9.6z"/><linearGradient id="b" gradientUnits="userSpaceOnUse" x1="11.985" y1="1" x2="11.985" y2="23.016"><stop offset="0" style="stop-color:#ffeba8"/><stop offset="1" style="stop-color:#f8be27"/></linearGradient><path style="fill:url(#b)" d="M8.7 23c-.3 0-.5-.1-.7-.3L1.3 16c-.2-.2-.3-.4-.3-.7 0-.3.1-.5.3-.7L14.9 1H23v8.2L9.4 22.7c-.2.2-.4.3-.7.3z"/><linearGradient id="c" gradientUnits="userSpaceOnUse" x1="11.984" y1="2" x2="11.984" y2="22.014"><stop offset="0" style="stop-color:#ffc30f"/><stop offset="1" style="stop-color:#f5ae0d"/></linearGradient><path style="fill:url(#c)" d="M2 15.3 15.3 2H22v6.8L8.7 22z"/><linearGradient id="d" gradientUnits="userSpaceOnUse" x1="8.72" y1="9.969" x2="8.72" y2="20.631"><stop offset="0" style="stop-color:#76a1f0"/><stop offset="1" style="stop-color:#6b90d5"/></linearGradient><path style="fill:url(#d)" d="M3.4 15.3 8.7 10l5.4 5.3-5.4 5.3z"/><linearGradient id="e" gradientUnits="userSpaceOnUse" x1="11.146" y1="22.031" x2="11.146" y2="23.871" gradientTransform="rotate(-45.001 2.915 21.135)"><stop offset="0" style="stop-color:#57c3f6"/><stop offset=".165" style="stop-color:#83d3f8"/><stop offset=".355" style="stop-color:#afe3fb"/><stop offset=".54" style="stop-color:#d2effd"/><stop offset=".713" style="stop-color:#ebf8fe"/><stop offset=".871" style="stop-color:#fafdff"/><stop offset="1" style="stop-color:#fff"/></linearGradient><path style="fill:url(#e)" d="m7.4 17.9 1.3 1.3 3.9-3.9-1.3-1.3z"/><path style="fill:#f2efd5" d="m12.6 15.3-.3-.3c-.3.2-.8.5-1.4 1.1-1.1.9-1 .5-2 .9-.4.2-.9.6-1.4 1l1.2 1.2 3.9-3.9z"/><linearGradient id="f" gradientUnits="userSpaceOnUse" x1="8.388" y1="23.104" x2="13.904" y2="23.104" gradientTransform="rotate(-45.001 2.915 21.135)"><stop offset="0" style="stop-color:#f8e5b5"/><stop offset="1" style="stop-color:#f9e5b6"/></linearGradient><path style="fill:url(#f)" d="m12.6 15.3-.2-.2c-.4.2-.6.6-1.3 1.2-1.1.9-1.1.3-2.1.7-.4.2-.9.6-1.3 1.1l1.1 1.1 3.8-3.9z"/><linearGradient id="g" gradientUnits="userSpaceOnUse" x1="12.171" y1="17.657" x2="10.12" y2="22.732" gradientTransform="rotate(-45.001 2.915 21.135)"><stop offset="0" style="stop-color:#57c3f6"/><stop offset=".005" style="stop-color:#59c4f6"/><stop offset=".124" style="stop-color:#85d3f8"/><stop offset=".247" style="stop-color:#aae1fa"/><stop offset=".376" style="stop-color:#c9ecfc"/><stop offset=".51" style="stop-color:#e1f4fd"/><stop offset=".652" style="stop-color:#f2fafe"/><stop offset=".807" style="stop-color:#fcfeff"/><stop offset="1" style="stop-color:#fff"/></linearGradient><path style="fill:url(#g)" d="m4.8 15.3 2.6 2.6 3.9-3.9-2.6-2.6z"/><path style="fill:#fff" d="M9 11.6c-.3.2-.3.4-.3.4s-.4-.1-.6.4c-.1.4.3.5.3.5l-.1.1c0 .1.1.1.1.1s-.2.1-.1.4c.1.3.3.3.3.3s-.1.5.4.6c.4.1.5-.3.5-.3s.3 0 .6-.2.4-.5.4-.5h.2L9 11.6zM7.9 14.5s-.1 0-.2.1c0 .1.1.2.1.2s-.1 0 0 .1c0 .1.1.1.1.1s0 .1.1.2c.1 0 .1-.1.1-.1h.2l.1-.1s.1 0 .1-.1v-.2s.2 0 .1-.2c-.1-.1-.2 0-.2 0l-.1-.1c-.1 0-.1.1-.1.1h-.1s-.1-.2-.2-.2c-.1.1 0 .2 0 .2zM19.6 8.4l-5.5 5.5-.7-.7 5.5-5.5.7.7zm-2.1-2.1L12 11.8l.7.7L18.2 7l-.7-.7zm-1.4-1.4-5.5 5.5.7.7 5.5-5.5-.7-.7z"/><circle style="fill:#fff" cx="19.7" cy="4.3" r="1.3"/></svg>
