<svg xmlns="http://www.w3.org/2000/svg" width="24" height="24" viewBox="-2 0 24 24" style="overflow:visible;enable-background:new -2 0 24 24" xml:space="preserve" preserveAspectRatio="xMinYMid meet"><linearGradient id="a" gradientUnits="userSpaceOnUse" x1="9.999" y1="0" x2="9.999" y2="24"><stop offset="0" style="stop-color:#95bff8"/><stop offset=".557" style="stop-color:#84adef"/><stop offset="1" style="stop-color:#7ca4eb"/></linearGradient><path style="fill:url(#a)" d="M12.5 0H0v24h20V7.9z"/><linearGradient id="b" gradientUnits="userSpaceOnUse" x1="9.999" y1="1" x2="9.999" y2="23"><stop offset="0" style="stop-color:#e7f4fc"/><stop offset="1" style="stop-color:#deeffc"/></linearGradient><path style="fill:url(#b)" d="M12.1 1H1v22h18V8.3z"/><linearGradient id="c" gradientUnits="userSpaceOnUse" x1="9.999" y1="2" x2="9.999" y2="22"><stop offset="0" style="stop-color:#cee9f9"/><stop offset="1" style="stop-color:#bbdff8"/></linearGradient><path style="fill:url(#c)" d="M11.6 2H2v20h16V8.7z"/><path style="fill:#fff" d="M16 21H4v-1h12v1zm0-3H4v1h12v-1zm0-2H4v1h12v-1zm0-2H4v1h12v-1z"/><linearGradient id="d" gradientUnits="userSpaceOnUse" x1="9.999" y1="4" x2="9.999" y2="12"><stop offset="0" style="stop-color:#76a1f0"/><stop offset="1" style="stop-color:#6b90d5"/></linearGradient><path style="fill:url(#d)" d="M15.3 4H3v8h14V5.8z"/><linearGradient id="e" gradientUnits="userSpaceOnUse" x1="9.999" y1="9" x2="9.999" y2="11"><stop offset="0" style="stop-color:#57c3f6"/><stop offset=".165" style="stop-color:#83d3f8"/><stop offset=".355" style="stop-color:#afe3fb"/><stop offset=".54" style="stop-color:#d2effd"/><stop offset=".713" style="stop-color:#ebf8fe"/><stop offset=".871" style="stop-color:#fafdff"/><stop offset="1" style="stop-color:#fff"/></linearGradient><path style="fill:url(#e)" d="M4 9h12v2H4z"/><path style="fill:#f2efd5" d="M12.4 10.9c-.5-.2-1.1-.3-2.7-.4-1.5-.1-.9-.4-2-.8-1-.5-3.7-.3-3.7-.3V11h8.6s-.1-.1-.2-.1z"/><linearGradient id="f" gradientUnits="userSpaceOnUse" x1="4" y1="10.248" x2="12.296" y2="10.248"><stop offset="0" style="stop-color:#f8e5b5"/><stop offset="1" style="stop-color:#f9e5b6"/></linearGradient><path style="fill:url(#f)" d="M9.7 10.7c-1.5-.1-.9-.6-2-1-1-.4-3.7 0-3.7 0V11h8.3c-.8 0-1.1-.2-2.6-.3z"/><linearGradient id="g" gradientUnits="userSpaceOnUse" x1="12.534" y1="1.567" x2="8.163" y2="10.941"><stop offset="0" style="stop-color:#57c3f6"/><stop offset=".229" style="stop-color:#8ad5f9"/><stop offset=".483" style="stop-color:#bce7fb"/><stop offset=".705" style="stop-color:#e1f4fd"/><stop offset=".885" style="stop-color:#f7fcff"/><stop offset="1" style="stop-color:#fff"/></linearGradient><path style="fill:url(#g)" d="M4 5h12v4H4z"/><path style="fill:#fff" d="M11.2 5.6s-.2-.4-.7-.2c-.4.3-.1.7-.1.7h-.1c-.1 0 0 .2 0 .2s-.3 0-.4.2c-.3.4-.1.5-.1.5s-.5.4-.2.8.6.1.6.1.2.3.6.3c.4.1.6-.1.6-.1s.3.2.5.1c.5 0 .6-.2.6-.2s.6.3.8-.3c.1-.4-.3-.6-.3-.6s.1-.4-.2-.6-.6 0-.6 0 .1 0 0-.1c0-.1-.3-.1-.3-.1s.1-.6-.2-.8c-.3-.2-.5.1-.5.1zM8.6 6.9s-.1-.1-.2 0c-.1 0 0 .1 0 .1s-.1 0-.1.1v.1s-.1.1 0 .2.2 0 .2 0 .1.1.2.1h.2s.1.1.2 0l-.1.1s.2.1.2-.1c0-.1-.1-.2-.1-.2s0-.1-.1-.2H8.7s0-.2-.1-.2c.1-.1 0 0 0 0z"/><linearGradient id="h" gradientUnits="userSpaceOnUse" x1="15.245" y1="0" x2="15.245" y2="9.359"><stop offset="0" style="stop-color:#95bff8"/><stop offset=".557" style="stop-color:#84adef"/><stop offset="1" style="stop-color:#7ca4eb"/></linearGradient><path style="fill:url(#h)" d="M11 9s5.2-1.5 9 .4V7.9L12.5 0h-2c2.6 3.7.5 9 .5 9z"/><linearGradient id="i" gradientUnits="userSpaceOnUse" x1="12.322" y1="7.545" x2="15.45" y2="4.417"><stop offset="0" style="stop-color:#e7f4fc"/><stop offset=".518" style="stop-color:#e5f3fc"/><stop offset=".705" style="stop-color:#def0fb"/><stop offset=".837" style="stop-color:#d3ebfa"/><stop offset=".872" style="stop-color:#cee9f9"/><stop offset="1" style="stop-color:#bdd8f0"/></linearGradient><path style="fill:url(#i)" d="M18.5 7.8c-.9-.2-2-.3-3.1-.3s-2.1.1-3 .3c.4-1.6.7-4.1-.2-6.4l6.3 6.4z"/></svg>
