<svg xmlns="http://www.w3.org/2000/svg" width="24" height="24" style="overflow:visible;enable-background:new 0 0 24 24" xml:space="preserve" preserveAspectRatio="xMinYMid meet"><linearGradient id="a" gradientUnits="userSpaceOnUse" x1="11.957" y1="0" x2="11.957" y2="24"><stop offset="0" style="stop-color:#95bff8"/><stop offset=".557" style="stop-color:#84adef"/><stop offset="1" style="stop-color:#7ca4eb"/></linearGradient><path style="fill:url(#a)" d="M14.4 0H2v24h20V7.9z"/><linearGradient id="b" gradientUnits="userSpaceOnUse" x1="11.957" y1="1" x2="11.957" y2="23"><stop offset="0" style="stop-color:#e7f4fc"/><stop offset="1" style="stop-color:#deeffc"/></linearGradient><path style="fill:url(#b)" d="M14 1H3v22h18V8.3z"/><linearGradient id="c" gradientUnits="userSpaceOnUse" x1="11.957" y1="2" x2="11.957" y2="22"><stop offset="0" style="stop-color:#cee9f9"/><stop offset="1" style="stop-color:#bbdff8"/></linearGradient><path style="fill:url(#c)" d="M13.6 2H4v20h16V8.7z"/><linearGradient id="d" gradientUnits="userSpaceOnUse" x1="17.202" y1="0" x2="17.202" y2="9.359"><stop offset="0" style="stop-color:#95bff8"/><stop offset=".557" style="stop-color:#84adef"/><stop offset="1" style="stop-color:#7ca4eb"/></linearGradient><path style="fill:url(#d)" d="M13 9s5.2-1.5 9 .4V7.9L14.4 0h-2c2.7 3.7.6 9 .6 9z"/><linearGradient id="e" gradientUnits="userSpaceOnUse" x1="14.279" y1="7.545" x2="17.407" y2="4.417"><stop offset="0" style="stop-color:#e7f4fc"/><stop offset=".518" style="stop-color:#e5f3fc"/><stop offset=".705" style="stop-color:#def0fb"/><stop offset=".837" style="stop-color:#d3ebfa"/><stop offset=".872" style="stop-color:#cee9f9"/><stop offset="1" style="stop-color:#bdd8f0"/></linearGradient><path style="fill:url(#e)" d="M20.4 7.8c-.9-.2-2-.3-3.1-.3s-2.1.1-3 .3c.4-1.6.7-4.1-.2-6.4l6.3 6.4z"/><linearGradient id="f" gradientUnits="userSpaceOnUse" x1="11.857" y1="1.852" x2="11.857" y2="23.949"><stop offset="0" style="stop-color:#db6d17"/><stop offset="1" style="stop-color:#bf3b08"/></linearGradient><path style="fill:url(#f)" d="m8 16.9-4.8-5L0 15.1l8.8 8.8 14.9-22z"/><linearGradient id="g" gradientUnits="userSpaceOnUse" x1="9.552" y1="9.008" x2="9.552" y2="22.383"><stop offset="0" style="stop-color:#f6a55e"/><stop offset="1" style="stop-color:#ea5b03"/></linearGradient><path style="fill:url(#g)" d="m1.4 15.1 1.8-1.7 4.7 5L17.7 9l-9 13.4z"/><linearGradient id="h" gradientUnits="userSpaceOnUse" x1="7.248" y1="14.8" x2="7.248" y2="20.817"><stop offset="0" style="stop-color:#f17219"/><stop offset="1" style="stop-color:#ea5b03"/></linearGradient><path style="fill:url(#h)" d="m2.8 15.1.3-.3 4.8 5 3.8-3.6-3.2 4.6z"/></svg>
