<svg xmlns="http://www.w3.org/2000/svg" width="24" height="24" viewBox="-3 0 24 24" style="overflow:visible;enable-background:new -3 0 24 24" xml:space="preserve" preserveAspectRatio="xMinYMid meet"><linearGradient id="a" gradientUnits="userSpaceOnUse" x1="9.499" y1="0" x2="9.499" y2="24"><stop offset="0" style="stop-color:#95bff8"/><stop offset=".557" style="stop-color:#84adef"/><stop offset="1" style="stop-color:#7ca4eb"/></linearGradient><path style="fill:url(#a)" d="M11.5 0H0v24h19V7.9z"/><linearGradient id="b" gradientUnits="userSpaceOnUse" x1="9.499" y1="1" x2="9.499" y2="23"><stop offset="0" style="stop-color:#e7f4fc"/><stop offset="1" style="stop-color:#deeffc"/></linearGradient><path style="fill:url(#b)" d="M1 23V1h10.1L18 8.3V23z"/><linearGradient id="c" gradientUnits="userSpaceOnUse" x1="9.499" y1="2" x2="9.499" y2="22"><stop offset="0" style="stop-color:#cee9f9"/><stop offset="1" style="stop-color:#bbdff8"/></linearGradient><path style="fill:url(#c)" d="M2 22V2h8.6L17 8.7V22z"/><linearGradient id="d" gradientUnits="userSpaceOnUse" x1="14.245" y1="0" x2="14.245" y2="9.359"><stop offset="0" style="stop-color:#95bff8"/><stop offset=".557" style="stop-color:#84adef"/><stop offset="1" style="stop-color:#7ca4eb"/></linearGradient><path style="fill:url(#d)" d="M10 9s5.2-1.5 9 .4V7.9L11.5 0h-2c2.6 3.7.5 9 .5 9z"/><linearGradient id="e" gradientUnits="userSpaceOnUse" x1="11.322" y1="7.545" x2="14.45" y2="4.417"><stop offset="0" style="stop-color:#e7f4fc"/><stop offset=".518" style="stop-color:#e5f3fc"/><stop offset=".705" style="stop-color:#def0fb"/><stop offset=".837" style="stop-color:#d3ebfa"/><stop offset=".872" style="stop-color:#cee9f9"/><stop offset="1" style="stop-color:#bdd8f0"/></linearGradient><path style="fill:url(#e)" d="M17.5 7.8c-.9-.2-2-.3-3.1-.3s-2.1.1-3 .3c.4-1.6.7-4.1-.2-6.4l6.3 6.4z"/></svg>
