<svg xmlns="http://www.w3.org/2000/svg" width="24" height="24" style="overflow:visible;enable-background:new 0 0 24 24" xml:space="preserve" preserveAspectRatio="xMinYMid meet"><linearGradient id="a" gradientUnits="userSpaceOnUse" x1="11.965" y1="0" x2="11.965" y2="24"><stop offset="0" style="stop-color:#95bff8"/><stop offset=".557" style="stop-color:#84adef"/><stop offset="1" style="stop-color:#7ca4eb"/></linearGradient><path style="fill:url(#a)" d="M14.4 0H2v24h20V7.9z"/><linearGradient id="b" gradientUnits="userSpaceOnUse" x1="11.965" y1="1" x2="11.965" y2="23"><stop offset="0" style="stop-color:#e7f4fc"/><stop offset="1" style="stop-color:#deeffc"/></linearGradient><path style="fill:url(#b)" d="M14 1H3v22h18V8.3z"/><linearGradient id="c" gradientUnits="userSpaceOnUse" x1="11.965" y1="2" x2="11.965" y2="22"><stop offset="0" style="stop-color:#cee9f9"/><stop offset="1" style="stop-color:#bbdff8"/></linearGradient><path style="fill:url(#c)" d="M13.6 2H4v20h16V8.7z"/><linearGradient id="d" gradientUnits="userSpaceOnUse" x1="17.211" y1="0" x2="17.211" y2="9.359"><stop offset="0" style="stop-color:#95bff8"/><stop offset=".557" style="stop-color:#84adef"/><stop offset="1" style="stop-color:#7ca4eb"/></linearGradient><path style="fill:url(#d)" d="M13 9s5.2-1.5 9 .4V7.9L14.4 0h-2c2.7 3.7.6 9 .6 9z"/><linearGradient id="e" gradientUnits="userSpaceOnUse" x1="14.288" y1="7.545" x2="17.416" y2="4.417"><stop offset="0" style="stop-color:#e7f4fc"/><stop offset=".518" style="stop-color:#e5f3fc"/><stop offset=".705" style="stop-color:#def0fb"/><stop offset=".837" style="stop-color:#d3ebfa"/><stop offset=".872" style="stop-color:#cee9f9"/><stop offset="1" style="stop-color:#bdd8f0"/></linearGradient><path style="fill:url(#e)" d="M20.5 7.8c-.9-.2-2-.3-3.1-.3s-2.1.1-3 .3c.4-1.6.7-4.1-.2-6.4l6.3 6.4z"/><radialGradient id="f" cx="7.531" cy="16.5" r="7" gradientUnits="userSpaceOnUse"><stop offset="0" style="stop-color:#8bb4f0"/><stop offset=".077" style="stop-color:#88b1ef"/><stop offset=".488" style="stop-color:#7fa7ec"/><stop offset="1" style="stop-color:#7ca4eb"/></radialGradient><path style="fill:url(#f)" d="M7.5 23.5C.4 23.2-1.6 15.1 3 11.2c1.8-1.6 3.8-1.7 4.6-1.7.4 0 .8 0 1.1.1.3 0 .7.1 1 .2.3.1.7.3 1 .4l.9.6c.3.2.6.4.8.7.3.3.5.5.7.8l.6.9c.2.3.3.7.4 1 .1.3.2.7.3 1.1.1.4.1.8.1 1.1s0 .8-.1 1.1c-.1.4-.1.7-.3 1.1-.1.3-.3.7-.4 1l-.6.9c-.2.3-.4.6-.7.8-.3.3-.5.5-.8.7l-.9.6c-.3.2-.7.3-1 .4-.3.1-.7.2-1.1.3-.3.2-.7.2-1.1.2"/><radialGradient id="g" cx="7.531" cy="16.5" r="6.486" gradientUnits="userSpaceOnUse"><stop offset="0" style="stop-color:#8bb4f0"/><stop offset=".077" style="stop-color:#88b1ef"/><stop offset=".488" style="stop-color:#7fa7ec"/><stop offset="1" style="stop-color:#7ca4eb"/></radialGradient><path style="fill:url(#g)" d="M7.5 23C1 22.7-.9 15.2 3.3 11.6 5 10.1 6.8 10 7.5 10c.4 0 .7 0 1.1.1.3.1.7.1 1 .2s.6.2.9.4c.3.2.6.3.9.5.3.2.5.4.8.6.2.2.5.5.6.8.2.3.4.6.5.9s.3.6.4.9.2.7.2 1c.1.3.1.7.1 1.1 0 .4 0 .7-.1 1.1-.1.3-.1.7-.2 1s-.2.6-.4.9-.3.6-.5.9-.4.5-.6.8-.5.5-.8.6c-.3.2-.6.4-.9.5-.3.2-.6.3-.9.4s-.7.2-1 .2c-.4.1-.7.1-1.1.1"/><path style="fill:#b3e710" d="M6.1 10.8v-.1s-.1 0 0 .1c-.1-.1-.1 0-.2 0 0-.1.1 0 .2 0-.1 0 0 0 0 0M3 13h3.6l.4-.1c0-.1-.3-.1-.4-.1 0-.1-.2-.2-.1-.4h-.1c-.1-.1-.3-.1-.4-.1-.1 0-.2-.1-.3-.2h-.2c.1-.1.1-.1-.1-.2 0-.2.2-.3.4-.5h.1l-.1-.1s.1.1.2 0v-.1c.1 0 .1 0 .2-.1-.1 0-.1-.1-.2-.1.1 0 .1 0 .2.1 0 0 .1 0 .2-.1h.2v-.1s0 .1.1.1c.1-.1.1-.1.2-.1v-.2c-.1 0-.1-.1-.2 0l-.2.2c-.1 0 0-.1 0-.1.1 0 .1 0 0-.1-.1 0-.1.1-.1.1v-.1h-.1l.1-.1v-.1c-.1 0-.2.1-.2.1-.1 0-.1 0-.1.1h.1-.1l-.3.2.1-.1h-.4c-.2.1-.2.1-.3.2 0-.1 0-.1.1-.1h-.2c.1 0 .1 0 .2-.1-.1 0-.1 0-.1-.1h-.1.1-.1l.1-.1s-.3.1-.5.2h.1c.1 0 .2.1.3 0L5 11h-.2.4v-.1c0-.1-.1-.2 0-.2h-.1v-.1c-.1 0-.2.1-.3.1-.3.1-.6.4-.9.5-.1.1-.3.2-.4.3h-.1l-.4.3.2-.2-.1.1v.1c0 .1-.1.1-.1.2v.1h.1v.1c-.1 0-.1 0-.1.1 0-.1 0-.1-.1 0 0 .1-.1.1-.1.1h.1c0 .1-.1.1-.1.2v.2s0 .3-.1.3v-.2h-.1l-.1.1m5.8-2.6-.1-.1c0 .1 0 .1.1.1-.1 0-.1 0 0 0-.1.1-.1.1 0 0-.1.1-.1.1 0 0-.1.1 0 .1 0 0m-2.4.3c.1-.1.1-.1 0 0v-.1l.1-.1.1-.1c-.1 0-.1.1-.2.1l.1-.1-.1.1H6h-.1s.1 0 .1-.1c0 0-.3.1-.4.1h.1-.1.2-.2v.1s-.1 0-.1.1h.4c0 .1.1.1.1.1-.2-.1-.2-.1-.1-.1h-.1.1m2.3.3H8l-.1-.1h-.1c0-.1-.1 0-.1-.1h.1s-.1 0-.1-.1h.1-.2.1-.4.1l-.1-.1s0 .1-.1.1h-.1.1s0-.1-.2 0H6.7v-.1l.1-.1h-.1c-.1 0-.2.1-.2.1s-.1 0-.1.1h.1-.1c0 .1.1.1.1.1h.2-.1.1s.1 0 .1.1l.1.1h-.1.2v.1l-.1.1h-.1s.1 0 .1.1h-.1c-.1-.1-.1 0-.1 0-.1 0-.1 0-.1.1H7l.1.1c0 .1.1 0 .1.1 0 0 .1 0 .1.1h.2c0-.1-.1-.1-.2-.1s-.1 0-.1-.1h.1l.1.1h.1s.1 0 .1.1v-.1l-.1-.1s0 .1.1.1l-.1-.1s-.1 0-.1-.1c0 0 0-.1-.1-.1v-.1h.1c.5-.2.5-.2.6-.1 0 0 0 .1.1 0 0 .1 0 .1.1.1V11m-1.8-.6c.1 0 0 0 0 0 0-.1.1-.1.1-.1h-.2l.1.1c-.1-.1-.1 0-.1 0-.1 0-.1.1-.1.1v.1h.1c0-.1 0-.1.1-.2-.1.1 0 .1 0 0M6.8 10.3s-.1 0 0 0c-.1 0-.1 0 0 0H6.5s0 .1-.1.1h.2l.2-.1M5.9 10.3c.1 0 .1 0 0 0 .1 0 .1 0 0 0 .1 0 .1 0 0 0 .1 0 .1 0 0 0 .1 0 .1 0 0 0 .1 0 0 0 0 0h-.2c-.1 0-.1 0-.2.1 0 0-.1 0-.1.1h-.1s-.1 0-.1.1h.1c.1 0 .1-.1.2-.1h.1c.2-.1.3-.1.3-.2m1.3-.1H7h.1l-.1.1h.2c-.1 0-.1 0 0-.1m-.4 0c0-.1 0-.1 0 0 0-.1 0-.1 0 0 0-.1 0-.1 0 0 0-.1 0-.1 0 0 0-.1 0-.1 0 0 0-.1 0-.1 0 0 0 0-.1 0 0 0-.1 0-.1 0 0 0-.1-.1-.1 0 0 0-.1 0-.1 0 0 0h-.1.1c-.1 0-.1 0 0 0h-.2.2m-.3 0c.1 0 .1 0 0 0 .1 0 .1 0 0 0 .1 0 0 0 0 0s.1 0 .1-.1l-.1.1h-.1.1-.1.1H6.2h.1-.1H6.5m.4-.1c.1 0 .1 0 0 0 .1 0 .1 0 0 0m-.3 0c.1 0 .1 0 0 0 .1 0 .1 0 0 0 .1 0 0 0 0 0-.1 0-.3.1-.3.1h-.1.2-.1.1l.2-.1m.2 0h-.1.1m.3 0c0-.1 0-.1 0 0 0-.1 0-.1 0 0 0-.1 0-.1 0 0-.1 0-.1 0 0 0m-.1 0h.2c-.1-.1-.2 0-.2 0 0-.1 0 0 0 0m.3-.1s.1 0 0 0c.1 0 0 0 0 0s.1 0 0 0c.1 0 .1 0 0 0 .1 0 .1 0 0 0 .1 0 .1 0 0 0 .1 0 .1 0 0 0 .1 0 .1 0 0 0 .1 0 .1 0 0 0 .1 0 .1 0 0 0 .1 0 .1 0 0 0 .1 0 .1 0 0 0 .1 0 .1 0 0 0 .1 0 .1 0 0 0h.1-.1.2-.2c.1 0 .1 0 0 0h-.2c.1.1.1.1.2 0 0 .1 0 0 0 0m.2 0h-.1.1c-.1 0-.1 0 0 0H7.2h.2-.1.1c0 .1 0 .1.1 0-.1.1-.1.1 0 0-.1.1-.1.1 0 0-.1.1 0 0 0 0M9 11.2c-.4-.7-.9-1.2-1.5-1.2H7.8h-.2.1H7.4h.1-.2.1l.1-.1h-.1l-.1.1h.1v.1-.2h.1s-.1-.1-.1 0h.1-.1.2c1.3 1.2 1.3 1.2 1.4 1.3-.1-.1-.1-.1 0 0-.1 0-.1 0 0 0-.1 0-.1 0 0 0-.1 0-.1 0 0 0-.1 0-.1 0 0 0-.1 0-.1 0 0 0-.1 0-.1 0 0 0-.1 0-.1 0 0 0-.1 0-.1 0 0 0-.1 0-.1 0 0 0-.1 0 0 0 0 0"/><path style="fill:#b3e710" d="M9.4 20.1h-.2v.1s.1 0 .2-.1m-.6 2c.3-.5.6-1.2.8-2h-.1c-.1 0-.1.1-.2.2h-.1v-.1h-.1s0-.1.1-.1H6.1V20.4c.1.1.1 0 .1 0 .1.1-.1.1-.1.2l.1.1c.1.1.2.1.6.7.1.2.4.2.5.3.1.1-.1.3-.1.4h-.1.1c0 .1.1.7.1.7s0 .1.1.1v-.1l.1-.1s.1 0 .2-.1v-.1c.1 0 .2 0 .4-.2l-.1.1c.2-.1.2-.1.4-.3h.4m4.9-3.8s0 .1 0 0c0 .1 0 0 0 0m.3-2.9c0-.2-.1-.5-.1-.7 0-.1-.1-.1-.2-.2 0 0-.1 0-.3-.6 0-.1 0-.1-.1-.1v.1h-.1l-.1.1v.1s0 .1-.1.1h-.1c-.1 0-.1 0-.1-.1 0 0-.1.5 0 .7.1.3-.2.4-.2.7 0 .2-.1.4-.1.7.1.1.1.7 0 .8 0 0 0 .1.1.1v.1-.2.2l.1.1.1.1h-.1l.1.2v.4s.2.3.3.3c.1 0 .1-.2.2-.2V18c.1 0 .3-.2.3-.2s.2 0 .2.1h.2c0 .1-.2.1-.2.1h.1l.1.1h-.1c0 .1-.1.2-.2.3v.1s0 .1-.1.2v.1c-.1.4-.5 1-.5 1 .1 0 .2-.3.3-.6.2-.3.3-.6.4-.9s.2-.6.2-1c.1-.3.1-.7.1-1 0-.2 0-.5-.1-.9m-.6-1.6c0 .1 0 .1.1.2 0-.1 0-.1-.1-.2m-.2-.3c0-.1 0-.1 0 0v.2c.1-.1.1-.1 0-.2m-.1-.2s0-.1 0 0 .1.1.1.1l-.1-.1m.2.2s-.1 0 0 0l-.1-.1s-.2-.4-.3-.4h-.3v.1s.1.1.1.2h-.1c0 .1-.1 0-.1 0h-.1v.1s.1 0 .1.1c.1.1.1.3.1.4v.2h.1s0 .1.1.1c0 .1.1.1.1.1v-.1h.1V14l-.1-.1v-.4l-.1-.1v-.1c.2-.3.5.2.5.2s0 .1 0 0c0 .1 0 .1 0 0 .1.1.1.2.1.2v.1-.1s-.1-.1-.1-.2m-.4-.6s.1.1 0 0c.1.1 0 0 0 0m.2.2c0-.1-.1-.1-.1-.2 0 .1 0 .1.1.2-.1-.1-.1-.1 0 0-.1 0 0 0 0 0m-3.9-.2c-.1 0-.1 0-.1.1 0-.1 0-.1.1-.1m-6.5-.4c.1 0 0 0 0 0 0 .1 0 .1 0 0 0 .1 0 .1 0 0m.2-.1c0-.1 0-.1 0 0l.1-.1c-.2 0-.2.1-.1.1-.1 0-.1 0 0 0-.1 0-.1 0 0 0-.1 0-.1 0 0 0-.1 0-.1 0 0 0-.1 0-.1 0 0 0-.1 0-.1 0 0 0m0-.2c.1-.1.1-.1 0 0 .1-.1.1-.1 0 0 .1-.1.1-.1 0 0 0-.1 0 0 0 0m.1-.1c0-.1 0-.1 0 0 .1-.1.1-.1 0 0 .1-.1.1-.1 0 0 0-.1 0-.1 0 0 0-.1 0 0 0 0m6 .9v-.2s.1 0 0-.1v-.1h-.1c-.1 0-.1.1-.2.1v-.1c.1 0 .2-.1.2-.1-.3-.1-.3-.2-.3-.2 0-.1 0-.3-.1-.3 0 0 0 .1-.1 0v.1h.1c0-.1-.1 0-.1-.1h-.1l-.2-.2-.1.1v.1c0-.1 0 0 0 0s0-.1-.1-.1c0 .1 0 .1-.1.1 0-.1-.1 0-.2 0v-.1.2-.1c-.1 0-.2-.2-.2-.2v-.1l-.1-.1h-.1c-.1 0-.1 0-.2-.1 0 0-.1 0 0 .1v.2l-.1.1c0 .1.2.1.1.3 0 .1-.1.4-.3.5l.1.3.3-.4c0 .1-.1.1-.1.2l-.1.1s-.1 0-.1-.1h-.1v.1H9l-.1-.1c.1.1.1.1.1 0m0-1.5c0-.1 0-.1 0 0m-2.2 0h-.1v-.1h-.1l-.1-.1c-.1.1-.1.1-.1.2-.1 0-.1 0-.1.1h.1v.1h.2c.1-.2.1-.2.2-.2m.5-.5s-.1 0 0 0c-.2 0-.2.1-.1.1-.1 0 0 .1.1-.1"/><path style="fill:#b3e710" d="M9.6 13.4s0-.1 0 0c-.1-.1-.1-.1 0 0-.1 0-.1 0 0 0l-.1-.1h.1-.1l.1-.1H9.3l-.1.1c0-.1 0-.1.1-.2h-.1C9 13 9 13 9 13.1h-.1.1s-.1 0-.1.1v.1h.4l-.1.1.1-.1v.1h.3c-.1 0-.1.1 0 0 0 .1 0 .1 0 0 0 .1 0 0 0 0m2-1.6s-.1-.2-.2-.1v.1h-.1.1v-.1c.3.2.3.2.2.1 0 .1 0 .1 0 0m-.1-.1s-.1 0 0 0c-.1 0-.1 0 0 0-.1 0 0 0 0 0m.3 0c0-.1 0-.1 0 0 .1 0 .1 0 0 0 .1 0 .1 0 0 0 .1 0 .1 0 0 0 .1 0 .1 0 0 0 .1 0 0 0 0 0m-.2-.3c0 .1 0 .1 0 0 0 .1 0 .1 0 0l.1.1-.1-.1c0 .1 0 .1 0 0 0 .1 0 .1 0 0m-2.2 0s-.1 0 0 0c-.1 0 0 0 0 0m2.7.7L12 12l.1.1-.2-.1-.2-.2c-.2-.1-.2-.2-.2-.2l-.1-.1h-.1s0-.1-.1-.1h.1l.1.1.1.1s0 .1.1.1l.1.1.1.1v.2h.3c-.1.1-.1.1 0 0-.1.1-.1.1 0 0-.1.1-.1 0 0 0l-.1.1v.1h.1v-.2c0 .1 0 .1 0 0 0 .1 0 .1 0 0 0 .1 0 .1 0 0m-2.2-1.4h-.6.1c-.1 0-.1-.1-.2-.1H9.5c.1 0 .1 0 .1.1h.2c.2.1.2.1.1 0 .1.1.1.1 0 0 .1.1.1 0 0 0 .1 0 .1 0 0 0 .1 0 0 0 0 0m-1.3-.5c-.1 0-.1 0 0 0m3.5 1.7s-.1-.1 0 0c-.1 0 0 0 0 0l-.1-.1s0 .1.1.1l-.1-.1-.1-.1-.1-.1h-.1.1l.1.1c.1 0 .1.1.2.2-.1 0-.1 0 0 0-.1 0-.1 0 0 0 0 0-.1 0 0 0 0 0-.1 0 0 0-.1 0-.1 0 0 0-.1 0-.1 0 0 0 0 .1 0 .1 0 0-.1 0-.1 0 0 0-.1 0-.1 0 0 0-.1.1 0 .1 0 0v.2-.2c0 .1 0 .1.1.3l.1.1v.1l.1.1h.1l.1.1.2.2h.3c-.1-.1-.1-.2-.2-.3-.3-.1-.6-.4-.8-.6m-1.6-1.2-.6-.3H10.2s.1 0 .1.1c.1.2.2.2.2.2 0 .1 0 .1 0 0 .1.1.2.1.2.1s.1 0 .1.1h.1l.1.1.1.1h.1s.1 0 .1.1l.1.1-.2-.2h.1l.1.1.1.1.1.1.1.1-.1-.1-.1-.1-.3-.3c-.1.1-.4-.1-.7-.3m-2.2-.6s-.1 0 0 0c-.1 0 0 0 0 0m-.1 0c-.1 0-.1 0 0 0M8 10c-.1 0-.1 0 0 0-.1 0 0 0 0 0m-.1 0c-.1 0-.1 0 0 0-.1 0-.1 0 0 0-.1 0 0 0 0 0m-.1 0s-.1 0 0 0c-.1 0-.1 0 0 0-.1 0-.1 0 0 0m-.1 0c-.1 0-.1 0 0 0-.1 0-.1 0 0 0-.1 0-.1 0 0 0-.1 0 0 0 0 0m.2 0h-.2.2m-.3 0s-.1 0 0 0M9 10h-.3v.2h.1s.2 0 .2.1V10h-.3v.1-.2l.2.1.2.1-.2-.1-.2-.1c-.2.1.3.2.3.1v.1h-.3l-.1-.1-.1-.1h.1v.1h-.1.1v-.2h.2c0 .2.2.3.2.2h-.7l-.3.1V10l.5-.1v.1h-.4v.1h.4-.4v.1l.2-.1h.2s0 .1 0 0h-.4V10h.1H8h.1-.4c.5 0 1 .5 1.4 1.2V10.9 11.2s.1 0 .1.1h.1-.4H9.2h-.4v-.2l.5-.2v.4h.4-.2s.1 0 0 0h.1v-.4h-.3v.2-.2V11.2h-.1l-.1-.1h.1-.1.5-.3.3-.5.2H9h.5L9 11h.4-.2.1v.1s0 .1-.1.1l-.3-.1V11s.1 0 .1-.1h.1H8.8l.2.3V11l.1.1v.1V10.9H8.8v.1H9s.1-.2 0-.2v-.1s0-.1.1 0v.4-.8C9 10.2 9 10 9 10v.2s0 .1-.1.1l.1.1h-.1.1V10h-.2.2v.1-.1h-.1.1v.2h-.1l-.1-.1-.1-.1"/><path style="fill:#b3e710" d="m10.4 20.8.1-.2h-.1l-.1-.2h-.1l-.1-.1s-.1 0-.2.1c0 0 .1-.1 0-.1l-.1-.1c-.2.8-.5 1.5-.8 2h.1s.1 0 .1-.1h.1l.1-.1c0-.1.2-.1.2-.2l.2-.2c0-.1.1-.1.2-.3 0 0 .1 0 .1-.1l.1-.1c.1-.1.1-.1.2-.1-.1-.2 0-.2 0-.2m2.4-.5c.1-.1.1-.2.2-.3-.6.9-1.1 1.3-1.3 1.5.2-.2.4-.3.6-.5 0-.1.3-.4.5-.7M9.4 20h-.2v.1c.1 0 .1 0 .2-.1 0 .1 0 .1 0 0m-1.3-1.2s0 .1 0 0c0 .1 0 .1 0 0 0 .1-.1.1-.1.1.1 0 .1 0 .1-.1 0 .1 0 .1 0 0m-1.3-1.4c0-.1-.2-.1-.2-.1l.1.1c0 .1 0 0 .1 0m1.4 0s-.1-.1-.2 0v.1c.1-.1.2-.1.2-.1m-.3 0c-.1-.1-.2-.1-.2-.1h-.5.1v.1H7l.1.1H7.4s0 .1.1.1c0-.1 0-.1.1-.1h.1c.1-.1.1-.1.2-.1-.1 0-.1 0 0 0m-.8-.3h-.2c-.1 0-.2 0-.2-.1 0 0 0-.1-.1-.1h-.1c-.1 0-.1 0-.2-.1h-.2c-.1 0-.3 0-.3.1h.1c.2-.1.2-.1.3-.1h.2c.1 0 .1 0 .1.1.1 0 .1 0 .1.1.1 0 .1 0 .2.1 0 0 0 .1-.1.1H7s.1 0 .1-.1M7 15s-.1-.1 0 0c-.1-.1-.1-.1 0 0-.1 0 0 0 0 0M8.9 13.6s-.1-.1 0 0h-.1v-.1h-.1s0 .1-.1.1v.1c.1-.1.2-.1.3-.1-.1 0 0 0 0 0m-6.2-.3c0-.1 0-.1 0 0 0-.1 0-.1 0 0v-.2h-.1v.2c0-.1 0-.1.1 0-.1-.1-.1-.1 0 0 0-.1-.1-.1 0 0-.1-.1-.1-.1 0 0-.1-.1 0 0 0 0m6.6 6.5c-.1-.1-.1-.1-.1-.3 0 0-.4-.3-.5-.2h-.1c-.1-.1-.3-.1-.4-.1h-.3c0-.2.1-.2-.1-.2H8.1c-.1 0 0 0-.1-.1h-.1v-.1H8h-.5c-.1 0-.3-.1-.4-.1v-.1l-.2.1c0 .1.1.1.1.2h-.1c-.1-.1-.1-.1 0-.2v-.1h.2H7l-.3.3s0-.3-.2-.4h-.3c-.2 0-.4-.3-.3-.5v-.2h-.1c0-.1-.2 0-.2-.1h-.3c.1-.1.1-.1.1-.3v-.2.1V17h.1c-.2-.1-.3 0-.4 0H5c0 .1 0 0-.1 0V17.3h-.4c-.3-.3-.3-.3-.3-.4 0-.3.1-.8.1-.8V16h.1c.1 0 .1 0 .2-.1v-.1.1c.1 0 .2.1.3.1v-.1l.1.1h.1l-.1-.1h.1l.1.1-.1-.1H5 5.3l.1.1h.1l.2.1.2.1c.1-.2.1-.2.1-.1v.2c0 .1.1.1.1.2l.1-.3V16c.1 0-.2-.3-.1-.6.1-.2.4-.2.6-.4v.1h.1-.1.2-.1.1v.1-.1.1-.1l-.1-.1h.1v.2-.1s0-.1-.1-.1c0 0-.1 0-.1-.1h.2v.4h-.2V15s0 .2.1.2v.1-.4.4-.5.5-.4.5h-.1v-.2l.1-.1V15v.3s0-.1 0 0v-.2c.2-.4.2-.7.2-.8V14v1h-.1v-.4l.1-.1c0-.1.1-.1 0-.2.1 0 .2-.1.3-.1H7.6l.1-.2H8v.2H7.7l-.1-.1h.1c0-.1.2-.1.2-.1h-.1l-.1.1v-.2s0 .1 0 0v.1-.1s0 .1.1.1v.1-.2h.1s.1 0 .1-.1v.4s0-.2-.1-.1V14c.1 0 .2-.1.2-.1h-.5v.1H7.9h-.1l.2-.2h.1v.1h.1l.1-.1v.2l-.2-.1-.1-.1h.5c.1 0 .1 0 .2-.1h-.2s0 .2-.1.2v.2-.2l-.1-.1V14.1L8 14v-.4h.2-.1c-.1 0-.2 0-.2-.1H8l.1-.1h-.2c0-.1.3-.1.3-.1-.2-.2-.6.1-.7.3.3-.6.7-.6 1.1-.6h.3H2.7s0 .3-.1.4v-.1h-.1v.1c0 .1-.1.2-.2.4 0 .1 0 .1-.2.6v.2c0 .1.1.3 0 .4h.4c0 .1-.7.1.3.2h-1c1 0 .4.6.4.6h.1s.3.5.5.7l.1-.1v-.1c0-.1-.1-.4-.1-.4v-.1c0-.2-.1-.3-.2-.5v-.1h.1c.1.8.1.8.4 1.1v.1c.1.2.2.3.3.5v.2c.1.2.6.5.6.5.1 0 .2.1.3.1.1 0 .2-.1.4 0s.2.2.4.3h.3v-.1h.1c.1.1.2.2.3.2 0 0 0 .1.1.1H6s.1 0 .1-.1l.1.1H6v.8h.2v-.1l.1-.1-.2-.1-.2-.1h.4c.1 0 .2 0 .2.1l.1.2s0 .2.1.2V19s-.1-.1-.2-.1v-.1c-.2 0-.1.2-.2.3l-.1-.1v.2c.1.1.1.3.1.3v.1h-.1v.1s-.1 0-.1.1v.1H9.2c-.1.1.1 0 .1-.1"/><linearGradient id="h" gradientUnits="userSpaceOnUse" x1="7.465" y1="9.034" x2="7.465" y2="23.966"><stop offset="0" style="stop-color:#76a1f0"/><stop offset="1" style="stop-color:#6b90d5"/></linearGradient><path style="fill:url(#h)" d="M7.5 9C3.3 9 0 12.4 0 16.5S3.3 24 7.5 24c4.1 0 7.5-3.3 7.5-7.5-.1-4.1-3.4-7.5-7.5-7.5zm6.2 9.6c-.1.3-.2.6-.4.9s-.3.6-.5.9-.4.5-.6.8-.5.5-.8.6c-.3.2-.6.4-.9.5-.3.2-.6.3-.9.4s-.7.2-1 .2c-.4.1-.7.1-1.1.1-6.5-.3-8.4-7.8-4.2-11.4C5 10.1 6.8 10 7.5 10c.4 0 .7 0 1.1.1.3.1.7.1 1 .2s.6.2.9.4c.3.2.6.3.9.5.3.2.5.4.8.6.2.2.5.5.6.8.2.3.4.6.5.9s.3.6.4.9.2.7.2 1c.1.3.1.7.1 1.1 0 .4 0 .7-.1 1.1 0 .3-.1.6-.2 1z"/></svg>
