<svg xmlns="http://www.w3.org/2000/svg" width="24" height="24" style="overflow:visible;enable-background:new 0 0 24 24" xml:space="preserve" preserveAspectRatio="xMinYMid meet"><linearGradient id="a" gradientUnits="userSpaceOnUse" x1="8" y1="7.987" x2="8" y2="24.001"><stop offset="0" style="stop-color:#f0a829"/><stop offset="1" style="stop-color:#c7671a"/></linearGradient><path style="fill:url(#a)" d="m3 19.2-3 1.6V24h16v-.4c0-.5-.5-1.2-1-1.5L9 19c-.5-.3-.6-.8-.3-1.2 0 0 1.6-2 1.6-4.2C10.4 10.5 8.4 8 6 8s-4.4 2.6-4.4 5.7c0 2.1 1.6 4.2 1.6 4.2.4.4.3 1-.2 1.3z"/><linearGradient id="b" gradientUnits="userSpaceOnUse" x1="7.721" y1="8.987" x2="7.721" y2="23.001"><stop offset="0" style="stop-color:#ffeba8"/><stop offset="1" style="stop-color:#f8be27"/></linearGradient><path style="fill:url(#b)" d="M1 23v-1.7L3.5 20c.5-.3.8-.7 1-1.2.1-.5 0-1.1-.4-1.5 0 0-1.4-1.8-1.4-3.6C2.6 11.1 4.2 9 6 9s3.4 2.1 3.4 4.7c0 1.7-1.4 3.5-1.4 3.6-.3.4-.5 1-.4 1.5.1.5.5 1 1 1.2l5.9 3H1z"/><linearGradient id="c" gradientUnits="userSpaceOnUse" x1="6.134" y1="9.987" x2="6.134" y2="22.001"><stop offset="0" style="stop-color:#ffc30f"/><stop offset="1" style="stop-color:#f5ae0d"/></linearGradient><path style="fill:url(#c)" d="m2 22 1.9-1.1c.8-.4 1.3-1.1 1.5-1.9.2-.8 0-1.7-.6-2.3-.3-.4-1.2-1.8-1.2-3 0-2 1.1-3.7 2.4-3.7s2.4 1.7 2.4 3.7c0 1.1-.9 2.5-1.2 3-.5.7-.7 1.5-.5 2.3.2.8.7 1.5 1.5 1.9l2.2 1.1H2z"/><linearGradient id="d" gradientUnits="userSpaceOnUse" x1="16" y1="7.987" x2="16" y2="24.001"><stop offset="0" style="stop-color:#8d470d"/><stop offset="1" style="stop-color:#7c3d09"/></linearGradient><path style="fill:url(#d)" d="M24 24v-3.4l-3-1.5c-.5-.3-.6-.8-.3-1.2 0 0 1.6-2 1.6-4.2 0-3.2-1.9-5.7-4.4-5.7-2.4 0-4.4 2.6-4.4 5.7 0 2.1 1.6 4.2 1.6 4.2.3.4.2 1-.3 1.3l-6 3.2c-.5.3-1 .9-1 1.5v.1H24z"/><linearGradient id="e" gradientUnits="userSpaceOnUse" x1="16.412" y1="8.987" x2="16.412" y2="23.001"><stop offset="0" style="stop-color:#d58738"/><stop offset="1" style="stop-color:#ab551f"/></linearGradient><path style="fill:url(#e)" d="m9.8 23 5.7-3c.5-.3.8-.7 1-1.2.1-.5 0-1.1-.4-1.5 0 0-1.4-1.8-1.4-3.6 0-2.6 1.5-4.7 3.4-4.7s3.4 2.1 3.4 4.7c0 1.8-1.4 3.6-1.4 3.6-.3.4-.5 1-.4 1.5s.5 1 1 1.2l2.4 1.2V23H9.8z"/><linearGradient id="f" gradientUnits="userSpaceOnUse" x1="17.942" y1="9.987" x2="17.942" y2="22.001"><stop offset="0" style="stop-color:#d0813a"/><stop offset="1" style="stop-color:#af551d"/></linearGradient><path style="fill:url(#f)" d="m13.9 22 2.1-1.1c.8-.4 1.3-1.1 1.5-1.9.2-.8 0-1.7-.6-2.3-.3-.4-1.2-1.8-1.2-3 0-2 1.1-3.7 2.4-3.7s2.4 1.7 2.4 3.7c0 1.2-.9 2.5-1.2 3-.5.7-.7 1.5-.6 2.3.2.8.7 1.5 1.5 1.9l1.9 1v.1h-8.2z"/><linearGradient id="g" gradientUnits="userSpaceOnUse" x1="7.451" y1="0" x2="7.451" y2="12.904"><stop offset="0" style="stop-color:#76a1f0"/><stop offset="1" style="stop-color:#6b90d5"/></linearGradient><path style="fill:url(#g)" d="M12.5 10.4c1.4-1.1 2.4-2.6 2.4-4.3.1-3.3-3.2-6-7.3-6.1C3.4-.1.1 2.5 0 5.8c-.1 3.3 3.2 6 7.3 6.1 1 0 2-.1 2.9-.4.8 1 2.8 1.4 2.8 1.4s-.8-1.2-.5-2.5z"/><linearGradient id="h" gradientUnits="userSpaceOnUse" x1="7.451" y1="1" x2="7.451" y2="11.217"><stop offset="0" style="stop-color:#bbe0f7"/><stop offset="1" style="stop-color:#82b4fb"/></linearGradient><path style="fill:url(#h)" d="M11.4 11.2c-.2-.1-.3-.2-.4-.3l-.4-.6-.7.2c-.8.2-1.6.4-2.4.4h-.1C3.8 10.8 1 8.6 1 5.8 1 3.2 3.9 1 7.4 1h.2c1.8 0 3.4.6 4.6 1.6 1.1 1 1.8 2.2 1.7 3.5 0 1.3-.7 2.6-2 3.5l-.3.2-.1.4c-.1.3-.1.7-.1 1z"/><linearGradient id="i" gradientUnits="userSpaceOnUse" x1="7.451" y1="2" x2="7.451" y2="9.91"><stop offset="0" style="stop-color:#95bff8"/><stop offset=".557" style="stop-color:#84adef"/><stop offset="1" style="stop-color:#7ca4eb"/></linearGradient><path style="fill:url(#i)" d="M7.4 9.9C4.4 9.9 2 8 2 5.9S4.5 2 7.4 2h.1c1.5 0 2.9.5 4 1.4.9.8 1.4 1.7 1.4 2.7 0 1-.6 2-1.6 2.7l-.6.4v.1l-1.1.3c-.6.2-1.4.3-2.1.3h-.1z"/><path style="fill:#fff" d="M5.5 4.5h1.9V6c0 .5-.1 1-.3 1.3-.2.3-.6.6-1.2.8l-.4-.8c.4-.1.6-.3.7-.4.1-.2.2-.3.2-.6h-.9V4.5zm2.2 0h1.9V6c0 .5-.1 1-.3 1.3-.2.3-.6.6-1.1.8l-.5-.8c.4-.1.6-.3.7-.4.1-.2.2-.3.2-.6h-.9V4.5z"/></svg>
