<svg fill="none" xmlns="http://www.w3.org/2000/svg" viewBox="0 0 200 125"><rect x="6.495" y="13.044" width="183.87" height="102.273" rx="6.818" transform="rotate(-1 6.495 13.044)" fill="#EAF6FF"/><mask id="a" style="mask-type:alpha" maskUnits="userSpaceOnUse" x="6" y="9" width="187" height="107"><rect x="6.495" y="13.044" width="183.87" height="102.273" rx="6.818" transform="rotate(-1 6.495 13.044)" fill="#EAF6FF"/></mask><g mask="url(#a)"><path d="M1.704-23.385 2.608 10.8c96.253 23.32 167.942 24.014 191.755 21.446l-.297-11.232C124.547 16.427 36.859-10.497 1.704-23.385ZM6.405 121.583c24.753-17.058 137.208-28.467 190.341-32.04l.192 7.268C51.976 111.666 10.036 139.218 7.186 151.137l-.78-29.554Z" fill="#C5E6FF" fill-opacity=".44"/><path d="M4.252 105.864c53.467-15.022 150.465-22.507 192.281-24.372l-1.162-43.963c-73.082 4.44-159.46-12.992-193.514-22.263l2.395 90.598Z" fill="#C5E6FF" fill-opacity=".44"/><path d="M57.834 89.671c-.27 1.812-1.13 3.397-2.578 4.753-1.449 1.356-3.293 2.323-5.532 2.901-2.24.579-4.598.683-7.073.313a19.64 19.64 0 0 1-3.375-.825c-1.779.907-3.705 1.473-5.78 1.696a16.44 16.44 0 0 1-1.718.063l-.058-.009a.612.612 0 0 1-.376-.216.654.654 0 0 1-.162-.444.404.404 0 0 1 0-.13.776.776 0 0 1 .029-.126.419.419 0 0 1 .056-.111l.063-.09.084-.098.093-.086.102-.085.09-.076c.077-.069.25-.21.52-.422.271-.213.468-.38.593-.502.124-.121.298-.288.522-.501.224-.213.423-.44.598-.68.175-.241.351-.508.527-.801-1.466-1.18-2.558-2.522-3.274-4.028-.715-1.507-.957-3.035-.725-4.587.27-1.812 1.13-3.396 2.578-4.752 1.449-1.356 3.293-2.324 5.532-2.902 2.24-.578 4.598-.682 7.073-.312 2.476.37 4.7 1.159 6.673 2.367 1.973 1.207 3.453 2.671 4.442 4.392.988 1.72 1.347 3.486 1.076 5.298Zm6.718 6.122c-.234 1.564-.913 2.96-2.037 4.184-1.123 1.225-2.56 2.186-4.307 2.885.083.332.173.639.27.92a5 5 0 0 0 .374.825c.152.269.27.48.353.633.083.152.223.369.419.652a13.942 13.942 0 0 1 .439.655c.032.052.056.089.072.111a.849.849 0 0 1 .064.11c.025.05.043.089.052.117l.034.105.021.123-.01.129-.038.124a.734.734 0 0 1-.317.393.592.592 0 0 1-.448.073 16.686 16.686 0 0 1-1.625-.563c-1.918-.82-3.595-1.924-5.031-3.311a19.717 19.717 0 0 1-3.469-.198c-3.512-.525-6.443-1.843-8.79-3.953.743.164 1.31.276 1.699.334 2.087.312 4.133.318 6.139.018 2.006-.3 3.842-.886 5.51-1.756 1.799-.957 3.25-2.153 4.352-3.588 1.102-1.434 1.784-3.025 2.045-4.772.15-1.004.149-2.017-.003-3.039 1.534 1.176 2.682 2.533 3.446 4.074.764 1.54 1.026 3.112.786 4.715ZM103.599 87.974l1.526 5.695c.133.496.071.97-.187 1.42-.258.45-.633.742-1.125.874l-9.759 2.615a1.784 1.784 0 0 1-1.41-.194 1.813 1.813 0 0 1-.873-1.136l-2.08-7.767c-.134-.496-.071-.97.186-1.42.258-.45.633-.742 1.125-.873l2.568-.689a1.784 1.784 0 0 1 1.411.195c.449.261.74.64.873 1.136l.069.259 5.393-1.445a1.783 1.783 0 0 1 1.411.194c.448.261.739.64.872 1.136ZM130.789 102.466a1.625 1.625 0 0 0-.756-1.04 1.622 1.622 0 0 0-1.27-.201 1.62 1.62 0 0 0-1.041.756 1.622 1.622 0 0 0-.201 1.27c.108.451.36.798.756 1.04.396.243.819.31 1.27.201.451-.108.798-.36 1.04-.756.243-.395.31-.819.202-1.27Zm15.383 4.083c.109.451.043.871-.196 1.262l-4.759 7.784a1.68 1.68 0 0 1-1.049.751 1.61 1.61 0 0 1-1.262-.196l-11.32-6.948c-.399-.237-.776-.601-1.132-1.092-.357-.49-.589-.961-.697-1.412l-1.275-5.309a1.62 1.62 0 0 1 .209-1.266c.246-.4.59-.654 1.033-.76l5.309-1.275c.451-.108.976-.115 1.575-.02.599.094 1.098.265 1.499.51l11.314 6.923c.395.256.645.605.751 1.048ZM154.994 74.735l-.494 3.516a1.026 1.026 0 0 1-.412.704 1.029 1.029 0 0 1-.791.203l-3.517-.494a1.028 1.028 0 0 1-.704-.413 1.029 1.029 0 0 1-.202-.79l.494-3.517c.041-.293.179-.528.413-.704.234-.176.497-.244.79-.203l1.055.149.297-2.11-5.627-.791-.296 2.11 1.055.148c.293.041.527.179.704.413.176.234.244.497.202.79l-.494 3.517a1.027 1.027 0 0 1-.413.704 1.026 1.026 0 0 1-.79.203l-3.517-.495a1.03 1.03 0 0 1-.704-.412 1.025 1.025 0 0 1-.202-.79l.494-3.517c.041-.294.179-.528.413-.704.233-.177.497-.244.79-.203l1.055.148.297-2.11-5.627-.79-.297 2.11 1.055.148c.294.04.528.178.705.412.176.234.243.498.202.79l-.494 3.517a1.027 1.027 0 0 1-.413.704 1.026 1.026 0 0 1-.79.203l-3.517-.494a1.027 1.027 0 0 1-.704-.413 1.03 1.03 0 0 1-.203-.79l.495-3.517c.041-.293.178-.528.412-.704.234-.176.498-.244.791-.203l1.055.149.296-2.11c.054-.381.239-.691.557-.93.318-.24.667-.333 1.048-.28l5.626.792.297-2.11-1.055-.149a1.027 1.027 0 0 1-.704-.412 1.025 1.025 0 0 1-.203-.79l.494-3.517a1.03 1.03 0 0 1 .413-.705c.234-.176.498-.243.791-.202l3.516.494c.293.041.528.179.704.413.176.234.244.497.203.79l-.494 3.517a1.03 1.03 0 0 1-.413.704 1.029 1.029 0 0 1-.791.203l-1.055-.149-.296 2.11 5.626.791c.381.054.691.24.931.557.239.317.332.666.278 1.047l-.296 2.11 1.055.149c.293.04.528.178.704.412.176.234.244.498.202.79ZM159.542 33.815l-.377 5.764c-.054.839-.644 1.55-1.77 2.136-1.126.584-2.614.975-4.464 1.17-1.851.196-3.826.165-5.927-.093-2.102-.258-4.026-.706-5.774-1.343-1.748-.638-3.098-1.377-4.049-2.216-.951-.84-1.351-1.674-1.2-2.501l1.028-5.684 9.995 4.555c.255.117.54.195.854.234.313.038.608.031.885-.02l10.799-2.002Zm10.32-4.69c-.034.278-.19.448-.467.512l-21.069 3.885a.77.77 0 0 1-.184-.004.777.777 0 0 1-.179-.04l-11.351-5.181c-.57.346-1.081.967-1.534 1.861-.453.895-.791 1.947-1.013 3.158.707.528 1.007 1.233.899 2.114-.103.833-.532 1.436-1.289 1.81l.088 7.971a.54.54 0 0 1-.201.435.537.537 0 0 1-.459.146l-3.478-.427a.538.538 0 0 1-.41-.253.538.538 0 0 1-.089-.47l2.013-7.714c-.644-.545-.914-1.234-.812-2.067.108-.882.583-1.504 1.424-1.866.44-2.483 1.276-4.403 2.509-5.76l-5.8-2.624c-.254-.129-.364-.332-.33-.61.034-.278.19-.449.468-.513l21.069-3.885a.766.766 0 0 1 .183.005.765.765 0 0 1 .179.04l19.504 8.867c.253.129.363.332.329.61ZM89.868 67.27l3.925.552.552-3.925-3.925-.552-.552 3.925Zm4.797.674 4.362.613.551-3.925-4.36-.613-.553 3.925Zm-4.123-5.471 3.925.551.613-4.361-3.925-.552-.613 4.362Zm4.798.674 4.361.613.613-4.362-4.361-.613-.613 4.362Zm-4.062-5.908 3.925.552.552-3.926-3.926-.551-.551 3.925Zm8.621 11.44 4.361.614.552-3.925-4.361-.613-.552 3.925Zm-3.824-10.766 4.362.613.551-3.925-4.361-.613-.552 3.925Zm9.058 11.502 3.925.552.552-3.925-3.926-.552-.551 3.925Zm-4.56-5.533 4.362.613.613-4.361-4.362-.613-.613 4.361Zm-3.142-12.45.551-3.925a.423.423 0 0 0-.086-.325.423.423 0 0 0-.288-.172l-.873-.123a.423.423 0 0 0-.325.087.423.423 0 0 0-.172.288l-.552 3.925a.423.423 0 0 0 .087.325c.074.099.17.156.288.173l.872.122a.423.423 0 0 0 .325-.086.423.423 0 0 0 .173-.289Zm8.376 13.186 3.925.552.613-4.362-3.925-.551-.613 4.36Zm-4.498-5.97 4.361.614.552-3.926-4.361-.613-.552 3.926Zm5.234.736 3.925.552.551-3.925-3.925-.552-.551 3.925Zm1.355-6.48.552-3.926a.423.423 0 0 0-.087-.325.422.422 0 0 0-.288-.172l-.872-.123a.423.423 0 0 0-.325.087.423.423 0 0 0-.173.288l-.551 3.925a.422.422 0 0 0 .086.325c.074.099.17.156.288.173l.873.122a.424.424 0 0 0 .325-.086.426.426 0 0 0 .172-.289Zm5.356-.137-2.451 17.445a1.695 1.695 0 0 1-.691 1.154 1.693 1.693 0 0 1-1.299.346l-19.19-2.697a1.693 1.693 0 0 1-1.154-.69 1.693 1.693 0 0 1-.346-1.3l2.452-17.446c.066-.472.297-.857.69-1.154a1.693 1.693 0 0 1 1.3-.345l1.744.245.184-1.308c.085-.6.37-1.083.857-1.45a2.12 2.12 0 0 1 1.63-.425l.873.123c.6.084 1.083.37 1.45.857a2.12 2.12 0 0 1 .424 1.63l-.184 1.309 5.234.735.184-1.308c.084-.6.37-1.083.857-1.45a2.12 2.12 0 0 1 1.63-.424l.872.122c.6.085 1.083.37 1.45.857s.509 1.03.424 1.63l-.184 1.309 1.745.245c.472.066.857.297 1.154.69.297.394.412.827.345 1.3ZM185.616 53.236c-.119-1.511-.758-2.761-1.917-3.751-1.158-.99-2.494-1.425-4.005-1.306-1.511.118-2.762.757-3.752 1.916-.989 1.16-1.425 2.494-1.306 4.006.119 1.511.758 2.761 1.917 3.751 1.159.99 2.494 1.426 4.005 1.306 1.512-.118 2.762-.757 3.752-1.916.99-1.16 1.425-2.494 1.306-4.006Zm7.077 9.702c.033.425-.093.805-.379 1.14-.286.335-.641.519-1.066.552a1.463 1.463 0 0 1-1.14-.379l-4.533-3.86c-1.383 1.128-2.973 1.763-4.77 1.905a8.505 8.505 0 0 1-3.405-.417 8.654 8.654 0 0 1-2.902-1.62 8.645 8.645 0 0 1-2.055-2.613 8.493 8.493 0 0 1-.944-3.299 8.512 8.512 0 0 1 .416-3.405c.37-1.102.91-2.069 1.621-2.902a8.67 8.67 0 0 1 2.613-2.055 8.503 8.503 0 0 1 3.298-.944 8.505 8.505 0 0 1 3.405.417c1.102.37 2.069.91 2.902 1.62a8.642 8.642 0 0 1 2.055 2.613c.538 1.03.852 2.13.944 3.298a8.42 8.42 0 0 1-1.134 5.01l4.534 3.872c.326.279.506.634.54 1.067ZM51.843 40.931c-1.528.347-2.666 1.202-3.415 2.566l-1.908.371c-.778.151-1.47.085-2.077-.198-.606-.283-.982-.797-1.127-1.542-.655-3.369-.394-5.168.783-5.397.057-.01.283.05.678.18.394.132.896.245 1.506.34.609.094 1.194.087 1.753-.022a5.794 5.794 0 0 0 1.83-.697c.02.362.058.682.112.958.258 1.327.88 2.474 1.865 3.441Zm17.018 6.157c.222 1.146.052 2.117-.512 2.915-.564.798-1.42 1.309-2.568 1.532l-12.44 2.418c-1.149.223-2.134.07-2.955-.458-.822-.529-1.344-1.366-1.567-2.511a21.877 21.877 0 0 1-.238-1.492 14.933 14.933 0 0 1-.104-1.599c-.009-.578.016-1.12.075-1.627.06-.506.173-1.011.341-1.514.168-.504.387-.947.657-1.332.27-.384.626-.718 1.068-1.002a4.333 4.333 0 0 1 1.532-.595c.095-.019.319.044.672.189.353.144.743.306 1.172.485.429.18.981.31 1.657.391.675.082 1.336.06 1.981-.066a6.338 6.338 0 0 0 1.862-.68c.596-.33 1.06-.658 1.39-.984.33-.327.632-.623.905-.89.273-.265.457-.408.552-.426a4.332 4.332 0 0 1 1.643-.022c.516.097.972.274 1.366.53.394.254.764.584 1.108.987.344.404.639.83.883 1.277.245.448.471.941.68 1.48.207.54.375 1.047.502 1.522.127.476.24.966.338 1.472Zm-18.13-15.45a3.608 3.608 0 0 1-.564 2.8c-.572.854-1.361 1.378-2.367 1.574-1.006.196-1.934.005-2.785-.573a3.607 3.607 0 0 1-1.572-2.384 3.608 3.608 0 0 1 .564-2.799c.573-.854 1.362-1.379 2.368-1.574 1.006-.196 1.934-.005 2.785.573a3.608 3.608 0 0 1 1.571 2.384Zm11.09 3.55c.295 1.518.013 2.917-.846 4.199-.859 1.281-2.043 2.068-3.552 2.362-1.508.293-2.9.006-4.177-.86-1.276-.866-2.062-2.058-2.357-3.576-.295-1.517-.013-2.917.846-4.198.859-1.281 2.042-2.069 3.551-2.362 1.509-.293 2.902-.007 4.178.86 1.276.866 2.062 2.058 2.357 3.575Zm8.825 1.628c.144.745-.011 1.362-.468 1.852-.456.49-1.073.81-1.851.961L66.419 40c-1.205-.984-2.581-1.35-4.128-1.1.552-1.265.699-2.562.44-3.889a7.308 7.308 0 0 0-.254-.93 5.794 5.794 0 0 0 1.957-.04 5.061 5.061 0 0 0 1.634-.636 9.51 9.51 0 0 0 1.27-.879c.317-.27.503-.41.56-.42 1.177-.23 2.093 1.34 2.748 4.71Zm-3.517-8.365a3.608 3.608 0 0 1-.564 2.8c-.572.853-1.362 1.378-2.367 1.574-1.006.195-1.935.004-2.786-.573a3.608 3.608 0 0 1-1.57-2.384 3.608 3.608 0 0 1 .563-2.8c.572-.853 1.362-1.378 2.368-1.574 1.005-.195 1.934-.004 2.785.573a3.608 3.608 0 0 1 1.571 2.384Z" fill="#86CBFF"/></g><path d="m32.36 32.836-.448-3.926a1.905 1.905 0 0 0-.73-1.326 1.905 1.905 0 0 0-1.457-.414l-8.506.97-.97-8.507a1.905 1.905 0 0 0-.73-1.325 1.905 1.905 0 0 0-1.456-.414l-3.926.447a1.906 1.906 0 0 0-1.325.73c-.338.426-.476.911-.414 1.457l.969 8.506-8.507.97a1.905 1.905 0 0 0-1.325.73c-.338.425-.476.91-.414 1.456l.447 3.926c.063.545.306.987.731 1.325.426.338.91.476 1.456.414l8.506-.969.97 8.507c.062.545.306.987.73 1.325.426.338.911.476 1.456.414l3.926-.447a1.906 1.906 0 0 0 1.326-.731c.338-.425.476-.91.414-1.456l-.97-8.506 8.507-.97a1.906 1.906 0 0 0 1.325-.73c.338-.426.477-.911.414-1.456ZM197.012 95.186l.241-3.944a1.907 1.907 0 0 0-.49-1.432 1.906 1.906 0 0 0-1.362-.66l-8.545-.523.522-8.546a1.903 1.903 0 0 0-.489-1.432 1.905 1.905 0 0 0-1.362-.66l-3.944-.242a1.905 1.905 0 0 0-1.432.49c-.407.36-.627.814-.661 1.362l-.522 8.545-8.546-.523a1.905 1.905 0 0 0-1.432.49c-.407.36-.627.814-.66 1.362l-.242 3.944c-.033.548.13 1.025.49 1.432.36.407.814.627 1.362.66l8.545.523-.522 8.546a1.903 1.903 0 0 0 .489 1.432c.36.407.814.627 1.362.66l3.944.242a1.907 1.907 0 0 0 1.432-.49c.407-.36.627-.814.661-1.362l.522-8.545 8.546.522a1.905 1.905 0 0 0 1.432-.49c.407-.36.627-.813.661-1.361ZM124.934 25.352l-.327-1.95a.95.95 0 0 0-.4-.644.952.952 0 0 0-.738-.169l-4.226.708-.707-4.226a.957.957 0 0 0-.4-.644.956.956 0 0 0-.739-.168l-1.95.326a.953.953 0 0 0-.643.4.955.955 0 0 0-.169.738l.707 4.226-4.226.707a.953.953 0 0 0-.643.4.955.955 0 0 0-.169.739l.327 1.95a.95.95 0 0 0 .4.643.952.952 0 0 0 .738.17l4.226-.708.707 4.226c.045.27.179.485.4.643a.953.953 0 0 0 .738.169l1.951-.326a.953.953 0 0 0 .643-.4.954.954 0 0 0 .169-.739l-.707-4.226 4.226-.707a.956.956 0 0 0 .643-.4.954.954 0 0 0 .169-.738ZM86.593 110.663l.052-1.977a.956.956 0 0 0-.27-.708.953.953 0 0 0-.693-.306l-4.283-.112.112-4.283a.953.953 0 0 0-.27-.708.954.954 0 0 0-.692-.307l-1.977-.052a.955.955 0 0 0-.708.27.955.955 0 0 0-.306.693l-.113 4.283-4.283-.112a.955.955 0 0 0-.707.27.953.953 0 0 0-.307.692l-.052 1.977a.953.953 0 0 0 .27.708.958.958 0 0 0 .693.307l4.283.112-.112 4.283a.956.956 0 0 0 .27.708.953.953 0 0 0 .692.306l1.977.052a.955.955 0 0 0 .708-.27.954.954 0 0 0 .306-.693l.113-4.283 4.283.112a.95.95 0 0 0 .708-.269.957.957 0 0 0 .306-.693ZM39.984 59.205l.07-2.633a1.27 1.27 0 0 0-.36-.943 1.27 1.27 0 0 0-.923-.408l-5.706-.15.15-5.705a1.27 1.27 0 0 0-.36-.943 1.27 1.27 0 0 0-.922-.408l-2.634-.07a1.27 1.27 0 0 0-.942.36 1.27 1.27 0 0 0-.409.923l-.15 5.706-5.705-.15a1.27 1.27 0 0 0-.943.36 1.27 1.27 0 0 0-.408.922l-.07 2.634c-.009.365.111.68.36.942.25.263.557.4.923.409l5.706.15-.15 5.705c-.01.366.11.68.36.943.25.262.557.399.923.408l2.633.07c.366.009.68-.111.943-.36a1.27 1.27 0 0 0 .408-.923l.15-5.706 5.705.15c.366.01.68-.11.943-.36a1.27 1.27 0 0 0 .408-.923Z" fill="#0056B3"/></svg>
