<svg fill="none" xmlns="http://www.w3.org/2000/svg" viewBox="0 0 269 173"><path d="M130.298 171.955a1.999 1.999 0 1 0 2.404-3.196l-2.404 3.196Zm137.887-153.65a2 2 0 0 0 .426-2.796l-10.665-14.5a2 2 0 1 0-3.222 2.37l9.48 12.89-12.889 9.48a2 2 0 1 0 2.37 3.222l14.5-10.665ZM124.847 36.115c14.837-13.515 33.816-20.396 57.372-22.633 23.592-2.242 51.644.187 84.48 5.19l.602-3.954c-32.918-5.016-61.365-7.507-85.46-5.218-24.131 2.292-44.025 9.391-59.688 23.657l2.694 2.958Zm34.44 79.302c-13.382 1.869-23.94-.552-31.827-5.493-7.898-4.946-13.278-12.519-16.124-21.225-5.717-17.49-1.113-39.265 13.511-52.584l-2.694-2.958c-15.876 14.46-20.786 37.916-14.619 56.785 3.096 9.473 9.008 17.864 17.803 23.372 8.804 5.515 20.34 8.043 34.504 6.064l-.554-3.961Zm-26.585 53.343c-25.76-19.374-35.531-44.979-33.124-66.267 2.404-21.255 16.912-38.345 40.27-41.227l-.49-3.97c-25.369 3.13-41.163 21.836-43.754 44.747-2.587 22.876 7.954 49.803 34.694 69.913l2.404-3.196Zm7.146-107.494c23.592-2.91 41.413 9.316 46.813 22.682 2.682 6.636 2.305 13.48-1.745 19.109-4.087 5.679-12.172 10.48-25.629 12.36l.554 3.961c14.089-1.968 23.372-7.107 28.321-13.985 4.986-6.928 5.312-15.26 2.208-22.943-6.171-15.272-25.876-28.255-51.012-25.154l.49 3.97Z" fill="#fff"/></svg>
