<svg xmlns="http://www.w3.org/2000/svg" xmlns:xlink="http://www.w3.org/1999/xlink" width="910" zoomAndPan="magnify" viewBox="0 0 682.5 225" height="300" preserveAspectRatio="xMidYMid meet" version="1.0"><defs><g/><clipPath id="id1"><path d="M 24.453125 22.582031 L 200.703125 22.582031 L 200.703125 202.582031 L 24.453125 202.582031 Z M 24.453125 22.582031 " clip-rule="nonzero"/></clipPath><clipPath id="id2"><path d="M 3.75 3.824219 L 221.25 3.824219 L 221.25 221.324219 L 3.75 221.324219 Z M 3.75 3.824219 " clip-rule="nonzero"/></clipPath></defs><g clip-path="url(#id1)"><path fill="#ffffff" d="M 24.453125 22.585938 L 200.703125 22.585938 L 200.703125 202.578125 L 24.453125 202.578125 L 24.453125 22.585938 " fill-opacity="1" fill-rule="nonzero"/></g><g clip-path="url(#id2)"><path fill="#0099cc" d="M 7.785156 3.945312 C 5.839844 4.269531 4.195312 5.957031 3.871094 7.957031 C 3.707031 8.914062 3.707031 216.050781 3.859375 217.125 C 4.164062 219.214844 5.792969 220.867188 7.882812 221.203125 C 8.871094 221.367188 216.128906 221.367188 217.117188 221.203125 C 219.171875 220.878906 220.804688 219.246094 221.128906 217.191406 C 221.292969 216.203125 221.292969 8.945312 221.128906 7.957031 C 220.792969 5.878906 219.128906 4.238281 217.050781 3.933594 C 216.085938 3.800781 8.621094 3.800781 7.785156 3.945312 Z M 217.824219 5.652344 C 218.5625 6.011719 219.097656 6.554688 219.464844 7.347656 L 219.726562 7.902344 L 219.726562 217.246094 L 219.464844 217.800781 C 219.097656 218.59375 218.5625 219.136719 217.824219 219.496094 L 217.171875 219.800781 L 7.828125 219.800781 L 7.175781 219.496094 C 6.4375 219.136719 5.902344 218.59375 5.535156 217.800781 L 5.273438 217.246094 L 5.273438 7.902344 L 5.535156 7.347656 C 5.902344 6.554688 6.4375 6.011719 7.175781 5.652344 L 7.828125 5.347656 L 217.171875 5.347656 Z M 217.824219 5.652344 " fill-opacity="1" fill-rule="nonzero"/></g><path fill="#0099cc" d="M 14.734375 112.574219 L 14.734375 210.449219 L 210.484375 210.449219 L 210.484375 14.699219 L 14.734375 14.699219 Z M 187.320312 34.449219 C 188.449219 34.839844 189.679688 35.828125 190.222656 36.777344 C 190.820312 37.832031 190.800781 37.527344 190.800781 46.78125 C 190.800781 56.035156 190.820312 55.730469 190.222656 56.785156 C 189.898438 57.363281 188.960938 58.285156 188.351562 58.632812 C 187.136719 59.332031 188.289062 59.285156 171.964844 59.285156 L 157.085938 59.285156 L 157.085938 146.070312 L 171.226562 146.070312 L 171.226562 151.722656 L 163.535156 151.722656 C 155.261719 151.722656 155.402344 151.734375 154.269531 151.160156 C 153.238281 150.636719 152.292969 149.527344 151.855469 148.332031 C 151.648438 147.765625 151.648438 147.003906 151.648438 102.429688 L 151.648438 57.101562 L 151.933594 56.535156 C 152.550781 55.328125 153.921875 54.230469 155.304688 53.859375 C 155.621094 53.773438 160.101562 53.742188 170.5625 53.742188 L 185.363281 53.742188 L 185.363281 39.929688 L 78.789062 39.929688 L 78.789062 126.496094 L 133.816406 126.496094 L 134.542969 126.765625 C 136.042969 127.332031 137.273438 128.691406 137.6875 130.234375 C 137.804688 130.679688 137.839844 132.410156 137.839844 139.121094 C 137.839844 147.296875 137.839844 147.460938 137.609375 148.144531 C 137.304688 149.082031 136.980469 149.605469 136.292969 150.277344 C 135.683594 150.863281 134.828125 151.375 134.074219 151.59375 C 133.726562 151.691406 124.800781 151.722656 95.859375 151.722656 L 58.082031 151.722656 L 57.429688 151.496094 C 56.539062 151.179688 55.777344 150.679688 55.1875 150.015625 C 54.675781 149.453125 54.101562 148.40625 54.101562 148.058594 C 54.101562 147.941406 54.035156 147.789062 53.960938 147.722656 C 53.863281 147.613281 53.820312 139.988281 53.796875 110.507812 L 53.773438 73.425781 L 34.199219 73.425781 L 34.199219 67.988281 L 44.726562 67.988281 C 54.839844 67.988281 55.265625 67.996094 55.820312 68.195312 C 57.394531 68.769531 58.484375 69.890625 59.050781 71.488281 C 59.191406 71.902344 59.210938 76.230469 59.210938 109.117188 L 59.210938 146.285156 L 132.074219 146.285156 L 132.074219 132.148438 L 104.703125 132.148438 C 80.539062 132.148438 77.265625 132.128906 76.851562 131.984375 C 76.023438 131.691406 75.503906 131.378906 74.894531 130.8125 C 74.242188 130.191406 73.871094 129.625 73.554688 128.757812 C 73.351562 128.191406 73.351562 127.351562 73.351562 83.210938 C 73.351562 42.734375 73.371094 38.199219 73.523438 37.753906 C 74.078125 36.167969 75.328125 34.949219 76.992188 34.394531 C 77.210938 34.328125 96.175781 34.285156 132.074219 34.285156 C 181.4375 34.273438 186.875 34.296875 187.320312 34.449219 Z M 55.460938 34.710938 C 57.210938 35.308594 58.472656 36.589844 58.996094 38.277344 C 59.203125 38.929688 59.210938 39.296875 59.210938 44.171875 C 59.210938 49.03125 59.203125 49.414062 58.996094 50.054688 C 58.472656 51.761719 57.125 53.109375 55.429688 53.632812 C 54.765625 53.839844 54.40625 53.847656 46.707031 53.847656 C 39.039062 53.847656 38.648438 53.839844 37.996094 53.632812 C 36.289062 53.109375 34.941406 51.761719 34.417969 50.066406 C 34.210938 49.414062 34.199219 49.042969 34.199219 44.171875 C 34.199219 39.296875 34.210938 38.929688 34.417969 38.277344 C 34.941406 36.578125 36.265625 35.253906 37.984375 34.699219 C 38.5625 34.511719 39.167969 34.503906 46.71875 34.503906 C 54.558594 34.492188 54.851562 34.503906 55.460938 34.710938 Z M 67.207031 159.488281 C 67.683594 159.652344 68.183594 159.835938 68.304688 159.914062 L 68.542969 160.042969 L 68.128906 161.078125 C 67.804688 161.882812 67.671875 162.109375 67.511719 162.089844 C 67.402344 162.089844 66.902344 161.925781 66.390625 161.738281 C 64.835938 161.175781 63.855469 161.316406 62.941406 162.21875 C 62.507812 162.664062 62.34375 162.925781 62.171875 163.480469 C 61.867188 164.46875 61.789062 165.46875 61.929688 166.523438 C 62.128906 167.992188 62.574219 168.765625 63.507812 169.265625 C 64.292969 169.691406 66.3125 169.546875 67.835938 168.960938 C 68 168.886719 68.019531 168.984375 68.019531 170.039062 C 68.019531 171.34375 68.066406 171.265625 66.988281 171.558594 C 66.074219 171.808594 64.3125 171.898438 63.421875 171.746094 C 61.429688 171.398438 60.148438 170.277344 59.472656 168.296875 C 59.09375 167.175781 58.984375 164.960938 59.257812 163.6875 C 59.734375 161.390625 61.269531 159.761719 63.386719 159.273438 C 64.410156 159.042969 66.128906 159.140625 67.207031 159.488281 Z M 106.03125 159.488281 C 106.507812 159.652344 107.007812 159.835938 107.128906 159.914062 L 107.367188 160.042969 L 106.953125 161.078125 C 106.628906 161.882812 106.496094 162.109375 106.332031 162.089844 C 106.226562 162.089844 105.726562 161.925781 105.214844 161.738281 C 103.660156 161.175781 102.679688 161.316406 101.765625 162.21875 C 101.332031 162.664062 101.167969 162.925781 100.996094 163.480469 C 100.691406 164.46875 100.613281 165.46875 100.753906 166.523438 C 100.949219 167.992188 101.398438 168.765625 102.332031 169.265625 C 103.113281 169.691406 105.136719 169.546875 106.660156 168.960938 C 106.824219 168.886719 106.84375 168.984375 106.84375 170.039062 C 106.84375 171.34375 106.886719 171.265625 105.8125 171.558594 C 104.898438 171.808594 103.136719 171.898438 102.246094 171.746094 C 100.253906 171.398438 98.972656 170.277344 98.296875 168.296875 C 97.917969 167.175781 97.808594 164.960938 98.078125 163.6875 C 98.558594 161.390625 100.089844 159.761719 102.210938 159.273438 C 103.234375 159.042969 104.953125 159.140625 106.03125 159.488281 Z M 94.21875 164.578125 C 95.261719 167.527344 96.253906 170.320312 96.414062 170.789062 L 96.730469 171.636719 L 95.242188 171.605469 L 93.75 171.570312 L 93.328125 170.125 L 92.890625 168.6875 L 88.519531 168.6875 L 87.652344 171.625 L 86.214844 171.625 C 85.421875 171.625 84.769531 171.59375 84.769531 171.539062 C 84.769531 171.496094 85.738281 168.710938 86.910156 165.339844 L 89.0625 159.226562 L 92.335938 159.226562 Z M 117.816406 164.578125 C 118.863281 167.527344 119.851562 170.320312 120.015625 170.789062 L 120.328125 171.636719 L 118.839844 171.605469 L 117.351562 171.570312 L 116.925781 170.125 L 116.492188 168.6875 L 112.121094 168.6875 L 111.683594 170.15625 L 111.25 171.625 L 109.8125 171.625 C 109.019531 171.625 108.367188 171.59375 108.367188 171.539062 C 108.367188 171.496094 109.335938 168.710938 110.511719 165.339844 L 112.664062 159.226562 L 115.9375 159.226562 Z M 56.386719 165.480469 L 56.386719 171.625 L 53.667969 171.625 L 53.667969 159.335938 L 56.386719 159.335938 Z M 79.222656 160.425781 L 79.222656 161.511719 L 75.851562 161.511719 L 75.851562 171.625 L 73.132812 171.625 L 73.132812 161.511719 L 69.871094 161.511719 L 69.871094 159.335938 L 79.222656 159.335938 Z M 128.03125 159.5 C 130.074219 159.976562 131.605469 161.46875 132.128906 163.46875 C 132.378906 164.394531 132.378906 166.308594 132.140625 167.320312 C 131.757812 168.917969 130.75 170.222656 129.3125 170.917969 C 128.117188 171.515625 127.378906 171.625 124.550781 171.625 L 122.070312 171.625 L 122.070312 159.335938 L 124.710938 159.335938 C 126.648438 159.335938 127.527344 159.378906 128.03125 159.5 Z M 142.40625 160.425781 L 142.40625 161.511719 L 137.949219 161.511719 L 137.949219 164.121094 L 142.078125 164.121094 L 142.078125 166.40625 L 137.949219 166.40625 L 137.949219 169.449219 L 142.40625 169.449219 L 142.40625 171.625 L 135.230469 171.625 L 135.230469 159.335938 L 142.40625 159.335938 Z M 150.28125 163.90625 C 151.0625 166.417969 151.726562 168.4375 151.769531 168.394531 C 151.8125 168.339844 152.507812 166.296875 153.304688 163.851562 L 154.761719 159.390625 L 156.628906 159.359375 L 158.5 159.335938 L 158.5 171.625 L 155.859375 171.625 L 155.914062 166.980469 L 155.96875 162.339844 L 154.445312 166.980469 L 152.910156 171.625 L 150.398438 171.625 L 148.984375 167.015625 L 147.5625 162.394531 L 147.605469 167.015625 L 147.648438 171.625 L 145.234375 171.625 L 145.234375 159.335938 L 148.875 159.335938 Z M 164.460938 161.804688 L 165.699219 164.273438 L 168.222656 159.335938 L 169.667969 159.335938 C 170.464844 159.335938 171.117188 159.359375 171.117188 159.378906 C 171.117188 159.402344 170.214844 161.078125 169.105469 163.121094 L 167.09375 166.828125 L 167.09375 171.625 L 164.375 171.625 L 164.375 166.949219 L 162.40625 163.296875 C 161.328125 161.292969 160.414062 159.574219 160.382812 159.488281 C 160.339844 159.359375 160.566406 159.335938 161.785156 159.335938 L 163.230469 159.335938 Z M 123.800781 178.554688 C 124.058594 179.214844 128.269531 190.558594 128.269531 190.601562 C 128.269531 190.636719 127.769531 190.65625 127.160156 190.65625 L 126.039062 190.65625 L 125.441406 188.992188 L 124.84375 187.339844 L 122.539062 187.308594 L 120.242188 187.285156 L 120.070312 187.742188 C 119.972656 188.003906 119.699219 188.742188 119.472656 189.40625 L 119.046875 190.601562 L 117.9375 190.636719 C 116.914062 190.65625 116.828125 190.644531 116.871094 190.472656 C 116.914062 190.332031 120.644531 180.28125 121.320312 178.5 C 121.40625 178.269531 121.472656 178.257812 122.546875 178.257812 L 123.679688 178.257812 Z M 166.539062 178.554688 C 166.800781 179.214844 171.007812 190.558594 171.007812 190.601562 C 171.007812 190.636719 170.507812 190.65625 169.898438 190.65625 L 168.777344 190.65625 L 168.179688 188.992188 L 167.582031 187.339844 L 165.277344 187.308594 L 162.980469 187.285156 L 162.808594 187.742188 C 162.710938 188.003906 162.4375 188.742188 162.210938 189.40625 L 161.785156 190.601562 L 160.675781 190.636719 C 159.652344 190.65625 159.566406 190.644531 159.609375 190.472656 C 159.652344 190.332031 163.382812 180.28125 164.058594 178.5 C 164.144531 178.269531 164.210938 178.257812 165.289062 178.257812 L 166.417969 178.257812 Z M 55.863281 181.183594 L 55.894531 184 L 60.660156 178.367188 L 61.84375 178.367188 C 62.484375 178.367188 63.019531 178.390625 63.019531 178.421875 C 63.019531 178.457031 61.996094 179.671875 60.757812 181.121094 L 58.484375 183.761719 L 60.167969 186.199219 C 61.09375 187.546875 62.160156 189.101562 62.539062 189.644531 L 63.234375 190.65625 L 60.746094 190.65625 L 58.863281 187.9375 C 57.832031 186.449219 56.960938 185.21875 56.929688 185.21875 C 56.894531 185.21875 56.644531 185.414062 56.363281 185.664062 L 55.839844 186.109375 L 55.839844 190.65625 L 53.667969 190.65625 L 53.667969 178.367188 L 55.839844 178.367188 Z M 82.703125 179.238281 L 82.703125 180.109375 L 77.808594 180.109375 L 77.808594 183.371094 L 82.375 183.371094 L 82.375 185.109375 L 77.808594 185.109375 L 77.808594 188.917969 L 82.703125 188.917969 L 82.703125 190.65625 L 75.632812 190.65625 L 75.632812 178.367188 L 82.703125 178.367188 Z M 102.398438 178.671875 C 103.300781 179.03125 103.8125 179.445312 104.179688 180.117188 C 104.441406 180.609375 104.507812 180.859375 104.539062 181.640625 C 104.617188 183.21875 104.105469 184.207031 102.863281 184.914062 C 102.363281 185.1875 102.300781 185.261719 102.386719 185.4375 C 102.441406 185.546875 103.160156 186.675781 103.964844 187.9375 C 104.769531 189.199219 105.484375 190.332031 105.539062 190.449219 C 105.648438 190.644531 105.605469 190.65625 104.464844 190.65625 L 103.265625 190.65625 L 101.820312 188.230469 L 100.363281 185.816406 L 98.472656 185.753906 L 98.472656 190.65625 L 96.296875 190.65625 L 96.296875 178.347656 L 99.046875 178.390625 C 101.582031 178.421875 101.832031 178.445312 102.398438 178.671875 Z M 142.949219 183.640625 L 142.949219 188.917969 L 148.171875 188.917969 L 148.171875 190.65625 L 140.773438 190.65625 L 140.773438 178.367188 L 142.949219 178.367188 Z M 142.949219 183.640625 " fill-opacity="1" fill-rule="nonzero"/><path fill="#0099cc" d="M 39.636719 44.171875 L 39.636719 48.410156 L 53.773438 48.410156 L 53.773438 39.929688 L 39.636719 39.929688 Z M 39.636719 44.171875 " fill-opacity="1" fill-rule="nonzero"/><path fill="#0099cc" d="M 89.957031 163.980469 C 89.554688 165.328125 89.238281 166.449219 89.261719 166.480469 C 89.28125 166.503906 89.96875 166.503906 90.773438 166.492188 L 92.25 166.460938 L 91.488281 164.011719 C 91.078125 162.675781 90.726562 161.566406 90.71875 161.554688 C 90.707031 161.535156 90.359375 162.632812 89.957031 163.980469 Z M 89.957031 163.980469 " fill-opacity="1" fill-rule="nonzero"/><path fill="#0099cc" d="M 113.554688 163.980469 C 113.152344 165.328125 112.835938 166.449219 112.859375 166.480469 C 112.878906 166.503906 113.566406 166.503906 114.371094 166.492188 L 115.847656 166.460938 L 115.089844 164.011719 C 114.675781 162.675781 114.328125 161.566406 114.316406 161.554688 C 114.304688 161.535156 113.957031 162.632812 113.554688 163.980469 Z M 113.554688 163.980469 " fill-opacity="1" fill-rule="nonzero"/><path fill="#0099cc" d="M 124.789062 165.480469 L 124.789062 169.484375 L 125.855469 169.417969 C 127.136719 169.34375 127.78125 169.136719 128.410156 168.582031 C 129.28125 167.808594 129.714844 166.199219 129.476562 164.601562 C 129.160156 162.4375 128.246094 161.640625 125.964844 161.535156 L 124.789062 161.480469 Z M 124.789062 165.480469 " fill-opacity="1" fill-rule="nonzero"/><path fill="#0099cc" d="M 121.742188 182.816406 C 121.296875 184.152344 120.917969 185.285156 120.894531 185.339844 C 120.875 185.394531 121.601562 185.4375 122.558594 185.4375 C 124.148438 185.4375 124.265625 185.425781 124.191406 185.242188 C 124.148438 185.144531 123.765625 184 123.332031 182.71875 L 122.558594 180.378906 Z M 121.742188 182.816406 " fill-opacity="1" fill-rule="nonzero"/><path fill="#0099cc" d="M 164.484375 182.816406 C 164.035156 184.152344 163.65625 185.285156 163.632812 185.339844 C 163.613281 185.394531 164.339844 185.4375 165.296875 185.4375 C 166.886719 185.4375 167.003906 185.425781 166.929688 185.242188 C 166.886719 185.144531 166.503906 184 166.070312 182.71875 L 165.296875 180.378906 Z M 164.484375 182.816406 " fill-opacity="1" fill-rule="nonzero"/><path fill="#0099cc" d="M 98.472656 182.066406 L 98.472656 184.042969 L 99.699219 184 C 100.679688 183.96875 101.015625 183.914062 101.417969 183.71875 C 102.058594 183.402344 102.386719 182.847656 102.386719 182.054688 C 102.386719 180.695312 101.691406 180.207031 99.699219 180.128906 L 98.472656 180.074219 Z M 98.472656 182.066406 " fill-opacity="1" fill-rule="nonzero"/><g fill="#000000" fill-opacity="1"><g transform="translate(233.304642, 82.340508)"><g><path d="M 8.625 0 L 8.625 -65.671875 L 19.40625 -65.671875 L 19.40625 0 Z M 8.625 0 "/></g></g></g><g fill="#000000" fill-opacity="1"><g transform="translate(261.378428, 82.340508)"><g><path d="M 36.609375 -57.453125 C 33.460938 -57.453125 30.65625 -56.882812 28.1875 -55.75 C 25.71875 -54.613281 23.628906 -52.972656 21.921875 -50.828125 C 20.210938 -48.691406 18.910156 -46.101562 18.015625 -43.0625 C 17.117188 -40.019531 16.671875 -36.597656 16.671875 -32.796875 C 16.671875 -27.703125 17.390625 -23.320312 18.828125 -19.65625 C 20.265625 -15.988281 22.445312 -13.171875 25.375 -11.203125 C 28.3125 -9.242188 32.023438 -8.265625 36.515625 -8.265625 C 39.304688 -8.265625 42.019531 -8.535156 44.65625 -9.078125 C 47.289062 -9.617188 50.015625 -10.351562 52.828125 -11.28125 L 52.828125 -2.109375 C 50.160156 -1.066406 47.460938 -0.304688 44.734375 0.171875 C 42.015625 0.660156 38.875 0.90625 35.3125 0.90625 C 28.601562 0.90625 23.039062 -0.484375 18.625 -3.265625 C 14.207031 -6.054688 10.910156 -9.984375 8.734375 -15.046875 C 6.566406 -20.109375 5.484375 -26.039062 5.484375 -32.84375 C 5.484375 -37.8125 6.171875 -42.359375 7.546875 -46.484375 C 8.921875 -50.617188 10.925781 -54.191406 13.5625 -57.203125 C 16.195312 -60.210938 19.453125 -62.535156 23.328125 -64.171875 C 27.210938 -65.804688 31.65625 -66.625 36.65625 -66.625 C 39.945312 -66.625 43.1875 -66.253906 46.375 -65.515625 C 49.570312 -64.785156 52.53125 -63.742188 55.25 -62.390625 L 51.484375 -53.5 C 49.203125 -54.582031 46.816406 -55.507812 44.328125 -56.28125 C 41.847656 -57.0625 39.273438 -57.453125 36.609375 -57.453125 Z M 36.609375 -57.453125 "/></g></g></g><g fill="#000000" fill-opacity="1"><g transform="translate(319.682067, 82.340508)"><g><path d="M 31.40625 0 L 20.578125 0 L 20.578125 -56.515625 L 1.34375 -56.515625 L 1.34375 -65.671875 L 50.578125 -65.671875 L 50.578125 -56.515625 L 31.40625 -56.515625 Z M 31.40625 0 "/></g></g></g><g fill="#000000" fill-opacity="1"><g transform="translate(233.304642, 160.340503)"><g><path d="M 49.328125 0 L 42.90625 -18.234375 L 17.796875 -18.234375 L 11.359375 0 L 0 0 L 24.4375 -65.953125 L 36.390625 -65.953125 L 60.78125 0 Z M 40.109375 -27.5 L 33.875 -45.46875 C 33.632812 -46.238281 33.289062 -47.332031 32.84375 -48.75 C 32.394531 -50.175781 31.941406 -51.628906 31.484375 -53.109375 C 31.035156 -54.597656 30.664062 -55.851562 30.375 -56.875 C 30.070312 -55.644531 29.703125 -54.273438 29.265625 -52.765625 C 28.828125 -51.253906 28.40625 -49.835938 28 -48.515625 C 27.601562 -47.203125 27.300781 -46.1875 27.09375 -45.46875 L 20.796875 -27.5 Z M 40.109375 -27.5 "/></g></g></g><g fill="#000000" fill-opacity="1"><g transform="translate(294.123692, 160.340503)"><g><path d="M 36.609375 -57.453125 C 33.460938 -57.453125 30.65625 -56.882812 28.1875 -55.75 C 25.71875 -54.613281 23.628906 -52.972656 21.921875 -50.828125 C 20.210938 -48.691406 18.910156 -46.101562 18.015625 -43.0625 C 17.117188 -40.019531 16.671875 -36.597656 16.671875 -32.796875 C 16.671875 -27.703125 17.390625 -23.320312 18.828125 -19.65625 C 20.265625 -15.988281 22.445312 -13.171875 25.375 -11.203125 C 28.3125 -9.242188 32.023438 -8.265625 36.515625 -8.265625 C 39.304688 -8.265625 42.019531 -8.535156 44.65625 -9.078125 C 47.289062 -9.617188 50.015625 -10.351562 52.828125 -11.28125 L 52.828125 -2.109375 C 50.160156 -1.066406 47.460938 -0.304688 44.734375 0.171875 C 42.015625 0.660156 38.875 0.90625 35.3125 0.90625 C 28.601562 0.90625 23.039062 -0.484375 18.625 -3.265625 C 14.207031 -6.054688 10.910156 -9.984375 8.734375 -15.046875 C 6.566406 -20.109375 5.484375 -26.039062 5.484375 -32.84375 C 5.484375 -37.8125 6.171875 -42.359375 7.546875 -46.484375 C 8.921875 -50.617188 10.925781 -54.191406 13.5625 -57.203125 C 16.195312 -60.210938 19.453125 -62.535156 23.328125 -64.171875 C 27.210938 -65.804688 31.65625 -66.625 36.65625 -66.625 C 39.945312 -66.625 43.1875 -66.253906 46.375 -65.515625 C 49.570312 -64.785156 52.53125 -63.742188 55.25 -62.390625 L 51.484375 -53.5 C 49.203125 -54.582031 46.816406 -55.507812 44.328125 -56.28125 C 41.847656 -57.0625 39.273438 -57.453125 36.609375 -57.453125 Z M 36.609375 -57.453125 "/></g></g></g><g fill="#000000" fill-opacity="1"><g transform="translate(352.427331, 160.340503)"><g><path d="M 49.328125 0 L 42.90625 -18.234375 L 17.796875 -18.234375 L 11.359375 0 L 0 0 L 24.4375 -65.953125 L 36.390625 -65.953125 L 60.78125 0 Z M 40.109375 -27.5 L 33.875 -45.46875 C 33.632812 -46.238281 33.289062 -47.332031 32.84375 -48.75 C 32.394531 -50.175781 31.941406 -51.628906 31.484375 -53.109375 C 31.035156 -54.597656 30.664062 -55.851562 30.375 -56.875 C 30.070312 -55.644531 29.703125 -54.273438 29.265625 -52.765625 C 28.828125 -51.253906 28.40625 -49.835938 28 -48.515625 C 27.601562 -47.203125 27.300781 -46.1875 27.09375 -45.46875 L 20.796875 -27.5 Z M 40.109375 -27.5 "/></g></g></g><g fill="#000000" fill-opacity="1"><g transform="translate(413.246381, 160.340503)"><g><path d="M 61.953125 -33.46875 C 61.953125 -26.070312 60.570312 -19.894531 57.8125 -14.9375 C 55.0625 -9.976562 51.0625 -6.25 45.8125 -3.75 C 40.570312 -1.25 34.253906 0 26.859375 0 L 8.625 0 L 8.625 -65.671875 L 28.84375 -65.671875 C 35.632812 -65.671875 41.5 -64.453125 46.4375 -62.015625 C 51.382812 -59.578125 55.207031 -55.96875 57.90625 -51.1875 C 60.601562 -46.414062 61.953125 -40.507812 61.953125 -33.46875 Z M 50.71875 -33.15625 C 50.71875 -38.539062 49.867188 -42.96875 48.171875 -46.4375 C 46.484375 -49.914062 44 -52.5 40.71875 -54.1875 C 37.4375 -55.882812 33.398438 -56.734375 28.609375 -56.734375 L 19.40625 -56.734375 L 19.40625 -9.03125 L 27.046875 -9.03125 C 34.984375 -9.03125 40.910156 -11.050781 44.828125 -15.09375 C 48.753906 -19.132812 50.71875 -25.15625 50.71875 -33.15625 Z M 50.71875 -33.15625 "/></g></g></g><g fill="#000000" fill-opacity="1"><g transform="translate(480.668397, 160.340503)"><g><path d="M 45.828125 0 L 8.625 0 L 8.625 -65.671875 L 45.828125 -65.671875 L 45.828125 -56.609375 L 19.40625 -56.609375 L 19.40625 -38.765625 L 44.15625 -38.765625 L 44.15625 -29.734375 L 19.40625 -29.734375 L 19.40625 -9.125 L 45.828125 -9.125 Z M 45.828125 0 "/></g></g></g><g fill="#000000" fill-opacity="1"><g transform="translate(532.009747, 160.340503)"><g><path d="M 36.96875 0 L 18.0625 -54.84375 L 17.65625 -54.84375 C 17.75 -53.625 17.851562 -51.945312 17.96875 -49.8125 C 18.09375 -47.6875 18.195312 -45.410156 18.28125 -42.984375 C 18.375 -40.566406 18.421875 -38.25 18.421875 -36.03125 L 18.421875 0 L 8.625 0 L 8.625 -65.671875 L 23.765625 -65.671875 L 41.953125 -13.25 L 42.234375 -13.25 L 61.046875 -65.671875 L 76.140625 -65.671875 L 76.140625 0 L 65.859375 0 L 65.859375 -36.5625 C 65.859375 -38.570312 65.894531 -40.742188 65.96875 -43.078125 C 66.039062 -45.410156 66.128906 -47.625 66.234375 -49.71875 C 66.335938 -51.820312 66.421875 -53.503906 66.484375 -54.765625 L 66.125 -54.765625 L 46.5 0 Z M 36.96875 0 "/></g></g></g><g fill="#000000" fill-opacity="1"><g transform="translate(616.770133, 160.340503)"><g><path d="M 27.21875 -35.71875 L 42.8125 -65.671875 L 54.453125 -65.671875 L 32.609375 -25.515625 L 32.609375 0 L 21.875 0 L 21.875 -25.109375 L 0 -65.671875 L 11.71875 -65.671875 Z M 27.21875 -35.71875 "/></g></g></g><g fill="#000000" fill-opacity="1"><g transform="translate(233.304642, 210.590499)"><g><path d="M 42.203125 -20.765625 C 42.203125 -17.566406 41.800781 -14.660156 41 -12.046875 C 40.195312 -9.429688 38.988281 -7.1875 37.375 -5.3125 C 35.769531 -3.4375 33.757812 -1.988281 31.34375 -0.96875 C 28.925781 0.0507812 26.097656 0.5625 22.859375 0.5625 C 19.554688 0.5625 16.691406 0.0507812 14.265625 -0.96875 C 11.835938 -1.988281 9.820312 -3.441406 8.21875 -5.328125 C 6.625 -7.210938 5.429688 -9.46875 4.640625 -12.09375 C 3.847656 -14.71875 3.453125 -17.625 3.453125 -20.8125 C 3.453125 -25.082031 4.15625 -28.804688 5.5625 -31.984375 C 6.96875 -35.171875 9.109375 -37.644531 11.984375 -39.40625 C 14.867188 -41.175781 18.507812 -42.0625 22.90625 -42.0625 C 27.21875 -42.0625 30.796875 -41.179688 33.640625 -39.421875 C 36.492188 -37.660156 38.632812 -35.191406 40.0625 -32.015625 C 41.488281 -28.835938 42.203125 -25.085938 42.203125 -20.765625 Z M 10.59375 -20.765625 C 10.59375 -17.566406 11.023438 -14.800781 11.890625 -12.46875 C 12.765625 -10.144531 14.101562 -8.351562 15.90625 -7.09375 C 17.707031 -5.84375 20.023438 -5.21875 22.859375 -5.21875 C 25.703125 -5.21875 28.019531 -5.84375 29.8125 -7.09375 C 31.613281 -8.351562 32.9375 -10.144531 33.78125 -12.46875 C 34.632812 -14.800781 35.0625 -17.566406 35.0625 -20.765625 C 35.0625 -25.609375 34.09375 -29.40625 32.15625 -32.15625 C 30.21875 -34.90625 27.132812 -36.28125 22.90625 -36.28125 C 20.070312 -36.28125 17.742188 -35.65625 15.921875 -34.40625 C 14.109375 -33.164062 12.765625 -31.390625 11.890625 -29.078125 C 11.023438 -26.765625 10.59375 -23.992188 10.59375 -20.765625 Z M 10.59375 -20.765625 "/></g></g></g><g fill="#000000" fill-opacity="1"><g transform="translate(278.953908, 210.590499)"><g><path d="M 12.171875 0 L 5.4375 0 L 5.4375 -41.40625 L 28.828125 -41.40625 L 28.828125 -35.6875 L 12.171875 -35.6875 L 12.171875 -22.765625 L 27.75 -22.765625 L 27.75 -17.078125 L 12.171875 -17.078125 Z M 12.171875 0 "/></g></g></g><g fill="#000000" fill-opacity="1"><g transform="translate(309.849292, 210.590499)"><g/></g></g><g fill="#000000" fill-opacity="1"><g transform="translate(324.914683, 210.590499)"><g><path d="M 37.015625 0 L 29.203125 0 L 16.3125 -18.8125 L 12.234375 -15.484375 L 12.234375 0 L 5.4375 0 L 5.4375 -41.40625 L 12.234375 -41.40625 L 12.234375 -21.609375 C 13.066406 -22.628906 13.90625 -23.648438 14.75 -24.671875 C 15.601562 -25.691406 16.453125 -26.707031 17.296875 -27.71875 L 28.96875 -41.40625 L 36.640625 -41.40625 L 21.1875 -23.28125 Z M 37.015625 0 "/></g></g></g><g fill="#000000" fill-opacity="1"><g transform="translate(361.926842, 210.590499)"><g><path d="M 28.890625 0 L 5.4375 0 L 5.4375 -41.40625 L 28.890625 -41.40625 L 28.890625 -35.6875 L 12.234375 -35.6875 L 12.234375 -24.4375 L 27.84375 -24.4375 L 27.84375 -18.75 L 12.234375 -18.75 L 12.234375 -5.75 L 28.890625 -5.75 Z M 28.890625 0 "/></g></g></g><g fill="#000000" fill-opacity="1"><g transform="translate(394.294782, 210.590499)"><g><path d="M 17.078125 -41.40625 C 20.648438 -41.40625 23.597656 -40.96875 25.921875 -40.09375 C 28.253906 -39.226562 29.992188 -37.90625 31.140625 -36.125 C 32.285156 -34.351562 32.859375 -32.101562 32.859375 -29.375 C 32.859375 -27.332031 32.476562 -25.59375 31.71875 -24.15625 C 30.96875 -22.71875 29.976562 -21.523438 28.75 -20.578125 C 27.519531 -19.640625 26.207031 -18.890625 24.8125 -18.328125 L 36.5625 0 L 28.890625 0 L 18.890625 -16.59375 L 12.234375 -16.59375 L 12.234375 0 L 5.4375 0 L 5.4375 -41.40625 Z M 16.625 -35.734375 L 12.234375 -35.734375 L 12.234375 -22.203125 L 16.9375 -22.203125 C 20.09375 -22.203125 22.378906 -22.785156 23.796875 -23.953125 C 25.222656 -25.128906 25.9375 -26.859375 25.9375 -29.140625 C 25.9375 -31.535156 25.175781 -33.234375 23.65625 -34.234375 C 22.132812 -35.234375 19.789062 -35.734375 16.625 -35.734375 Z M 16.625 -35.734375 "/></g></g></g><g fill="#000000" fill-opacity="1"><g transform="translate(431.335254, 210.590499)"><g><path d="M 31.09375 0 L 27.046875 -11.5 L 11.21875 -11.5 L 7.171875 0 L 0 0 L 15.40625 -41.578125 L 22.9375 -41.578125 L 38.3125 0 Z M 25.296875 -17.328125 L 21.359375 -28.65625 C 21.203125 -29.144531 20.984375 -29.835938 20.703125 -30.734375 C 20.421875 -31.640625 20.132812 -32.554688 19.84375 -33.484375 C 19.5625 -34.421875 19.328125 -35.210938 19.140625 -35.859375 C 18.953125 -35.078125 18.722656 -34.207031 18.453125 -33.25 C 18.179688 -32.300781 17.914062 -31.410156 17.65625 -30.578125 C 17.40625 -29.753906 17.210938 -29.113281 17.078125 -28.65625 L 13.109375 -17.328125 Z M 25.296875 -17.328125 "/></g></g></g><g fill="#000000" fill-opacity="1"><g transform="translate(469.678361, 210.590499)"><g><path d="M 5.4375 0 L 5.4375 -41.40625 L 12.234375 -41.40625 L 12.234375 -5.78125 L 29.828125 -5.78125 L 29.828125 0 Z M 5.4375 0 "/></g></g></g><g fill="#000000" fill-opacity="1"><g transform="translate(501.196761, 210.590499)"><g><path d="M 31.09375 0 L 27.046875 -11.5 L 11.21875 -11.5 L 7.171875 0 L 0 0 L 15.40625 -41.578125 L 22.9375 -41.578125 L 38.3125 0 Z M 25.296875 -17.328125 L 21.359375 -28.65625 C 21.203125 -29.144531 20.984375 -29.835938 20.703125 -30.734375 C 20.421875 -31.640625 20.132812 -32.554688 19.84375 -33.484375 C 19.5625 -34.421875 19.328125 -35.210938 19.140625 -35.859375 C 18.953125 -35.078125 18.722656 -34.207031 18.453125 -33.25 C 18.179688 -32.300781 17.914062 -31.410156 17.65625 -30.578125 C 17.40625 -29.753906 17.210938 -29.113281 17.078125 -28.65625 L 13.109375 -17.328125 Z M 25.296875 -17.328125 "/></g></g></g></svg>