<svg xmlns="http://www.w3.org/2000/svg" xmlns:xlink="http://www.w3.org/1999/xlink" width="1536"
    zoomAndPan="magnify" viewBox="0 0 1536 1536" height="1536"
    preserveAspectRatio="xMidYMid meet" version="1.0">
    <defs>
        <clipPath id="id1">
            <path d="M 37.5 37.5 L 337.5 37.5 L 337.5 337.5 L 37.5 337.5 Z M 37.5 37.5 "
                clip-rule="nonzero" />
        </clipPath>
    </defs>
    <g clip-path="url(#id1)">
        <path fill="#ffffff" d="M 37.5 37.5 L 337.5 37.5 L 337.5 337.5 L 37.5 337.5 L 37.5 37.5 "
            fill-opacity="1" fill-rule="nonzero" />
    </g>
    <path fill="#0099cc"
        d="M 6.957031 0.207031 C 3.601562 0.769531 0.769531 3.675781 0.207031 7.125 C -0.0742188 8.773438 -0.0742188 365.90625 0.1875 367.761719 C 0.710938 371.363281 3.523438 374.210938 7.125 374.792969 C 8.832031 375.074219 366.167969 375.074219 367.875 374.792969 C 371.417969 374.230469 374.230469 371.417969 374.792969 367.875 C 375.074219 366.167969 375.074219 8.832031 374.792969 7.125 C 374.210938 3.542969 371.34375 0.710938 367.761719 0.1875 C 366.09375 -0.0390625 8.398438 -0.0390625 6.957031 0.207031 Z M 369.09375 3.148438 C 370.367188 3.769531 371.289062 4.707031 371.925781 6.074219 L 372.375 7.03125 L 372.375 367.96875 L 371.925781 368.925781 C 371.289062 370.292969 370.367188 371.230469 369.09375 371.851562 L 367.96875 372.375 L 7.03125 372.375 L 5.90625 371.851562 C 4.632812 371.230469 3.710938 370.292969 3.074219 368.925781 L 2.625 367.96875 L 2.625 7.03125 L 3.074219 6.074219 C 3.710938 4.707031 4.632812 3.769531 5.90625 3.148438 L 7.03125 2.625 L 367.96875 2.625 Z M 369.09375 3.148438 "
        fill-opacity="1" fill-rule="nonzero" />
    <path fill="#0099cc"
        d="M 18.9375 187.5 L 18.9375 356.25 L 356.4375 356.25 L 356.4375 18.75 L 18.9375 18.75 Z M 316.5 52.800781 C 318.449219 53.476562 320.570312 55.179688 321.507812 56.8125 C 322.539062 58.632812 322.5 58.105469 322.5 74.0625 C 322.5 90.019531 322.539062 89.492188 321.507812 91.3125 C 320.945312 92.304688 319.332031 93.898438 318.28125 94.5 C 316.179688 95.699219 318.167969 95.625 290.023438 95.625 L 264.375 95.625 L 264.375 245.25 L 288.75 245.25 L 288.75 255 L 275.492188 255 C 261.226562 255 261.46875 255.019531 259.519531 254.023438 C 257.738281 253.125 256.105469 251.210938 255.355469 249.148438 C 255 248.175781 255 246.863281 255 170.007812 L 255 91.855469 L 255.488281 90.882812 C 256.554688 88.800781 258.917969 86.90625 261.300781 86.269531 C 261.84375 86.117188 269.570312 86.0625 287.605469 86.0625 L 313.125 86.0625 L 313.125 62.25 L 129.375 62.25 L 129.375 211.5 L 224.25 211.5 L 225.507812 211.96875 C 228.09375 212.945312 230.210938 215.289062 230.925781 217.949219 C 231.132812 218.71875 231.1875 221.699219 231.1875 233.269531 C 231.1875 247.367188 231.1875 247.648438 230.792969 248.832031 C 230.269531 250.445312 229.707031 251.34375 228.523438 252.507812 C 227.476562 253.519531 225.992188 254.398438 224.699219 254.773438 C 224.101562 254.945312 208.707031 255 158.8125 255 L 93.675781 255 L 92.550781 254.605469 C 91.011719 254.0625 89.699219 253.199219 88.6875 252.054688 C 87.804688 251.082031 86.8125 249.28125 86.8125 248.679688 C 86.8125 248.476562 86.699219 248.210938 86.570312 248.101562 C 86.398438 247.914062 86.324219 234.769531 86.289062 183.9375 L 86.25 120 L 52.5 120 L 52.5 110.625 L 70.648438 110.625 C 88.085938 110.625 88.820312 110.644531 89.773438 110.980469 C 92.492188 111.976562 94.367188 113.90625 95.34375 116.664062 C 95.585938 117.375 95.625 124.835938 95.625 181.539062 L 95.625 245.625 L 221.25 245.625 L 221.25 221.25 L 174.054688 221.25 C 132.394531 221.25 126.75 221.210938 126.039062 220.96875 C 124.613281 220.460938 123.710938 219.917969 122.664062 218.945312 C 121.539062 217.875 120.898438 216.898438 120.355469 215.398438 C 120 214.425781 120 212.980469 120 136.875 C 120 67.085938 120.039062 59.269531 120.300781 58.5 C 121.257812 55.761719 123.414062 53.664062 126.28125 52.707031 C 126.65625 52.59375 159.355469 52.519531 221.25 52.519531 C 306.355469 52.5 315.730469 52.539062 316.5 52.800781 Z M 89.15625 53.25 C 92.175781 54.28125 94.351562 56.492188 95.25 59.398438 C 95.605469 60.523438 95.625 61.164062 95.625 69.5625 C 95.625 77.945312 95.605469 78.601562 95.25 79.707031 C 94.351562 82.648438 92.023438 84.976562 89.101562 85.875 C 87.957031 86.230469 87.335938 86.25 74.0625 86.25 C 60.84375 86.25 60.167969 86.230469 59.042969 85.875 C 56.101562 84.976562 53.773438 82.648438 52.875 79.726562 C 52.519531 78.601562 52.5 77.960938 52.5 69.5625 C 52.5 61.164062 52.519531 60.523438 52.875 59.398438 C 53.773438 56.476562 56.0625 54.1875 59.023438 53.230469 C 60.019531 52.914062 61.070312 52.894531 74.082031 52.894531 C 87.601562 52.875 88.105469 52.894531 89.15625 53.25 Z M 109.40625 268.386719 C 110.230469 268.667969 111.09375 268.988281 111.300781 269.117188 L 111.710938 269.34375 L 111 271.125 C 110.4375 272.511719 110.210938 272.90625 109.929688 272.867188 C 109.742188 272.867188 108.882812 272.585938 108 272.269531 C 105.320312 271.292969 103.632812 271.539062 102.054688 273.09375 C 101.304688 273.863281 101.023438 274.3125 100.726562 275.269531 C 100.199219 276.976562 100.070312 278.699219 100.3125 280.519531 C 100.648438 283.050781 101.417969 284.382812 103.03125 285.242188 C 104.382812 285.976562 107.867188 285.730469 110.492188 284.71875 C 110.773438 284.585938 110.8125 284.757812 110.8125 286.574219 C 110.8125 288.824219 110.886719 288.695312 109.03125 289.199219 C 107.457031 289.632812 104.417969 289.78125 102.882812 289.519531 C 99.449219 288.917969 97.238281 286.988281 96.074219 283.574219 C 95.417969 281.644531 95.230469 277.820312 95.699219 275.625 C 96.523438 271.667969 99.167969 268.855469 102.824219 268.011719 C 104.585938 267.617188 107.550781 267.789062 109.40625 268.386719 Z M 176.34375 268.386719 C 177.167969 268.667969 178.03125 268.988281 178.238281 269.117188 L 178.648438 269.34375 L 177.9375 271.125 C 177.375 272.511719 177.148438 272.90625 176.867188 272.867188 C 176.679688 272.867188 175.820312 272.585938 174.9375 272.269531 C 172.257812 271.292969 170.570312 271.539062 168.992188 273.09375 C 168.242188 273.863281 167.960938 274.3125 167.664062 275.269531 C 167.136719 276.976562 167.007812 278.699219 167.25 280.519531 C 167.585938 283.050781 168.355469 284.382812 169.96875 285.242188 C 171.320312 285.976562 174.804688 285.730469 177.429688 284.71875 C 177.710938 284.585938 177.75 284.757812 177.75 286.574219 C 177.75 288.824219 177.824219 288.695312 175.96875 289.199219 C 174.394531 289.632812 171.355469 289.78125 169.820312 289.519531 C 166.386719 288.917969 164.175781 286.988281 163.011719 283.574219 C 162.355469 281.644531 162.167969 277.820312 162.636719 275.625 C 163.460938 271.667969 166.105469 268.855469 169.761719 268.011719 C 171.523438 267.617188 174.488281 267.789062 176.34375 268.386719 Z M 155.980469 277.164062 C 157.78125 282.242188 159.488281 287.0625 159.769531 287.867188 L 160.3125 289.332031 L 157.742188 289.273438 L 155.175781 289.21875 L 154.445312 286.726562 L 153.695312 284.25 L 146.15625 284.25 L 144.65625 289.3125 L 142.179688 289.3125 C 140.8125 289.3125 139.6875 289.257812 139.6875 289.164062 C 139.6875 289.085938 141.355469 284.289062 143.382812 278.476562 L 147.09375 267.9375 L 152.738281 267.9375 Z M 196.667969 277.164062 C 198.46875 282.242188 200.175781 287.0625 200.457031 287.867188 L 201 289.332031 L 198.429688 289.273438 L 195.863281 289.21875 L 195.132812 286.726562 L 194.382812 284.25 L 186.84375 284.25 L 185.34375 289.3125 L 182.867188 289.3125 C 181.5 289.3125 180.375 289.257812 180.375 289.164062 C 180.375 289.085938 182.042969 284.289062 184.070312 278.476562 L 187.78125 267.9375 L 193.425781 267.9375 Z M 90.75 278.71875 L 90.75 289.3125 L 86.0625 289.3125 L 86.0625 268.125 L 90.75 268.125 Z M 130.125 270 L 130.125 271.875 L 124.3125 271.875 L 124.3125 289.3125 L 119.625 289.3125 L 119.625 271.875 L 114 271.875 L 114 268.125 L 130.125 268.125 Z M 214.273438 268.40625 C 217.800781 269.230469 220.445312 271.800781 221.34375 275.25 C 221.773438 276.84375 221.773438 280.144531 221.363281 281.886719 C 220.707031 284.644531 218.960938 286.894531 216.488281 288.09375 C 214.425781 289.125 213.148438 289.3125 208.273438 289.3125 L 204 289.3125 L 204 268.125 L 208.554688 268.125 C 211.894531 268.125 213.414062 268.199219 214.273438 268.40625 Z M 239.0625 270 L 239.0625 271.875 L 231.375 271.875 L 231.375 276.375 L 238.5 276.375 L 238.5 280.3125 L 231.375 280.3125 L 231.375 285.5625 L 239.0625 285.5625 L 239.0625 289.3125 L 226.6875 289.3125 L 226.6875 268.125 L 239.0625 268.125 Z M 252.636719 276 C 253.988281 280.332031 255.132812 283.820312 255.207031 283.742188 C 255.28125 283.648438 256.480469 280.125 257.851562 275.90625 L 260.363281 268.21875 L 263.585938 268.164062 L 266.8125 268.125 L 266.8125 289.3125 L 262.257812 289.3125 L 262.351562 281.304688 L 262.445312 273.300781 L 259.820312 281.304688 L 257.175781 289.3125 L 252.84375 289.3125 L 250.40625 281.363281 L 247.949219 273.394531 L 248.023438 281.363281 L 248.101562 289.3125 L 243.9375 289.3125 L 243.9375 268.125 L 250.21875 268.125 Z M 277.085938 272.382812 L 279.226562 276.636719 L 281.398438 272.382812 L 283.574219 268.125 L 286.070312 268.125 C 287.4375 268.125 288.5625 268.164062 288.5625 268.199219 C 288.5625 268.238281 287.007812 271.125 285.09375 274.648438 L 281.625 281.042969 L 281.625 289.3125 L 276.9375 289.3125 L 276.9375 281.25 L 273.542969 274.949219 C 271.6875 271.5 270.113281 268.539062 270.054688 268.386719 C 269.980469 268.164062 270.375 268.125 272.476562 268.125 L 274.96875 268.125 Z M 206.980469 301.257812 C 207.429688 302.398438 214.6875 321.957031 214.6875 322.03125 C 214.6875 322.085938 213.824219 322.125 212.773438 322.125 L 210.84375 322.125 L 209.8125 319.257812 L 208.78125 316.40625 L 204.804688 316.351562 L 200.851562 316.3125 L 200.550781 317.101562 C 200.382812 317.550781 199.914062 318.824219 199.519531 319.96875 L 198.789062 322.03125 L 196.875 322.085938 C 195.113281 322.125 194.960938 322.105469 195.039062 321.804688 C 195.113281 321.5625 201.542969 304.238281 202.707031 301.164062 C 202.855469 300.769531 202.96875 300.75 204.824219 300.75 L 206.773438 300.75 Z M 280.667969 301.257812 C 281.117188 302.398438 288.375 321.957031 288.375 322.03125 C 288.375 322.085938 287.511719 322.125 286.460938 322.125 L 284.53125 322.125 L 283.5 319.257812 L 282.46875 316.40625 L 278.492188 316.351562 L 274.539062 316.3125 L 274.238281 317.101562 C 274.070312 317.550781 273.601562 318.824219 273.207031 319.96875 L 272.476562 322.03125 L 270.5625 322.085938 C 268.800781 322.125 268.648438 322.105469 268.726562 321.804688 C 268.800781 321.5625 275.230469 304.238281 276.394531 301.164062 C 276.542969 300.769531 276.65625 300.75 278.511719 300.75 L 280.460938 300.75 Z M 89.851562 305.792969 L 89.90625 310.648438 L 98.117188 300.9375 L 100.164062 300.9375 C 101.269531 300.9375 102.1875 300.976562 102.1875 301.03125 C 102.1875 301.085938 100.425781 303.1875 98.289062 305.679688 L 94.367188 310.238281 L 97.273438 314.4375 C 98.867188 316.761719 100.707031 319.445312 101.363281 320.382812 L 102.5625 322.125 L 98.269531 322.125 L 95.023438 317.4375 C 93.242188 314.867188 91.742188 312.75 91.6875 312.75 C 91.632812 312.75 91.199219 313.085938 90.710938 313.519531 L 89.8125 314.289062 L 89.8125 322.125 L 86.0625 322.125 L 86.0625 300.9375 L 89.8125 300.9375 Z M 136.125 302.4375 L 136.125 303.9375 L 127.6875 303.9375 L 127.6875 309.5625 L 135.5625 309.5625 L 135.5625 312.5625 L 127.6875 312.5625 L 127.6875 319.125 L 136.125 319.125 L 136.125 322.125 L 123.9375 322.125 L 123.9375 300.9375 L 136.125 300.9375 Z M 170.082031 301.460938 C 171.636719 302.082031 172.519531 302.792969 173.15625 303.957031 C 173.605469 304.800781 173.71875 305.230469 173.773438 306.582031 C 173.90625 309.300781 173.023438 311.007812 170.886719 312.226562 C 170.023438 312.695312 169.914062 312.824219 170.0625 313.125 C 170.15625 313.3125 171.394531 315.261719 172.78125 317.4375 C 174.167969 319.613281 175.40625 321.5625 175.5 321.769531 C 175.6875 322.105469 175.613281 322.125 173.644531 322.125 L 171.582031 322.125 L 169.085938 317.945312 L 166.574219 313.78125 L 164.945312 313.726562 L 163.3125 313.667969 L 163.3125 322.125 L 159.5625 322.125 L 159.5625 300.898438 L 164.304688 300.976562 C 168.675781 301.03125 169.105469 301.070312 170.082031 301.460938 Z M 240 310.03125 L 240 319.125 L 249 319.125 L 249 322.125 L 236.25 322.125 L 236.25 300.9375 L 240 300.9375 Z M 240 310.03125 "
        fill-opacity="1" fill-rule="nonzero" />
    <path fill="#0099cc"
        d="M 61.875 69.5625 L 61.875 76.875 L 86.25 76.875 L 86.25 62.25 L 61.875 62.25 Z M 61.875 69.5625 "
        fill-opacity="1" fill-rule="nonzero" />
    <path fill="#0099cc"
        d="M 148.632812 276.132812 C 147.9375 278.457031 147.394531 280.386719 147.429688 280.445312 C 147.46875 280.480469 148.648438 280.480469 150.039062 280.460938 L 152.585938 280.40625 L 151.273438 276.1875 C 150.5625 273.882812 149.960938 271.96875 149.945312 271.949219 C 149.925781 271.914062 149.324219 273.804688 148.632812 276.132812 Z M 148.632812 276.132812 "
        fill-opacity="1" fill-rule="nonzero" />
    <path fill="#0099cc"
        d="M 189.320312 276.132812 C 188.625 278.457031 188.082031 280.386719 188.117188 280.445312 C 188.15625 280.480469 189.335938 280.480469 190.726562 280.460938 L 193.273438 280.40625 L 191.960938 276.1875 C 191.25 273.882812 190.648438 271.96875 190.632812 271.949219 C 190.613281 271.914062 190.011719 273.804688 189.320312 276.132812 Z M 189.320312 276.132812 "
        fill-opacity="1" fill-rule="nonzero" />
    <path fill="#0099cc"
        d="M 208.6875 278.71875 L 208.6875 285.617188 L 210.523438 285.507812 C 212.738281 285.375 213.84375 285.019531 214.929688 284.0625 C 216.429688 282.730469 217.179688 279.957031 216.769531 277.199219 C 216.226562 273.46875 214.648438 272.101562 210.710938 271.914062 L 208.6875 271.820312 Z M 208.6875 278.71875 "
        fill-opacity="1" fill-rule="nonzero" />
    <path fill="#0099cc"
        d="M 203.4375 308.605469 C 202.667969 310.914062 202.011719 312.863281 201.976562 312.957031 C 201.9375 313.050781 203.195312 313.125 204.84375 313.125 C 207.582031 313.125 207.789062 313.105469 207.65625 312.789062 C 207.582031 312.617188 206.925781 310.648438 206.175781 308.4375 L 204.84375 304.40625 Z M 203.4375 308.605469 "
        fill-opacity="1" fill-rule="nonzero" />
    <path fill="#0099cc"
        d="M 277.125 308.605469 C 276.355469 310.914062 275.699219 312.863281 275.664062 312.957031 C 275.625 313.050781 276.882812 313.125 278.53125 313.125 C 281.269531 313.125 281.476562 313.105469 281.34375 312.789062 C 281.269531 312.617188 280.613281 310.648438 279.863281 308.4375 L 278.53125 304.40625 Z M 277.125 308.605469 "
        fill-opacity="1" fill-rule="nonzero" />
    <path fill="#0099cc"
        d="M 163.3125 307.3125 L 163.3125 310.726562 L 165.429688 310.648438 C 167.117188 310.59375 167.699219 310.5 168.394531 310.164062 C 169.5 309.617188 170.0625 308.664062 170.0625 307.292969 C 170.0625 304.949219 168.863281 304.105469 165.429688 303.976562 L 163.3125 303.882812 Z M 163.3125 307.3125 "
        fill-opacity="1" fill-rule="nonzero" />
</svg>
